<svg width="18" height="18" viewBox="0 0 18 18" fill="none" xmlns="http://www.w3.org/2000/svg">
<path d="M8.75 11.375C9.47917 11.375 10.099 11.1198 10.6094 10.6094C11.1198 10.099 11.375 9.47917 11.375 8.75C11.375 8.02083 11.1198 7.40104 10.6094 6.89062C10.099 6.38021 9.47917 6.125 8.75 6.125C8.02083 6.125 7.40104 6.38021 6.89062 6.89062C6.38021 7.40104 6.125 8.02083 6.125 8.75C6.125 9.47917 6.38021 10.099 6.89062 10.6094C7.40104 11.1198 8.02083 11.375 8.75 11.375ZM8.75 17.5C7.53958 17.5 6.40208 17.2703 5.3375 16.8109C4.27292 16.3516 3.34687 15.7281 2.55937 14.9406C1.77187 14.1531 1.14844 13.2271 0.689063 12.1625C0.229687 11.0979 0 9.96042 0 8.75C0 7.53958 0.229687 6.40208 0.689063 5.3375C1.14844 4.27292 1.77187 3.34687 2.55937 2.55937C3.34687 1.77187 4.27292 1.14844 5.3375 0.689063C6.40208 0.229687 7.53958 0 8.75 0C9.96042 0 11.0979 0.229687 12.1625 0.689063C13.2271 1.14844 14.1531 1.77187 14.9406 2.55937C15.7281 3.34687 16.3516 4.27292 16.8109 5.3375C17.2703 6.40208 17.5 7.53958 17.5 8.75C17.5 9.96042 17.2703 11.0979 16.8109 12.1625C16.3516 13.2271 15.7281 14.1531 14.9406 14.9406C14.1531 15.7281 13.2271 16.3516 12.1625 16.8109C11.0979 17.2703 9.96042 17.5 8.75 17.5ZM8.75 15.75C10.7042 15.75 12.3594 15.0719 13.7156 13.7156C15.0719 12.3594 15.75 10.7042 15.75 8.75C15.75 6.79583 15.0719 5.14063 13.7156 3.78438C12.3594 2.42813 10.7042 1.75 8.75 1.75C6.79583 1.75 5.14063 2.42813 3.78438 3.78438C2.42813 5.14063 1.75 6.79583 1.75 8.75C1.75 10.7042 2.42813 12.3594 3.78438 13.7156C5.14063 15.0719 6.79583 15.75 8.75 15.75Z" fill="#D4B588"/>
</svg>
