<svg width="13" height="14" viewBox="0 0 13 14" fill="none" xmlns="http://www.w3.org/2000/svg">
<path d="M1.34947 13.4947C0.978364 13.4947 0.660677 13.3625 0.396406 13.0983C0.132135 12.834 0 12.5163 0 12.1452V2.69893C0 2.32783 0.132135 2.01014 0.396406 1.74587C0.660677 1.4816 0.978364 1.34947 1.34947 1.34947H2.0242V0H3.37367V1.34947H8.77154V0H10.121V1.34947H10.7957C11.1668 1.34947 11.4845 1.4816 11.7488 1.74587C12.0131 2.01014 12.1452 2.32783 12.1452 2.69893V7.00036L10.7957 8.34983V5.39787H1.34947V12.1452H5.53281L6.88228 13.4947H1.34947ZM9.14264 13.832L6.74734 11.4367L7.69196 10.4921L9.12577 11.9259L11.9934 9.0583L12.938 10.0198L9.14264 13.832Z" fill="#FFB449"/>
</svg>
