<svg width="17" height="18" viewBox="0 0 17 18" fill="none" xmlns="http://www.w3.org/2000/svg">
<path d="M1.75 17.5C1.26875 17.5 0.856771 17.3286 0.514063 16.9859C0.171354 16.6432 0 16.2313 0 15.75V3.5C0 3.01875 0.171354 2.60677 0.514063 2.26406C0.856771 1.92135 1.26875 1.75 1.75 1.75H2.625V0H4.375V1.75H11.375V0H13.125V1.75H14C14.4813 1.75 14.8932 1.92135 15.2359 2.26406C15.5786 2.60677 15.75 3.01875 15.75 3.5V9.07812L14 10.8281V7H1.75V15.75H7.175L8.925 17.5H1.75ZM11.8563 17.9375L8.75 14.8313L9.975 13.6063L11.8344 15.4656L15.5531 11.7469L16.7781 12.9938L11.8563 17.9375Z" fill="#D4B588"/>
</svg>
