<svg width="24" height="24" viewBox="0 0 24 24" fill="none" xmlns="http://www.w3.org/2000/svg">
<path d="M7.27875 14.7788C7.43417 14.3348 7.55719 13.8689 7.64781 13.3809C7.73844 12.893 7.78375 12.391 7.78375 11.875C7.78375 11.359 7.73844 10.857 7.64781 10.3691C7.55719 9.88115 7.43417 9.41521 7.27875 8.97125L5.54344 9.69219C5.64427 10.0353 5.73031 10.3907 5.80156 10.7584C5.87302 11.1261 5.90875 11.4983 5.90875 11.875C5.90875 12.2517 5.87302 12.6239 5.80156 12.9916C5.73031 13.3593 5.64427 13.7147 5.54344 14.0578L7.27875 14.7788ZM11.3028 16.4663C11.6059 15.7394 11.8244 14.9934 11.9581 14.2284C12.0919 13.4632 12.1588 12.679 12.1588 11.8756C12.1588 11.0723 12.0919 10.2879 11.9581 9.5225C11.8244 8.75708 11.6059 8.01083 11.3028 7.28375L9.5675 7.98094C9.81896 8.58177 10.0011 9.20875 10.1141 9.86188C10.2272 10.5148 10.2838 11.1858 10.2838 11.875C10.2838 12.5642 10.2272 13.2352 10.1141 13.8881C10.0011 14.5413 9.81896 15.1682 9.5675 15.7691L11.3028 16.4663ZM15.3653 18.1538C15.7547 17.1733 16.0468 16.1586 16.2416 15.1097C16.4364 14.0605 16.5338 12.9823 16.5338 11.875C16.5338 10.7677 16.4364 9.68948 16.2416 8.64031C16.0468 7.59135 15.7547 6.57667 15.3653 5.59625L13.63 6.35594C13.9729 7.20448 14.2301 8.09354 14.4016 9.02312C14.573 9.9525 14.6588 10.9022 14.6588 11.8722C14.6588 12.842 14.573 13.7923 14.4016 14.7231C14.2301 15.654 13.9729 16.5443 13.63 17.3941L15.3653 18.1538ZM11.8772 23.75C10.2347 23.75 8.69083 23.4383 7.24562 22.815C5.80042 22.1917 4.54333 21.3457 3.47437 20.2772C2.40542 19.2086 1.55906 17.9521 0.935312 16.5075C0.311771 15.0629 0 13.5195 0 11.8772C0 10.2347 0.311667 8.69083 0.935 7.24562C1.55833 5.80042 2.40427 4.54333 3.47281 3.47437C4.54135 2.40542 5.79792 1.55906 7.2425 0.935312C8.68708 0.311771 10.2305 0 11.8728 0C13.5153 0 15.0592 0.311666 16.5044 0.935C17.9496 1.55833 19.2067 2.40427 20.2756 3.47281C21.3446 4.54135 22.1909 5.79792 22.8147 7.2425C23.4382 8.68708 23.75 10.2305 23.75 11.8728C23.75 13.5153 23.4383 15.0592 22.815 16.5044C22.1917 17.9496 21.3457 19.2067 20.2772 20.2756C19.2086 21.3446 17.9521 22.1909 16.5075 22.8147C15.0629 23.4382 13.5195 23.75 11.8772 23.75ZM11.875 21.875C14.6667 21.875 17.0312 20.9062 18.9688 18.9688C20.9062 17.0312 21.875 14.6667 21.875 11.875C21.875 9.08333 20.9062 6.71875 18.9688 4.78125C17.0312 2.84375 14.6667 1.875 11.875 1.875C9.08333 1.875 6.71875 2.84375 4.78125 4.78125C2.84375 6.71875 1.875 9.08333 1.875 11.875C1.875 14.6667 2.84375 17.0312 4.78125 18.9688C6.71875 20.9062 9.08333 21.875 11.875 21.875Z" fill="#FFEFD8"/>
</svg>
