<svg width="20" height="19" viewBox="0 0 20 19" fill="none" xmlns="http://www.w3.org/2000/svg">
<path d="M9.93808 18.2364L8.49706 16.9444C6.82415 15.4372 5.4411 14.1369 4.34791 13.0437C3.25472 11.9505 2.38514 10.9692 1.73916 10.0996C1.09319 9.22999 0.641834 8.43081 0.385101 7.70201C0.128367 6.97322 0 6.22786 0 5.46594C0 3.90898 0.521749 2.60875 1.56525 1.56525C2.60875 0.521749 3.90898 0 5.46594 0C6.32724 0 7.14714 0.182198 7.92562 0.546594C8.7041 0.910991 9.37492 1.42446 9.93808 2.087C10.5012 1.42446 11.1721 0.910991 11.9505 0.546594C12.729 0.182198 13.5489 0 14.4102 0C15.9672 0 17.2674 0.521749 18.3109 1.56525C19.3544 2.60875 19.8762 3.90898 19.8762 5.46594C19.8762 6.22786 19.7478 6.97322 19.4911 7.70201C19.2343 8.43081 18.783 9.22999 18.137 10.0996C17.491 10.9692 16.6214 11.9505 15.5283 13.0437C14.4351 14.1369 13.052 15.4372 11.3791 16.9444L9.93808 18.2364Z" fill="#D4B588"/>
</svg>
