<svg width="59" height="59" viewBox="0 0 59 59" fill="none" xmlns="http://www.w3.org/2000/svg">
<path d="M6.5625 47.3958C4.71528 45.2083 3.23264 42.8021 2.11458 40.1771C0.996528 37.5521 0.291667 34.8056 0 31.9375H5.97917C6.27083 34.0278 6.80556 36.033 7.58333 37.9531C8.36111 39.8733 9.38194 41.6597 10.6458 43.3125L6.5625 47.3958ZM0 26.1042C0.388889 23.2361 1.11806 20.4896 2.1875 17.8646C3.25694 15.2396 4.71528 12.8333 6.5625 10.6458L10.6458 14.7292C9.38194 16.3819 8.36111 18.1684 7.58333 20.0885C6.80556 22.0087 6.27083 24.0139 5.97917 26.1042H0ZM26.1042 58.0417C23.2361 57.75 20.5017 57.0573 17.901 55.9635C15.3003 54.8698 12.8819 53.4236 10.6458 51.625L14.7292 47.3958C16.4306 48.6597 18.2292 49.7049 20.125 50.5312C22.0208 51.3576 24.0139 51.9167 26.1042 52.2083V58.0417ZM14.875 10.6458L10.6458 6.41667C12.9306 4.61806 15.3854 3.17187 18.0104 2.07812C20.6354 0.984375 23.3819 0.291667 26.25 0V5.83333C24.1597 6.125 22.1545 6.68403 20.2344 7.51042C18.3142 8.33681 16.5278 9.38194 14.875 10.6458ZM29.1667 37.7708C26.7361 37.7708 24.6701 36.9201 22.9687 35.2187C21.2674 33.5174 20.4167 31.4514 20.4167 29.0208C20.4167 26.5903 21.2674 24.5243 22.9687 22.8229C24.6701 21.1215 26.7361 20.2708 29.1667 20.2708C31.5972 20.2708 33.6632 21.1215 35.3646 22.8229C37.066 24.5243 37.9167 26.5903 37.9167 29.0208C37.9167 31.4514 37.066 33.5174 35.3646 35.2187C33.6632 36.9201 31.5972 37.7708 29.1667 37.7708ZM31.9375 58.0417V52.2083C34.0764 51.9167 36.1059 51.3698 38.026 50.5677C39.9462 49.7656 41.7569 48.7083 43.4583 47.3958L47.6875 51.625C45.4028 53.4722 42.9358 54.9306 40.2865 56C37.6372 57.0694 34.8542 57.75 31.9375 58.0417ZM43.6042 10.6458C41.9028 9.38194 40.0799 8.33681 38.1354 7.51042C36.191 6.68403 34.1736 6.125 32.0833 5.83333V0C34.9514 0.291667 37.7101 0.984375 40.3594 2.07812C43.0087 3.17187 45.4514 4.61806 47.6875 6.41667L43.6042 10.6458ZM51.7708 47.3958L47.6875 43.3125C48.9514 41.6597 49.9722 39.8733 50.75 37.9531C51.5278 36.033 52.0625 34.0278 52.3542 31.9375H58.3333C57.9444 34.8056 57.2153 37.5521 56.1458 40.1771C55.0764 42.8021 53.6181 45.2083 51.7708 47.3958ZM52.3542 26.1042C52.0625 24.0139 51.5278 22.0087 50.75 20.0885C49.9722 18.1684 48.9514 16.3819 47.6875 14.7292L51.7708 10.6458C53.6181 12.8333 55.1007 15.2396 56.2187 17.8646C57.3368 20.4896 58.0417 23.2361 58.3333 26.1042H52.3542Z" fill="#D4B588"/>
</svg>
