<svg width="23" height="23" viewBox="0 0 23 23" fill="none" xmlns="http://www.w3.org/2000/svg">
<path d="M15.0361 2.82665C14.6957 2.82665 14.407 2.70919 14.17 2.47426C13.933 2.23913 13.8145 1.95139 13.8145 1.61105C13.8145 1.2705 13.9321 0.981719 14.1672 0.744699C14.4021 0.507887 14.6899 0.389482 15.0304 0.389482C15.3707 0.389482 15.6594 0.506943 15.8964 0.741869C16.1335 0.977003 16.252 1.26474 16.252 1.60508C16.252 1.94563 16.1344 2.23441 15.8993 2.47143C15.6643 2.70824 15.3766 2.82665 15.0361 2.82665ZM14.9999 22.4953C14.6594 22.4953 14.3707 22.3778 14.1339 22.1429C13.8968 21.9078 13.7783 21.62 13.7783 21.2797C13.7783 20.9392 13.8958 20.6504 14.1307 20.4134C14.3659 20.1765 14.6537 20.0581 14.9942 20.0581C15.3346 20.0581 15.6233 20.1756 15.8603 20.4105C16.0971 20.6457 16.2155 20.9334 16.2155 21.2737C16.2155 21.6143 16.098 21.9031 15.8631 22.1401C15.628 22.3769 15.3402 22.4953 14.9999 22.4953ZM20.281 7.20839C19.9405 7.20839 19.6518 7.09083 19.415 6.85569C19.1779 6.62056 19.0594 6.33282 19.0594 5.99248C19.0594 5.65214 19.1769 5.36346 19.4118 5.12644C19.647 4.88942 19.9348 4.77091 20.2754 4.77091C20.6157 4.77091 20.9044 4.88848 21.1414 5.12361C21.3782 5.35854 21.4966 5.64628 21.4966 5.98682C21.4966 6.32716 21.3791 6.61584 21.1442 6.85286C20.9091 7.08988 20.6213 7.20839 20.281 7.20839ZM20.2445 18.15C19.9042 18.15 19.6155 18.0326 19.3785 17.7976C19.1415 17.5625 19.023 17.2748 19.023 16.9344C19.023 16.5939 19.1405 16.3051 19.3757 16.0681C19.6108 15.8313 19.8986 15.7129 20.2389 15.7129C20.5794 15.7129 20.8681 15.8303 21.1049 16.0652C21.3419 16.3004 21.4605 16.5881 21.4605 16.9285C21.4605 17.269 21.3429 17.5578 21.1078 17.7948C20.8728 18.0316 20.5851 18.15 20.2445 18.15ZM21.6689 12.6611C21.3285 12.6611 21.0399 12.5436 20.8028 12.3084C20.5658 12.0735 20.4473 11.7858 20.4473 11.4452C20.4473 11.1049 20.5649 10.8162 20.8 10.5792C21.0349 10.3422 21.3227 10.2236 21.6632 10.2236C22.0036 10.2236 22.2922 10.3412 22.5293 10.5764C22.7663 10.8113 22.8848 11.099 22.8848 11.4396C22.8848 11.7799 22.7672 12.0686 22.5321 12.3056C22.2972 12.5426 22.0094 12.6611 21.6689 12.6611ZM11.4424 22.8848C9.8677 22.8848 8.38679 22.587 6.99966 21.9914C5.61274 21.3958 4.39736 20.5763 3.3535 19.5329C2.30964 18.4894 1.48971 17.273 0.893701 15.8835C0.2979 14.4943 0 13.0099 0 11.4301C0 9.85041 0.2979 8.37034 0.893701 6.98992C1.48929 5.6095 2.30891 4.39736 3.35256 3.3535C4.3962 2.30964 5.61128 1.48971 6.99778 0.893701C8.38428 0.2979 9.86581 0 11.4424 0V1.63463C8.71801 1.63463 6.40229 2.58816 4.49522 4.49522C2.58816 6.40229 1.63463 8.71801 1.63463 11.4424C1.63463 14.1668 2.58816 16.4825 4.49522 18.3896C6.40229 20.2966 8.71801 21.2502 11.4424 21.2502V22.8848ZM15.6547 16.339L10.6251 11.3094V4.21231H12.2597V10.6323L16.8106 15.1832L15.6547 16.339Z" fill="#FFEFD8"/>
</svg>
