<svg width="24" height="24" viewBox="0 0 24 24" fill="none" xmlns="http://www.w3.org/2000/svg">
<mask id="mask0_496_1539" style="mask-type:alpha" maskUnits="userSpaceOnUse" x="0" y="0" width="24" height="24">
<rect width="24" height="24" fill="#D9D9D9"/>
</mask>
<g mask="url(#mask0_496_1539)">
<path d="M11.8452 21.9377C11.2986 21.9377 10.8306 21.7431 10.4414 21.3538C10.0522 20.9646 9.85755 20.4967 9.85755 19.9501H13.8328C13.8328 20.4967 13.6382 20.9646 13.2489 21.3538C12.8597 21.7431 12.3918 21.9377 11.8452 21.9377ZM7.86993 18.9563V16.9686H15.8204V18.9563H7.86993ZM8.11838 15.9748C6.9755 15.2957 6.06865 14.3847 5.39783 13.2419C4.72701 12.099 4.3916 10.8567 4.3916 9.51508C4.3916 7.44465 5.11625 5.68478 6.56556 4.23548C8.01486 2.78618 9.77473 2.06152 11.8452 2.06152C13.9156 2.06152 15.6755 2.78618 17.1248 4.23548C18.5741 5.68478 19.2987 7.44465 19.2987 9.51508C19.2987 10.8567 18.9633 12.099 18.2925 13.2419C17.6217 14.3847 16.7148 15.2957 15.5719 15.9748H8.11838Z" fill="#D4B588"/>
</g>
</svg>
