<svg width="19" height="21" viewBox="0 0 19 21" fill="none" xmlns="http://www.w3.org/2000/svg">
<path d="M7.95046 13.6H9.93808L10.0872 12.2923C10.2197 12.24 10.3397 12.179 10.4474 12.1092C10.5551 12.0395 10.6503 11.961 10.7331 11.8738L11.876 12.3969L12.8698 10.6185L11.876 9.83385C11.9091 9.69436 11.9257 9.55487 11.9257 9.41538C11.9257 9.2759 11.9091 9.13641 11.876 8.99692L12.8698 8.21231L11.876 6.43385L10.7331 6.95692C10.6503 6.86974 10.5551 6.79128 10.4474 6.72154C10.3397 6.65179 10.2197 6.59077 10.0872 6.53846L9.93808 5.23077H7.95046L7.80139 6.53846C7.66889 6.59077 7.5488 6.65179 7.44114 6.72154C7.33348 6.79128 7.23824 6.86974 7.15542 6.95692L6.01254 6.43385L5.01873 8.21231L6.01254 8.99692C5.97941 9.13641 5.96285 9.2759 5.96285 9.41538C5.96285 9.55487 5.97941 9.69436 6.01254 9.83385L5.01873 10.6185L6.01254 12.3969L7.15542 11.8738C7.23824 11.961 7.33348 12.0395 7.44114 12.1092C7.5488 12.179 7.66889 12.24 7.80139 12.2923L7.95046 13.6ZM8.94427 10.9846C8.53019 10.9846 8.17821 10.8321 7.88835 10.5269C7.59849 10.2218 7.45356 9.85128 7.45356 9.41538C7.45356 8.97949 7.59849 8.60897 7.88835 8.30385C8.17821 7.99872 8.53019 7.84615 8.94427 7.84615C9.35836 7.84615 9.71033 7.99872 10.0002 8.30385C10.2901 8.60897 10.435 8.97949 10.435 9.41538C10.435 9.85128 10.2901 10.2218 10.0002 10.5269C9.71033 10.8321 9.35836 10.9846 8.94427 10.9846ZM2.98142 20.9231V16.4246C2.03731 15.5179 1.30437 14.4587 0.782624 13.2469C0.260875 12.0351 0 10.7579 0 9.41538C0 6.8 0.869582 4.57692 2.60875 2.74615C4.34791 0.915385 6.45975 0 8.94427 0C11.0147 0 12.8491 0.640769 14.4475 1.92231C16.0459 3.20385 17.0852 4.87333 17.5656 6.93077L18.8575 12.2923C18.9403 12.6236 18.8824 12.9244 18.6836 13.1946C18.4848 13.4649 18.2198 13.6 17.8885 13.6H15.9009V16.7385C15.9009 17.3138 15.7063 17.8064 15.3171 18.2162C14.9278 18.6259 14.4599 18.8308 13.9133 18.8308H11.9257V20.9231H2.98142Z" fill="#D4B588"/>
</svg>
