<svg width="25" height="23" viewBox="0 0 25 23" fill="none" xmlns="http://www.w3.org/2000/svg">
<path d="M23.3333 19.4833L19.8333 15.9833L21.4667 14.35L24.9667 17.85L23.3333 19.4833ZM19.1333 5.48333L17.5 3.85L21 0.35L22.6333 1.98333L19.1333 5.48333ZM5.83333 5.48333L2.33333 1.98333L3.96667 0.35L7.46667 3.85L5.83333 5.48333ZM1.63333 19.4833L0 17.85L3.5 14.35L5.13333 15.9833L1.63333 19.4833ZM8.80833 17.2958L12.4833 15.0792L16.1583 17.325L15.1958 13.125L18.4333 10.325L14.175 9.94583L12.4833 5.97917L10.7917 9.91667L6.53333 10.2958L9.77083 13.125L8.80833 17.2958ZM5.27917 22.1667L7.175 13.9708L0.816667 8.45833L9.21667 7.72917L12.4833 0L15.75 7.72917L24.15 8.45833L17.7917 13.9708L19.6875 22.1667L12.4833 17.8208L5.27917 22.1667Z" fill="#D4B588"/>
</svg>
