<svg width="22" height="22" viewBox="0 0 22 22" fill="none" xmlns="http://www.w3.org/2000/svg">
<path d="M18.636 21.5326L15.439 18.3628L13.0343 20.7674L12.2692 20.0023C11.8502 19.5833 11.6407 19.0641 11.6407 18.4448C11.6407 17.8254 11.8502 17.3062 12.2692 16.8872L16.8872 12.2692C17.3062 11.8502 17.8254 11.6407 18.4448 11.6407C19.0641 11.6407 19.5833 11.8502 20.0023 12.2692L20.7674 13.0343L18.3628 15.439L21.5326 18.636C21.7512 18.8546 21.8605 19.1097 21.8605 19.4012C21.8605 19.6926 21.7512 19.9477 21.5326 20.1663L20.1663 21.5326C19.9477 21.7512 19.6926 21.8605 19.4012 21.8605C19.1097 21.8605 18.8546 21.7512 18.636 21.5326ZM21.8605 4.37209L9.45465 16.7779L9.59128 16.8872C10.0103 17.3062 10.2198 17.8254 10.2198 18.4448C10.2198 19.0641 10.0103 19.5833 9.59128 20.0023L8.82616 20.7674L6.42151 18.3628L3.22442 21.5326C3.00581 21.7512 2.75077 21.8605 2.4593 21.8605C2.16783 21.8605 1.91279 21.7512 1.69419 21.5326L0.327907 20.1663C0.109302 19.9477 0 19.6926 0 19.4012C0 19.1097 0.109302 18.8546 0.327907 18.636L3.49767 15.439L1.09302 13.0343L1.85814 12.2692C2.27713 11.8502 2.79632 11.6407 3.4157 11.6407C4.03508 11.6407 4.55426 11.8502 4.97326 12.2692L5.08256 12.4058L17.4884 0H21.8605V4.37209ZM5.41046 9.78256L0 4.37209V0H4.37209L9.78256 5.41046L8.225 6.9407L3.47035 2.18605H2.18605V3.47035L6.9407 8.225L5.41046 9.78256ZM7.92442 15.2203L19.6744 3.47035V2.18605H18.3901L6.64012 13.936L7.92442 15.2203Z" fill="#D4B588"/>
</svg>
