<svg width="18" height="16" viewBox="0 0 18 16" fill="none" xmlns="http://www.w3.org/2000/svg">
<path d="M2.64307 15.3404V13.7057H11.7929C12.8328 13.7057 13.7053 13.3248 14.4105 12.5631C15.1159 11.8015 15.4686 10.8887 15.4686 9.82474C15.4686 8.76077 15.1159 7.84988 14.4105 7.09208C13.7053 6.3345 12.8328 5.9557 11.7929 5.9557H3.15326L6.3062 9.10896L5.13839 10.2768L0 5.13839L5.13839 0L6.3062 1.16782L3.15326 4.32108H11.7929C13.276 4.32108 14.5318 4.86155 15.5604 5.9425C16.589 7.02345 17.1032 8.31753 17.1032 9.82474C17.1032 11.332 16.589 12.628 15.5604 13.713C14.5318 14.7979 13.276 15.3404 11.7929 15.3404H2.64307Z" fill="#FFEFD8"/>
</svg>
