<svg width="53" height="48" viewBox="0 0 53 48" fill="none" xmlns="http://www.w3.org/2000/svg">
<path d="M0 47.2822L26.4187 0L52.8375 47.2822H0ZM26.4187 39.8166C27.0992 39.8166 27.6696 39.5781 28.1299 39.1012C28.5903 38.6242 28.8204 38.0332 28.8204 37.3281C28.8204 36.623 28.5903 36.032 28.1299 35.555C27.6696 35.078 27.0992 34.8395 26.4187 34.8395C25.7382 34.8395 25.1678 35.078 24.7075 35.555C24.2472 36.032 24.017 36.623 24.017 37.3281C24.017 38.0332 24.2472 38.6242 24.7075 39.1012C25.1678 39.5781 25.7382 39.8166 26.4187 39.8166ZM24.017 32.351H28.8204V19.9083H24.017V32.351Z" fill="#FF9500"/>
</svg>
