<svg width="86" height="43" viewBox="0 0 86 43" fill="none" xmlns="http://www.w3.org/2000/svg">
<g id="Group 11 2">
<path id="Vector" d="M40.1221 34.549L42.7418 8.79248H50.0892C51.1532 8.79248 52.0867 8.84945 52.8896 8.96336C53.7026 9.07727 54.4605 9.28959 55.1632 9.60028C55.8757 9.90061 56.4428 10.3045 56.8644 10.812C57.2859 11.3091 57.5972 11.9616 57.7978 12.7694C57.9183 13.2872 57.9836 13.8568 57.9937 14.4782C57.9937 14.8303 57.9735 15.2031 57.9335 15.5967C57.7728 17.2537 57.3813 18.6104 56.7591 19.6668C56.1467 20.7231 55.1981 21.5724 53.9134 22.2144L56.503 34.549H50.4505L48.6137 23.1465H47.3039L46.1445 34.549H40.1221ZM47.6501 19.7134H49.201C50.2248 19.7134 50.9675 19.413 51.4293 18.8124C51.9009 18.2117 52.1919 17.3573 52.3025 16.2491C52.3326 15.9591 52.3476 15.6899 52.3476 15.4413C52.3476 14.7371 52.2322 14.1778 52.0014 13.7636C51.6902 13.1836 51.093 12.8936 50.2096 12.8936H48.3427L47.6501 19.7134ZM57.0619 34.549L59.6817 8.79248H71.29L70.8684 12.9713H65.2676L64.6803 18.8124H68.8658L68.4291 23.1155H64.2437L63.5059 30.4011H69.1669L68.7302 34.549H57.0619ZM72.3757 34.549L70.7496 8.79248H75.8085L76.4408 25.8806L80.3703 8.79248H85.8057L78.8647 34.549H72.3757Z" fill="white"/>
<g id="Mask group">
<mask id="mask0_352_12021" style="mask-type:alpha" maskUnits="userSpaceOnUse" x="0" y="4" width="45" height="35">
<g id="Group">
<path id="Vector_2" d="M44.8067 4.22559H0V38.5262H44.8067V4.22559Z" fill="#D9D9D9"/>
</g>
</mask>
<g mask="url(#mask0_352_12021)">
<g id="Group_2">
<path id="Vector_3" d="M12.4065 34.4872H6.80566V31.6288H12.4065V34.4872ZM21.7412 34.4872H16.1404V31.6288H21.7412V34.4872ZM31.076 34.4872H25.4751V31.6288H31.076V34.4872ZM37.1148 34.4872H34.8099V31.6288H37.4144L37.1148 34.4872ZM40.4107 34.4872H40.126L40.4107 31.7727V34.4872ZM21.7412 28.7704H6.80566V25.912H21.7412V28.7704ZM37.7146 28.7704H25.4751V25.912H38.0143L37.7146 28.7704ZM38.3142 23.0536H6.80566V20.1952H38.6139L38.3142 23.0536ZM21.7412 17.3369H6.80566V14.4785H21.7412V17.3369ZM38.9138 17.3369H25.4751V14.4785H39.2135L38.9138 17.3369ZM12.4065 11.6201H6.80566V8.76172H12.4065V11.6201ZM21.7412 11.6201H16.1404V8.76172H21.7412V11.6201ZM31.076 11.6201H25.4751V8.76172H31.076V11.6201ZM39.5131 11.6201H34.8099V8.76172H39.8133L39.5131 11.6201Z" fill="white"/>
</g>
</g>
</g>
</g>
</svg>
