<svg width="108" height="53" viewBox="0 0 108 53" fill="none" xmlns="http://www.w3.org/2000/svg">
<g id="Subtract" filter="url(#filter0_dd_352_12059)">
<path d="M86 8.5C94.8366 8.5 102 15.6634 102 24.5V28.5C102 37.3366 94.8366 44.5 86 44.5H22C13.1634 44.5 6 37.3366 6 28.5V24.5C6 15.6634 13.1634 8.5 22 8.5H86ZM96.6748 39.0352C96.7078 39.0017 96.7408 38.9683 96.7734 38.9346C96.7408 38.9683 96.7078 39.0017 96.6748 39.0352ZM31.8545 16.5C31.1253 16.5 30.5084 16.7514 30.0049 17.2549C29.5014 17.7584 29.25 18.3753 29.25 19.1045H25.083C24.5104 19.1046 24.0201 19.3081 23.6123 19.7158C23.2043 20.1238 23 20.6146 23 21.1875V25.1455C23.8333 25.1455 24.5625 25.4109 25.1875 25.9404C25.8123 26.4699 26.1249 27.1423 26.125 27.958C26.125 28.774 25.8125 29.447 25.1875 29.9766C24.5625 30.5061 23.8333 30.7705 23 30.7705V34.7295C23.0001 35.3023 23.2044 35.7923 23.6123 36.2002C24.0202 36.6081 24.5102 36.8124 25.083 36.8125H29.042C29.042 35.9444 29.3154 35.2063 29.8623 34.5986C30.4091 33.9912 31.0734 33.6875 31.8545 33.6875C32.6356 33.6876 33.2999 33.9911 33.8467 34.5986C34.3936 35.2063 34.667 35.9444 34.667 36.8125H38.625C39.1979 36.8125 39.6887 36.6082 40.0967 36.2002C40.5044 35.7924 40.7079 35.3021 40.708 34.7295V30.5625C41.4372 30.5625 42.0541 30.3111 42.5576 29.8076C43.0611 29.3041 43.3125 28.6872 43.3125 27.958C43.3124 27.2291 43.0609 26.6127 42.5576 26.1094C42.0541 25.6059 41.4372 25.3545 40.708 25.3545V21.1875C40.708 20.6146 40.5047 20.1238 40.0967 19.7158C39.6887 19.3078 39.1979 19.1045 38.625 19.1045H34.458C34.458 18.3753 34.2066 17.7584 33.7031 17.2549C33.1998 16.7516 32.5834 16.5001 31.8545 16.5ZM101 24.5C101 24.331 100.996 24.1627 100.99 23.9951C100.996 24.1627 101 24.331 101 24.5ZM7.02539 23.626C7.01665 23.7777 7.01005 23.9301 7.00586 24.083C7.01004 23.9301 7.01664 23.7777 7.02539 23.626ZM7.0752 22.9902C7.05994 23.1429 7.04777 23.2962 7.03711 23.4502C7.04779 23.2962 7.05994 23.1429 7.0752 22.9902Z" fill="white"/>
</g>
<defs>
<filter id="filter0_dd_352_12059" x="0" y="0.5" width="108" height="52" filterUnits="userSpaceOnUse" color-interpolation-filters="sRGB">
<feFlood flood-opacity="0" result="BackgroundImageFix"/>
<feColorMatrix in="SourceAlpha" type="matrix" values="0 0 0 0 0 0 0 0 0 0 0 0 0 0 0 0 0 0 127 0" result="hardAlpha"/>
<feOffset dy="2"/>
<feGaussianBlur stdDeviation="3"/>
<feComposite in2="hardAlpha" operator="out"/>
<feColorMatrix type="matrix" values="0 0 0 0 1 0 0 0 0 0.383333 0 0 0 0 0 0 0 0 0.05 0"/>
<feBlend mode="normal" in2="BackgroundImageFix" result="effect1_dropShadow_352_12059"/>
<feColorMatrix in="SourceAlpha" type="matrix" values="0 0 0 0 0 0 0 0 0 0 0 0 0 0 0 0 0 0 127 0" result="hardAlpha"/>
<feOffset dy="-4"/>
<feGaussianBlur stdDeviation="2"/>
<feComposite in2="hardAlpha" operator="out"/>
<feColorMatrix type="matrix" values="0 0 0 0 1 0 0 0 0 0.583333 0 0 0 0 0 0 0 0 0.25 0"/>
<feBlend mode="normal" in2="effect1_dropShadow_352_12059" result="effect2_dropShadow_352_12059"/>
<feBlend mode="normal" in="SourceGraphic" in2="effect2_dropShadow_352_12059" result="shape"/>
</filter>
</defs>
</svg>
