<svg width="90" height="33" viewBox="0 0 90 33" fill="none" xmlns="http://www.w3.org/2000/svg">
<path d="M73.1455 0C81.9916 0 89.1454 7.28449 89.1455 16.1113C89.1454 24.9382 81.9916 32.2227 73.1455 32.2227H16C7.1541 32.2225 0.000117481 24.9381 0 16.1113C0.00011722 7.2846 7.15409 0.000178662 16 0H73.1455ZM24.042 5.51172C23.3662 5.51178 22.7948 5.73013 22.3281 6.16699C21.8615 6.60387 21.628 7.1388 21.6279 7.77148H17.7656C17.2346 7.77148 16.7796 7.94881 16.4014 8.30273C16.0231 8.65683 15.834 9.08284 15.834 9.58008V13.0156C16.6064 13.0157 17.282 13.2456 17.8613 13.7051C18.4407 14.1646 18.7304 14.748 18.7305 15.4561C18.7305 16.1642 18.4408 16.7484 17.8613 17.208C17.282 17.6674 16.6063 17.8974 15.834 17.8975V21.333C15.834 21.8301 16.0232 22.2553 16.4014 22.6094C16.7796 22.9635 17.2345 23.1406 17.7656 23.1406H21.4346C21.4346 22.3874 21.6884 21.747 22.1953 21.2197C22.7022 20.6924 23.3178 20.4288 24.042 20.4287C24.7663 20.4287 25.3826 20.6924 25.8896 21.2197C26.3965 21.747 26.6493 22.3875 26.6494 23.1406H30.3193C30.8505 23.1406 31.3054 22.9635 31.6836 22.6094C32.0616 22.2554 32.2509 21.83 32.251 21.333V17.7168C32.9268 17.7168 33.4982 17.4983 33.9648 17.0615C34.4316 16.6246 34.665 16.0889 34.665 15.4561C34.665 14.8234 34.4315 14.2884 33.9648 13.8516C33.4981 13.4147 32.9269 13.1963 32.251 13.1963V9.58008C32.251 9.08284 32.0618 8.65683 31.6836 8.30273C31.3054 7.94869 30.8504 7.77148 30.3193 7.77148H26.457C26.4569 7.13887 26.2234 6.60385 25.7568 6.16699C25.2901 5.73003 24.718 5.51172 24.042 5.51172Z" fill="white"/>
</svg>
