<svg width="65" height="65" viewBox="0 0 65 65" fill="none" xmlns="http://www.w3.org/2000/svg">
<path d="M32.0833 64.1667C27.6451 64.1667 23.4743 63.3245 19.5708 61.6401C15.6674 59.9557 12.2719 57.6698 9.38437 54.7823C6.49687 51.8948 4.21094 48.4993 2.52656 44.5958C0.842187 40.6924 0 36.5215 0 32.0833C0 27.6451 0.842187 23.4743 2.52656 19.5708C4.21094 15.6674 6.49687 12.2719 9.38437 9.38437C12.2719 6.49687 15.6674 4.21094 19.5708 2.52656C23.4743 0.842187 27.6451 0 32.0833 0C38.5 0 44.3552 1.75122 49.649 5.25365C54.9427 8.75608 58.8729 13.4215 61.4396 19.25H51.3333V57.75C48.4993 59.7819 45.4514 61.3594 42.1896 62.4823C38.9278 63.6052 35.559 64.1667 32.0833 64.1667ZM32.0833 46.5208C36.0937 46.5208 39.5026 45.1172 42.3099 42.3099C45.1172 39.5026 46.5208 36.0937 46.5208 32.0833C46.5208 28.0729 45.1172 24.6641 42.3099 21.8568C39.5026 19.0495 36.0937 17.6458 32.0833 17.6458C28.0729 17.6458 24.6641 19.0495 21.8568 21.8568C19.0495 24.6641 17.6458 28.0729 17.6458 32.0833C17.6458 36.0937 19.0495 39.5026 21.8568 42.3099C24.6641 45.1172 28.0729 46.5208 32.0833 46.5208ZM32.0833 35.2917C31.1743 35.2917 30.4123 34.9842 29.7974 34.3693C29.1825 33.7543 28.875 32.9924 28.875 32.0833C28.875 31.1743 29.1825 30.4123 29.7974 29.7974C30.4123 29.1825 31.1743 28.875 32.0833 28.875C32.9924 28.875 33.7543 29.1825 34.3693 29.7974C34.9842 30.4123 35.2917 31.1743 35.2917 32.0833C35.2917 32.9924 34.9842 33.7543 34.3693 34.3693C33.7543 34.9842 32.9924 35.2917 32.0833 35.2917ZM60.9583 64.1667C60.0493 64.1667 59.2873 63.8592 58.6724 63.2443C58.0575 62.6293 57.75 61.8674 57.75 60.9583C57.75 60.0493 58.0575 59.2873 58.6724 58.6724C59.2873 58.0575 60.0493 57.75 60.9583 57.75C61.8674 57.75 62.6293 58.0575 63.2443 58.6724C63.8592 59.2873 64.1667 60.0493 64.1667 60.9583C64.1667 61.8674 63.8592 62.6293 63.2443 63.2443C62.6293 63.8592 61.8674 64.1667 60.9583 64.1667ZM57.75 51.3333V25.6667H64.1667V51.3333H57.75Z" fill="#D4B588"/>
</svg>
