<svg width="55" height="55" viewBox="0 0 55 55" fill="none" xmlns="http://www.w3.org/2000/svg">
<path d="M26.4687 54.621C24.7042 54.621 22.9262 54.4205 21.1349 54.0194C19.3436 53.6184 17.5122 53.0435 15.6406 52.2949C16.2823 45.8248 18.1538 39.7824 21.2552 34.1679C24.3566 28.5533 28.3403 23.6071 33.2063 19.3293C27.3243 22.3238 22.2311 26.2807 17.9266 31.2001C13.622 36.1196 10.6142 41.7342 8.90313 48.0439C8.68924 47.8835 8.48872 47.7097 8.30156 47.5225L7.7 46.921C5.18681 44.4078 3.27517 41.6005 1.9651 38.4991C0.655035 35.3977 0 32.1626 0 28.7939C0 25.1578 0.721875 21.6821 2.16562 18.3668C3.60938 15.0515 5.61458 12.1106 8.18125 9.54389C12.5125 5.21264 18.1271 2.39198 25.025 1.08191C31.9229 -0.228158 41.6014 -0.348471 54.0604 0.720974C55.0229 13.5008 54.8625 23.2461 53.5792 29.9569C52.2958 36.6677 49.5153 42.1619 45.2375 46.4397C42.6174 49.0599 39.6898 51.0784 36.4547 52.4955C33.2196 53.9125 29.891 54.621 26.4687 54.621Z" fill="#D4B588"/>
</svg>
