<svg width="65" height="65" viewBox="0 0 65 65" fill="none" xmlns="http://www.w3.org/2000/svg">
<path d="M31.9229 51.3333C33.0458 51.3333 33.995 50.9457 34.7703 50.1703C35.5457 49.395 35.9333 48.4458 35.9333 47.3229C35.9333 46.2 35.5457 45.2509 34.7703 44.4755C33.995 43.7002 33.0458 43.3125 31.9229 43.3125C30.8 43.3125 29.8509 43.7002 29.0755 44.4755C28.3002 45.2509 27.9125 46.2 27.9125 47.3229C27.9125 48.4458 28.3002 49.395 29.0755 50.1703C29.8509 50.9457 30.8 51.3333 31.9229 51.3333ZM29.0354 38.9813H34.9708C34.9708 37.2167 35.1714 35.8264 35.5724 34.8104C35.9734 33.7944 37.1097 32.4042 38.9813 30.6396C40.3715 29.2493 41.4677 27.9259 42.2698 26.6693C43.0719 25.4127 43.4729 23.9021 43.4729 22.1375C43.4729 19.1431 42.3767 16.8437 40.1844 15.2396C37.992 13.6354 35.3986 12.8333 32.4042 12.8333C29.3563 12.8333 26.8832 13.6354 24.9849 15.2396C23.0866 16.8437 21.7632 18.7688 21.0146 21.0146L26.3083 23.1C26.5757 22.1375 27.1773 21.0948 28.113 19.9719C29.0488 18.849 30.4792 18.2875 32.4042 18.2875C34.1153 18.2875 35.3986 18.7554 36.2542 19.6911C37.1097 20.6269 37.5375 21.6562 37.5375 22.7792C37.5375 23.8486 37.2167 24.8512 36.575 25.787C35.9333 26.7227 35.1313 27.5917 34.1688 28.3938C31.816 30.4792 30.3722 32.0566 29.8375 33.126C29.3028 34.1955 29.0354 36.1472 29.0354 38.9813ZM32.0833 64.1667C27.6451 64.1667 23.4743 63.3245 19.5708 61.6401C15.6674 59.9557 12.2719 57.6698 9.38437 54.7823C6.49687 51.8948 4.21094 48.4993 2.52656 44.5958C0.842187 40.6924 0 36.5215 0 32.0833C0 27.6451 0.842187 23.4743 2.52656 19.5708C4.21094 15.6674 6.49687 12.2719 9.38437 9.38437C12.2719 6.49687 15.6674 4.21094 19.5708 2.52656C23.4743 0.842187 27.6451 0 32.0833 0C36.5215 0 40.6924 0.842187 44.5958 2.52656C48.4993 4.21094 51.8948 6.49687 54.7823 9.38437C57.6698 12.2719 59.9557 15.6674 61.6401 19.5708C63.3245 23.4743 64.1667 27.6451 64.1667 32.0833C64.1667 36.5215 63.3245 40.6924 61.6401 44.5958C59.9557 48.4993 57.6698 51.8948 54.7823 54.7823C51.8948 57.6698 48.4993 59.9557 44.5958 61.6401C40.6924 63.3245 36.5215 64.1667 32.0833 64.1667Z" fill="#D4B588"/>
</svg>
