<svg width="25" height="21" viewBox="0 0 25 21" fill="none" xmlns="http://www.w3.org/2000/svg">
<path d="M7.21973 5.86719L7.63483 3.7409L1.58461 2.55975C1.32517 3.88868 2.109 4.86945 2.87233 5.01847L7.21973 5.86719Z" fill="url(#paint0_linear_4754_35436)"/>
<path d="M7.15869 5.91016L7.57379 3.78387L1.67805 2.63288C1.41861 3.9618 2.20243 4.94257 2.96577 5.09159L7.15869 5.91016Z" stroke="url(#paint1_linear_4754_35436)" stroke-width="0.214392"/>
<path d="M7.25977 7.85352L7.67487 5.72723L2.65447 4.74713C2.39503 6.07605 3.17886 7.05682 3.94219 7.20584L7.25977 7.85352Z" fill="url(#paint2_linear_4754_35436)"/>
<path d="M7.25977 7.85352L7.67487 5.72723L2.65447 4.74713C2.39503 6.07605 3.17886 7.05682 3.94219 7.20584L7.25977 7.85352Z" stroke="url(#paint3_linear_4754_35436)" stroke-width="0.214392"/>
<path d="M8.66211 10.0879L9.07721 7.96161L4.05682 6.9815C3.79738 8.31043 4.5812 9.2912 5.34454 9.44022L8.66211 10.0879Z" fill="url(#paint4_linear_4754_35436)"/>
<path d="M8.66211 10.0879L9.07721 7.96161L4.05682 6.9815C3.79738 8.31043 4.5812 9.2912 5.34454 9.44022L8.66211 10.0879Z" stroke="url(#paint5_linear_4754_35436)" stroke-width="0.214392"/>
<g filter="url(#filter0_d_4754_35436)">
<path d="M7.51953 15.341V10.7598H10.2214V16.9767L7.66597 15.5873C7.57572 15.5382 7.51953 15.4437 7.51953 15.341Z" fill="#ECD8BA"/>
<path d="M7.51953 15.341V10.7598H10.2214V16.9767L7.66597 15.5873C7.57572 15.5382 7.51953 15.4437 7.51953 15.341Z" stroke="url(#paint6_linear_4754_35436)" stroke-width="0.0934529"/>
</g>
<path fill-rule="evenodd" clip-rule="evenodd" d="M7.81704 15.2794V13.1211H7.78193V15.3086L7.7966 15.3111C7.84512 15.3192 7.89908 15.3479 7.94315 15.3898C7.98717 15.4318 8.01974 15.4854 8.02782 15.542L8.02916 15.5513L9.44922 16.2164V13.8412H9.41412V16.1612L8.06102 15.5275C8.04947 15.4649 8.01317 15.4081 7.96735 15.3644C7.9234 15.3226 7.86937 15.2916 7.81704 15.2794Z" fill="url(#paint7_linear_4754_35436)"/>
<path fill-rule="evenodd" clip-rule="evenodd" d="M9.4122 16.0318C9.45006 15.9678 9.45222 15.877 9.44928 15.8184L9.41423 15.8201C9.41715 15.8785 9.41405 15.9597 9.38199 16.0139C9.36646 16.0402 9.34446 16.0595 9.31281 16.0674C9.2806 16.0755 9.2361 16.0724 9.17487 16.0486L9.16215 16.0813C9.22728 16.1066 9.2796 16.112 9.32136 16.1015C9.36368 16.0909 9.39279 16.0646 9.4122 16.0318Z" fill="#D4B195"/>
<g filter="url(#filter1_d_4754_35436)">
<path d="M17.7246 15.341V10.7598H15.0227V16.9767L17.5782 15.5873C17.6684 15.5382 17.7246 15.4437 17.7246 15.341Z" fill="#ECD8BA"/>
<path d="M17.7246 15.341V10.7598H15.0227V16.9767L17.5782 15.5873C17.6684 15.5382 17.7246 15.4437 17.7246 15.341Z" stroke="url(#paint8_linear_4754_35436)" stroke-width="0.0934529"/>
</g>
<path fill-rule="evenodd" clip-rule="evenodd" d="M17.4271 15.2794V13.1211H17.4622V15.3086L17.4475 15.3111C17.399 15.3192 17.3451 15.3479 17.301 15.3898C17.257 15.4318 17.2244 15.4854 17.2163 15.542L17.215 15.5513L15.7949 16.2164V13.8412H15.83V16.1612L17.1831 15.5275C17.1947 15.4649 17.231 15.4081 17.2768 15.3644C17.3207 15.3226 17.3748 15.2916 17.4271 15.2794Z" fill="url(#paint9_linear_4754_35436)"/>
<path fill-rule="evenodd" clip-rule="evenodd" d="M15.8314 16.0318C15.7936 15.9678 15.7914 15.877 15.7944 15.8184L15.8294 15.8201C15.8265 15.8785 15.8296 15.9597 15.8617 16.0139C15.8772 16.0402 15.8992 16.0595 15.9308 16.0674C15.963 16.0755 16.0076 16.0724 16.0688 16.0486L16.0815 16.0813C16.0164 16.1066 15.9641 16.112 15.9223 16.1015C15.88 16.0909 15.8509 16.0646 15.8314 16.0318Z" fill="#D4B195"/>
<path d="M17.9888 5.93359L17.5737 3.80731L23.6239 2.62616C23.8833 3.95509 23.0995 4.93585 22.3362 5.08488L17.9888 5.93359Z" fill="url(#paint10_linear_4754_35436)"/>
<path d="M18.0508 5.97656L17.6357 3.85028L23.5314 2.69928C23.7909 4.02821 23.007 5.00898 22.2437 5.158L18.0508 5.97656Z" stroke="url(#paint11_linear_4754_35436)" stroke-width="0.214392"/>
<path d="M17.9487 7.92188L17.5336 5.79559L22.554 4.81549C22.8135 6.14441 22.0296 7.12518 21.2663 7.2742L17.9487 7.92188Z" fill="url(#paint12_linear_4754_35436)"/>
<path d="M17.9487 7.92188L17.5336 5.79559L22.554 4.81549C22.8135 6.14441 22.0296 7.12518 21.2663 7.2742L17.9487 7.92188Z" stroke="url(#paint13_linear_4754_35436)" stroke-width="0.214392"/>
<path d="M16.5454 10.1582L16.1303 8.03192L21.1507 7.05181C21.4101 8.38074 20.6263 9.36151 19.863 9.51053L16.5454 10.1582Z" fill="url(#paint14_linear_4754_35436)"/>
<path d="M16.5454 10.1582L16.1303 8.03192L21.1507 7.05181C21.4101 8.38074 20.6263 9.36151 19.863 9.51053L16.5454 10.1582Z" stroke="url(#paint15_linear_4754_35436)" stroke-width="0.214392"/>
<g filter="url(#filter2_d_4754_35436)">
<path d="M9.72461 10.5H15.4956V17.8284L12.6959 19.2515C12.619 19.2907 12.5279 19.2905 12.451 19.2511L9.72461 17.8536V10.5Z" fill="url(#paint16_linear_4754_35436)"/>
<path d="M9.72461 10.5H15.4956V17.8284L12.6959 19.2515C12.619 19.2907 12.5279 19.2905 12.451 19.2511L9.72461 17.8536V10.5Z" stroke="url(#paint17_linear_4754_35436)" stroke-width="0.186906"/>
</g>
<path fill-rule="evenodd" clip-rule="evenodd" d="M13.4493 18.8158L12.6957 19.1989C12.6187 19.238 12.5277 19.2378 12.4508 19.1984L11.6655 18.7959V13.4375H13.4493V18.8158Z" fill="url(#paint18_linear_4754_35436)"/>
<path fill-rule="evenodd" clip-rule="evenodd" d="M10.0391 14.4336H10.1227V17.7136L12.589 18.9885L15.0969 17.7135V14.4336H15.1805V17.7432L12.5887 19.0504L10.0391 17.743V14.4336Z" fill="url(#paint19_linear_4754_35436)"/>
<path fill-rule="evenodd" clip-rule="evenodd" d="M12.6057 17.8438V18.7956H12.5601V17.8438H12.6057Z" fill="url(#paint20_linear_4754_35436)"/>
<path fill-rule="evenodd" clip-rule="evenodd" d="M12.446 18.4584C12.3552 18.5631 12.2446 18.5864 12.1685 18.5737L12.176 18.5287C12.2366 18.5389 12.3313 18.5211 12.4115 18.4286C12.4921 18.3356 12.5598 18.1652 12.5598 17.8672H12.6054C12.6054 18.1712 12.5364 18.3541 12.446 18.4584Z" fill="url(#paint21_linear_4754_35436)"/>
<path fill-rule="evenodd" clip-rule="evenodd" d="M12.7191 18.4584C12.8099 18.5631 12.9204 18.5864 12.9966 18.5737L12.9891 18.5287C12.9284 18.5389 12.8338 18.5211 12.7535 18.4286C12.673 18.3356 12.6052 18.1652 12.6052 17.8672H12.5596C12.5596 18.1712 12.6286 18.3541 12.7191 18.4584Z" fill="url(#paint22_linear_4754_35436)"/>
<path fill-rule="evenodd" clip-rule="evenodd" d="M12.573 18.8159L12.0581 18.5274L12.1721 18.5274L12.5826 18.7702L12.993 18.5254H13.0936L12.592 18.816C12.586 18.8187 12.579 18.8187 12.573 18.8159Z" fill="url(#paint23_linear_4754_35436)"/>
<g filter="url(#filter3_d_4754_35436)">
<path d="M11.8505 1.10048L6.88128 3.80368C6.37002 4.08181 6.05176 4.61723 6.05176 5.19925V11.4166C6.05176 11.9986 6.37002 12.534 6.88128 12.8122L11.8505 15.5154C12.3239 15.7729 12.8955 15.7729 13.3688 15.5154L18.3381 12.8122C18.8493 12.534 19.1676 11.9986 19.1676 11.4166L19.1676 5.19925C19.1676 4.61724 18.8493 4.08181 18.3381 3.80368L13.3688 1.10048C12.8955 0.842979 12.3239 0.842979 11.8505 1.10048Z" fill="url(#paint24_linear_4754_35436)"/>
<path d="M11.8453 2.25323L7.87474 4.41315C7.3654 4.69023 7.04834 5.22364 7.04834 5.80347V10.7861C7.04834 11.3659 7.3654 11.8993 7.87474 12.1764L11.8453 14.3363C12.3169 14.5929 12.8863 14.5929 13.3579 14.3363L17.3284 12.1764C17.8378 11.8993 18.1548 11.3659 18.1548 10.7861L18.1548 5.80347C18.1548 5.22364 17.8378 4.69023 17.3284 4.41315L13.3579 2.25323C12.8863 1.99669 12.3169 1.99669 11.8453 2.25323Z" fill="url(#paint25_linear_4754_35436)"/>
<g filter="url(#filter4_f_4754_35436)">
<path d="M11.8453 2.25323L7.87474 4.41315C7.3654 4.69023 7.04834 5.22364 7.04834 5.80347V10.7861C7.04834 11.3659 7.3654 11.8993 7.87474 12.1764L11.8453 14.3363C12.3169 14.5929 12.8863 14.5929 13.3579 14.3363L17.3284 12.1764C17.8378 11.8993 18.1548 11.3659 18.1548 10.7861L18.1548 5.80347C18.1548 5.22364 17.8378 4.69023 17.3284 4.41315L13.3579 2.25323C12.8863 1.99669 12.3169 1.99669 11.8453 2.25323Z" stroke="url(#paint26_linear_4754_35436)" stroke-width="0.0934529"/>
</g>
<g opacity="0.5">
<mask id="mask0_4754_35436" style="mask-type:alpha" maskUnits="userSpaceOnUse" x="7" y="2" width="11" height="13">
<path d="M11.9177 2.75597L8.30807 4.71782C7.8233 4.9813 7.52148 5.48884 7.52148 6.04059V10.5671C7.52148 11.1188 7.8233 11.6263 8.30807 11.8898L11.9177 13.8517C12.366 14.0953 12.9073 14.0953 13.3556 13.8517L16.9652 11.8898C17.45 11.6263 17.7518 11.1188 17.7518 10.5671L17.7518 6.04059C17.7518 5.48884 17.45 4.9813 16.9652 4.71782L13.3556 2.75597C12.9073 2.51231 12.366 2.51231 11.9177 2.75597Z" fill="#A6D3DE"/>
</mask>
<g mask="url(#mask0_4754_35436)">
<path d="M11.9177 2.75597L8.30807 4.71782C7.8233 4.9813 7.52148 5.48884 7.52148 6.04059V10.5671C7.52148 11.1188 7.8233 11.6263 8.30807 11.8898L11.9177 13.8517C12.366 14.0953 12.9073 14.0953 13.3556 13.8517L16.9652 11.8898C17.45 11.6263 17.7518 11.1188 17.7518 10.5671L17.7518 6.04059C17.7518 5.48884 17.45 4.9813 16.9652 4.71782L13.3556 2.75597C12.9073 2.51231 12.366 2.51231 11.9177 2.75597Z" fill="url(#paint27_radial_4754_35436)"/>
<path opacity="0.5" d="M11.7813 14.4778L11.5781 2.13086H13.6947L13.4916 14.4778H11.7813Z" fill="url(#paint28_linear_4754_35436)"/>
<path opacity="0.5" d="M11.7542 14.3685L5.40479 3.77734L7.23783 2.71903L13.2353 13.5134L11.7542 14.3685Z" fill="url(#paint29_linear_4754_35436)"/>
<path opacity="0.5" d="M11.5777 13.5131L17.5752 2.71875L19.4082 3.77706L13.0588 14.3682L11.5777 13.5131Z" fill="url(#paint30_linear_4754_35436)"/>
<rect x="7.52148" y="7.59766" width="10.2303" height="6.64384" fill="url(#paint31_linear_4754_35436)"/>
<g filter="url(#filter5_i_4754_35436)">
<path d="M11.9177 2.75597L8.30807 4.71782C7.8233 4.9813 7.52148 5.48884 7.52148 6.04059V10.5671C7.52148 11.1188 7.8233 11.6263 8.30807 11.8898L11.9177 13.8517C12.366 14.0953 12.9073 14.0953 13.3556 13.8517L16.9652 11.8898C17.45 11.6263 17.7518 11.1188 17.7518 10.5671L17.7518 6.04059C17.7518 5.48884 17.45 4.9813 16.9652 4.71782L13.3556 2.75597C12.9073 2.51231 12.366 2.51231 11.9177 2.75597Z" fill="#6052B4" fill-opacity="0.01"/>
</g>
</g>
</g>
</g>
<g filter="url(#filter6_i_4754_35436)">
<path d="M13.7251 5.11891V11.8789H12.1751V6.65891L10.7251 7.54891L10.0351 6.49891L12.3151 5.11891H13.7251Z" fill="#9A6047"/>
</g>
<defs>
<filter id="filter0_d_4754_35436" x="6.72503" y="9.96527" width="4.29066" height="7.83704" filterUnits="userSpaceOnUse" color-interpolation-filters="sRGB">
<feFlood flood-opacity="0" result="BackgroundImageFix"/>
<feColorMatrix in="SourceAlpha" type="matrix" values="0 0 0 0 0 0 0 0 0 0 0 0 0 0 0 0 0 0 127 0" result="hardAlpha"/>
<feOffset/>
<feGaussianBlur stdDeviation="0.373812"/>
<feColorMatrix type="matrix" values="0 0 0 0 0.7 0 0 0 0 0.561568 0 0 0 0 0.32375 0 0 0 0.78 0"/>
<feBlend mode="normal" in2="BackgroundImageFix" result="effect1_dropShadow_4754_35436"/>
<feBlend mode="normal" in="SourceGraphic" in2="effect1_dropShadow_4754_35436" result="shape"/>
</filter>
<filter id="filter1_d_4754_35436" x="14.2285" y="9.96527" width="4.29066" height="7.83704" filterUnits="userSpaceOnUse" color-interpolation-filters="sRGB">
<feFlood flood-opacity="0" result="BackgroundImageFix"/>
<feColorMatrix in="SourceAlpha" type="matrix" values="0 0 0 0 0 0 0 0 0 0 0 0 0 0 0 0 0 0 127 0" result="hardAlpha"/>
<feOffset/>
<feGaussianBlur stdDeviation="0.373812"/>
<feColorMatrix type="matrix" values="0 0 0 0 0.7 0 0 0 0 0.561568 0 0 0 0 0.32375 0 0 0 0.78 0"/>
<feBlend mode="normal" in2="BackgroundImageFix" result="effect1_dropShadow_4754_35436"/>
<feBlend mode="normal" in="SourceGraphic" in2="effect1_dropShadow_4754_35436" result="shape"/>
</filter>
<filter id="filter2_d_4754_35436" x="8.88372" y="9.65863" width="7.45277" height="10.464" filterUnits="userSpaceOnUse" color-interpolation-filters="sRGB">
<feFlood flood-opacity="0" result="BackgroundImageFix"/>
<feColorMatrix in="SourceAlpha" type="matrix" values="0 0 0 0 0 0 0 0 0 0 0 0 0 0 0 0 0 0 127 0" result="hardAlpha"/>
<feOffset/>
<feGaussianBlur stdDeviation="0.373812"/>
<feColorMatrix type="matrix" values="0 0 0 0 0.7 0 0 0 0 0.561568 0 0 0 0 0.32375 0 0 0 0.78 0"/>
<feBlend mode="normal" in2="BackgroundImageFix" result="effect1_dropShadow_4754_35436"/>
<feBlend mode="normal" in="SourceGraphic" in2="effect1_dropShadow_4754_35436" result="shape"/>
</filter>
<filter id="filter3_d_4754_35436" x="5.49104" y="0.908203" width="14.2372" height="16.1091" filterUnits="userSpaceOnUse" color-interpolation-filters="sRGB">
<feFlood flood-opacity="0" result="BackgroundImageFix"/>
<feColorMatrix in="SourceAlpha" type="matrix" values="0 0 0 0 0 0 0 0 0 0 0 0 0 0 0 0 0 0 127 0" result="hardAlpha"/>
<feOffset dy="0.747623"/>
<feGaussianBlur stdDeviation="0.280359"/>
<feColorMatrix type="matrix" values="0 0 0 0 0.4375 0 0 0 0 0.287401 0 0 0 0 0.111198 0 0 0 0.6 0"/>
<feBlend mode="normal" in2="BackgroundImageFix" result="effect1_dropShadow_4754_35436"/>
<feBlend mode="normal" in="SourceGraphic" in2="effect1_dropShadow_4754_35436" result="shape"/>
</filter>
<filter id="filter4_f_4754_35436" x="6.97343" y="1.98564" width="11.2563" height="12.6186" filterUnits="userSpaceOnUse" color-interpolation-filters="sRGB">
<feFlood flood-opacity="0" result="BackgroundImageFix"/>
<feBlend mode="normal" in="SourceGraphic" in2="BackgroundImageFix" result="shape"/>
<feGaussianBlur stdDeviation="0.0140179" result="effect1_foregroundBlur_4754_35436"/>
</filter>
<filter id="filter5_i_4754_35436" x="7.52148" y="2.57227" width="10.2305" height="11.4629" filterUnits="userSpaceOnUse" color-interpolation-filters="sRGB">
<feFlood flood-opacity="0" result="BackgroundImageFix"/>
<feBlend mode="normal" in="SourceGraphic" in2="BackgroundImageFix" result="shape"/>
<feColorMatrix in="SourceAlpha" type="matrix" values="0 0 0 0 0 0 0 0 0 0 0 0 0 0 0 0 0 0 127 0" result="hardAlpha"/>
<feOffset/>
<feGaussianBlur stdDeviation="0.62839"/>
<feComposite in2="hardAlpha" operator="arithmetic" k2="-1" k3="1"/>
<feColorMatrix type="matrix" values="0 0 0 0 0.458333 0 0 0 0 0.256743 0 0 0 0 0.0706597 0 0 0 1 0"/>
<feBlend mode="normal" in2="shape" result="effect1_innerShadow_4754_35436"/>
</filter>
<filter id="filter6_i_4754_35436" x="10.0352" y="5.11914" width="3.68994" height="9.08789" filterUnits="userSpaceOnUse" color-interpolation-filters="sRGB">
<feFlood flood-opacity="0" result="BackgroundImageFix"/>
<feBlend mode="normal" in="SourceGraphic" in2="BackgroundImageFix" result="shape"/>
<feColorMatrix in="SourceAlpha" type="matrix" values="0 0 0 0 0 0 0 0 0 0 0 0 0 0 0 0 0 0 127 0" result="hardAlpha"/>
<feOffset dy="2.32812"/>
<feGaussianBlur stdDeviation="1.16406"/>
<feComposite in2="hardAlpha" operator="arithmetic" k2="-1" k3="1"/>
<feColorMatrix type="matrix" values="0 0 0 0 0 0 0 0 0 0 0 0 0 0 0 0 0 0 0.25 0"/>
<feBlend mode="normal" in2="shape" result="effect1_innerShadow_4754_35436"/>
</filter>
<linearGradient id="paint0_linear_4754_35436" x1="4.24081" y1="5.28563" x2="2.79106" y2="3.13251" gradientUnits="userSpaceOnUse">
<stop stop-color="#D2A86B"/>
<stop offset="0.875" stop-color="#FFF5DE"/>
</linearGradient>
<linearGradient id="paint1_linear_4754_35436" x1="1.97336" y1="2.69053" x2="3.2711" y2="5.15121" gradientUnits="userSpaceOnUse">
<stop stop-color="#FFF5DE"/>
<stop offset="0.378992" stop-color="#F5E3C4"/>
<stop offset="0.480868" stop-color="#E6CA9E"/>
<stop offset="0.729174" stop-color="#D2A86B"/>
</linearGradient>
<linearGradient id="paint2_linear_4754_35436" x1="5.31067" y1="7.473" x2="3.86092" y2="5.31988" gradientUnits="userSpaceOnUse">
<stop stop-color="#E0C08E"/>
<stop offset="0.875" stop-color="#FFF5DE"/>
</linearGradient>
<linearGradient id="paint3_linear_4754_35436" x1="2.94979" y1="4.80478" x2="5.86764" y2="8.26871" gradientUnits="userSpaceOnUse">
<stop stop-color="#FFF5DE"/>
<stop offset="0.378992" stop-color="#FFF5DE"/>
<stop offset="0.480868" stop-color="#EAD2A9"/>
<stop offset="0.729174" stop-color="#D2A86B"/>
</linearGradient>
<linearGradient id="paint4_linear_4754_35436" x1="6.71301" y1="9.70738" x2="5.26326" y2="7.55426" gradientUnits="userSpaceOnUse">
<stop stop-color="#E0C08E"/>
<stop offset="0.875" stop-color="#FFF5DE"/>
</linearGradient>
<linearGradient id="paint5_linear_4754_35436" x1="4.35213" y1="7.03915" x2="7.26999" y2="10.5031" gradientUnits="userSpaceOnUse">
<stop stop-color="#FFF5DE"/>
<stop offset="0.378992" stop-color="#FFF5DE"/>
<stop offset="0.480868" stop-color="#EAD2A9"/>
<stop offset="0.729174" stop-color="#D2A86B"/>
</linearGradient>
<linearGradient id="paint6_linear_4754_35436" x1="7.51953" y1="14.9969" x2="10.2934" y2="15.6236" gradientUnits="userSpaceOnUse">
<stop stop-color="#8D664F"/>
<stop offset="0.208702" stop-color="#C49F7D"/>
<stop offset="0.648432" stop-color="#FFF1DC"/>
<stop offset="0.827985" stop-color="#B38368"/>
<stop offset="0.971703" stop-color="#8C5F4C"/>
</linearGradient>
<linearGradient id="paint7_linear_4754_35436" x1="7.86062" y1="14.9048" x2="8.86401" y2="14.6057" gradientUnits="userSpaceOnUse">
<stop stop-color="#C7A383"/>
<stop offset="0.309893" stop-color="#D5B198"/>
<stop offset="0.523799" stop-color="#CBA68C"/>
<stop offset="0.77229" stop-color="#BB9478"/>
<stop offset="1" stop-color="#D7B49B"/>
</linearGradient>
<linearGradient id="paint8_linear_4754_35436" x1="17.7246" y1="14.9969" x2="14.9507" y2="15.6236" gradientUnits="userSpaceOnUse">
<stop stop-color="#8D664F"/>
<stop offset="0.208702" stop-color="#C49F7D"/>
<stop offset="0.648432" stop-color="#FFF1DC"/>
<stop offset="0.827985" stop-color="#B38368"/>
<stop offset="0.971703" stop-color="#8C5F4C"/>
</linearGradient>
<linearGradient id="paint9_linear_4754_35436" x1="17.3835" y1="14.9048" x2="16.3801" y2="14.6057" gradientUnits="userSpaceOnUse">
<stop stop-color="#C7A383"/>
<stop offset="0.309893" stop-color="#D5B198"/>
<stop offset="0.523799" stop-color="#CBA68C"/>
<stop offset="0.77229" stop-color="#BB9478"/>
<stop offset="1" stop-color="#D7B49B"/>
</linearGradient>
<linearGradient id="paint10_linear_4754_35436" x1="20.9677" y1="5.35204" x2="22.4174" y2="3.19892" gradientUnits="userSpaceOnUse">
<stop stop-color="#D2A86B"/>
<stop offset="0.875" stop-color="#FFF5DE"/>
</linearGradient>
<linearGradient id="paint11_linear_4754_35436" x1="23.2361" y1="2.75694" x2="21.9384" y2="5.21761" gradientUnits="userSpaceOnUse">
<stop stop-color="#FFF5DE"/>
<stop offset="0.378992" stop-color="#F5E3C4"/>
<stop offset="0.480868" stop-color="#E6CA9E"/>
<stop offset="0.729174" stop-color="#D2A86B"/>
</linearGradient>
<linearGradient id="paint12_linear_4754_35436" x1="19.8978" y1="7.54136" x2="21.3476" y2="5.38824" gradientUnits="userSpaceOnUse">
<stop stop-color="#E0C08E"/>
<stop offset="0.875" stop-color="#FFF5DE"/>
</linearGradient>
<linearGradient id="paint13_linear_4754_35436" x1="22.2587" y1="4.87314" x2="19.3409" y2="8.33707" gradientUnits="userSpaceOnUse">
<stop stop-color="#FFF5DE"/>
<stop offset="0.378992" stop-color="#FFF5DE"/>
<stop offset="0.480868" stop-color="#EAD2A9"/>
<stop offset="0.729174" stop-color="#D2A86B"/>
</linearGradient>
<linearGradient id="paint14_linear_4754_35436" x1="18.4945" y1="9.77769" x2="19.9443" y2="7.62457" gradientUnits="userSpaceOnUse">
<stop stop-color="#E0C08E"/>
<stop offset="0.875" stop-color="#FFF5DE"/>
</linearGradient>
<linearGradient id="paint15_linear_4754_35436" x1="20.8554" y1="7.10947" x2="17.9375" y2="10.5734" gradientUnits="userSpaceOnUse">
<stop stop-color="#FFF5DE"/>
<stop offset="0.378992" stop-color="#FFF5DE"/>
<stop offset="0.480868" stop-color="#EAD2A9"/>
<stop offset="0.729174" stop-color="#D2A86B"/>
</linearGradient>
<linearGradient id="paint16_linear_4754_35436" x1="12.6101" y1="14.3823" x2="12.6101" y2="19.3138" gradientUnits="userSpaceOnUse">
<stop stop-color="#B58D70"/>
<stop offset="0.2286" stop-color="#B58D70"/>
<stop offset="0.47675" stop-color="#D8B59B"/>
<stop offset="0.88344" stop-color="#B58D70"/>
<stop offset="1" stop-color="#B58D70"/>
</linearGradient>
<linearGradient id="paint17_linear_4754_35436" x1="9.72461" y1="16.507" x2="15.3053" y2="18.4067" gradientUnits="userSpaceOnUse">
<stop stop-color="#8D664F"/>
<stop offset="0.208702" stop-color="#FFF5E6"/>
<stop offset="0.648432" stop-color="#ECD8BA"/>
<stop offset="0.780206" stop-color="#D0A568"/>
<stop offset="0.971703" stop-color="#8C5F4C"/>
</linearGradient>
<linearGradient id="paint18_linear_4754_35436" x1="12.5574" y1="13.4375" x2="12.5574" y2="19.2281" gradientUnits="userSpaceOnUse">
<stop stop-color="#DDBFA9"/>
<stop offset="0.22229" stop-color="#DDBFA9"/>
<stop offset="0.669825" stop-color="#EBD4C4"/>
<stop offset="0.898796" stop-color="#DDBFA9"/>
<stop offset="1" stop-color="#DDBFA9"/>
</linearGradient>
<linearGradient id="paint19_linear_4754_35436" x1="14.9378" y1="17.1795" x2="12.8326" y2="15.5482" gradientUnits="userSpaceOnUse">
<stop stop-color="#ECD8BA"/>
<stop offset="0.309893" stop-color="#EBD3AE"/>
<stop offset="0.523799" stop-color="#E2C69C"/>
<stop offset="0.77229" stop-color="#E3C8A0"/>
<stop offset="1" stop-color="#ECD8BA"/>
</linearGradient>
<linearGradient id="paint20_linear_4754_35436" x1="12.5829" y1="17.8438" x2="12.5829" y2="18.733" gradientUnits="userSpaceOnUse">
<stop stop-color="#FAECD8"/>
<stop offset="0.491891" stop-color="#F9EBD7"/>
<stop offset="1" stop-color="#ECD5B4"/>
</linearGradient>
<linearGradient id="paint21_linear_4754_35436" x1="12.3869" y1="17.8672" x2="12.3869" y2="18.5769" gradientUnits="userSpaceOnUse">
<stop stop-color="#F9EBD7"/>
<stop offset="0.479167" stop-color="#FAEDD9"/>
<stop offset="1" stop-color="#F8E9D4"/>
</linearGradient>
<linearGradient id="paint22_linear_4754_35436" x1="12.7781" y1="17.8672" x2="12.7781" y2="18.5769" gradientUnits="userSpaceOnUse">
<stop stop-color="#FAEDD8"/>
<stop offset="0.479167" stop-color="#FAECD8"/>
<stop offset="1" stop-color="#EAD4B2"/>
</linearGradient>
<linearGradient id="paint23_linear_4754_35436" x1="12.5274" y1="18.6254" x2="11.9358" y2="18.6955" gradientUnits="userSpaceOnUse">
<stop stop-color="#E5CBA6"/>
<stop offset="0.309893" stop-color="#FAEDDA"/>
<stop offset="0.523799" stop-color="#F3E2C9"/>
<stop offset="0.613641" stop-color="#EFDCC0"/>
<stop offset="1" stop-color="#EFDCC0"/>
</linearGradient>
<linearGradient id="paint24_linear_4754_35436" x1="9.85535" y1="2.52372" x2="15.7575" y2="14.2493" gradientUnits="userSpaceOnUse">
<stop stop-color="#FFF5DE"/>
<stop offset="1" stop-color="#CFA365"/>
</linearGradient>
<linearGradient id="paint25_linear_4754_35436" x1="9.80266" y1="3.49439" x2="14.8916" y2="12.8853" gradientUnits="userSpaceOnUse">
<stop stop-color="#D2A86C"/>
<stop offset="1" stop-color="#F8E6C0"/>
</linearGradient>
<linearGradient id="paint26_linear_4754_35436" x1="10.3535" y1="3.15338" x2="15.8359" y2="13.0165" gradientUnits="userSpaceOnUse">
<stop stop-color="#FFF6E7"/>
<stop offset="1" stop-color="#FFF8EC"/>
</linearGradient>
<radialGradient id="paint27_radial_4754_35436" cx="0" cy="0" r="1" gradientUnits="userSpaceOnUse" gradientTransform="translate(12.6367 8.30382) rotate(90) scale(5.93859 5.11517)">
<stop stop-color="#FFE4BA"/>
<stop offset="1" stop-color="#DEA44D"/>
</radialGradient>
<linearGradient id="paint28_linear_4754_35436" x1="12.6364" y1="2.13086" x2="12.6364" y2="14.4778" gradientUnits="userSpaceOnUse">
<stop stop-color="white"/>
<stop offset="1" stop-color="#F2EDED" stop-opacity="0"/>
</linearGradient>
<linearGradient id="paint29_linear_4754_35436" x1="6.32131" y1="3.24819" x2="12.4948" y2="13.941" gradientUnits="userSpaceOnUse">
<stop stop-color="white"/>
<stop offset="1" stop-color="#F2EDED" stop-opacity="0"/>
</linearGradient>
<linearGradient id="paint30_linear_4754_35436" x1="18.4917" y1="3.24791" x2="12.3182" y2="13.9407" gradientUnits="userSpaceOnUse">
<stop stop-color="white"/>
<stop offset="1" stop-color="#F2EDED" stop-opacity="0"/>
</linearGradient>
<linearGradient id="paint31_linear_4754_35436" x1="12.6367" y1="10.4786" x2="12.6058" y2="13.8299" gradientUnits="userSpaceOnUse">
<stop stop-color="white" stop-opacity="0"/>
<stop offset="1" stop-color="#FFF1E3"/>
</linearGradient>
</defs>
</svg>
