<svg width="25" height="21" viewBox="0 0 25 21" fill="none" xmlns="http://www.w3.org/2000/svg">
<path d="M6.59326 7.41406L6.59326 5.19767L1.36011 5.19767C1.36011 6.58291 2.33941 7.41406 3.1351 7.41406L6.59326 7.41406Z" fill="url(#paint0_linear_4754_35508)"/>
<path d="M6.59326 7.41406L6.59326 5.19767L1.36011 5.19767C1.36011 6.58291 2.33941 7.41406 3.1351 7.41406L6.59326 7.41406Z" stroke="url(#paint1_linear_4754_35508)" stroke-width="0.214392"/>
<path d="M8.43994 9.38281L8.43994 7.16642L3.20679 7.16642C3.20679 8.55166 4.18609 9.38281 4.98178 9.38281L8.43994 9.38281Z" fill="url(#paint2_linear_4754_35508)"/>
<path d="M8.43994 9.38281L8.43994 7.16642L3.20679 7.16642C3.20679 8.55166 4.18609 9.38281 4.98178 9.38281L8.43994 9.38281Z" stroke="url(#paint3_linear_4754_35508)" stroke-width="0.214392"/>
<path d="M18.1235 7.41406L18.1235 5.19767L23.3567 5.19767C23.3567 6.58291 22.3774 7.41406 21.5817 7.41406L18.1235 7.41406Z" fill="url(#paint4_linear_4754_35508)"/>
<path d="M18.1235 7.41406L18.1235 5.19767L23.3567 5.19767C23.3567 6.58291 22.3774 7.41406 21.5817 7.41406L18.1235 7.41406Z" stroke="url(#paint5_linear_4754_35508)" stroke-width="0.214392"/>
<path d="M16.2769 9.38281L16.2769 7.16642L21.51 7.16642C21.51 8.55166 20.5307 9.38281 19.735 9.38281L16.2769 9.38281Z" fill="url(#paint6_linear_4754_35508)"/>
<path d="M16.2769 9.38281L16.2769 7.16642L21.51 7.16642C21.51 8.55166 20.5307 9.38281 19.735 9.38281L16.2769 9.38281Z" stroke="url(#paint7_linear_4754_35508)" stroke-width="0.214392"/>
<g filter="url(#filter0_d_4754_35508)">
<path fill-rule="evenodd" clip-rule="evenodd" d="M9.35265 12.0664V16.8348L10.8788 17.6549C10.9411 17.6884 11.0165 17.6433 11.0165 17.5727C11.0164 15.8119 11.0181 13.8126 11.0181 12.0664H9.35265Z" fill="#9CB7ED"/>
<path fill-rule="evenodd" clip-rule="evenodd" d="M9.35265 12.0664V16.8348L10.8788 17.6549C10.9411 17.6884 11.0165 17.6433 11.0165 17.5727C11.0164 15.8119 11.0181 13.8126 11.0181 12.0664H9.35265Z" stroke="url(#paint8_linear_4754_35508)" stroke-width="0.0934529"/>
</g>
<path fill-rule="evenodd" clip-rule="evenodd" d="M9.49065 16.6213V14.75H9.46022V16.6466L9.47293 16.6487C9.515 16.6557 9.56179 16.6806 9.59999 16.717C9.63816 16.7534 9.6664 16.7999 9.67341 16.8489L9.67457 16.857L10.9058 17.4873V15.3744H10.8753V17.4395L9.70219 16.8364C9.69217 16.7821 9.6607 16.7328 9.62098 16.695C9.58287 16.6587 9.53603 16.6319 9.49065 16.6213Z" fill="url(#paint9_linear_4754_35508)"/>
<path fill-rule="evenodd" clip-rule="evenodd" d="M10.8738 17.3276C10.9066 17.2721 10.9085 17.1934 10.9059 17.1426L10.8756 17.1441C10.8781 17.1947 10.8754 17.2651 10.8476 17.3121C10.8341 17.3349 10.8151 17.3516 10.7876 17.3585C10.7597 17.3655 10.7211 17.3628 10.668 17.3422L10.657 17.3705C10.7135 17.3925 10.7588 17.3971 10.795 17.3881C10.8317 17.3788 10.857 17.356 10.8738 17.3276Z" fill="#E3EFFB"/>
<g filter="url(#filter1_d_4754_35508)">
<path fill-rule="evenodd" clip-rule="evenodd" d="M9.08545 16.7275V12.0664H7.15244V15.6128C7.15244 15.7201 7.21373 15.818 7.31027 15.865L9.08545 16.7275Z" fill="#C6D9FF"/>
<path fill-rule="evenodd" clip-rule="evenodd" d="M9.08545 16.7275V12.0664H7.15244V15.6128C7.15244 15.7201 7.21373 15.818 7.31027 15.865L9.08545 16.7275Z" stroke="url(#paint10_linear_4754_35508)" stroke-width="0.0934529"/>
</g>
<path fill-rule="evenodd" clip-rule="evenodd" d="M7.29599 15.5616V13.3535H7.26008V15.5915L7.27508 15.594C7.32473 15.6023 7.37993 15.6317 7.42501 15.6746C7.47004 15.7175 7.50338 15.7724 7.51164 15.8302L7.51301 15.8398L8.96582 16.5202V14.0902H8.92991V16.4638L7.5456 15.8154C7.53379 15.7514 7.49665 15.6932 7.44978 15.6486C7.40481 15.6058 7.34954 15.5741 7.29599 15.5616Z" fill="url(#paint11_linear_4754_35508)"/>
<path fill-rule="evenodd" clip-rule="evenodd" d="M8.92793 16.3316C8.96665 16.2661 8.96886 16.1733 8.96587 16.1133L8.93 16.1151C8.93299 16.1748 8.92981 16.2579 8.89702 16.3133C8.88113 16.3402 8.85862 16.36 8.82624 16.3681C8.79329 16.3764 8.74776 16.3732 8.68512 16.3488L8.67211 16.3823C8.73874 16.4082 8.79227 16.4137 8.83499 16.4029C8.87828 16.3921 8.90807 16.3652 8.92793 16.3316Z" fill="#F2F9FF"/>
<g filter="url(#filter2_d_4754_35508)">
<path fill-rule="evenodd" clip-rule="evenodd" d="M15.4198 12.0664V16.8348L13.8937 17.6549C13.8314 17.6884 13.756 17.6433 13.756 17.5727C13.7561 15.8119 13.7544 13.8126 13.7544 12.0664H15.4198Z" fill="#9CB7ED"/>
<path fill-rule="evenodd" clip-rule="evenodd" d="M15.4198 12.0664V16.8348L13.8937 17.6549C13.8314 17.6884 13.756 17.6433 13.756 17.5727C13.7561 15.8119 13.7544 13.8126 13.7544 12.0664H15.4198Z" stroke="url(#paint12_linear_4754_35508)" stroke-width="0.0934529"/>
</g>
<path fill-rule="evenodd" clip-rule="evenodd" d="M15.2818 16.6213V14.75H15.3122V16.6466L15.2995 16.6487C15.2575 16.6557 15.2107 16.6806 15.1725 16.717C15.1343 16.7534 15.1061 16.7999 15.0991 16.8489L15.0979 16.857L13.8667 17.4873V15.3744H13.8971V17.4395L15.0703 16.8364C15.0803 16.7821 15.1118 16.7328 15.1515 16.695C15.1896 16.6587 15.2364 16.6319 15.2818 16.6213Z" fill="url(#paint13_linear_4754_35508)"/>
<path fill-rule="evenodd" clip-rule="evenodd" d="M13.8987 17.3276C13.8658 17.2721 13.864 17.1934 13.8665 17.1426L13.8969 17.1441C13.8944 17.1947 13.8971 17.2651 13.9249 17.3121C13.9383 17.3349 13.9574 17.3516 13.9848 17.3585C14.0128 17.3655 14.0513 17.3628 14.1044 17.3422L14.1155 17.3705C14.059 17.3925 14.0136 17.3971 13.9774 17.3881C13.9407 17.3788 13.9155 17.356 13.8987 17.3276Z" fill="#E3EFFB"/>
<g filter="url(#filter3_d_4754_35508)">
<path fill-rule="evenodd" clip-rule="evenodd" d="M15.6875 16.7275V12.0664H17.6205V15.6128C17.6205 15.7201 17.5592 15.818 17.4627 15.865L15.6875 16.7275Z" fill="#C6D9FF"/>
<path fill-rule="evenodd" clip-rule="evenodd" d="M15.6875 16.7275V12.0664H17.6205V15.6128C17.6205 15.7201 17.5592 15.818 17.4627 15.865L15.6875 16.7275Z" stroke="url(#paint14_linear_4754_35508)" stroke-width="0.0934529"/>
</g>
<path fill-rule="evenodd" clip-rule="evenodd" d="M17.4765 15.5616V13.3535H17.5124V15.5915L17.4974 15.594C17.4477 15.6023 17.3925 15.6317 17.3474 15.6746C17.3024 15.7175 17.2691 15.7724 17.2608 15.8302L17.2594 15.8398L15.8066 16.5202V14.0902H15.8426V16.4638L17.2269 15.8154C17.2387 15.7514 17.2758 15.6932 17.3227 15.6486C17.3677 15.6058 17.4229 15.5741 17.4765 15.5616Z" fill="url(#paint15_linear_4754_35508)"/>
<path fill-rule="evenodd" clip-rule="evenodd" d="M15.845 16.3316C15.8063 16.2661 15.8041 16.1733 15.8071 16.1133L15.8429 16.1151C15.84 16.1748 15.8431 16.2579 15.8759 16.3133C15.8918 16.3402 15.9143 16.36 15.9467 16.3681C15.9797 16.3764 16.0252 16.3732 16.0878 16.3488L16.1008 16.3823C16.0342 16.4082 15.9807 16.4137 15.938 16.4029C15.8947 16.3921 15.8649 16.3652 15.845 16.3316Z" fill="#F2F9FF"/>
<g filter="url(#filter4_d_4754_35508)">
<path d="M10.5332 10.6719H14.2367V18.1693L12.5018 19.2276C12.4156 19.2802 12.3072 19.2801 12.221 19.2274L10.5332 18.195V10.6719Z" fill="#6A88C4"/>
<path d="M10.5332 10.6719H14.2367V18.1693L12.5018 19.2276C12.4156 19.2802 12.3072 19.2801 12.221 19.2274L10.5332 18.195V10.6719Z" stroke="url(#paint16_linear_4754_35508)" stroke-width="0.186906"/>
</g>
<path fill-rule="evenodd" clip-rule="evenodd" d="M10.7217 15.3418H10.7754V18.0373L12.3588 19.0138L13.9689 18.0372V15.3418H14.0226V18.0674L12.3586 19.0767L10.7217 18.0673V15.3418Z" fill="url(#paint17_linear_4754_35508)"/>
<path fill-rule="evenodd" clip-rule="evenodd" d="M12.3806 17.918V18.8918H12.334V17.918H12.3806Z" fill="url(#paint18_linear_4754_35508)"/>
<path fill-rule="evenodd" clip-rule="evenodd" d="M12.218 18.5463C12.1251 18.6534 12.012 18.6772 11.9341 18.6642L11.9418 18.6182C12.0038 18.6286 12.1006 18.6104 12.1827 18.5157C12.2651 18.4207 12.3345 18.2463 12.3345 17.9414H12.3811C12.3811 18.2524 12.3105 18.4396 12.218 18.5463Z" fill="url(#paint19_linear_4754_35508)"/>
<path fill-rule="evenodd" clip-rule="evenodd" d="M12.4974 18.5463C12.5902 18.6534 12.7033 18.6772 12.7812 18.6642L12.7736 18.6182C12.7115 18.6286 12.6147 18.6104 12.5326 18.5157C12.4502 18.4207 12.3808 18.2463 12.3808 17.9414H12.3342C12.3342 18.2524 12.4048 18.4396 12.4974 18.5463Z" fill="url(#paint20_linear_4754_35508)"/>
<path fill-rule="evenodd" clip-rule="evenodd" d="M12.3476 18.9125L11.8208 18.6173L11.9374 18.6173L12.3574 18.8656L12.7772 18.6152H12.8802L12.367 18.9125C12.3608 18.9153 12.3538 18.9153 12.3476 18.9125Z" fill="url(#paint21_linear_4754_35508)"/>
<g filter="url(#filter5_d_4754_35508)">
<path d="M11.597 1.10048L6.4765 3.88596C5.96523 4.16409 5.64697 4.69952 5.64697 5.28153V11.6858C5.64697 12.2679 5.96523 12.8033 6.4765 13.0814L11.597 15.8669C12.0703 16.1244 12.642 16.1244 13.1153 15.8669L18.2358 13.0814C18.7471 12.8033 19.0653 12.2679 19.0653 11.6858L19.0653 5.28154C19.0653 4.69952 18.7471 4.16409 18.2358 3.88596L13.1153 1.10048C12.642 0.842979 12.0703 0.842978 11.597 1.10048Z" fill="url(#paint22_linear_4754_35508)"/>
<path d="M11.592 2.28057L7.4934 4.51017C6.98405 4.78725 6.66699 5.32066 6.66699 5.90049V11.0414C6.66699 11.6213 6.98405 12.1547 7.49339 12.4318L11.592 14.6614C12.0636 14.9179 12.6331 14.9179 13.1046 14.6614L17.2033 12.4318C17.7126 12.1547 18.0297 11.6213 18.0297 11.0414L18.0297 5.90049C18.0297 5.32066 17.7126 4.78725 17.2033 4.51017L13.1046 2.28057C12.6331 2.02403 12.0636 2.02403 11.592 2.28057Z" fill="url(#paint23_linear_4754_35508)"/>
<g filter="url(#filter6_f_4754_35508)">
<path d="M11.592 2.28057L7.4934 4.51017C6.98405 4.78725 6.66699 5.32066 6.66699 5.90049V11.0414C6.66699 11.6213 6.98405 12.1547 7.49339 12.4318L11.592 14.6614C12.0636 14.9179 12.6331 14.9179 13.1046 14.6614L17.2033 12.4318C17.7126 12.1547 18.0297 11.6213 18.0297 11.0414L18.0297 5.90049C18.0297 5.32066 17.7126 4.78725 17.2033 4.51017L13.1046 2.28057C12.6331 2.02403 12.0636 2.02403 11.592 2.28057Z" stroke="url(#paint24_linear_4754_35508)" stroke-width="0.0934529"/>
</g>
<g opacity="0.5">
<mask id="mask0_4754_35508" style="mask-type:alpha" maskUnits="userSpaceOnUse" x="7" y="2" width="11" height="13">
<path d="M11.6636 2.79503L7.936 4.82101C7.45123 5.08448 7.14941 5.59203 7.14941 6.14377V10.8159C7.14941 11.3677 7.45123 11.8752 7.936 12.1387L11.6636 14.1647C12.112 14.4083 12.6532 14.4083 13.1015 14.1647L16.8291 12.1387C17.3139 11.8752 17.6157 11.3677 17.6157 10.8159L17.6157 6.14378C17.6157 5.59203 17.3139 5.08448 16.8291 4.82101L13.1015 2.79503C12.6532 2.55137 12.112 2.55137 11.6636 2.79503Z" fill="#A6D3DE"/>
</mask>
<g mask="url(#mask0_4754_35508)">
<path d="M11.6636 2.79503L7.936 4.82101C7.45123 5.08448 7.14941 5.59203 7.14941 6.14377V10.8159C7.14941 11.3677 7.45123 11.8752 7.936 12.1387L11.6636 14.1647C12.112 14.4083 12.6532 14.4083 13.1015 14.1647L16.8291 12.1387C17.3139 11.8752 17.6157 11.3677 17.6157 10.8159L17.6157 6.14378C17.6157 5.59203 17.3139 5.08448 16.8291 4.82101L13.1015 2.79503C12.6532 2.55137 12.112 2.55137 11.6636 2.79503Z" fill="url(#paint25_radial_4754_35508)"/>
<path opacity="0.5" d="M11.5077 14.7958L11.2998 2.16406H13.4652L13.2574 14.7958H11.5077Z" fill="url(#paint26_linear_4754_35508)"/>
<path opacity="0.5" d="M11.4798 14.6831L4.98389 3.84766L6.85921 2.76494L12.9951 13.8083L11.4798 14.6831Z" fill="url(#paint27_linear_4754_35508)"/>
<path opacity="0.5" d="M11.2992 13.809L17.4351 2.76562L19.3104 3.84835L12.8145 14.6838L11.2992 13.809Z" fill="url(#paint28_linear_4754_35508)"/>
<rect x="7.14941" y="7.75781" width="10.4663" height="6.79708" fill="url(#paint29_linear_4754_35508)"/>
<g filter="url(#filter7_i_4754_35508)">
<path d="M11.6636 2.79503L7.936 4.82101C7.45123 5.08448 7.14941 5.59203 7.14941 6.14377V10.8159C7.14941 11.3677 7.45123 11.8752 7.936 12.1387L11.6636 14.1647C12.112 14.4083 12.6532 14.4083 13.1015 14.1647L16.8291 12.1387C17.3139 11.8752 17.6157 11.3677 17.6157 10.8159L17.6157 6.14378C17.6157 5.59203 17.3139 5.08448 16.8291 4.82101L13.1015 2.79503C12.6532 2.55137 12.112 2.55137 11.6636 2.79503Z" fill="#6052B4" fill-opacity="0.01"/>
</g>
</g>
</g>
</g>
<g filter="url(#filter8_i_4754_35508)">
<path d="M12.332 4.88711C12.8186 4.88711 13.2353 4.97378 13.582 5.14711C13.9353 5.32044 14.202 5.55378 14.382 5.84711C14.5686 6.14044 14.662 6.46378 14.662 6.81711C14.662 7.17711 14.5886 7.52044 14.442 7.84711C14.2953 8.17378 14.0353 8.55044 13.662 8.97711C13.2886 9.39711 12.7453 9.93044 12.032 10.5771H14.802L14.642 11.7871H10.242V10.6671C11.062 9.86044 11.6586 9.25378 12.032 8.84711C12.4053 8.43378 12.6653 8.09044 12.812 7.81711C12.9653 7.54378 13.042 7.26378 13.042 6.97711C13.042 6.70378 12.962 6.49044 12.802 6.33711C12.6486 6.17711 12.4386 6.09711 12.172 6.09711C11.932 6.09711 11.7186 6.15378 11.532 6.26711C11.3453 6.37378 11.1486 6.55044 10.942 6.79711L10.012 6.05711C10.292 5.69044 10.6253 5.40378 11.012 5.19711C11.4053 4.99044 11.8453 4.88711 12.332 4.88711Z" fill="#5C88CB"/>
</g>
<defs>
<filter id="filter0_d_4754_35508" x="8.55853" y="11.2719" width="3.25404" height="7.18861" filterUnits="userSpaceOnUse" color-interpolation-filters="sRGB">
<feFlood flood-opacity="0" result="BackgroundImageFix"/>
<feColorMatrix in="SourceAlpha" type="matrix" values="0 0 0 0 0 0 0 0 0 0 0 0 0 0 0 0 0 0 127 0" result="hardAlpha"/>
<feOffset/>
<feGaussianBlur stdDeviation="0.373812"/>
<feColorMatrix type="matrix" values="0 0 0 0 0.288889 0 0 0 0 0.357333 0 0 0 0 0.533333 0 0 0 0.74 0"/>
<feBlend mode="normal" in2="BackgroundImageFix" result="effect1_dropShadow_4754_35508"/>
<feBlend mode="normal" in="SourceGraphic" in2="effect1_dropShadow_4754_35508" result="shape"/>
</filter>
<filter id="filter1_d_4754_35508" x="6.35833" y="11.2719" width="3.52161" height="6.27845" filterUnits="userSpaceOnUse" color-interpolation-filters="sRGB">
<feFlood flood-opacity="0" result="BackgroundImageFix"/>
<feColorMatrix in="SourceAlpha" type="matrix" values="0 0 0 0 0 0 0 0 0 0 0 0 0 0 0 0 0 0 127 0" result="hardAlpha"/>
<feOffset/>
<feGaussianBlur stdDeviation="0.373812"/>
<feColorMatrix type="matrix" values="0 0 0 0 0.288889 0 0 0 0 0.357333 0 0 0 0 0.533333 0 0 0 0.74 0"/>
<feBlend mode="normal" in2="BackgroundImageFix" result="effect1_dropShadow_4754_35508"/>
<feBlend mode="normal" in="SourceGraphic" in2="effect1_dropShadow_4754_35508" result="shape"/>
</filter>
<filter id="filter2_d_4754_35508" x="12.9599" y="11.2719" width="3.25404" height="7.18861" filterUnits="userSpaceOnUse" color-interpolation-filters="sRGB">
<feFlood flood-opacity="0" result="BackgroundImageFix"/>
<feColorMatrix in="SourceAlpha" type="matrix" values="0 0 0 0 0 0 0 0 0 0 0 0 0 0 0 0 0 0 127 0" result="hardAlpha"/>
<feOffset/>
<feGaussianBlur stdDeviation="0.373812"/>
<feColorMatrix type="matrix" values="0 0 0 0 0.288889 0 0 0 0 0.357333 0 0 0 0 0.533333 0 0 0 0.74 0"/>
<feBlend mode="normal" in2="BackgroundImageFix" result="effect1_dropShadow_4754_35508"/>
<feBlend mode="normal" in="SourceGraphic" in2="effect1_dropShadow_4754_35508" result="shape"/>
</filter>
<filter id="filter3_d_4754_35508" x="14.893" y="11.2719" width="3.52161" height="6.27845" filterUnits="userSpaceOnUse" color-interpolation-filters="sRGB">
<feFlood flood-opacity="0" result="BackgroundImageFix"/>
<feColorMatrix in="SourceAlpha" type="matrix" values="0 0 0 0 0 0 0 0 0 0 0 0 0 0 0 0 0 0 127 0" result="hardAlpha"/>
<feOffset/>
<feGaussianBlur stdDeviation="0.373812"/>
<feColorMatrix type="matrix" values="0 0 0 0 0.288889 0 0 0 0 0.357333 0 0 0 0 0.533333 0 0 0 0.74 0"/>
<feBlend mode="normal" in2="BackgroundImageFix" result="effect1_dropShadow_4754_35508"/>
<feBlend mode="normal" in="SourceGraphic" in2="effect1_dropShadow_4754_35508" result="shape"/>
</filter>
<filter id="filter4_d_4754_35508" x="9.69232" y="9.8305" width="5.38538" height="10.2784" filterUnits="userSpaceOnUse" color-interpolation-filters="sRGB">
<feFlood flood-opacity="0" result="BackgroundImageFix"/>
<feColorMatrix in="SourceAlpha" type="matrix" values="0 0 0 0 0 0 0 0 0 0 0 0 0 0 0 0 0 0 127 0" result="hardAlpha"/>
<feOffset/>
<feGaussianBlur stdDeviation="0.373812"/>
<feColorMatrix type="matrix" values="0 0 0 0 0.288889 0 0 0 0 0.357333 0 0 0 0 0.533333 0 0 0 0.8 0"/>
<feBlend mode="normal" in2="BackgroundImageFix" result="effect1_dropShadow_4754_35508"/>
<feBlend mode="normal" in="SourceGraphic" in2="effect1_dropShadow_4754_35508" result="shape"/>
</filter>
<filter id="filter5_d_4754_35508" x="5.08626" y="0.908203" width="14.5399" height="16.4607" filterUnits="userSpaceOnUse" color-interpolation-filters="sRGB">
<feFlood flood-opacity="0" result="BackgroundImageFix"/>
<feColorMatrix in="SourceAlpha" type="matrix" values="0 0 0 0 0 0 0 0 0 0 0 0 0 0 0 0 0 0 127 0" result="hardAlpha"/>
<feOffset dy="0.747623"/>
<feGaussianBlur stdDeviation="0.280359"/>
<feColorMatrix type="matrix" values="0 0 0 0 0.141181 0 0 0 0 0.190317 0 0 0 0 0.316667 0 0 0 0.51 0"/>
<feBlend mode="normal" in2="BackgroundImageFix" result="effect1_dropShadow_4754_35508"/>
<feBlend mode="normal" in="SourceGraphic" in2="effect1_dropShadow_4754_35508" result="shape"/>
</filter>
<filter id="filter6_f_4754_35508" x="6.59208" y="2.01298" width="11.5121" height="12.9154" filterUnits="userSpaceOnUse" color-interpolation-filters="sRGB">
<feFlood flood-opacity="0" result="BackgroundImageFix"/>
<feBlend mode="normal" in="SourceGraphic" in2="BackgroundImageFix" result="shape"/>
<feGaussianBlur stdDeviation="0.0140179" result="effect1_foregroundBlur_4754_35508"/>
</filter>
<filter id="filter7_i_4754_35508" x="7.14941" y="2.61133" width="10.4663" height="11.7363" filterUnits="userSpaceOnUse" color-interpolation-filters="sRGB">
<feFlood flood-opacity="0" result="BackgroundImageFix"/>
<feBlend mode="normal" in="SourceGraphic" in2="BackgroundImageFix" result="shape"/>
<feColorMatrix in="SourceAlpha" type="matrix" values="0 0 0 0 0 0 0 0 0 0 0 0 0 0 0 0 0 0 127 0" result="hardAlpha"/>
<feOffset/>
<feGaussianBlur stdDeviation="0.62839"/>
<feComposite in2="hardAlpha" operator="arithmetic" k2="-1" k3="1"/>
<feColorMatrix type="matrix" values="0 0 0 0 0.297222 0 0 0 0 0.329917 0 0 0 0 0.445833 0 0 0 1 0"/>
<feBlend mode="normal" in2="shape" result="effect1_innerShadow_4754_35508"/>
</filter>
<filter id="filter8_i_4754_35508" x="10.0117" y="4.88672" width="4.79004" height="9.22852" filterUnits="userSpaceOnUse" color-interpolation-filters="sRGB">
<feFlood flood-opacity="0" result="BackgroundImageFix"/>
<feBlend mode="normal" in="SourceGraphic" in2="BackgroundImageFix" result="shape"/>
<feColorMatrix in="SourceAlpha" type="matrix" values="0 0 0 0 0 0 0 0 0 0 0 0 0 0 0 0 0 0 127 0" result="hardAlpha"/>
<feOffset dy="2.32812"/>
<feGaussianBlur stdDeviation="1.16406"/>
<feComposite in2="hardAlpha" operator="arithmetic" k2="-1" k3="1"/>
<feColorMatrix type="matrix" values="0 0 0 0 0 0 0 0 0 0 0 0 0 0 0 0 0 0 0.25 0"/>
<feBlend mode="normal" in2="shape" result="effect1_innerShadow_4754_35508"/>
</filter>
<linearGradient id="paint0_linear_4754_35508" x1="4.56157" y1="7.41406" x2="2.68379" y2="5.53628" gradientUnits="userSpaceOnUse">
<stop stop-color="#C3C5D1"/>
<stop offset="0.875" stop-color="#F9F9F9"/>
</linearGradient>
<linearGradient id="paint1_linear_4754_35508" x1="1.66794" y1="5.19767" x2="3.45337" y2="7.41406" gradientUnits="userSpaceOnUse">
<stop stop-color="#F9F9F9"/>
<stop offset="0.378992" stop-color="#F9F9F9"/>
<stop offset="0.480868" stop-color="#DFDFE6"/>
<stop offset="0.729174" stop-color="#B8BAC6"/>
</linearGradient>
<linearGradient id="paint2_linear_4754_35508" x1="5.85415" y1="9.10576" x2="3.97637" y2="7.16642" gradientUnits="userSpaceOnUse">
<stop stop-color="#C3C5D1"/>
<stop offset="0.875" stop-color="#F9F9F9"/>
</linearGradient>
<linearGradient id="paint3_linear_4754_35508" x1="3.48384" y1="7.16642" x2="4.43812" y2="9.10576" gradientUnits="userSpaceOnUse">
<stop stop-color="#F4F4F5"/>
<stop offset="0.306027" stop-color="#F4F4F5"/>
<stop offset="0.462087" stop-color="#E8E9EC"/>
<stop offset="0.682292" stop-color="#DFDFE6"/>
<stop offset="1" stop-color="#B8BAC6"/>
</linearGradient>
<linearGradient id="paint4_linear_4754_35508" x1="20.1552" y1="7.41406" x2="22.033" y2="5.53628" gradientUnits="userSpaceOnUse">
<stop stop-color="#C3C5D1"/>
<stop offset="0.875" stop-color="#F9F9F9"/>
</linearGradient>
<linearGradient id="paint5_linear_4754_35508" x1="23.0489" y1="5.19767" x2="21.2634" y2="7.41406" gradientUnits="userSpaceOnUse">
<stop stop-color="#F9F9F9"/>
<stop offset="0.378992" stop-color="#F9F9F9"/>
<stop offset="0.480868" stop-color="#DFDFE6"/>
<stop offset="0.729174" stop-color="#B8BAC6"/>
</linearGradient>
<linearGradient id="paint6_linear_4754_35508" x1="18.8626" y1="9.10576" x2="20.7404" y2="7.16642" gradientUnits="userSpaceOnUse">
<stop stop-color="#C3C5D1"/>
<stop offset="0.875" stop-color="#F9F9F9"/>
</linearGradient>
<linearGradient id="paint7_linear_4754_35508" x1="21.233" y1="7.16642" x2="20.2787" y2="9.10576" gradientUnits="userSpaceOnUse">
<stop stop-color="#F4F4F5"/>
<stop offset="0.306027" stop-color="#F4F4F5"/>
<stop offset="0.462087" stop-color="#E8E9EC"/>
<stop offset="0.682292" stop-color="#DFDFE6"/>
<stop offset="1" stop-color="#B8BAC6"/>
</linearGradient>
<linearGradient id="paint8_linear_4754_35508" x1="11.0181" y1="15.879" x2="9.26299" y2="16.1506" gradientUnits="userSpaceOnUse">
<stop stop-color="#91B1E3"/>
<stop offset="0.208702" stop-color="#F0F6FF"/>
<stop offset="0.514766" stop-color="#A4BFE9"/>
<stop offset="0.728274" stop-color="#8BADE0"/>
<stop offset="0.971703" stop-color="#D0DEF3"/>
</linearGradient>
<linearGradient id="paint9_linear_4754_35508" x1="9.52844" y1="16.2965" x2="10.3984" y2="16.0372" gradientUnits="userSpaceOnUse">
<stop stop-color="#FAFCFF"/>
<stop offset="0.309893" stop-color="#D7E6FC"/>
<stop offset="0.523799" stop-color="#C1D8F4"/>
<stop offset="0.77229" stop-color="#BBD6FF"/>
<stop offset="1" stop-color="white"/>
</linearGradient>
<linearGradient id="paint10_linear_4754_35508" x1="7.09875" y1="14.7501" x2="9.17104" y2="17.0719" gradientUnits="userSpaceOnUse">
<stop stop-color="#91B1E3"/>
<stop offset="0.208702" stop-color="#F0F6FF"/>
<stop offset="0.648432" stop-color="#A4BFE9"/>
<stop offset="0.780206" stop-color="#8BADE0"/>
<stop offset="0.971703" stop-color="#93B3E4"/>
</linearGradient>
<linearGradient id="paint11_linear_4754_35508" x1="7.34058" y1="15.1784" x2="8.36712" y2="14.8724" gradientUnits="userSpaceOnUse">
<stop stop-color="#FAFCFF"/>
<stop offset="0.309893" stop-color="#D7E6FC"/>
<stop offset="0.523799" stop-color="#C1D8F4"/>
<stop offset="0.77229" stop-color="#BBD6FF"/>
<stop offset="1" stop-color="white"/>
</linearGradient>
<linearGradient id="paint12_linear_4754_35508" x1="13.7544" y1="15.879" x2="15.5095" y2="16.1506" gradientUnits="userSpaceOnUse">
<stop stop-color="#91B1E3"/>
<stop offset="0.208702" stop-color="#F0F6FF"/>
<stop offset="0.514766" stop-color="#A4BFE9"/>
<stop offset="0.728274" stop-color="#8BADE0"/>
<stop offset="0.971703" stop-color="#D0DEF3"/>
</linearGradient>
<linearGradient id="paint13_linear_4754_35508" x1="15.244" y1="16.2965" x2="14.3741" y2="16.0372" gradientUnits="userSpaceOnUse">
<stop stop-color="#FAFCFF"/>
<stop offset="0.309893" stop-color="#D7E6FC"/>
<stop offset="0.523799" stop-color="#C1D8F4"/>
<stop offset="0.77229" stop-color="#BBD6FF"/>
<stop offset="1" stop-color="white"/>
</linearGradient>
<linearGradient id="paint14_linear_4754_35508" x1="17.6742" y1="14.7501" x2="15.6019" y2="17.0719" gradientUnits="userSpaceOnUse">
<stop stop-color="#91B1E3"/>
<stop offset="0.208702" stop-color="#F0F6FF"/>
<stop offset="0.648432" stop-color="#A4BFE9"/>
<stop offset="0.780206" stop-color="#8BADE0"/>
<stop offset="0.971703" stop-color="#93B3E4"/>
</linearGradient>
<linearGradient id="paint15_linear_4754_35508" x1="17.4319" y1="15.1784" x2="16.4053" y2="14.8724" gradientUnits="userSpaceOnUse">
<stop stop-color="#FAFCFF"/>
<stop offset="0.309893" stop-color="#D7E6FC"/>
<stop offset="0.523799" stop-color="#C1D8F4"/>
<stop offset="0.77229" stop-color="#BBD6FF"/>
<stop offset="1" stop-color="white"/>
</linearGradient>
<linearGradient id="paint16_linear_4754_35508" x1="10.5332" y1="16.8175" x2="14.3553" y2="17.6336" gradientUnits="userSpaceOnUse">
<stop stop-color="#91B1E3"/>
<stop offset="0.208702" stop-color="#F0F6FF"/>
<stop offset="0.648432" stop-color="#A4BFE9"/>
<stop offset="0.780206" stop-color="#8BADE0"/>
<stop offset="0.971703" stop-color="#93B3E4"/>
</linearGradient>
<linearGradient id="paint17_linear_4754_35508" x1="13.8668" y1="17.4941" x2="12.1214" y2="16.6403" gradientUnits="userSpaceOnUse">
<stop stop-color="#FAFCFF"/>
<stop offset="0.309893" stop-color="#D7E6FC"/>
<stop offset="0.523799" stop-color="#C1D8F4"/>
<stop offset="0.77229" stop-color="#BBD6FF"/>
<stop offset="1" stop-color="white"/>
</linearGradient>
<linearGradient id="paint18_linear_4754_35508" x1="12.3573" y1="17.918" x2="12.3573" y2="18.8277" gradientUnits="userSpaceOnUse">
<stop stop-color="#6A88C3"/>
<stop offset="0.479167" stop-color="#E4EFFD"/>
<stop offset="1" stop-color="#E1ECFD"/>
</linearGradient>
<linearGradient id="paint19_linear_4754_35508" x1="12.1576" y1="17.9414" x2="12.1576" y2="18.6675" gradientUnits="userSpaceOnUse">
<stop stop-color="#E2F5FF" stop-opacity="0"/>
<stop offset="0.479167" stop-color="#B6CAFE"/>
<stop offset="1" stop-color="#CCD7FF"/>
</linearGradient>
<linearGradient id="paint20_linear_4754_35508" x1="12.5577" y1="17.9414" x2="12.5577" y2="18.6675" gradientUnits="userSpaceOnUse">
<stop stop-color="#E2F5FF" stop-opacity="0"/>
<stop offset="0.479167" stop-color="#B6CAFE"/>
<stop offset="1" stop-color="#CCD7FF"/>
</linearGradient>
<linearGradient id="paint21_linear_4754_35508" x1="12.3009" y1="18.7176" x2="11.6957" y2="18.7892" gradientUnits="userSpaceOnUse">
<stop stop-color="#C9DEFC"/>
<stop offset="0.309893" stop-color="#ECF4FF"/>
<stop offset="0.523799" stop-color="#EAF6FF"/>
<stop offset="0.613641" stop-color="#CCE7FF"/>
<stop offset="1" stop-color="#CEE4F9"/>
</linearGradient>
<linearGradient id="paint22_linear_4754_35508" x1="9.53829" y1="2.56607" x2="15.5765" y2="14.5621" gradientUnits="userSpaceOnUse">
<stop stop-color="#FAFAFA"/>
<stop offset="1" stop-color="#C2C4CD"/>
</linearGradient>
<linearGradient id="paint23_linear_4754_35508" x1="9.48484" y1="3.55985" x2="14.6912" y2="13.1674" gradientUnits="userSpaceOnUse">
<stop stop-color="#CDCFD6"/>
<stop offset="1" stop-color="#EFEFF1"/>
</linearGradient>
<linearGradient id="paint24_linear_4754_35508" x1="10.0484" y1="3.21097" x2="15.6573" y2="13.3016" gradientUnits="userSpaceOnUse">
<stop stop-color="#DDDFE2"/>
<stop offset="1" stop-color="white"/>
</linearGradient>
<radialGradient id="paint25_radial_4754_35508" cx="0" cy="0" r="1" gradientUnits="userSpaceOnUse" gradientTransform="translate(12.3826 8.47986) rotate(90) scale(6.07556 5.23315)">
<stop stop-color="#F5F7FF"/>
<stop offset="1" stop-color="#B3B5C5"/>
</radialGradient>
<linearGradient id="paint26_linear_4754_35508" x1="12.3825" y1="2.16406" x2="12.3825" y2="14.7958" gradientUnits="userSpaceOnUse">
<stop stop-color="white"/>
<stop offset="1" stop-color="#F2EDED" stop-opacity="0"/>
</linearGradient>
<linearGradient id="paint27_linear_4754_35508" x1="5.92155" y1="3.3063" x2="12.2374" y2="14.2457" gradientUnits="userSpaceOnUse">
<stop stop-color="white"/>
<stop offset="1" stop-color="#F2EDED" stop-opacity="0"/>
</linearGradient>
<linearGradient id="paint28_linear_4754_35508" x1="18.3727" y1="3.30699" x2="12.0569" y2="14.2464" gradientUnits="userSpaceOnUse">
<stop stop-color="white"/>
<stop offset="1" stop-color="#F2EDED" stop-opacity="0"/>
</linearGradient>
<linearGradient id="paint29_linear_4754_35508" x1="12.3826" y1="10.7052" x2="12.351" y2="14.1338" gradientUnits="userSpaceOnUse">
<stop stop-color="white" stop-opacity="0"/>
<stop offset="1" stop-color="#D0DBFF"/>
</linearGradient>
</defs>
</svg>
