<svg width="25" height="20" viewBox="0 0 25 20" fill="none" xmlns="http://www.w3.org/2000/svg">
<path d="M4.61865 6.16016H6.55025V10.7209C5.343 10.7209 4.61865 9.8674 4.61865 9.17396V6.16016Z" fill="url(#paint0_linear_4754_35585)"/>
<path d="M4.61865 6.16016H6.55025V10.7209C5.343 10.7209 4.61865 9.8674 4.61865 9.17396V6.16016Z" stroke="url(#paint1_linear_4754_35585)" stroke-width="0.186906"/>
<path d="M20.8228 6.16016H18.8912V10.7209C20.0984 10.7209 20.8228 9.8674 20.8228 9.17396V6.16016Z" fill="url(#paint2_linear_4754_35585)"/>
<path d="M20.8228 6.16016H18.8912V10.7209C20.0984 10.7209 20.8228 9.8674 20.8228 9.17396V6.16016Z" stroke="url(#paint3_linear_4754_35585)" stroke-width="0.186906"/>
<path d="M10.1465 10.293H15.378V17.7927L12.8636 19.2356C12.7803 19.2834 12.6778 19.2832 12.5946 19.2351L10.1465 17.8184V10.293Z" fill="#BB9986" stroke="url(#paint4_linear_4754_35585)" stroke-width="0.186906"/>
<path fill-rule="evenodd" clip-rule="evenodd" d="M9.77068 10.293V17.6461L7.65013 16.4021C7.56772 16.3537 7.51709 16.2653 7.51709 16.1698V10.293H9.77068Z" fill="#8C685C" stroke="url(#paint5_linear_4754_35585)" stroke-width="0.186906"/>
<path fill-rule="evenodd" clip-rule="evenodd" d="M15.7264 10.293V17.6461L17.8469 16.4021C17.9294 16.3537 17.98 16.2653 17.98 16.1698V10.293H15.7264Z" fill="#8C685C" stroke="url(#paint6_linear_4754_35585)" stroke-width="0.186906"/>
<path d="M17.7915 13.4844V16.033C17.6753 16.0419 17.4374 16.1403 17.4159 16.4622L15.9404 17.3207V14.3965" stroke="url(#paint7_linear_4754_35585)" stroke-width="0.0934529"/>
<path d="M10.3877 17.5127C10.4616 17.5266 10.5336 17.5492 10.5967 17.6055C10.6643 17.666 10.7191 17.763 10.7598 17.9199L12.7295 19.0381H12.7676L14.7383 17.9199C14.7789 17.763 14.8327 17.666 14.9004 17.6055C14.9634 17.5491 15.0355 17.5266 15.1094 17.5127V14.9062H15.1631V17.5576L15.1406 17.5615C15.0618 17.5747 14.9943 17.5939 14.9365 17.6455C14.8784 17.6975 14.8267 17.7861 14.7871 17.9443L14.7842 17.9551L12.791 19.0869L12.7754 19.0918H12.7148L10.7139 17.9551L10.7109 17.9443C10.6714 17.7861 10.6197 17.6975 10.5615 17.6455C10.5036 17.5937 10.4355 17.5747 10.3564 17.5615L10.334 17.5576V14.9062H10.3877V17.5127Z" fill="url(#paint8_linear_4754_35585)"/>
<path d="M7.73145 13.4844V16.033C7.8477 16.0419 8.08557 16.1403 8.10703 16.4622L9.58256 17.3207V14.3965" stroke="url(#paint9_linear_4754_35585)" stroke-width="0.0934529"/>
<g filter="url(#filter0_d_4754_35585)">
<path d="M11.9619 1.10048L6.84369 3.88474C6.33242 4.16287 6.01416 4.6983 6.01416 5.28031V11.6818C6.01416 12.2639 6.33242 12.7993 6.84368 13.0774L11.9619 15.8617C12.4353 16.1192 13.0069 16.1192 13.4803 15.8617L18.5985 13.0774C19.1098 12.7993 19.428 12.2639 19.428 11.6818L19.428 5.28032C19.428 4.6983 19.1098 4.16287 18.5985 3.88474L13.4803 1.10048C13.0069 0.842979 12.4353 0.842979 11.9619 1.10048Z" fill="url(#paint10_linear_4754_35585)"/>
<path d="M11.9568 2.27862L7.86009 4.50718C7.35075 4.78426 7.03369 5.31767 7.03369 5.8975V11.0361C7.03369 11.6159 7.35075 12.1493 7.86009 12.4264L11.9568 14.655C12.4284 14.9115 12.9979 14.9115 13.4694 14.655L17.5662 12.4264C18.0755 12.1493 18.3926 11.6159 18.3926 11.0361L18.3926 5.8975C18.3926 5.31768 18.0755 4.78426 17.5662 4.50719L13.4694 2.27862C12.9979 2.02208 12.4284 2.02208 11.9568 2.27862Z" fill="url(#paint11_linear_4754_35585)"/>
<g filter="url(#filter1_f_4754_35585)">
<path d="M11.9568 2.27862L7.86009 4.50718C7.35075 4.78426 7.03369 5.31767 7.03369 5.8975V11.0361C7.03369 11.6159 7.35075 12.1493 7.86009 12.4264L11.9568 14.655C12.4284 14.9115 12.9979 14.9115 13.4694 14.655L17.5662 12.4264C18.0755 12.1493 18.3926 11.6159 18.3926 11.0361L18.3926 5.8975C18.3926 5.31768 18.0755 4.78426 17.5662 4.50719L13.4694 2.27862C12.9979 2.02208 12.4284 2.02208 11.9568 2.27862Z" stroke="url(#paint12_linear_4754_35585)" stroke-width="0.0934529"/>
</g>
<g opacity="0.5">
<mask id="mask0_4754_35585" style="mask-type:alpha" maskUnits="userSpaceOnUse" x="7" y="2" width="11" height="13">
<path d="M12.0286 2.79503L8.3027 4.82006C7.81793 5.08353 7.51611 5.59108 7.51611 6.14282V10.8128C7.51611 11.3646 7.81793 11.8721 8.3027 12.1356L12.0286 14.1606C12.4769 14.4043 13.0181 14.4043 13.4664 14.1606L17.1923 12.1356C17.6771 11.8721 17.9789 11.3646 17.9789 10.8128L17.9789 6.14282C17.9789 5.59108 17.6771 5.08353 17.1923 4.82006L13.4664 2.79503C13.0181 2.55137 12.4769 2.55137 12.0286 2.79503Z" fill="#A6D3DE"/>
</mask>
<g mask="url(#mask0_4754_35585)">
<path d="M12.0286 2.79503L8.3027 4.82006C7.81793 5.08353 7.51611 5.59108 7.51611 6.14282V10.8128C7.51611 11.3646 7.81793 11.8721 8.3027 12.1356L12.0286 14.1606C12.4769 14.4043 13.0181 14.4043 13.4664 14.1606L17.1923 12.1356C17.6771 11.8721 17.9789 11.3646 17.9789 10.8128L17.9789 6.14282C17.9789 5.59108 17.6771 5.08353 17.1923 4.82006L13.4664 2.79503C13.0181 2.55137 12.4769 2.55137 12.0286 2.79503Z" fill="url(#paint13_radial_4754_35585)"/>
<path opacity="0.5" d="M11.8733 14.7916L11.6655 2.16406H13.8302L13.6224 14.7916H11.8733Z" fill="url(#paint14_linear_4754_35585)"/>
<path opacity="0.5" d="M11.8458 14.6795L5.35205 3.84766L7.22675 2.7653L13.3605 13.805L11.8458 14.6795Z" fill="url(#paint15_linear_4754_35585)"/>
<path opacity="0.5" d="M11.6655 13.8053L17.7993 2.76562L19.674 3.84798L13.1803 14.6798L11.6655 13.8053Z" fill="url(#paint16_linear_4754_35585)"/>
<rect x="7.51611" y="7.75586" width="10.4628" height="6.79481" fill="url(#paint17_linear_4754_35585)"/>
<g filter="url(#filter2_i_4754_35585)">
<path d="M12.0286 2.79503L8.3027 4.82006C7.81793 5.08353 7.51611 5.59108 7.51611 6.14282V10.8128C7.51611 11.3646 7.81793 11.8721 8.3027 12.1356L12.0286 14.1606C12.4769 14.4043 13.0181 14.4043 13.4664 14.1606L17.1923 12.1356C17.6771 11.8721 17.9789 11.3646 17.9789 10.8128L17.9789 6.14282C17.9789 5.59108 17.6771 5.08353 17.1923 4.82006L13.4664 2.79503C13.0181 2.55137 12.4769 2.55137 12.0286 2.79503Z" fill="#F5C4AF" fill-opacity="0.03"/>
</g>
</g>
</g>
</g>
<g filter="url(#filter3_i_4754_35585)">
<path d="M12.6803 4.88711C13.1537 4.88711 13.557 4.96378 13.8903 5.11711C14.2303 5.27044 14.487 5.47711 14.6603 5.73711C14.8403 5.99711 14.9303 6.28711 14.9303 6.60711C14.9303 7.01378 14.8137 7.35378 14.5803 7.62711C14.3537 7.90044 14.0303 8.09711 13.6103 8.21711C14.0637 8.26378 14.4337 8.42711 14.7203 8.70711C15.007 8.98044 15.1503 9.37044 15.1503 9.87711C15.1503 10.2571 15.0503 10.6071 14.8503 10.9271C14.6503 11.2404 14.3537 11.4904 13.9603 11.6771C13.5737 11.8638 13.1103 11.9571 12.5703 11.9571C11.5837 11.9571 10.8103 11.6171 10.2503 10.9371L11.1003 10.1071C11.327 10.3338 11.547 10.5004 11.7603 10.6071C11.9803 10.7071 12.2203 10.7571 12.4803 10.7571C12.7937 10.7571 13.047 10.6704 13.2403 10.4971C13.4337 10.3238 13.5303 10.0838 13.5303 9.77711C13.5303 9.43044 13.437 9.18378 13.2503 9.03711C13.0703 8.88378 12.797 8.80711 12.4303 8.80711H11.8703L12.0403 7.71711H12.4303C12.7303 7.71711 12.967 7.64044 13.1403 7.48711C13.3137 7.33378 13.4003 7.11711 13.4003 6.83711C13.4003 6.59044 13.3203 6.40044 13.1603 6.26711C13.0003 6.12711 12.7803 6.05711 12.5003 6.05711C12.027 6.05711 11.587 6.25378 11.1803 6.64711L10.4003 5.79711C11.0403 5.19044 11.8003 4.88711 12.6803 4.88711Z" fill="#9A6047"/>
</g>
<defs>
<filter id="filter0_d_4754_35585" x="5.45344" y="0.908203" width="14.5355" height="16.4548" filterUnits="userSpaceOnUse" color-interpolation-filters="sRGB">
<feFlood flood-opacity="0" result="BackgroundImageFix"/>
<feColorMatrix in="SourceAlpha" type="matrix" values="0 0 0 0 0 0 0 0 0 0 0 0 0 0 0 0 0 0 127 0" result="hardAlpha"/>
<feOffset dy="0.747623"/>
<feGaussianBlur stdDeviation="0.280359"/>
<feColorMatrix type="matrix" values="0 0 0 0 0.491667 0 0 0 0 0.276808 0 0 0 0 0.208958 0 0 0 0.54 0"/>
<feBlend mode="normal" in2="BackgroundImageFix" result="effect1_dropShadow_4754_35585"/>
<feBlend mode="normal" in="SourceGraphic" in2="effect1_dropShadow_4754_35585" result="shape"/>
</filter>
<filter id="filter1_f_4754_35585" x="6.93074" y="1.98299" width="11.5648" height="12.9676" filterUnits="userSpaceOnUse" color-interpolation-filters="sRGB">
<feFlood flood-opacity="0" result="BackgroundImageFix"/>
<feBlend mode="normal" in="SourceGraphic" in2="BackgroundImageFix" result="shape"/>
<feGaussianBlur stdDeviation="0.0280359" result="effect1_foregroundBlur_4754_35585"/>
</filter>
<filter id="filter2_i_4754_35585" x="7.51611" y="2.61133" width="10.4629" height="11.7324" filterUnits="userSpaceOnUse" color-interpolation-filters="sRGB">
<feFlood flood-opacity="0" result="BackgroundImageFix"/>
<feBlend mode="normal" in="SourceGraphic" in2="BackgroundImageFix" result="shape"/>
<feColorMatrix in="SourceAlpha" type="matrix" values="0 0 0 0 0 0 0 0 0 0 0 0 0 0 0 0 0 0 127 0" result="hardAlpha"/>
<feOffset/>
<feGaussianBlur stdDeviation="0.62839"/>
<feComposite in2="hardAlpha" operator="arithmetic" k2="-1" k3="1"/>
<feColorMatrix type="matrix" values="0 0 0 0 0.283333 0 0 0 0 0.158667 0 0 0 0 0.0566667 0 0 0 1 0"/>
<feBlend mode="normal" in2="shape" result="effect1_innerShadow_4754_35585"/>
</filter>
<filter id="filter3_i_4754_35585" x="10.2505" y="4.88672" width="4.8999" height="9.39844" filterUnits="userSpaceOnUse" color-interpolation-filters="sRGB">
<feFlood flood-opacity="0" result="BackgroundImageFix"/>
<feBlend mode="normal" in="SourceGraphic" in2="BackgroundImageFix" result="shape"/>
<feColorMatrix in="SourceAlpha" type="matrix" values="0 0 0 0 0 0 0 0 0 0 0 0 0 0 0 0 0 0 127 0" result="hardAlpha"/>
<feOffset dy="2.32812"/>
<feGaussianBlur stdDeviation="1.16406"/>
<feComposite in2="hardAlpha" operator="arithmetic" k2="-1" k3="1"/>
<feColorMatrix type="matrix" values="0 0 0 0 0 0 0 0 0 0 0 0 0 0 0 0 0 0 0.25 0"/>
<feBlend mode="normal" in2="shape" result="effect1_innerShadow_4754_35585"/>
</filter>
<linearGradient id="paint0_linear_4754_35585" x1="5.58445" y1="6.16016" x2="5.58445" y2="10.7209" gradientUnits="userSpaceOnUse">
<stop stop-color="#EFD9BD"/>
<stop offset="1" stop-color="#C39470"/>
</linearGradient>
<linearGradient id="paint1_linear_4754_35585" x1="4.61865" y1="6.16016" x2="5.58445" y2="10.7209" gradientUnits="userSpaceOnUse">
<stop stop-color="#F3DDC4"/>
<stop offset="0.378992" stop-color="#F3DDC4"/>
<stop offset="0.46253" stop-color="#F3DDC4"/>
<stop offset="1" stop-color="#74523F"/>
</linearGradient>
<linearGradient id="paint2_linear_4754_35585" x1="19.857" y1="6.16016" x2="19.857" y2="10.7209" gradientUnits="userSpaceOnUse">
<stop stop-color="#EFD9BD"/>
<stop offset="1" stop-color="#C39470"/>
</linearGradient>
<linearGradient id="paint3_linear_4754_35585" x1="20.8228" y1="6.16016" x2="19.857" y2="10.7209" gradientUnits="userSpaceOnUse">
<stop stop-color="#F3DDC4"/>
<stop offset="0.378992" stop-color="#F3DDC4"/>
<stop offset="0.46253" stop-color="#F3DDC4"/>
<stop offset="1" stop-color="#74523F"/>
</linearGradient>
<linearGradient id="paint4_linear_4754_35585" x1="10.1464" y1="17.2682" x2="15.4046" y2="17.7242" gradientUnits="userSpaceOnUse">
<stop stop-color="#D8B697"/>
<stop offset="0.374385" stop-color="#F0D6BD"/>
<stop offset="0.71988" stop-color="#C89E78"/>
<stop offset="0.9381" stop-color="#DFCBB9"/>
</linearGradient>
<linearGradient id="paint5_linear_4754_35585" x1="7.51706" y1="15.9792" x2="9.7944" y2="16.0836" gradientUnits="userSpaceOnUse">
<stop stop-color="#D8B697"/>
<stop offset="0.374385" stop-color="#F0D6BD"/>
<stop offset="0.71988" stop-color="#C89E78"/>
<stop offset="0.9381" stop-color="#DFCBB9"/>
</linearGradient>
<linearGradient id="paint6_linear_4754_35585" x1="17.98" y1="15.9792" x2="15.7027" y2="16.0836" gradientUnits="userSpaceOnUse">
<stop stop-color="#D8B697"/>
<stop offset="0.374385" stop-color="#F0D6BD"/>
<stop offset="0.71988" stop-color="#C89E78"/>
<stop offset="0.9381" stop-color="#DFCBB9"/>
</linearGradient>
<linearGradient id="paint7_linear_4754_35585" x1="17.7915" y1="16.4511" x2="15.9267" y2="16.5856" gradientUnits="userSpaceOnUse">
<stop stop-color="#D8B697"/>
<stop offset="0.374385" stop-color="#F0D6BD"/>
<stop offset="0.71988" stop-color="#C89E78"/>
<stop offset="0.9381" stop-color="#DFCBB9"/>
</linearGradient>
<linearGradient id="paint8_linear_4754_35585" x1="10.4413" y1="16.1404" x2="14.7608" y2="17.911" gradientUnits="userSpaceOnUse">
<stop offset="0.192454" stop-color="#DFCBB9"/>
<stop offset="0.475371" stop-color="#D8B290"/>
<stop offset="0.678187" stop-color="#DEBFA4"/>
<stop offset="0.866423" stop-color="#DFCBB9"/>
</linearGradient>
<linearGradient id="paint9_linear_4754_35585" x1="7.73142" y1="16.4511" x2="9.59626" y2="16.5856" gradientUnits="userSpaceOnUse">
<stop stop-color="#D8B697"/>
<stop offset="0.374385" stop-color="#F0D6BD"/>
<stop offset="0.71988" stop-color="#C89E78"/>
<stop offset="0.9381" stop-color="#DFCBB9"/>
</linearGradient>
<linearGradient id="paint10_linear_4754_35585" x1="9.90418" y1="2.56544" x2="15.9404" y2="14.5574" gradientUnits="userSpaceOnUse">
<stop stop-color="#F1DCC1"/>
<stop offset="1" stop-color="#BD8A65"/>
</linearGradient>
<linearGradient id="paint11_linear_4754_35585" x1="9.8506" y1="3.55733" x2="15.0552" y2="13.1617" gradientUnits="userSpaceOnUse">
<stop stop-color="#BF8E69"/>
<stop offset="1" stop-color="#E4C196"/>
</linearGradient>
<linearGradient id="paint12_linear_4754_35585" x1="10.414" y1="3.20857" x2="16.021" y2="13.2958" gradientUnits="userSpaceOnUse">
<stop stop-color="#EBD4B7"/>
<stop offset="1" stop-color="#FFE3CE"/>
</linearGradient>
<radialGradient id="paint13_radial_4754_35585" cx="0" cy="0" r="1" gradientUnits="userSpaceOnUse" gradientTransform="translate(12.7475 8.47783) rotate(90) scale(6.07353 5.2314)">
<stop stop-color="#E3C29C"/>
<stop offset="1" stop-color="#D1A479"/>
</radialGradient>
<linearGradient id="paint14_linear_4754_35585" x1="12.7479" y1="2.16406" x2="12.7479" y2="14.7916" gradientUnits="userSpaceOnUse">
<stop stop-color="white"/>
<stop offset="1" stop-color="#F2EDED" stop-opacity="0"/>
</linearGradient>
<linearGradient id="paint15_linear_4754_35585" x1="6.2894" y1="3.30648" x2="12.6032" y2="14.2422" gradientUnits="userSpaceOnUse">
<stop stop-color="white"/>
<stop offset="1" stop-color="#F2EDED" stop-opacity="0"/>
</linearGradient>
<linearGradient id="paint16_linear_4754_35585" x1="18.7367" y1="3.3068" x2="12.4229" y2="14.2426" gradientUnits="userSpaceOnUse">
<stop stop-color="white"/>
<stop offset="1" stop-color="#F2EDED" stop-opacity="0"/>
</linearGradient>
<linearGradient id="paint17_linear_4754_35585" x1="12.7475" y1="10.7023" x2="12.716" y2="14.1297" gradientUnits="userSpaceOnUse">
<stop offset="0.291667" stop-color="#FFFAF7" stop-opacity="0"/>
<stop offset="1" stop-color="#E4CBAD"/>
</linearGradient>
</defs>
</svg>
