<svg width="22" height="21" viewBox="0 0 22 21" fill="none" xmlns="http://www.w3.org/2000/svg">
<path d="M20.4569 20.8968L15.2877 15.7276C14.5361 16.3142 13.7067 16.7725 12.7993 17.1024C11.8919 17.4324 10.925 17.5973 9.8985 17.5973C8.24875 17.5973 6.75939 17.1941 5.43043 16.3875C4.10146 15.581 3.05204 14.5178 2.28215 13.198H4.97675C5.59998 13.8762 6.32862 14.4124 7.16266 14.8065C7.9967 15.2006 8.90865 15.3977 9.8985 15.3977C11.7316 15.3977 13.2897 14.7561 14.5728 13.473C15.8559 12.1898 16.4975 10.6317 16.4975 8.79867C16.4975 6.96561 15.8559 5.40751 14.5728 4.12437C13.2897 2.84124 11.7316 2.19967 9.8985 2.19967C8.17543 2.19967 6.68607 2.78166 5.43043 3.94565C4.17478 5.10964 3.47364 6.54401 3.327 8.24875H1.12733C1.27397 5.92077 2.18592 3.96398 3.86316 2.37839C5.54041 0.792796 7.55219 0 9.8985 0C12.3548 0 14.4353 0.852371 16.1401 2.55711C17.8448 4.26185 18.6972 6.34237 18.6972 8.79867C18.6972 9.82518 18.5322 10.7921 18.2022 11.6995C17.8723 12.6068 17.414 13.4363 16.8274 14.1878L21.9967 19.3571L20.4569 20.8968ZM8.71618 13.198L6.98394 7.47887L5.55416 11.5482H0V9.8985H4.39933L6.21406 4.67429H7.86381L9.54105 10.2834L10.7234 6.599H12.3731L14.0229 9.8985H14.8477V11.5482H13.0055L11.7132 8.96364L10.3384 13.198H8.71618Z" fill="white"/>
</svg>
