<svg width="181" height="130" viewBox="0 0 181 130" fill="none" xmlns="http://www.w3.org/2000/svg">
<g clip-path="url(#clip0_4095_25321)">
<path fill-rule="evenodd" clip-rule="evenodd" d="M74.5523 69.6994C75.3403 69.6023 76.1343 69.3933 76.9267 69.1842C81.1912 68.2565 86.1609 67.23 89.9089 65.2836C94.8264 62.687 96.8592 59.6994 97.0195 56.6759C97.2408 52.4205 93.3155 47.9745 87.7176 45.1777C82.1723 42.3818 75.079 41.1254 69.1938 42.6947C65.1625 43.7389 61.6224 46.1376 59.4987 50.3567C57.055 55.1302 58.4868 59.7534 61.9621 63.855C63.2626 65.449 64.8637 66.8244 66.6362 68.2033C64.164 68.4925 61.6677 68.7817 59.1368 69.0698C50.8643 69.8091 42.2168 69.8688 33.96 69.3753C23.0306 68.8309 12.6659 66.9515 2.75287 63.6241C1.83231 63.3824 0.739179 63.698 0.309499 64.3624C-0.118655 65.0268 0.27446 65.8185 1.18757 66.1722C11.4917 69.6192 22.261 71.6186 33.6204 72.1712C42.1253 72.5573 51.0151 72.6136 59.5342 71.767C63.0651 71.3859 66.5314 71.0037 69.966 70.5086C74.2524 73.1684 79.0708 75.2781 83.2 76.5898C110.849 84.9628 149.46 75.4979 175.656 65.9082C176.572 65.5894 176.964 64.8115 176.537 64.1308C176.107 63.4501 175.014 63.205 174.098 63.5239C148.744 72.7933 111.423 82.1716 84.6646 74.0397C81.5177 73.083 77.9344 71.5573 74.5523 69.6994ZM71.0483 67.5025C72.6724 67.3092 74.2933 67.0044 75.9173 66.587C79.8313 65.6527 84.4117 64.8433 87.841 63.1151C91.5528 61.1681 93.2313 58.9573 93.3501 56.7177C93.5386 53.1342 90.1375 49.7071 85.6062 47.491C81.0312 45.162 75.2193 43.9302 70.3565 45.2948C67.229 46.132 64.5713 47.9874 62.9282 51.2069C60.9111 55.2039 62.2101 59.0392 65.0788 62.3445C66.6682 64.2804 68.7433 66.0013 71.0483 67.5025Z" fill="white"/>
<path fill-rule="evenodd" clip-rule="evenodd" d="M176.293 64.9629C175.734 65.4987 174.916 66.0296 174.097 66.5605C172.519 67.6234 170.858 68.5757 169.959 69.433C164.431 74.5737 157.887 80.7877 154.755 86.9571C154.405 87.6061 154.873 88.3799 155.806 88.616C156.737 88.8521 157.775 88.5441 158.133 87.7859C161.133 81.9419 167.462 76.0508 172.774 71.0152C173.741 70.1593 175.746 68.9958 177.361 67.9335C178.735 66.976 179.844 66.0133 180.289 65.0382C180.592 64.4976 180.362 63.5098 178.739 62.8236C176.436 61.906 169.929 61.0177 169.302 60.8966C162.944 59.6839 157.358 58.4861 153.576 54.2624C153.028 53.7057 151.906 53.5755 151.081 53.8877C150.248 54.3091 150.012 55.179 150.561 55.7358C154.875 60.5158 161.11 62.163 168.361 63.5018C168.828 63.5106 172.719 64.0211 175.399 64.7272C175.687 64.8419 176.011 64.8483 176.293 64.9629Z" fill="white"/>
</g>
<defs>
<clipPath id="clip0_4095_25321">
<rect width="181" height="130" fill="white"/>
</clipPath>
</defs>
</svg>
