<svg width="68" height="23" viewBox="0 0 68 23" fill="none" xmlns="http://www.w3.org/2000/svg">
<g clip-path="url(#clip0_634_1289)">
<path d="M28.5254 22.7285L30.7796 0.565918H37.1017C38.0173 0.565918 38.8205 0.614938 39.5114 0.712956C40.211 0.810973 40.8631 0.993664 41.4677 1.261C42.0809 1.51943 42.5688 1.86697 42.9316 2.30363C43.2943 2.73138 43.5621 3.2928 43.7348 3.98788C43.8384 4.43344 43.8946 4.92358 43.9033 5.45826C43.9033 5.76125 43.8859 6.08206 43.8515 6.42069C43.7132 7.84651 43.3764 9.01389 42.841 9.92285C42.3141 10.8318 41.4978 11.5626 40.3923 12.1151L42.6206 22.7285H37.4126L35.8321 12.9171H34.7051L33.7075 22.7285H28.5254ZM35.003 9.96296H36.3375C37.2184 9.96296 37.8575 9.70453 38.2548 9.18767C38.6607 8.6708 38.9111 7.93561 39.0062 6.9821C39.0321 6.73258 39.045 6.50089 39.045 6.28702C39.045 5.68105 38.9457 5.19984 38.7471 4.84337C38.4793 4.34434 37.9655 4.09482 37.2054 4.09482H35.5989L35.003 9.96296ZM43.1015 22.7285L45.3557 0.565918H55.3443L54.9815 4.16165H50.1622L49.6568 9.18767H53.2584L52.8826 12.8903H49.2812L48.6463 19.1594H53.5175L53.1417 22.7285H43.1015ZM56.2785 22.7285L54.8793 0.565918H59.2323L59.7764 15.2697L63.1576 0.565918H67.8345L61.8621 22.7285H56.2785Z" fill="white"/>
<mask id="mask0_634_1289" style="mask-type:alpha" maskUnits="userSpaceOnUse" x="-6" y="-4" width="39" height="31">
<path d="M32.5546 -3.36426H-6V26.1502H32.5546V-3.36426Z" fill="#D9D9D9"/>
</mask>
<g mask="url(#mask0_634_1289)">
<path d="M4.6748 22.6749H-0.144531V20.2154H4.6748V22.6749ZM12.707 22.6749H7.88768V20.2154H12.707V22.6749ZM20.7392 22.6749H15.9199V20.2154H20.7392V22.6749ZM25.9354 22.6749H23.9521V20.2154H26.1932L25.9354 22.6749ZM28.7714 22.6749H28.5264L28.7714 20.3392V22.6749ZM12.707 17.7558H-0.144531V15.2963H12.707V17.7558ZM26.4515 17.7558H15.9199V15.2963H26.7094L26.4515 17.7558ZM26.9675 12.8367H-0.144531V10.3772H27.2253L26.9675 12.8367ZM12.707 7.91767H-0.144531V5.45814H12.707V7.91767ZM27.4834 7.91767H15.9199V5.45814H27.7412L27.4834 7.91767ZM4.6748 2.9986H-0.144531V0.539062H4.6748V2.9986ZM12.707 2.9986H7.88768V0.539062H12.707V2.9986ZM20.7392 2.9986H15.9199V0.539062H20.7392V2.9986ZM27.9991 2.9986H23.9521V0.539062H28.2574L27.9991 2.9986Z" fill="white"/>
</g>
</g>
<defs>
<clipPath id="clip0_634_1289">
<rect width="68" height="23" fill="white"/>
</clipPath>
</defs>
</svg>
