<svg width="193" height="189" viewBox="0 0 193 189" fill="none" xmlns="http://www.w3.org/2000/svg">
<path d="M97.3226 0H94.8398V6.39546H97.3226V0Z" fill="#FFD278"/>
<path d="M49.1189 12.0381L46.9688 13.2578L50.2232 18.7964L52.3733 17.5767L49.1189 12.0381Z" fill="#FFD278"/>
<path d="M13.4914 46.151L12.25 48.2637L17.8868 51.4614L19.1282 49.3487L13.4914 46.151Z" fill="#FFD278"/>
<path d="M6.50881 93.1953H0V95.6348H6.50881V93.1953Z" fill="#FFD278"/>
<path d="M17.8868 137.359L12.25 140.557L13.4914 142.669L19.1282 139.472L17.8868 137.359Z" fill="#FFD278"/>
<path d="M50.2153 170.028L46.9609 175.566L49.1111 176.786L52.3655 171.248L50.2153 170.028Z" fill="#FFD278"/>
<path d="M97.3226 182.428H94.8398V188.823H97.3226V182.428Z" fill="#FFD278"/>
<path d="M141.939 170.024L139.789 171.244L143.043 176.783L145.194 175.563L141.939 170.024Z" fill="#FFD278"/>
<path d="M174.273 137.358L173.031 139.471L178.668 142.668L179.909 140.556L174.273 137.358Z" fill="#FFD278"/>
<path d="M192.161 93.1953H185.652V95.6348H192.161V93.1953Z" fill="#FFD278"/>
<path d="M178.668 46.1558L173.031 49.3535L174.273 51.4662L179.909 48.2685L178.668 46.1558Z" fill="#FFD278"/>
<path d="M143.04 12.0473L139.785 17.5859L141.935 18.8057L145.19 13.2671L143.04 12.0473Z" fill="#FFD278"/>
<path d="M86.7996 0.431272L85.3398 0.582031L85.9474 6.26216L87.4072 6.1114L86.7996 0.431272Z" fill="#FFD278"/>
<path d="M76.8733 1.89935L75.4375 2.19922L76.646 7.78582L78.0818 7.48596L76.8733 1.89935Z" fill="#FFD278"/>
<path d="M67.1655 4.36681L65.7695 4.8125L67.5657 10.2444L68.9617 9.79869L67.1655 4.36681Z" fill="#FFD278"/>
<path d="M57.7706 7.81181L56.4297 8.39844L58.7939 13.6161L60.1348 13.0294L57.7706 7.81181Z" fill="#FFD278"/>
<path d="M40.3398 17.5194L39.1523 18.3672L42.5689 22.9878L43.7564 22.1401L40.3398 17.5194Z" fill="#FFD278"/>
<path d="M32.4853 23.6463L31.3945 24.6113L35.2839 28.8557L36.3748 27.8907L32.4853 23.6463Z" fill="#FFD278"/>
<path d="M25.3416 30.5629L24.3594 31.6348L28.679 35.4564L29.6612 34.3846L25.3416 30.5629Z" fill="#FFD278"/>
<path d="M18.9643 38.1691L18.1016 39.3359L22.8041 42.693L23.6669 41.5262L18.9643 38.1691Z" fill="#FFD278"/>
<path d="M8.80405 55.1297L8.20703 56.4473L13.5171 58.7703L14.1142 57.4527L8.80405 55.1297Z" fill="#FFD278"/>
<path d="M5.13327 64.2963L4.67969 65.668L10.2078 67.4329L10.6614 66.0612L5.13327 64.2963Z" fill="#FFD278"/>
<path d="M2.44971 73.7963L2.14453 75.207L7.83014 76.3945L8.13533 74.9837L2.44971 73.7963Z" fill="#FFD278"/>
<path d="M0.801868 83.5227L0.648438 84.957L6.42923 85.554L6.58266 84.1197L0.801868 83.5227Z" fill="#FFD278"/>
<path d="M6.4058 102.606L0.625 103.203L0.778431 104.637L6.55923 104.04L6.4058 102.606Z" fill="#FFD278"/>
<path d="M7.79109 111.766L2.10547 112.953L2.41065 114.364L8.09627 113.176L7.79109 111.766Z" fill="#FFD278"/>
<path d="M10.1532 120.721L4.625 122.486L5.07859 123.858L10.6067 122.093L10.1532 120.721Z" fill="#FFD278"/>
<path d="M13.4507 129.398L8.14062 131.721L8.73765 133.038L14.0478 130.715L13.4507 129.398Z" fill="#FFD278"/>
<path d="M22.7142 145.494L18.0117 148.852L18.8745 150.018L23.577 146.661L22.7142 145.494Z" fill="#FFD278"/>
<path d="M28.5774 152.737L24.2578 156.559L25.24 157.63L29.5596 153.809L28.5774 152.737Z" fill="#FFD278"/>
<path d="M35.1707 159.349L31.2812 163.594L32.3721 164.559L36.2615 160.314L35.1707 159.349Z" fill="#FFD278"/>
<path d="M42.4439 165.231L39.0273 169.852L40.2148 170.699L43.6314 166.079L42.4439 165.231Z" fill="#FFD278"/>
<path d="M58.6533 174.63L56.2891 179.848L57.63 180.434L59.9942 175.217L58.6533 174.63Z" fill="#FFD278"/>
<path d="M67.4212 178.017L65.625 183.449L67.021 183.895L68.8172 178.463L67.4212 178.017Z" fill="#FFD278"/>
<path d="M76.4976 180.497L75.2891 186.084L76.7248 186.384L77.9333 180.797L76.4976 180.497Z" fill="#FFD278"/>
<path d="M85.799 182.025L85.1914 187.705L86.6512 187.856L87.2588 182.176L85.799 182.025Z" fill="#FFD278"/>
<path d="M106.061 182.037L104.602 182.188L105.209 187.868L106.669 187.717L106.061 182.037Z" fill="#FFD278"/>
<path d="M115.365 180.528L113.93 180.828L115.138 186.415L116.574 186.115L115.365 180.528Z" fill="#FFD278"/>
<path d="M124.447 178.068L123.051 178.514L124.847 183.946L126.243 183.5L124.447 178.068Z" fill="#FFD278"/>
<path d="M133.22 174.679L131.879 175.266L134.243 180.483L135.584 179.897L133.22 174.679Z" fill="#FFD278"/>
<path d="M149.441 165.328L148.254 166.176L151.67 170.796L152.858 169.949L149.441 165.328Z" fill="#FFD278"/>
<path d="M156.724 159.437L155.633 160.402L159.522 164.647L160.613 163.682L156.724 159.437Z" fill="#FFD278"/>
<path d="M163.342 152.854L162.359 153.926L166.679 157.747L167.661 156.676L163.342 152.854Z" fill="#FFD278"/>
<path d="M169.214 145.614L168.352 146.781L173.054 150.138L173.917 148.972L169.214 145.614Z" fill="#FFD278"/>
<path d="M178.499 129.528L177.902 130.846L183.212 133.169L183.809 131.851L178.499 129.528Z" fill="#FFD278"/>
<path d="M181.809 120.869L181.355 122.24L186.884 124.005L187.337 122.633L181.809 120.869Z" fill="#FFD278"/>
<path d="M184.184 111.912L183.879 113.322L189.565 114.51L189.87 113.099L184.184 111.912Z" fill="#FFD278"/>
<path d="M185.591 102.757L185.438 104.191L191.218 104.788L191.372 103.354L185.591 102.757Z" fill="#FFD278"/>
<path d="M191.23 83.6706L185.449 84.2676L185.603 85.702L191.383 85.1049L191.23 83.6706Z" fill="#FFD278"/>
<path d="M189.6 73.9512L183.914 75.1387L184.219 76.5494L189.905 75.362L189.6 73.9512Z" fill="#FFD278"/>
<path d="M186.927 64.4499L181.398 66.2148L181.852 67.5865L187.38 65.8216L186.927 64.4499Z" fill="#FFD278"/>
<path d="M183.275 55.2746L177.965 57.5977L178.562 58.9152L183.872 56.5922L183.275 55.2746Z" fill="#FFD278"/>
<path d="M173.136 38.2875L168.434 41.6445L169.296 42.8114L173.999 39.4543L173.136 38.2875Z" fill="#FFD278"/>
<path d="M166.781 30.6783L162.461 34.5L163.443 35.5718L167.763 31.7501L166.781 30.6783Z" fill="#FFD278"/>
<path d="M159.632 23.7556L155.742 28L156.833 28.9651L160.722 24.7207L159.632 23.7556Z" fill="#FFD278"/>
<path d="M151.803 17.604L148.387 22.2246L149.574 23.0724L152.991 18.4517L151.803 17.604Z" fill="#FFD278"/>
<path d="M134.38 7.88002L132.016 13.0977L133.357 13.6843L135.721 8.46664L134.38 7.88002Z" fill="#FFD278"/>
<path d="M124.999 4.4158L123.203 9.84766L124.599 10.2933L126.395 4.86148L124.999 4.4158Z" fill="#FFD278"/>
<path d="M115.291 1.93099L114.082 7.51758L115.518 7.81744L116.726 2.23086L115.291 1.93099Z" fill="#FFD278"/>
<path d="M105.361 0.454658L104.754 6.13477L106.214 6.28552L106.821 0.605417L105.361 0.454658Z" fill="#FFD278"/>
</svg>
