<svg width="145" height="127" viewBox="0 0 145 127" fill="none" xmlns="http://www.w3.org/2000/svg">
<path d="M75.6328 6.09418C75.1547 6.10242 74.7689 6.49802 74.7857 6.96779C74.9199 20.2367 74.7354 33.5057 74.8025 40.1731C74.8696 46.8158 74.8696 46.8076 74.8696 46.8735C74.8696 47.1043 74.9618 47.3185 75.1212 47.4834C75.2806 47.6482 75.507 47.7389 75.7419 47.7389C75.9767 47.7389 76.1948 47.6482 76.3626 47.4834C76.5303 47.3185 76.6142 47.1043 76.6142 46.8735C76.6142 46.8295 76.5918 44.5906 76.5471 40.1566C76.48 33.5386 76.6645 20.245 76.5303 6.9513C76.5303 6.72054 76.4381 6.49802 76.2703 6.33318C76.1025 6.16835 75.8761 6.08594 75.6412 6.08594L75.6328 6.09418Z" fill="#FFD278"/>
<path d="M74.3743 25.4277C74.3492 25.4277 74.3324 25.4277 74.3072 25.4277C70.4992 25.7739 69.4759 25.3948 67.3958 25.5843C65.4583 25.7574 65.5421 25.7574 65.517 25.7574C65.2737 25.7574 65.0389 25.8481 64.8627 26.0129C64.6866 26.1777 64.5859 26.4085 64.5859 26.6557C64.5859 26.903 64.6866 27.1255 64.8627 27.2986C65.0389 27.4634 65.2737 27.5623 65.517 27.5541C65.5337 27.5541 65.6176 27.5541 67.5636 27.3728C69.3585 27.2079 70.5244 27.5705 74.475 27.2162C74.9698 27.1832 75.3473 26.7629 75.3137 26.2766C75.2886 25.7904 74.8692 25.4113 74.3659 25.436L74.3743 25.4277Z" fill="#FFD278"/>
<path d="M62.9958 23.3184C61.1254 23.3184 59.582 24.8183 59.582 26.6562C59.582 28.4941 61.1254 29.994 62.9958 29.994C64.8662 29.994 66.4096 28.4941 66.4096 26.6562C66.4096 24.8183 64.8662 23.3184 62.9958 23.3184ZM62.9958 25.0738C63.9101 25.0738 64.6314 25.7743 64.6314 26.6644C64.6314 27.5545 63.9101 28.2551 62.9958 28.2551C62.0815 28.2551 61.3602 27.5463 61.3602 26.6644C61.3602 25.7826 62.0815 25.0738 62.9958 25.0738Z" fill="#FFD278"/>
<path d="M90.6169 27.9746C88.7464 27.9746 87.2031 29.4746 87.2031 31.3124C87.2031 33.1503 88.7464 34.6503 90.6169 34.6503C92.4873 34.6503 94.0307 33.1503 94.0307 31.3124C94.0307 29.4746 92.4873 27.9746 90.6169 27.9746ZM90.6169 29.7301C91.5311 29.7301 92.2525 30.4306 92.2525 31.3207C92.2525 32.2108 91.5311 32.9113 90.6169 32.9113C89.7026 32.9113 88.9813 32.2025 88.9813 31.3207C88.9813 30.4388 89.7026 29.7301 90.6169 29.7301Z" fill="#FFD278"/>
<path d="M82.5337 29.8535C82.2737 29.8535 82.0304 29.9607 81.8543 30.1502L75.5719 36.9907C75.4042 37.1638 75.3203 37.4028 75.3287 37.6418C75.3371 37.8808 75.4461 38.1033 75.6307 38.2682C75.8152 38.4248 76.05 38.5154 76.2933 38.4989C76.5365 38.4824 76.763 38.3753 76.9224 38.194L82.8944 31.6914L88.0024 32.2106C88.2457 32.2353 88.4889 32.1694 88.6818 32.021C88.8748 31.8727 88.9922 31.6502 89.0173 31.4112C89.0425 31.1722 88.967 30.9332 88.816 30.7518C88.6651 30.5705 88.4386 30.4469 88.1954 30.4304L82.626 29.8618C82.5924 29.8618 82.5672 29.8618 82.5337 29.8618V29.8535Z" fill="#FFD278"/>
<path d="M68.7705 14.2949C68.3847 14.2949 68.0324 14.5257 67.9066 14.8883C67.7724 15.2427 67.8898 15.6465 68.1918 15.8855C68.2085 15.902 68.2673 15.9432 69.8609 17.0394C71.3371 18.0531 71.983 19.0668 75.229 21.292C75.4303 21.4321 75.6736 21.4898 75.9168 21.4486C76.16 21.4074 76.3697 21.2755 76.5123 21.0777C76.6549 20.8799 76.7052 20.6327 76.6633 20.4019C76.6214 20.1629 76.4788 19.9569 76.2775 19.825C73.1489 17.6822 72.6205 16.7427 70.9094 15.5724C69.3157 14.4762 69.3744 14.5257 69.366 14.5092C69.2067 14.3691 68.997 14.2949 68.7789 14.2949H68.7705Z" fill="#FFD278"/>
<path d="M66.5738 10.2718C65.7015 10.3378 64.8544 10.7334 64.2505 11.4339C63.0343 12.835 63.2104 14.9613 64.6363 16.1481C66.0622 17.3349 68.2262 17.1618 69.4508 15.769C70.667 14.3679 70.4909 12.2416 69.065 11.0548C68.352 10.4614 67.4546 10.2059 66.5822 10.2718H66.5738ZM66.7164 12.0108C67.1358 11.9779 67.5636 12.1015 67.9075 12.3899C68.6037 12.9668 68.6791 13.9476 68.092 14.6316C67.5049 15.3074 66.4816 15.3899 65.7854 14.813C65.0892 14.236 65.0137 13.2553 65.6009 12.5712C65.8944 12.2333 66.2971 12.0438 66.7164 12.0108Z" fill="#FFD278"/>
<path d="M82.7021 14.2938C82.5008 14.2938 82.2995 14.3762 82.1485 14.5081C82.1318 14.5246 82.1989 14.4751 80.6052 15.5712C78.8941 16.7498 78.3573 17.6811 75.2371 19.8239C75.0358 19.9558 74.8932 20.17 74.8513 20.4008C74.8094 20.6398 74.8513 20.8788 75.0023 21.0766C75.1449 21.2744 75.3546 21.4063 75.5978 21.4475C75.841 21.4887 76.0843 21.431 76.2856 21.2909C79.5316 19.0574 80.1858 18.0437 81.6537 17.0382C83.2473 15.9421 83.306 15.9009 83.3228 15.8844C83.6248 15.6372 83.7422 15.2333 83.5996 14.8707C83.457 14.5081 83.1047 14.2773 82.7105 14.2938H82.7021Z" fill="#FFD278"/>
<path d="M84.9237 10.2718C84.0514 10.2059 83.1539 10.4614 82.441 11.0548C81.0151 12.2416 80.8389 14.3679 82.0552 15.769C83.2714 17.17 85.4354 17.3349 86.8697 16.1481C88.2956 14.9613 88.4717 12.835 87.2555 11.4339C86.6432 10.7334 85.8044 10.346 84.9321 10.2718H84.9237ZM84.7811 12.0108C85.2005 12.0438 85.6031 12.2333 85.8967 12.5712C86.4838 13.2471 86.4083 14.236 85.7122 14.813C85.016 15.3899 83.9927 15.3074 83.4056 14.6316C82.8184 13.9558 82.8939 12.9668 83.5901 12.3899C83.934 12.1015 84.3701 11.9779 84.7811 12.0108Z" fill="#FFD278"/>
<path d="M75.8729 0.926141C75.0006 0.860209 74.1032 1.1157 73.3902 1.70909C71.9643 2.89588 71.7882 5.0222 73.0044 6.42327C74.2206 7.82434 76.3846 7.98917 77.8189 6.80238C79.2448 5.6156 79.4209 3.48927 78.2047 2.0882C77.5924 1.38767 76.7536 1.00032 75.8813 0.926141H75.8729ZM75.7304 2.66511C76.1497 2.69808 76.5523 2.88763 76.8459 3.22554C77.433 3.90135 77.3576 4.89034 76.6614 5.46725C75.9652 6.04416 74.9419 5.96174 74.3548 5.28593C73.7676 4.61012 73.8431 3.62937 74.5393 3.04422C74.8832 2.75577 75.3194 2.63215 75.7304 2.66511Z" fill="#FFD278"/>
<path d="M123.466 51.3228C109.962 51.4546 96.4581 51.2733 89.6725 51.3393C85.1656 51.3832 82.8925 51.4052 82.8534 51.4052C82.6185 51.4052 82.4004 51.4959 82.2327 51.6524C82.0649 51.8173 81.9727 52.0316 81.9727 52.2623C81.9727 52.4931 82.0649 52.7074 82.2327 52.8722C82.4004 53.0288 82.6185 53.1194 82.8534 53.1194C82.8981 53.1194 85.1767 53.0975 89.6893 53.0535C96.4246 52.9876 109.954 53.1689 123.483 53.037C123.718 53.037 123.944 52.9464 124.112 52.7898C124.28 52.6249 124.372 52.4024 124.372 52.1717C124.372 51.9409 124.272 51.7184 124.104 51.5618C123.936 51.4052 123.71 51.3145 123.475 51.3228H123.466Z" fill="#FFD278"/>
<path d="M102.28 41.7129C101.777 41.7129 101.375 42.125 101.383 42.6195C101.383 42.6359 101.383 42.7184 101.567 44.6304C101.735 46.3941 101.366 47.5397 101.727 51.4215C101.744 51.6605 101.861 51.883 102.046 52.0396C102.23 52.1962 102.473 52.2703 102.717 52.2456C102.96 52.2209 103.186 52.1055 103.337 51.9242C103.488 51.7346 103.564 51.4956 103.539 51.2649C103.186 47.5232 103.572 46.5177 103.379 44.4738C103.203 42.57 103.203 42.6524 103.203 42.6359C103.203 42.3969 103.111 42.1579 102.935 41.9849C102.759 41.8118 102.524 41.7211 102.28 41.7211V41.7129Z" fill="#FFD278"/>
<path d="M102.295 36.7852C100.425 36.7852 98.8984 38.3016 98.8984 40.1395C98.8984 41.9773 100.425 43.4938 102.295 43.4938C104.166 43.4938 102.413 43.4938 102.472 43.4773C104.258 43.3867 105.692 41.9197 105.692 40.1395C105.692 38.3593 104.166 36.7852 102.295 36.7852ZM102.295 38.5324C103.193 38.5324 103.914 39.2411 103.914 40.1395C103.914 41.0378 103.201 41.7466 102.295 41.7466C101.39 41.7466 100.677 41.0378 100.677 40.1395C100.677 39.2411 101.39 38.5324 102.295 38.5324Z" fill="#FFD278"/>
<path d="M97.5538 63.9336C97.4951 63.9336 97.4364 63.9336 97.3693 63.9501C95.5827 64.049 94.1484 65.5077 94.1484 67.2879C94.1484 69.0681 95.675 70.6422 97.5454 70.6422C99.4159 70.6422 100.942 69.1258 100.942 67.2879C100.942 65.45 99.4159 63.9336 97.5454 63.9336H97.5538ZM97.5538 65.6808C98.4513 65.6808 99.1726 66.3896 99.1726 67.2879C99.1726 68.1862 98.4513 68.895 97.5538 68.895C96.6564 68.895 95.935 68.1862 95.935 67.2879C95.935 66.3896 96.648 65.6808 97.5538 65.6808Z" fill="#FFD278"/>
<path d="M91.1155 52.2545C90.7465 52.271 90.4193 52.51 90.3019 52.8561C90.1761 53.2023 90.2851 53.5814 90.5619 53.8204L97.1798 59.6884L96.6514 64.7075C96.6262 64.9465 96.6933 65.1855 96.8443 65.3751C96.9953 65.5646 97.2217 65.68 97.465 65.7047C97.7082 65.7294 97.9514 65.6553 98.136 65.5069C98.3205 65.3586 98.4463 65.1361 98.4631 64.897L99.0418 59.4246C99.0754 59.1444 98.958 58.856 98.7483 58.6664L91.7865 52.4935C91.602 52.3286 91.3671 52.2462 91.1155 52.2545Z" fill="#FFD278"/>
<path d="M113.928 44.9111C113.66 44.9194 113.408 45.0512 113.249 45.2573C113.241 45.2737 113.199 45.3232 112.083 46.8809C111.051 48.3314 110.02 48.966 107.755 52.1555C107.613 52.3533 107.562 52.5923 107.604 52.823C107.646 53.0538 107.78 53.2681 107.982 53.3999C108.183 53.54 108.426 53.5895 108.661 53.5483C108.896 53.5071 109.114 53.3752 109.248 53.1774C111.429 50.1033 112.385 49.5841 113.576 47.9028C114.692 46.3369 114.65 46.3864 114.667 46.3699C114.893 46.0979 114.943 45.7188 114.784 45.4056C114.625 45.0924 114.289 44.8946 113.928 44.9111Z" fill="#FFD278"/>
<path d="M115.313 40.5848C114.441 40.6507 113.602 41.0463 112.998 41.7468C111.79 43.1479 111.966 45.2825 113.384 46.4775C114.81 47.6725 116.974 47.4994 118.182 46.0984C119.39 44.6973 119.213 42.571 117.796 41.3677C117.083 40.7661 116.185 40.5106 115.313 40.5848ZM115.456 42.3155C115.867 42.2825 116.286 42.4061 116.63 42.6946C117.318 43.2715 117.402 44.277 116.815 44.961C116.227 45.6451 115.229 45.7275 114.533 45.1424C113.845 44.5654 113.761 43.56 114.349 42.8759C114.642 42.538 115.036 42.3402 115.447 42.3155H115.456Z" fill="#FFD278"/>
<path d="M108.469 51.7679C108.134 51.7761 107.824 51.9657 107.673 52.2624C107.522 52.5591 107.555 52.9135 107.748 53.1855C110.021 56.3749 111.053 57.0178 112.076 58.4601C113.192 60.026 113.242 60.0919 113.25 60.1084C113.41 60.2897 113.628 60.4051 113.871 60.4216C114.114 60.438 114.349 60.3639 114.534 60.2155C114.718 60.0589 114.836 59.8446 114.852 59.6056C114.869 59.3666 114.794 59.1359 114.643 58.9546C114.626 58.9381 114.685 59.004 113.569 57.4381C112.37 55.7568 111.422 55.2294 109.241 52.1635C109.065 51.908 108.771 51.7597 108.461 51.7679H108.469Z" fill="#FFD278"/>
<path d="M115.858 58.0804C114.985 58.0145 114.088 58.27 113.375 58.8634C111.949 60.0584 111.781 62.1847 112.989 63.5941C114.197 64.9951 116.361 65.1682 117.787 63.9732C119.213 62.7781 119.381 60.6518 118.173 59.2425C117.569 58.542 116.722 58.1464 115.858 58.0804ZM115.715 59.8112C116.126 59.8441 116.52 60.0337 116.814 60.3716C117.401 61.0556 117.317 62.0611 116.629 62.638C115.942 63.2149 114.935 63.1408 114.348 62.4567C113.761 61.7727 113.845 60.7672 114.533 60.1903C114.876 59.9018 115.296 59.7782 115.707 59.8112H115.715Z" fill="#FFD278"/>
<path d="M126.018 49.139C125.146 49.0731 124.248 49.3286 123.535 49.922C122.109 51.117 121.942 53.2433 123.149 54.6526C124.357 56.0537 126.521 56.2268 127.947 55.0318C129.373 53.8367 129.541 51.7104 128.333 50.3011C127.729 49.6006 126.882 49.205 126.018 49.1308V49.139ZM125.875 50.8698C126.286 50.9027 126.681 51.0923 126.974 51.4302C127.561 52.1142 127.477 53.1197 126.79 53.6966C126.102 54.2735 125.104 54.1994 124.508 53.5153C123.921 52.8313 124.005 51.8258 124.693 51.2489C125.037 50.9604 125.464 50.8368 125.867 50.8698H125.875Z" fill="#FFD278"/>
<path d="M75.6492 40.2055C75.1627 40.2137 74.7769 40.7412 74.7853 41.384C74.7853 41.4747 74.7853 41.4911 74.8524 50.5239C74.9195 59.5237 74.735 77.6057 74.8692 95.696C74.8692 96.0092 74.9614 96.3059 75.1292 96.5202C75.2969 96.7344 75.5234 96.8581 75.7583 96.8581C75.9931 96.8581 76.2196 96.7262 76.3789 96.5037C76.5383 96.2811 76.6306 95.9844 76.6306 95.6713C76.4964 77.6222 76.6809 59.5732 76.6138 50.4992C76.5467 41.4664 76.5467 41.4747 76.5467 41.384C76.5467 41.0708 76.4544 40.7659 76.2867 40.5434C76.1189 40.3208 75.8925 40.1972 75.6492 40.2055Z" fill="#FFD278"/>
<path d="M85.8634 74.2934C85.8467 74.2934 85.7628 74.2935 83.8252 74.4748C82.0303 74.6396 80.8644 74.277 76.9138 74.6313C76.6706 74.6478 76.4441 74.7632 76.2848 74.9445C76.1254 75.1258 76.0499 75.3649 76.0751 75.6039C76.1002 75.8429 76.2177 76.0654 76.4022 76.2137C76.5951 76.3621 76.8299 76.4363 77.0732 76.4115C80.8812 76.0654 81.9045 76.4445 83.9846 76.2549C85.9222 76.0819 85.8467 76.0819 85.8634 76.0819C86.1067 76.0819 86.3415 75.9912 86.5177 75.8264C86.6938 75.6615 86.7861 75.4308 86.7861 75.1835C86.7861 74.9445 86.6854 74.7138 86.5093 74.5489C86.3331 74.3841 86.0983 74.2852 85.8551 74.2934H85.8634Z" fill="#FFD278"/>
<path d="M88.3981 71.8457C86.5277 71.8457 84.9844 73.3457 84.9844 75.1835C84.9844 77.0214 84.9844 75.2989 85.0011 75.3566C85.1018 77.1121 86.5864 78.5214 88.3981 78.5214C90.2099 78.5214 91.8119 77.0214 91.8119 75.1835C91.8119 73.3457 90.2686 71.8457 88.3981 71.8457ZM88.3981 73.5929C89.3124 73.5929 90.0337 74.2935 90.0337 75.1835C90.0337 76.0736 89.3124 76.7742 88.3981 76.7742C87.4839 76.7742 86.7626 76.0654 86.7626 75.1835C86.7626 74.3017 87.4839 73.5929 88.3981 73.5929Z" fill="#FFD278"/>
<path d="M60.7692 67.1879C58.8988 67.1879 57.3555 68.6879 57.3555 70.5258C57.3555 72.3636 58.8988 73.8636 60.7692 73.8636C62.6397 73.8636 64.0907 72.4378 64.1662 70.6576C64.1746 70.6082 64.183 70.567 64.183 70.5175C64.183 70.4681 64.183 70.4269 64.1662 70.3774C64.0907 68.6055 62.5894 67.1797 60.7692 67.1797V67.1879ZM60.7692 68.9351C61.6835 68.9351 62.4048 69.6357 62.4048 70.5258C62.4048 71.4159 61.6835 72.1164 60.7692 72.1164C59.855 72.1164 59.1336 71.4159 59.1336 70.5258C59.1336 69.6357 59.855 68.9351 60.7692 68.9351Z" fill="#FFD278"/>
<path d="M75.1709 63.3559C74.9025 63.3559 74.6425 63.463 74.4664 63.6608L68.4944 70.1634L63.3863 69.636C63.143 69.6112 62.8998 69.6772 62.7153 69.8255C62.5224 69.9739 62.4049 70.1964 62.3798 70.4272C62.3546 70.6662 62.4301 70.9052 62.5811 71.0865C62.7321 71.2678 62.9585 71.3914 63.2018 71.4079L68.7712 71.9766C69.0563 72.0095 69.3499 71.8942 69.5428 71.6881L75.8252 64.8476C76.0684 64.5921 76.1355 64.213 75.9929 63.8916C75.8503 63.5702 75.5316 63.3559 75.1709 63.3477V63.3559Z" fill="#FFD278"/>
<path d="M75.648 80.3832C75.2454 80.375 74.8847 80.6305 74.7589 81.0014C74.6331 81.3805 74.784 81.7926 75.1195 82.0151C78.2481 84.1579 78.7766 85.0892 80.4877 86.2677C82.0813 87.3639 82.0477 87.3391 82.0645 87.3474C82.2574 87.4957 82.5007 87.5616 82.7439 87.5287C82.9872 87.4957 83.2052 87.3721 83.3478 87.1825C83.4988 86.993 83.5575 86.754 83.5324 86.515C83.4988 86.276 83.373 86.0617 83.1801 85.9216C83.1633 85.9133 83.1298 85.8886 81.5361 84.7925C80.0599 83.7788 79.414 82.7651 76.168 80.5398C76.017 80.4327 75.8409 80.375 75.6564 80.375L75.648 80.3832Z" fill="#FFD278"/>
<path d="M84.2691 84.9164C83.3968 84.9823 82.5497 85.3779 81.9458 86.0784C80.7296 87.4795 80.9057 89.6058 82.3316 90.7926C83.7575 91.9794 85.9215 91.8063 87.1461 90.4135C88.3623 89.0124 88.1862 86.8861 86.7603 85.6993C86.0473 85.1059 85.1499 84.8504 84.2775 84.9164H84.2691ZM84.4117 86.6553C84.8311 86.6224 85.2589 86.746 85.6028 87.0345C86.299 87.6114 86.3745 88.5921 85.7873 89.2762C85.2002 89.952 84.1769 90.0344 83.4807 89.4575C82.7845 88.8806 82.7007 87.8998 83.2962 87.2158C83.5898 86.8779 83.9924 86.6883 84.4117 86.6553Z" fill="#FFD278"/>
<path d="M75.5988 80.384C75.4226 80.3923 75.2549 80.4499 75.1123 80.5488C71.8663 82.7823 71.212 83.796 69.7442 84.8015C68.1505 85.8976 68.1002 85.9306 68.0834 85.9471C67.8905 86.0954 67.7647 86.3097 67.7395 86.5487C67.7144 86.7877 67.7815 87.0267 67.9325 87.2163C68.0834 87.4058 68.3099 87.5212 68.5532 87.5459C68.7964 87.5707 69.0396 87.4965 69.2242 87.3399C69.2409 87.3317 69.1906 87.3646 70.7843 86.2685C72.4953 85.09 73.0322 84.1587 76.1524 82.0159C76.4879 81.7933 76.6388 81.373 76.5046 80.9857C76.3704 80.6065 76.0014 80.3593 75.5904 80.3758L75.5988 80.384Z" fill="#FFD278"/>
<path d="M67.0097 84.9164C66.1374 84.8504 65.2399 85.1059 64.5269 85.6993C63.101 86.8861 62.9249 89.0124 64.1411 90.4135C65.3573 91.8146 67.5213 91.9794 68.9556 90.7926C70.3815 89.6058 70.5576 87.4795 69.3414 86.0784C68.7291 85.3779 67.8904 84.9905 67.0181 84.9164H67.0097ZM66.8671 86.6553C67.2865 86.6883 67.6891 86.8779 67.9826 87.2158C68.5698 87.8916 68.4943 88.8806 67.7981 89.4575C67.1019 90.0344 66.0786 89.952 65.4915 89.2762C64.9044 88.6004 64.9799 87.6114 65.676 87.0345C66.0199 86.746 66.4561 86.6224 66.8671 86.6553Z" fill="#FFD278"/>
<path d="M76.1073 94.8968C75.235 94.8309 74.3375 95.0864 73.6246 95.6798C72.1987 96.8666 72.0225 98.9929 73.2387 100.394C74.455 101.795 76.619 101.96 78.0533 100.773C79.4792 99.5863 79.6553 97.46 78.4391 96.0589C77.8268 95.3584 76.988 94.971 76.1157 94.8968H76.1073ZM75.9647 96.6358C76.3841 96.6688 76.7867 96.8583 77.0803 97.1962C77.6674 97.8721 77.5919 98.861 76.8958 99.438C76.1996 100.015 75.1763 99.9324 74.5892 99.2566C74.002 98.5808 74.0775 97.5918 74.7737 97.0149C75.1176 96.7265 75.5537 96.6028 75.9647 96.6358Z" fill="#FFD278"/>
<path d="M85.8315 51.3555C85.7308 51.3555 85.7225 51.3555 76.2276 51.4214C66.7748 51.4873 47.7767 51.306 28.7787 51.4379C28.4516 51.4379 28.1413 51.5368 27.9148 51.7016C27.6883 51.8664 27.5625 52.089 27.5625 52.3197C27.5625 52.5505 27.6967 52.773 27.9316 52.9378C28.1664 53.1027 28.4768 53.1933 28.8039 53.1851C47.7683 53.0532 66.7244 53.2345 76.2528 53.1686C85.7476 53.1027 85.7308 53.1027 85.8315 53.1027C86.1586 53.1027 86.4689 53.012 86.7038 52.8472C86.9387 52.6824 87.0645 52.4598 87.0645 52.2291C87.0645 51.9983 86.9303 51.7758 86.7038 51.611C86.4689 51.4461 86.1586 51.3555 85.8315 51.3555Z" fill="#FFD278"/>
<path d="M49.2769 52.7994C49.0169 52.7994 48.7736 52.9065 48.6059 53.0961C48.4381 53.2857 48.3542 53.5329 48.3794 53.7884C48.7317 57.5301 48.3458 58.5355 48.5388 60.5794C48.7149 62.4832 48.7149 62.4008 48.7149 62.4173C48.7149 62.6563 48.8072 62.8871 48.9833 63.0519C49.1511 63.225 49.3859 63.3156 49.6291 63.3156C49.8724 63.3156 50.1072 63.225 50.275 63.0519C50.4428 62.8871 50.5434 62.6563 50.5434 62.4173C50.5434 62.1783 50.5434 62.3184 50.3589 60.4064C50.1911 58.6427 50.5602 57.4971 50.1995 53.6153C50.166 53.1455 49.7634 52.7829 49.2853 52.7912L49.2769 52.7994Z" fill="#FFD278"/>
<path d="M49.6236 61.5508C47.7531 61.5508 46.2266 63.0672 46.2266 64.9051C46.2266 66.743 47.7531 68.2594 49.6236 68.2594C51.494 68.2594 53.0206 66.743 53.0206 64.9051C53.0206 63.0672 51.5779 61.6579 49.7913 61.5673C49.7326 61.559 49.6823 61.5508 49.6236 61.5508ZM49.6236 63.298C50.5294 63.298 51.2424 64.0068 51.2424 64.9051C51.2424 65.8034 50.5294 66.5122 49.6236 66.5122C48.7177 66.5122 48.0047 65.8034 48.0047 64.9051C48.0047 64.0068 48.7177 63.298 49.6236 63.298Z" fill="#FFD278"/>
<path d="M54.3579 34.4043C52.4875 34.4043 50.9609 35.9208 50.9609 37.7586C50.9609 39.5965 52.4036 41.0058 54.1902 41.0965C54.2489 41.1047 54.2992 41.1129 54.3579 41.1129C56.2284 41.1129 57.7549 39.5965 57.7549 37.7586C57.7549 35.9208 56.2284 34.4043 54.3579 34.4043ZM54.3579 36.1515C55.2638 36.1515 55.9768 36.8603 55.9768 37.7586C55.9768 38.657 55.2638 39.3657 54.3579 39.3657C53.4521 39.3657 52.7391 38.657 52.7391 37.7586C52.7391 36.8603 53.4605 36.1515 54.3579 36.1515Z" fill="#FFD278"/>
<path d="M54.3491 39.332C53.8794 39.332 53.4936 39.6864 53.4516 40.1479L52.8729 45.6203C52.8393 45.9006 52.9567 46.189 53.1664 46.3786L60.1282 52.5515C60.3043 52.7163 60.5476 52.807 60.7908 52.7988C61.034 52.7905 61.2689 52.6834 61.4283 52.5021C61.596 52.3207 61.6799 52.09 61.6631 51.8427C61.6463 51.6037 61.5373 51.3812 61.3528 51.2246L54.7349 45.3566L55.2717 40.3375C55.3053 40.082 55.2214 39.8265 55.0453 39.637C54.8691 39.4474 54.6175 39.3403 54.3575 39.3403L54.3491 39.332Z" fill="#FFD278"/>
<path d="M43.4134 51.4629C43.1114 51.4629 42.8346 51.6112 42.6669 51.8585C40.4861 54.9326 39.5383 55.4518 38.3388 57.1331C37.2233 58.699 37.2736 58.6331 37.2652 58.6495C37.1059 58.8309 37.0304 59.0699 37.0555 59.3006C37.0723 59.5396 37.1897 59.7539 37.3743 59.9105C37.5588 60.0671 37.802 60.1413 38.0369 60.1165C38.2801 60.1001 38.4982 59.9847 38.6576 59.8034C38.6743 59.7869 38.7247 59.721 39.8318 58.1551C40.8635 56.7128 41.8952 56.0699 44.1599 52.8804C44.3612 52.6085 44.3863 52.2458 44.227 51.9491C44.0676 51.6524 43.7573 51.4629 43.4134 51.4629Z" fill="#FFD278"/>
<path d="M36.0553 57.7838C35.183 57.8497 34.3443 58.2453 33.7403 58.9459C32.5325 60.3469 32.7087 62.4815 34.1262 63.6765C35.5521 64.8716 37.7161 64.6985 38.9239 63.2974C40.1317 61.8963 39.9556 59.77 38.5381 58.5667C37.8251 57.9651 36.9276 57.7179 36.0553 57.7838ZM36.1979 59.5145C36.6089 59.4816 37.0283 59.6052 37.3722 59.8936C38.06 60.4706 38.1439 61.476 37.5567 62.1601C36.9696 62.8441 35.9714 62.9183 35.2753 62.3414C34.5875 61.7645 34.5036 60.759 35.0907 60.075C35.3843 59.737 35.7785 59.5393 36.1895 59.5145H36.1979Z" fill="#FFD278"/>
<path d="M37.9547 44.6055C37.6024 44.6055 37.2753 44.8033 37.1243 45.1164C36.9733 45.4296 37.0152 45.8005 37.2417 46.0725C37.2501 46.0889 37.2165 46.0395 38.3321 47.6054C39.5315 49.2867 40.4793 49.8141 42.6601 52.88C42.7943 53.0778 43.0124 53.2097 43.2473 53.2509C43.4821 53.2921 43.7337 53.2426 43.9267 53.1025C44.128 52.9624 44.2622 52.7564 44.3041 52.5256C44.346 52.2949 44.2873 52.0476 44.1531 51.8581C41.8801 48.6686 40.8484 48.0257 39.8251 46.5834C38.7096 45.0175 38.676 44.9681 38.6592 44.9599C38.4915 44.7456 38.2231 44.6137 37.9463 44.6137L37.9547 44.6055Z" fill="#FFD278"/>
<path d="M36.6039 40.2875C35.7316 40.2215 34.8341 40.477 34.1211 41.0704C32.6952 42.2654 32.5275 44.3918 33.7353 45.8011C34.9431 47.2022 37.1071 47.3835 38.533 46.1802C39.9589 44.9852 40.1267 42.8588 38.9189 41.4495C38.315 40.749 37.4678 40.3534 36.6039 40.2792V40.2875ZM36.4613 42.0182C36.8723 42.0512 37.2665 42.2407 37.5601 42.5786C38.1472 43.2627 38.0633 44.2682 37.3755 44.8451C36.6878 45.422 35.6896 45.3478 35.0941 44.6637C34.507 43.9797 34.5908 42.9742 35.2786 42.3973C35.6225 42.1089 36.0419 41.9852 36.4529 42.0182H36.4613Z" fill="#FFD278"/>
<path d="M26.4476 49.2308C25.5753 49.1649 24.6778 49.4204 23.9649 50.0138C22.539 51.2088 22.3712 53.3351 23.5791 54.7444C24.7869 56.1455 26.9509 56.3186 28.3768 55.1236C29.8027 53.9285 29.9705 51.8022 28.7626 50.3929C28.1587 49.6924 27.3116 49.2968 26.4476 49.2308ZM26.305 50.9616C26.716 50.9945 27.1103 51.1841 27.4038 51.522C27.991 52.206 27.9071 53.2115 27.2193 53.7884C26.5315 54.3653 25.525 54.2912 24.9379 53.6071C24.3507 52.9231 24.4346 51.9176 25.1224 51.3407C25.4663 51.0522 25.8857 50.9286 26.2967 50.9616H26.305Z" fill="#FFD278"/>
<path d="M141.222 58.4844C139.402 58.4844 137.901 59.9102 137.825 61.6821C137.817 61.7315 137.809 61.7728 137.809 61.8222C137.809 61.8717 137.809 61.9211 137.825 61.9623C137.901 63.7343 139.402 65.1601 141.222 65.1601C143.042 65.1601 144.636 63.6601 144.636 61.8222C144.636 59.9843 143.093 58.4844 141.222 58.4844ZM141.222 60.2398C142.137 60.2398 142.858 60.9404 142.858 61.8305C142.858 62.7205 142.137 63.4211 141.222 63.4211C140.308 63.4211 139.587 62.7205 139.587 61.8305C139.587 60.9404 140.308 60.2398 141.222 60.2398Z" fill="#FFD278"/>
<path d="M126.795 54.6606C126.442 54.6771 126.132 54.8914 125.998 55.221C125.864 55.5424 125.931 55.9133 126.174 56.1688L132.456 63.0093C132.649 63.2236 132.934 63.3307 133.228 63.2978L138.797 62.7291C139.041 62.7126 139.267 62.5972 139.426 62.4077C139.586 62.2181 139.661 61.9791 139.628 61.7401C139.603 61.5011 139.477 61.2786 139.284 61.1302C139.091 60.9819 138.848 60.9159 138.604 60.9407L133.496 61.4681L127.524 54.9655C127.34 54.7595 127.071 54.6524 126.795 54.6606Z" fill="#FFD278"/>
<path d="M97.6001 87.7012C97.5414 87.7012 97.4827 87.7012 97.424 87.7177C95.6374 87.8083 94.2031 89.2753 94.2031 91.0555C94.2031 92.8357 95.7297 94.4098 97.6001 94.4098C99.4706 94.4098 100.997 92.8934 100.997 91.0555C100.997 89.2176 99.4706 87.7012 97.6001 87.7012ZM97.6001 89.4484C98.506 89.4484 99.2189 90.1572 99.2189 91.0555C99.2189 91.9538 98.506 92.6626 97.6001 92.6626C96.6943 92.6626 95.9813 91.9538 95.9813 91.0555C95.9813 90.1572 96.6943 89.4484 97.6001 89.4484Z" fill="#FFD278"/>
<path d="M91.1548 76.0318C90.7858 76.0483 90.4587 76.2873 90.3412 76.6335C90.2238 76.9796 90.3245 77.3587 90.6013 77.5977L97.2191 83.4657L96.6823 88.4848C96.6571 88.7238 96.7242 88.9628 96.8752 89.1442C97.0262 89.3255 97.2527 89.4491 97.4875 89.4738C97.7308 89.4986 97.974 89.4244 98.1585 89.276C98.3431 89.1277 98.4689 88.9052 98.4856 88.6744L99.0644 83.202C99.0979 82.9218 98.9889 82.6333 98.7708 82.4438L91.8091 76.2708C91.6246 76.106 91.3897 76.0236 91.1381 76.0318H91.1548Z" fill="#FFD278"/>
<path d="M10.3005 40.1395C8.43005 40.1395 6.88672 41.6395 6.88672 43.4774C6.88672 45.3152 8.43005 46.8152 10.3005 46.8152C12.1709 46.8152 13.622 45.3894 13.6975 43.6092C13.7059 43.5598 13.7143 43.5186 13.7143 43.4691C13.7143 43.4197 13.7143 43.3785 13.6975 43.329C13.622 41.5571 12.1206 40.123 10.3005 40.123V40.1395ZM10.3005 41.8867C11.2148 41.8867 11.9361 42.5955 11.9361 43.4774C11.9361 44.3592 11.2148 45.068 10.3005 45.068C9.38624 45.068 8.66491 44.3675 8.66491 43.4774C8.66491 42.5873 9.38624 41.8867 10.3005 41.8867Z" fill="#FFD278"/>
<path d="M18.4282 42.0189C18.3863 42.0189 18.3443 42.0189 18.3024 42.0189L12.733 42.5875C12.4898 42.6123 12.2717 42.7276 12.1123 42.909C11.9613 43.0903 11.8859 43.3293 11.911 43.5683C11.9362 43.8073 12.0536 44.0216 12.2465 44.1699C12.4394 44.3183 12.6743 44.3924 12.9175 44.3595L18.0256 43.832L23.9976 50.3346C24.157 50.5159 24.3834 50.6231 24.6267 50.6396C24.8699 50.656 25.1132 50.5736 25.2893 50.4088C25.4738 50.2522 25.5745 50.0214 25.5913 49.7824C25.5997 49.5434 25.5158 49.3044 25.348 49.1314L19.0657 42.2908C18.8979 42.1095 18.6715 42.0024 18.4198 41.9941L18.4282 42.0189Z" fill="#FFD278"/>
<path d="M50.3276 11.6482C50.1012 11.6647 49.8747 11.6976 49.6482 11.7553C47.8449 12.2333 46.7629 14.0877 47.2494 15.8596C47.7191 17.5821 49.4889 18.6288 51.2419 18.2662C51.3006 18.2579 51.3593 18.2579 51.4096 18.2415C51.4683 18.225 51.5187 18.2085 51.5774 18.1755C53.2801 17.6316 54.2782 15.8514 53.8085 14.1289C53.3807 12.5713 51.8961 11.5575 50.3192 11.6482H50.3276ZM50.7554 13.4037C51.3845 13.4861 51.9213 13.9311 52.0974 14.5822C52.3323 15.4476 51.829 16.3129 50.9567 16.5437C50.0844 16.7745 49.2037 16.2717 48.9688 15.4064C48.734 14.541 49.2372 13.6756 50.1095 13.4449C50.3276 13.3872 50.5457 13.3789 50.7554 13.4037Z" fill="#FFD278"/>
<path d="M51.2074 16.4863C50.9306 16.4863 50.6706 16.5935 50.4945 16.7995C50.3183 17.0056 50.2428 17.2775 50.2848 17.5413L51.1655 22.9725C51.2074 23.2527 51.3919 23.4999 51.652 23.6318L59.9977 27.8267C60.2157 27.9339 60.4674 27.9586 60.6938 27.8844C60.9287 27.8103 61.1216 27.6537 61.2306 27.4394C61.3397 27.2251 61.3648 26.9779 61.2894 26.7553C61.2139 26.5246 61.0461 26.3433 60.828 26.2361L52.8933 22.2472L52.0881 17.261C52.021 16.8325 51.652 16.5028 51.2074 16.4946V16.4863Z" fill="#FFD278"/>
<path d="M44.4367 77.7875C43.3463 77.8699 42.3062 78.4633 41.7191 79.4523C40.7796 81.0429 41.3332 83.1115 42.9604 84.0263C44.5792 84.9411 46.6761 84.3807 47.6156 82.7901C48.555 81.1995 48.0014 79.1308 46.3826 78.216C46.3323 78.1831 46.2735 78.1583 46.2148 78.1419C45.6529 77.8616 45.0406 77.738 44.445 77.7792L44.4367 77.7875ZM44.8728 79.5347C45.0825 79.5594 45.2922 79.6253 45.4851 79.7407C46.2652 80.1858 46.5252 81.15 46.0722 81.9247C45.6109 82.7077 44.638 82.9632 43.8579 82.5181C43.0778 82.0731 42.8178 81.1088 43.2708 80.3341C43.6147 79.749 44.2521 79.4605 44.8812 79.5347H44.8728Z" fill="#FFD278"/>
<path d="M57.4288 71.127C57.3449 71.127 57.2611 71.127 57.1856 71.1517L48.0179 73.0802C47.7327 73.1379 47.4978 73.3275 47.3804 73.5912L45.099 78.6185C44.9983 78.8328 44.9815 79.0883 45.0654 79.3108C45.1493 79.5334 45.3254 79.7229 45.5519 79.8136C45.7784 79.9125 46.03 79.9207 46.2565 79.8301C46.4829 79.7394 46.6675 79.5663 46.7597 79.3438L48.8566 74.7368L57.5714 72.9071C58.0243 72.8165 58.3347 72.4126 58.3011 71.9594C58.2676 71.5061 57.8901 71.1517 57.4372 71.1352L57.4288 71.127Z" fill="#FFD278"/>
<path d="M123.667 74.8613C123.608 74.8613 123.549 74.8613 123.49 74.8778C121.704 74.9767 120.27 76.4355 120.27 78.2156C120.27 79.9958 121.804 81.57 123.667 81.57C125.529 81.57 127.064 80.0535 127.064 78.2156C127.064 76.3778 125.537 74.8613 123.667 74.8613ZM123.667 76.6168C124.564 76.6168 125.285 77.3256 125.285 78.2239C125.285 79.1222 124.572 79.831 123.667 79.831C122.761 79.831 122.048 79.1222 122.048 78.2239C122.048 77.3256 122.761 76.6168 123.667 76.6168Z" fill="#FFD278"/>
<path d="M117.225 63.1904C116.856 63.2069 116.529 63.4459 116.411 63.7921C116.285 64.1382 116.395 64.5173 116.671 64.7563L123.289 70.6243L122.761 75.6435C122.736 75.8825 122.803 76.1215 122.954 76.3028C123.105 76.4923 123.331 76.6077 123.574 76.6324C123.818 76.6572 124.061 76.583 124.245 76.4346C124.43 76.2863 124.556 76.0638 124.572 75.8248L125.151 70.3524C125.185 70.0722 125.067 69.7837 124.858 69.5941L117.896 63.4212C117.711 63.2564 117.477 63.174 117.225 63.1822V63.1904Z" fill="#FFD278"/>
<path d="M18.2017 52.7734C17.3294 52.7734 16.4571 53.0949 15.7944 53.7459C14.4692 55.0481 14.4776 57.1827 15.8028 58.4849C17.0945 59.7541 19.1747 59.787 20.5083 58.5837C20.5502 58.559 20.5838 58.5261 20.6257 58.4931C20.6593 58.4601 20.6844 58.4272 20.7096 58.3942C21.9342 57.0838 21.9006 55.0316 20.6089 53.7624C19.9463 53.1113 19.074 52.7817 18.2017 52.7817V52.7734ZM18.2017 54.5124C18.6127 54.5124 19.0321 54.669 19.3592 54.9904C20.005 55.625 20.005 56.6223 19.3676 57.2486C18.7301 57.875 17.7152 57.875 17.0694 57.2404C16.4235 56.6058 16.4235 55.6085 17.061 54.9822C17.3797 54.669 17.7907 54.5124 18.2101 54.5124H18.2017Z" fill="#FFD278"/>
<path d="M19.987 56.9614C19.6347 56.9614 19.3076 57.1592 19.1566 57.4723C19.0056 57.7855 19.056 58.1564 19.2824 58.4284L22.8136 62.6975C22.9982 62.92 23.2749 63.0437 23.5685 63.0272L32.9291 62.5574C33.1724 62.5574 33.4072 62.4503 33.575 62.2689C33.7427 62.0959 33.8266 61.8569 33.8182 61.6179C33.8098 61.3789 33.6924 61.1481 33.5079 60.9915C33.3233 60.8349 33.0801 60.7525 32.8369 60.769L23.9376 61.214L20.6999 57.291C20.5322 57.0768 20.2638 56.9531 19.987 56.9531V56.9614Z" fill="#FFD278"/>
<path d="M96.6439 10.6348C95.7716 10.6348 94.8993 10.9644 94.2367 11.6155C92.9534 12.8765 92.9198 14.9121 94.1193 16.2226C94.1528 16.272 94.1864 16.3132 94.2283 16.3544C95.5535 17.6566 97.7259 17.6483 99.0512 16.3462C100.376 15.044 100.385 12.9094 99.0596 11.6073C98.397 10.9562 97.5247 10.6348 96.6523 10.6348H96.6439ZM96.6439 12.3737C97.0549 12.3737 97.4743 12.5303 97.793 12.8435C98.4305 13.4699 98.4305 14.4671 97.7847 15.1017C97.1388 15.7363 96.1239 15.7363 95.4864 15.1099C94.849 14.4836 94.849 13.4863 95.4948 12.8517C95.822 12.5303 96.233 12.3737 96.6523 12.3737H96.6439Z" fill="#FFD278"/>
<path d="M94.842 14.8303C94.6407 14.8303 94.4394 14.9127 94.28 15.0363L89.9268 18.506C89.7004 18.6873 89.5746 18.9593 89.5913 19.2478L90.0694 28.4454C90.0778 28.6844 90.1869 28.9069 90.363 29.0717C90.5391 29.2283 90.7824 29.319 91.0256 29.3025C91.2688 29.286 91.4953 29.1871 91.6547 29.0058C91.814 28.8245 91.8979 28.5937 91.8895 28.3547L91.4366 19.6104L95.4291 16.4292C95.7395 16.1901 95.8569 15.7863 95.7227 15.4237C95.5885 15.0611 95.2362 14.822 94.842 14.8303Z" fill="#FFD278"/>
<path d="M133.539 44.8281C132.667 44.8281 131.794 45.1496 131.132 45.8006C131.09 45.8418 131.048 45.8913 131.014 45.9407C129.823 47.2511 129.857 49.2786 131.14 50.5395C132.465 51.8417 134.638 51.8499 135.963 50.5478C137.288 49.2456 137.28 47.111 135.955 45.8089C135.292 45.1578 134.42 44.8281 133.547 44.8281H133.539ZM133.539 46.5671C133.95 46.5671 134.369 46.7237 134.697 47.0451C135.342 47.6797 135.342 48.6769 134.705 49.3033C134.067 49.9297 133.053 49.9297 132.407 49.2951C131.761 48.6605 131.761 47.6632 132.398 47.0369C132.717 46.7237 133.128 46.5671 133.547 46.5671H133.539Z" fill="#FFD278"/>
<path d="M128.222 41.2523H128.188L118.827 41.7221C118.584 41.7304 118.358 41.8375 118.19 42.0106C118.031 42.1836 117.938 42.4227 117.955 42.6617C117.972 42.9007 118.072 43.1232 118.257 43.2798C118.442 43.4364 118.676 43.5188 118.92 43.5023L127.819 43.0572L131.057 46.9802C131.208 47.1698 131.426 47.2852 131.669 47.3099C131.912 47.3346 132.155 47.2687 132.34 47.1121C132.524 46.9638 132.65 46.7412 132.675 46.5105C132.701 46.2715 132.625 46.0407 132.474 45.8511L128.943 41.582C128.767 41.3677 128.507 41.2441 128.222 41.2523Z" fill="#FFD278"/>
<path d="M141.488 69.2148C140.615 69.2148 139.743 69.5445 139.081 70.1956C137.789 71.4648 137.755 73.5169 138.98 74.8274C139.005 74.8686 139.039 74.9015 139.072 74.9345C139.106 74.9675 139.148 75.0004 139.181 75.0252C140.515 76.2284 142.603 76.1955 143.887 74.9263C145.212 73.6241 145.22 71.4895 143.895 70.1874C143.232 69.5363 142.36 69.2148 141.488 69.2148ZM141.488 70.9538C141.899 70.9538 142.318 71.1104 142.637 71.4236C143.274 72.0499 143.274 73.0472 142.629 73.6818C141.983 74.3164 140.968 74.3164 140.33 73.69C139.693 73.0637 139.693 72.0664 140.339 71.4318C140.666 71.1104 141.077 70.9538 141.496 70.9538H141.488Z" fill="#FFD278"/>
<path d="M139.677 73.403C139.408 73.4113 139.157 73.5349 138.989 73.7409L135.751 77.6639L126.852 77.2189C126.609 77.2024 126.374 77.2848 126.189 77.4414C126.005 77.598 125.896 77.8288 125.887 78.0595C125.879 78.2985 125.963 78.5293 126.122 78.7106C126.282 78.8837 126.516 78.9908 126.76 78.999L136.12 79.4688C136.414 79.4853 136.691 79.3617 136.875 79.1392L140.406 74.8618C140.633 74.5898 140.683 74.2107 140.524 73.8975C140.364 73.5843 140.037 73.3865 139.677 73.3948V73.403Z" fill="#FFD278"/>
<path d="M119.464 30.0922C118.592 30.0922 117.72 30.4219 117.057 31.073C115.765 32.3422 115.732 34.3943 116.956 35.6965C116.982 35.7377 117.015 35.7707 117.049 35.8036C117.082 35.8366 117.124 35.8696 117.158 35.8943C118.491 37.0893 120.58 37.0646 121.863 35.7954C123.188 34.4932 123.197 32.3587 121.872 31.0565C121.209 30.4054 120.337 30.084 119.464 30.084V30.0922ZM119.464 31.8312C119.875 31.8312 120.295 31.9878 120.613 32.301C121.251 32.9273 121.251 33.9246 120.605 34.5592C119.959 35.1938 118.944 35.1938 118.307 34.5674C117.669 33.941 117.669 32.9438 118.315 32.3092C118.642 31.9878 119.053 31.8312 119.464 31.8312Z" fill="#FFD278"/>
<path d="M117.652 34.2874C117.383 34.2956 117.132 34.4192 116.964 34.6253L113.726 38.5483L104.827 38.1032C104.584 38.0867 104.341 38.1691 104.156 38.3257C103.972 38.4823 103.862 38.7131 103.846 38.9521C103.829 39.1911 103.921 39.4301 104.089 39.6032C104.257 39.7845 104.483 39.8834 104.735 39.8916L114.095 40.3614C114.389 40.3779 114.666 40.2543 114.85 40.0318L118.381 35.7544C118.608 35.4824 118.658 35.1033 118.499 34.7901C118.34 34.4687 118.012 34.2791 117.652 34.2874Z" fill="#FFD278"/>
<path d="M3.40539 56.4492C2.53307 56.4492 1.66076 56.7789 0.998139 57.43C-0.327109 58.7321 -0.335495 60.8667 0.989753 62.1689C2.315 63.471 4.4874 63.4628 5.81265 62.1606C7.09596 60.8997 7.1295 58.864 5.93007 57.5536C5.89652 57.5041 5.86298 57.4629 5.82104 57.4217C5.79587 57.397 5.76232 57.3805 5.73716 57.3558C5.72039 57.3393 5.70361 57.3311 5.68684 57.3146C5.04099 56.7459 4.22738 56.4492 3.41378 56.4492H3.40539ZM3.40539 58.1882C3.81638 58.1882 4.23577 58.3448 4.5545 58.658C5.19197 59.2843 5.19196 60.2816 4.54611 60.9162C3.90026 61.5508 2.88536 61.5508 2.2479 60.9244C1.61044 60.298 1.61044 59.3008 2.25629 58.6662C2.5834 58.3448 2.99439 58.1882 3.41378 58.1882H3.40539Z" fill="#FFD278"/>
<path d="M8.71585 52.8735C8.43905 52.8735 8.17904 52.9971 8.0029 53.2031L4.4717 57.4723C4.32072 57.6536 4.24523 57.8926 4.27039 58.1316C4.29556 58.3706 4.41298 58.5849 4.6059 58.7332C4.79043 58.8816 5.03367 58.9558 5.27691 58.931C5.52015 58.9063 5.73823 58.7909 5.8892 58.6014L9.14361 54.6619L16.508 54.7113C16.7512 54.7113 16.9861 54.6289 17.1622 54.4559C17.3383 54.291 17.439 54.0603 17.439 53.8213C17.439 53.5822 17.3467 53.3515 17.1706 53.1784C16.9944 53.0053 16.7596 52.9147 16.5164 52.9147L8.70746 52.8652L8.71585 52.8735Z" fill="#FFD278"/>
<path d="M101.093 66.5214C100.85 66.5214 100.615 66.6285 100.447 66.7933C100.28 66.9664 100.187 67.1972 100.196 67.4362C100.196 67.6752 100.305 67.8977 100.481 68.0625C100.657 68.2274 100.892 68.318 101.135 68.3015C104.952 68.2026 105.941 68.6477 108.03 68.59C109.976 68.5405 109.951 68.5405 109.967 68.5405C110.211 68.5405 110.446 68.4499 110.613 68.2768C110.781 68.112 110.882 67.8812 110.882 67.6422C110.882 67.4032 110.789 67.1724 110.613 67.0076C110.446 66.8428 110.211 66.7439 109.967 66.7439C109.724 66.7439 109.925 66.7439 107.98 66.7933C106.185 66.8428 105.044 66.406 101.085 66.5049L101.093 66.5214Z" fill="#FFD278"/>
<path d="M112.731 64.4763C110.861 64.3527 109.225 65.7538 109.091 67.5917C108.957 69.4295 110.382 71.0366 112.253 71.1603C114.123 71.2839 115.759 69.8828 115.893 68.0449C116.027 66.2071 114.601 64.6 112.731 64.4763ZM112.614 66.2236C113.519 66.2812 114.182 67.023 114.115 67.9131C114.048 68.8032 113.276 69.4625 112.37 69.4048C111.464 69.3471 110.802 68.5971 110.869 67.7153C110.936 66.8252 111.708 66.1659 112.614 66.2236Z" fill="#FFD278"/>
<path d="M100.214 90.5936C99.9712 90.5936 99.7363 90.7008 99.5686 90.8656C99.4008 91.0387 99.3085 91.2694 99.3169 91.5084C99.3169 91.7474 99.426 91.97 99.6021 92.1348C99.7782 92.2996 100.013 92.3903 100.256 92.3738C104.073 92.2749 105.062 92.7199 107.151 92.6622C109.089 92.6128 109.072 92.6128 109.089 92.6128C109.332 92.6128 109.567 92.5221 109.743 92.3573C109.919 92.1925 110.02 91.9617 110.02 91.7145C110.02 91.4755 109.919 91.2447 109.751 91.0716C109.575 90.9068 109.34 90.8079 109.097 90.8161C109.08 90.8161 109.055 90.8161 107.109 90.8656C105.314 90.915 104.173 90.4782 100.214 90.5771V90.5936Z" fill="#FFD278"/>
<path d="M111.852 88.5584C109.982 88.4347 108.346 89.8358 108.212 91.6737C108.078 93.5116 109.504 95.1187 111.374 95.2423C113.244 95.3659 114.88 93.9649 115.014 92.127C115.148 90.2891 113.723 88.682 111.852 88.5584ZM111.735 90.3056C112.641 90.3633 113.303 91.105 113.236 91.9951C113.169 92.8852 112.397 93.5445 111.491 93.4868C110.586 93.4291 109.923 92.6874 109.99 91.7973C110.057 90.9072 110.829 90.2479 111.735 90.3056Z" fill="#FFD278"/>
<path d="M44.093 83.3408C43.5898 83.3573 43.1956 83.7776 43.2207 84.2721C43.3214 88.022 42.8684 88.9945 42.9271 91.0467C42.9775 92.9587 42.9775 92.934 42.9775 92.9505C42.9775 93.1895 43.0697 93.4202 43.2459 93.5851C43.4136 93.7499 43.6485 93.8488 43.8917 93.8488C44.135 93.8488 44.3698 93.7499 44.5376 93.5851C44.7053 93.412 44.806 93.1895 44.7976 92.9505C44.7976 92.934 44.7976 92.9093 44.7473 90.9972C44.6969 89.2335 45.1415 88.1127 45.0408 84.2226C45.0408 83.9836 44.9318 83.7529 44.7557 83.5798C44.5795 83.415 44.3363 83.3243 44.093 83.3325V83.3408Z" fill="#FFD278"/>
<path d="M43.9521 92.0867C42.0816 91.9549 40.446 93.3559 40.3202 95.1938C40.1944 97.0317 41.6203 98.6388 43.4908 98.7706C45.3612 98.9025 46.9968 97.5014 47.1226 95.6636C47.2484 93.8257 45.8225 92.2186 43.9521 92.0867ZM43.8263 93.8339C44.7321 93.8999 45.4031 94.6581 45.3444 95.5482C45.2857 96.4383 44.5308 97.0894 43.625 97.0234C42.7191 96.9575 42.0481 96.1993 42.1068 95.3092C42.1655 94.4191 42.9204 93.768 43.8263 93.8339Z" fill="#FFD278"/>
<path d="M93.523 30.7284C93.2798 30.7284 93.0449 30.8273 92.8772 31.0003C92.7094 31.1734 92.6171 31.4042 92.6255 31.6432C92.6255 31.8822 92.7346 32.113 92.9107 32.2695C93.0868 32.4344 93.3217 32.5168 93.5649 32.5086C97.3813 32.4097 98.3711 32.8465 100.46 32.797C102.406 32.7476 102.38 32.7476 102.397 32.7476C102.64 32.7476 102.875 32.6569 103.051 32.4921C103.228 32.3272 103.328 32.0965 103.328 31.8492C103.328 31.602 103.228 31.3795 103.051 31.2064C102.875 31.0416 102.64 30.9426 102.397 30.9509C102.38 30.9509 102.355 30.9509 100.409 31.0003C98.6143 31.0498 97.4736 30.613 93.5146 30.7119L93.523 30.7284Z" fill="#FFD278"/>
<path d="M105.157 28.6834C103.286 28.5597 101.651 29.9608 101.517 31.7987C101.382 33.6366 102.808 35.2437 104.679 35.3673C106.549 35.4909 108.185 34.0899 108.319 32.252C108.453 30.4141 107.027 28.807 105.157 28.6834ZM105.039 30.4306C105.945 30.4883 106.608 31.23 106.541 32.1201C106.474 33.0102 105.702 33.6695 104.796 33.6118C103.89 33.5541 103.228 32.8124 103.295 31.9223C103.362 31.0322 104.134 30.3729 105.039 30.4306Z" fill="#FFD278"/>
<path d="M44.3127 35.7637C42.3752 35.8131 42.392 35.8131 42.3752 35.8131C41.8719 35.8131 41.4609 36.217 41.4609 36.7115C41.4609 37.2059 41.8719 37.6098 42.3752 37.6098C42.8784 37.6098 42.4171 37.6098 44.3631 37.5603C46.158 37.5109 47.2987 37.9477 51.2577 37.8488C51.5009 37.8488 51.7358 37.7499 51.9036 37.5768C52.0713 37.4037 52.1636 37.173 52.1552 36.934C52.1552 36.695 52.0461 36.4642 51.87 36.3076C51.6939 36.1428 51.459 36.0604 51.2158 36.0686C47.4078 36.1675 46.4096 35.7307 44.3211 35.7802L44.3127 35.7637Z" fill="#FFD278"/>
<path d="M40.1021 33.2088C38.2317 33.0851 36.5961 34.4862 36.4619 36.3241C36.3277 38.162 37.7536 39.7691 39.624 39.8927C41.4945 40.0163 43.1301 38.6152 43.2643 36.7774C43.3985 34.9395 41.9726 33.3324 40.1021 33.2088ZM39.9847 34.956C40.8906 35.0137 41.5532 35.7554 41.4861 36.6455C41.419 37.5356 40.6473 38.1949 39.7415 38.1372C38.8356 38.0795 38.173 37.3378 38.2401 36.4477C38.3072 35.5576 39.0788 34.8983 39.9847 34.956Z" fill="#FFD278"/>
<path d="M21.7603 27.2422C20.888 27.2422 20.0157 27.5636 19.353 28.2147C18.0278 29.5169 18.0362 31.6514 19.3614 32.9536C20.6447 34.2146 22.7249 34.2475 24.0501 33.069C24.0837 33.0443 24.1172 33.0278 24.1424 32.9948C24.1508 32.9783 24.1675 32.9701 24.1759 32.9618C24.2179 32.9206 24.2514 32.8794 24.285 32.83C25.4844 31.5196 25.4425 29.4921 24.1592 28.2312C23.4965 27.5801 22.6242 27.2504 21.7519 27.2504L21.7603 27.2422ZM21.7603 28.9812C22.1713 28.9812 22.5907 29.1378 22.9178 29.4592C23.5636 30.0938 23.5636 31.091 22.9262 31.7174C22.2887 32.3437 21.2738 32.3437 20.628 31.7091C19.9821 31.0745 19.9821 30.0773 20.6196 29.4509C20.9383 29.1378 21.3493 28.9812 21.7687 28.9812H21.7603Z" fill="#FFD278"/>
<path d="M23.5456 31.4282C23.1933 31.4282 22.8662 31.626 22.7152 31.9391C22.5642 32.2523 22.6146 32.6232 22.841 32.8952L26.3722 37.1643C26.5567 37.3868 26.8335 37.5104 27.1271 37.494L36.4877 37.0242C36.731 37.016 36.9574 36.9088 37.1168 36.7275C37.2762 36.5544 37.36 36.3154 37.3516 36.0847C37.3433 35.8456 37.2342 35.6231 37.0497 35.4665C36.8735 35.3099 36.6303 35.2275 36.3955 35.2358L27.4962 35.6808L24.2585 31.7578C24.0908 31.5435 23.8224 31.4199 23.5456 31.4199V31.4282Z" fill="#FFD278"/>
<path d="M117.639 105.199C116.817 105.199 116.004 105.488 115.366 106.065C115.316 106.098 115.274 106.131 115.232 106.172C115.199 106.205 115.174 106.246 115.14 106.287C115.14 106.287 115.132 106.295 115.123 106.304C113.924 107.614 113.957 109.65 115.241 110.911C116.566 112.213 118.738 112.221 120.063 110.919C121.389 109.617 121.38 107.482 120.055 106.18C119.392 105.529 118.52 105.199 117.648 105.199H117.639ZM117.639 106.938C118.05 106.938 118.47 107.095 118.797 107.416C119.443 108.051 119.443 109.048 118.805 109.674C118.168 110.301 117.153 110.301 116.507 109.666C115.861 109.032 115.861 108.034 116.499 107.408C116.817 107.095 117.228 106.938 117.648 106.938H117.639Z" fill="#FFD278"/>
<path d="M112.017 93.2154C111.514 93.1989 111.095 93.5862 111.069 94.0807L110.591 103.278C110.575 103.567 110.7 103.839 110.927 104.02L115.272 107.49C115.456 107.646 115.699 107.721 115.943 107.696C116.186 107.671 116.412 107.556 116.563 107.366C116.714 107.177 116.79 106.938 116.765 106.699C116.739 106.46 116.614 106.245 116.421 106.097L112.428 102.916L112.881 94.1714C112.898 93.9324 112.814 93.6934 112.646 93.5121C112.479 93.3307 112.252 93.2236 112 93.2154H112.017Z" fill="#FFD278"/>
<path d="M129.378 83.2504C128.506 83.2504 127.634 83.5801 126.971 84.2312C125.679 85.5004 125.646 87.5525 126.871 88.8547C126.896 88.8959 126.929 88.9289 126.963 88.9618C126.996 88.9948 127.038 89.0278 127.072 89.0525C128.405 90.2475 130.494 90.2228 131.777 88.9536C133.103 87.6514 133.111 85.5169 131.786 84.2147C131.123 83.5636 130.251 83.2422 129.378 83.2422V83.2504ZM129.378 84.9894C129.789 84.9894 130.209 85.146 130.528 85.4592C131.165 86.0855 131.165 87.0828 130.519 87.7174C129.873 88.352 128.858 88.352 128.221 87.7256C127.583 87.0992 127.583 86.102 128.229 85.4674C128.556 85.146 128.967 84.9894 129.387 84.9894H129.378Z" fill="#FFD278"/>
<path d="M127.567 87.4453C127.299 87.4536 127.047 87.5772 126.879 87.7832L123.642 91.7062L114.743 91.2612C114.239 91.2364 113.811 91.6156 113.786 92.1101C113.761 92.6045 114.147 93.0249 114.65 93.0496L124.011 93.5194C124.304 93.5358 124.581 93.4122 124.766 93.1897L128.297 88.9206C128.523 88.6486 128.574 88.2695 128.414 87.9563C128.255 87.6431 127.928 87.4453 127.567 87.4536V87.4453Z" fill="#FFD278"/>
<path d="M105.871 15.2012C104.998 15.2012 104.126 15.5308 103.463 16.1819C102.172 17.4511 102.138 19.5033 103.363 20.8137C103.388 20.8549 103.421 20.8879 103.455 20.9208C103.489 20.9538 103.53 20.9868 103.564 21.0115C104.898 22.2148 106.986 22.1818 108.269 20.9126C109.595 19.6104 109.603 17.4759 108.278 16.1737C107.615 15.5226 106.743 15.2012 105.871 15.2012ZM105.871 16.9401C106.282 16.9401 106.701 17.0967 107.02 17.4099C107.657 18.0363 107.657 19.0335 107.011 19.6681C106.365 20.3027 105.351 20.3027 104.713 19.6764C104.076 19.05 104.076 18.0528 104.722 17.4182C105.049 17.0967 105.46 16.9401 105.879 16.9401H105.871Z" fill="#FFD278"/>
<path d="M104.055 19.3945C103.787 19.4028 103.535 19.5264 103.367 19.7324L100.129 23.6554L91.2302 23.2104C90.987 23.1939 90.7521 23.2763 90.576 23.4411C90.3998 23.5977 90.2908 23.8203 90.274 24.0593C90.2656 24.2983 90.3495 24.529 90.5089 24.7021C90.6682 24.8752 90.8947 24.9823 91.1379 24.9988L100.499 25.4686C100.792 25.4851 101.069 25.3614 101.253 25.1389L104.785 20.8698C105.019 20.5978 105.061 20.2187 104.902 19.9055C104.743 19.5923 104.416 19.3945 104.055 19.4028V19.3945Z" fill="#FFD278"/>
<path d="M27.3931 17.5996C26.5208 17.5996 25.6485 17.921 24.9858 18.5721C23.6606 19.8743 23.669 22.0089 24.9942 23.311C26.3195 24.6132 28.4919 24.6214 29.8171 23.3193C29.8591 23.2781 29.8926 23.2286 29.9262 23.1874C31.1256 21.877 31.0837 19.8496 29.8004 18.5886C29.1377 17.9375 28.2654 17.6079 27.3931 17.6079V17.5996ZM27.3931 19.3386C27.8041 19.3386 28.2235 19.4952 28.5506 19.8166C29.1964 20.4512 29.1964 21.4484 28.559 22.0748C27.9215 22.7011 26.9066 22.7011 26.2608 22.0665C25.6149 21.4319 25.6149 20.4347 26.2524 19.8084C26.5711 19.4952 26.9821 19.3386 27.4015 19.3386H27.3931Z" fill="#FFD278"/>
<path d="M29.1735 21.793C28.7877 21.793 28.4438 22.0402 28.318 22.3946C28.1921 22.7572 28.318 23.1528 28.6199 23.3918L32.6124 26.5731L32.1595 35.3174C32.1427 35.5564 32.2266 35.7954 32.386 35.9767C32.5453 36.158 32.7802 36.2652 33.0234 36.2817C33.2667 36.2899 33.5099 36.2075 33.6861 36.0427C33.8706 35.8778 33.9712 35.6553 33.9796 35.4081L34.4577 26.2105C34.4745 25.922 34.3487 25.65 34.1222 25.4687L29.7774 21.999C29.6097 21.8671 29.4 21.793 29.1903 21.793H29.1735Z" fill="#FFD278"/>
<path d="M26.5064 72.4375C24.6359 72.4375 23.1094 73.954 23.1094 75.7918C23.1094 77.6297 24.6359 79.1461 26.5064 79.1461C28.3768 79.1461 29.9034 77.6297 29.9034 75.7918C29.9034 73.954 28.4607 72.5446 26.6741 72.454C26.6154 72.4457 26.5651 72.4375 26.5064 72.4375ZM26.5064 74.193C27.4122 74.193 28.1252 74.9017 28.1252 75.8001C28.1252 76.6984 27.4122 77.4072 26.5064 77.4072C25.6005 77.4072 24.8876 76.6984 24.8876 75.8001C24.8876 74.9017 25.6089 74.193 26.5064 74.193Z" fill="#FFD278"/>
<path d="M32.9144 60.7676C32.6795 60.7676 32.4447 60.85 32.2769 61.0066L25.3152 67.1795C25.0971 67.3691 24.9881 67.6493 25.0216 67.9377L25.6003 73.4102C25.6255 73.6492 25.7429 73.8634 25.9275 74.02C26.112 74.1684 26.3552 74.2425 26.5985 74.2178C26.8417 74.1931 27.0598 74.0777 27.2108 73.8882C27.3618 73.6986 27.4288 73.4596 27.4037 73.2288L26.8669 68.2097L33.4847 62.3417C33.7699 62.0945 33.8706 61.7071 33.7448 61.361C33.6189 61.0148 33.2834 60.7841 32.906 60.7758L32.9144 60.7676Z" fill="#FFD278"/>
<path d="M54.5845 84.7266C54.5258 84.7266 54.4671 84.7266 54.4083 84.7431C52.6218 84.8337 51.1875 86.3007 51.1875 88.0809C51.1875 89.8611 52.7224 91.4352 54.5845 91.4352C56.4466 91.4352 57.9815 89.9188 57.9815 88.0809C57.9815 86.243 56.5472 84.8337 54.7523 84.7431C54.7439 84.7431 54.7355 84.7431 54.7271 84.7431C54.6768 84.7431 54.6348 84.7348 54.5845 84.7348V84.7266ZM54.5845 86.4738C55.4904 86.4738 56.2033 87.1826 56.2033 88.0809C56.2033 88.9792 55.4904 89.688 54.5845 89.688C53.6786 89.688 52.9657 88.9792 52.9657 88.0809C52.9657 87.1826 53.687 86.4738 54.5845 86.4738Z" fill="#FFD278"/>
<path d="M48.248 73.0473C47.8621 73.0308 47.5015 73.2533 47.3589 73.6077C47.2163 73.9621 47.3085 74.366 47.6021 74.6132L54.22 80.4812L53.6915 85.5003C53.658 85.7393 53.7251 85.9783 53.8845 86.1679C54.0354 86.3574 54.2619 86.4811 54.5051 86.5058C54.7484 86.5305 54.9916 86.4563 55.1845 86.2998C55.3775 86.1432 55.4949 85.9206 55.5117 85.6816L56.0904 80.2092C56.124 79.929 56.0149 79.6406 55.7968 79.451L48.8351 73.2781C48.6757 73.138 48.4744 73.0473 48.2564 73.0391L48.248 73.0473Z" fill="#FFD278"/>
<path d="M94.589 102.57C93.7167 102.57 92.8444 102.9 92.1817 103.551C90.8565 104.853 90.8481 106.988 92.1733 108.29C93.4986 109.592 95.671 109.584 96.9962 108.282C98.3215 106.98 98.3299 104.845 97.0046 103.543C96.9627 103.502 96.9124 103.46 96.862 103.427C96.2162 102.859 95.411 102.57 94.589 102.57ZM94.589 104.309C95 104.309 95.4194 104.466 95.7381 104.779C96.3756 105.405 96.3756 106.403 95.7297 107.037C95.0839 107.672 94.069 107.672 93.4315 107.045C92.794 106.419 92.794 105.422 93.4399 104.787C93.767 104.466 94.178 104.309 94.5974 104.309H94.589Z" fill="#FFD278"/>
<path d="M100.266 90.5864C100.006 90.5782 99.7623 90.6771 99.5778 90.8584C99.4016 91.0397 99.3094 91.2869 99.3261 91.5424L99.7791 100.287L95.7865 103.468C95.5936 103.616 95.4678 103.831 95.4426 104.07C95.4175 104.309 95.4846 104.548 95.644 104.737C95.7949 104.927 96.0214 105.042 96.2646 105.067C96.5079 105.092 96.7511 105.017 96.9357 104.861L101.289 101.391C101.515 101.21 101.641 100.938 101.624 100.649L101.146 91.4518C101.129 90.982 100.744 90.6029 100.266 90.5864Z" fill="#FFD278"/>
<path d="M111.213 79.0234C110.391 79.0234 109.586 79.3119 108.94 79.8888C108.89 79.9218 108.848 79.9547 108.806 79.9959C107.481 81.2981 107.489 83.4327 108.815 84.7349C110.14 86.037 112.312 86.0453 113.637 84.7431C114.963 83.4409 114.954 81.3064 113.629 80.0042C112.966 79.3531 112.094 79.0234 111.222 79.0234H111.213ZM111.213 80.7624C111.624 80.7624 112.044 80.919 112.371 81.2404C113.017 81.875 113.017 82.8723 112.379 83.4986C111.742 84.125 110.727 84.125 110.081 83.4904C109.435 82.8558 109.435 81.8585 110.073 81.2322C110.391 80.919 110.802 80.7624 111.222 80.7624H111.213Z" fill="#FFD278"/>
<path d="M105.595 67.0396C105.092 67.0231 104.673 67.4104 104.648 67.9049L104.169 77.1025C104.153 77.391 104.278 77.663 104.505 77.8443L108.85 81.314C109.034 81.4706 109.278 81.5447 109.521 81.52C109.764 81.4953 109.991 81.3799 110.141 81.1904C110.292 81.0008 110.368 80.7618 110.343 80.5228C110.318 80.2838 110.192 80.0613 109.999 79.9212L106.006 76.7399L106.459 67.9956C106.476 67.7566 106.392 67.5176 106.224 67.3363C106.057 67.1549 105.83 67.0478 105.579 67.0396H105.595Z" fill="#FFD278"/>
<path d="M111.554 102.42C111.352 102.412 111.143 102.47 110.983 102.585C107.737 104.819 107.083 105.832 105.615 106.838C104.022 107.934 103.971 107.967 103.955 107.983C103.762 108.132 103.644 108.346 103.611 108.585C103.585 108.824 103.653 109.063 103.804 109.244C103.955 109.434 104.181 109.549 104.424 109.574C104.667 109.599 104.911 109.525 105.095 109.376C105.112 109.368 105.062 109.401 106.655 108.305C108.366 107.126 108.903 106.195 112.023 104.052C112.351 103.838 112.493 103.442 112.392 103.063C112.283 102.692 111.948 102.429 111.554 102.412V102.42Z" fill="#FFD278"/>
<path d="M102.873 106.953C102.001 106.888 101.103 107.143 100.39 107.736C98.9643 108.923 98.7882 111.05 100.004 112.451C101.221 113.852 103.385 114.017 104.819 112.83C106.245 111.643 106.421 109.517 105.205 108.116C104.592 107.415 103.754 107.028 102.881 106.953H102.873ZM102.73 108.692C103.15 108.725 103.552 108.915 103.846 109.253C104.433 109.929 104.358 110.918 103.661 111.495C102.965 112.072 101.942 111.989 101.355 111.313C100.768 110.637 100.843 109.648 101.539 109.072C101.883 108.783 102.319 108.659 102.73 108.692Z" fill="#FFD278"/>
<path d="M103.694 112.17C103.393 112.162 103.099 112.302 102.923 112.541C102.747 112.788 102.705 113.102 102.814 113.382C104.164 117.041 104.995 117.923 105.607 119.58C106.269 121.376 106.295 121.426 106.303 121.442C106.395 121.665 106.58 121.838 106.806 121.928C107.033 122.019 107.284 122.019 107.511 121.92C107.737 121.821 107.913 121.64 107.997 121.417C108.081 121.195 108.073 120.939 107.972 120.725C107.972 120.709 107.989 120.758 107.318 118.961C106.605 117.033 105.825 116.283 104.525 112.764C104.399 112.418 104.072 112.179 103.694 112.162V112.17Z" fill="#FFD278"/>
<path d="M108.059 119.983C107.614 119.999 107.17 120.106 106.75 120.304C105.064 121.095 104.335 123.106 105.132 124.771C105.928 126.436 107.975 127.153 109.661 126.362C111.347 125.571 112.076 123.56 111.28 121.895C110.684 120.65 109.384 119.933 108.059 119.983ZM108.143 121.722C108.772 121.689 109.376 122.027 109.669 122.637C110.055 123.444 109.711 124.392 108.898 124.779C108.076 125.167 107.136 124.837 106.742 124.021C106.356 123.214 106.7 122.266 107.514 121.878C107.715 121.78 107.933 121.73 108.143 121.722Z" fill="#FFD278"/>
<path d="M114.852 23.5979C114.651 23.5979 114.449 23.672 114.29 23.7957C114.273 23.8039 114.315 23.7792 112.721 24.8753C111.01 26.0538 110.473 26.9851 107.353 29.128C107.152 29.2598 107.009 29.4741 106.967 29.7049C106.925 29.9439 106.976 30.1829 107.118 30.3807C107.261 30.5785 107.471 30.7103 107.714 30.7515C107.957 30.7928 108.2 30.7351 108.402 30.595C111.648 28.3615 112.302 27.3478 113.77 26.3423C115.363 25.2462 115.405 25.2132 115.422 25.205C115.733 24.9742 115.858 24.5621 115.733 24.1995C115.607 23.8369 115.254 23.5896 114.86 23.5979H114.852Z" fill="#FFD278"/>
<path d="M117.053 19.5765C116.18 19.5106 115.283 19.7661 114.57 20.3595C113.144 21.5463 112.968 23.6726 114.184 25.0737C115.4 26.4747 117.564 26.6396 118.999 25.4528C120.424 24.266 120.601 22.1397 119.384 20.7386C118.772 20.0381 117.933 19.6507 117.061 19.5765H117.053ZM116.91 21.3155C117.329 21.3485 117.732 21.538 118.026 21.8759C118.613 22.5517 118.537 23.5325 117.841 24.1176C117.145 24.6946 116.122 24.6121 115.534 23.9363C114.947 23.2605 115.023 22.2715 115.719 21.6946C116.063 21.4062 116.499 21.2825 116.91 21.3155Z" fill="#FFD278"/>
<path d="M129.303 32.5977C128.833 32.5977 128.447 32.952 128.405 33.4136C128.405 33.4301 128.405 33.3724 128.07 35.2514C127.701 37.2789 128.003 38.3008 127.332 41.9931C127.281 42.2321 127.332 42.4711 127.474 42.6689C127.617 42.8667 127.826 42.9985 128.07 43.048C128.313 43.0892 128.556 43.0315 128.757 42.8996C128.959 42.7595 129.093 42.5452 129.126 42.3145C129.814 38.4821 129.546 37.3118 129.865 35.5729C130.2 33.6938 130.208 33.6361 130.217 33.6114C130.25 33.3559 130.167 33.1004 129.99 32.9026C129.814 32.713 129.563 32.5977 129.303 32.6059V32.5977Z" fill="#FFD278"/>
<path d="M129.788 27.7031C127.926 27.563 126.265 28.9476 126.114 30.7772C125.954 32.6069 127.364 34.2387 129.234 34.3788C131.096 34.5189 132.757 33.1343 132.908 31.3047C133.067 29.4751 131.658 27.8432 129.788 27.7031ZM129.653 29.4503C130.559 29.5163 131.205 30.2745 131.13 31.1646C131.054 32.0547 130.274 32.7058 129.368 32.6398C128.462 32.5739 127.817 31.8157 127.892 30.9256C127.968 30.0355 128.748 29.3844 129.653 29.4503Z" fill="#FFD278"/>
<path d="M51.5051 25.668C51.0186 25.6927 50.6328 26.0883 50.6328 26.5663C50.6328 27.0443 51.027 27.4399 51.5135 27.4564C51.5303 27.4564 51.48 27.4564 53.4091 27.6542C55.4893 27.8685 56.5126 27.5141 60.3038 27.9097C60.547 27.9426 60.7903 27.8767 60.9832 27.7284C61.1761 27.58 61.3019 27.3575 61.3271 27.1185C61.3522 26.8795 61.2767 26.6405 61.1258 26.4509C60.9664 26.2614 60.7399 26.146 60.4967 26.1295C56.5545 25.7174 55.3886 26.0636 53.602 25.874C51.6729 25.6762 51.6142 25.668 51.589 25.668C51.5555 25.668 51.5303 25.668 51.4967 25.668H51.5051Z" fill="#FFD278"/>
<path d="M49.0758 23.178C47.2053 23.1533 45.6452 24.645 45.6369 26.4829C45.6201 28.3208 47.1383 29.8455 49.0087 29.8702C50.8791 29.8949 52.4392 28.4032 52.4476 26.5653C52.4644 24.7275 50.9462 23.2028 49.0758 23.178ZM49.0506 24.9252C49.9565 24.9417 50.6778 25.6588 50.6694 26.5488C50.6694 27.4389 49.9397 28.1312 49.0339 28.1147C48.128 28.0983 47.4067 27.3812 47.415 26.4911C47.415 25.6011 48.1448 24.9088 49.0506 24.9252Z" fill="#FFD278"/>
<path d="M38.9849 18.7688C38.5991 18.7853 38.2636 19.0407 38.1545 19.4116C38.0455 19.7742 38.1797 20.1698 38.4984 20.3924C38.5152 20.4006 38.4733 20.3676 39.9579 21.5956C41.5599 22.9225 42.6168 23.178 45.5273 25.5928C45.7118 25.7494 45.955 25.8236 46.1899 25.7988C46.4331 25.7823 46.6512 25.667 46.8106 25.4857C46.97 25.3043 47.0454 25.0653 47.0203 24.8263C46.9951 24.5873 46.8861 24.373 46.6932 24.2165C43.6568 21.711 42.4909 21.3566 41.1154 20.2193C39.6308 18.9913 39.5804 18.9583 39.5637 18.9418C39.3959 18.81 39.1778 18.7523 38.9681 18.7605L38.9849 18.7688Z" fill="#FFD278"/>
<path d="M37.007 14.9122C35.9082 14.904 34.8262 15.4067 34.1635 16.3545C33.1067 17.8709 33.5009 19.9725 35.0359 21.0192C36.5708 22.0659 38.7096 21.6868 39.7665 20.1703C40.8233 18.6539 40.4291 16.5523 38.8942 15.5056C38.3154 15.11 37.6528 14.9205 36.9986 14.9122H37.007ZM36.6714 16.6759C37.0741 16.6017 37.5102 16.6841 37.8877 16.9396C38.6342 17.4506 38.8187 18.4396 38.307 19.1731C37.7954 19.9066 36.8057 20.0879 36.0592 19.5769C35.3127 19.066 35.1281 18.077 35.6398 17.3435C35.8998 16.9726 36.2688 16.7501 36.6798 16.6759H36.6714Z" fill="#FFD278"/>
<path d="M23.5766 61.2391C23.3753 61.2308 23.1656 61.2885 23.0062 61.4039C19.7602 63.6374 19.106 64.6511 17.6382 65.6565C16.0445 66.7527 15.9942 66.7856 15.9774 66.8021C15.7845 66.9505 15.667 67.1648 15.6419 67.4038C15.6167 67.6428 15.6838 67.8818 15.8348 68.0631C15.9858 68.2526 16.2122 68.368 16.4471 68.3927C16.6903 68.4175 16.9336 68.3433 17.1181 68.1949C17.1349 68.1867 17.0846 68.2197 18.6782 67.1235C20.3893 65.945 20.9261 65.0137 24.0463 62.8709C24.3734 62.6566 24.516 62.261 24.4154 61.8901C24.3063 61.5193 23.9708 61.2555 23.5766 61.2391Z" fill="#FFD278"/>
<path d="M14.8964 65.7699C14.0241 65.704 13.1266 65.9594 12.4136 66.5528C10.9877 67.7396 10.8116 69.866 12.0278 71.267C13.244 72.6681 15.408 72.8329 16.8423 71.6461C18.2682 70.4594 18.4444 68.333 17.2282 66.932C16.6159 66.2314 15.7771 65.8441 14.9048 65.7699H14.8964ZM14.7538 67.5089C15.1732 67.5418 15.5758 67.7314 15.8693 68.0693C16.4565 68.7451 16.381 69.7259 15.6848 70.311C14.9886 70.8879 13.9654 70.8055 13.3782 70.1297C12.7911 69.4539 12.8666 68.4649 13.5627 67.888C13.9066 67.5995 14.3428 67.4759 14.7538 67.5089Z" fill="#FFD278"/>
<path d="M39.9644 69.793C39.5282 69.8012 39.1591 70.1144 39.0836 70.543C39.0082 70.9715 39.2598 71.3836 39.6708 71.5319C39.6876 71.5319 39.6288 71.5155 41.3903 72.3231C43.2859 73.1967 44.3679 73.1803 47.8236 74.7626C48.0417 74.8698 48.2933 74.878 48.5281 74.7956C48.7546 74.7132 48.9475 74.5484 49.0482 74.3341C49.1488 74.1198 49.1656 73.8725 49.0817 73.6418C48.9978 73.4193 48.8217 73.2379 48.6036 73.139C45.0137 71.4907 43.7975 71.4413 42.1703 70.6995C40.4089 69.8919 40.3502 69.8671 40.3334 69.8589C40.2244 69.8177 40.0985 69.793 39.9811 69.793H39.9644Z" fill="#FFD278"/>
<path d="M37.4223 66.5133C36.0971 66.5875 34.8725 67.4281 34.4112 68.7303C33.7905 70.461 34.7215 72.3896 36.4829 73.0159C38.2443 73.6423 40.207 72.7275 40.8277 70.9885C41.4484 69.2578 40.5174 67.3292 38.756 66.7029C38.3198 66.5463 37.8669 66.4886 37.4223 66.5133ZM37.5146 68.2523C37.7243 68.2441 37.9424 68.2688 38.1521 68.3512C39.0076 68.6561 39.4521 69.5627 39.1418 70.4034C38.8398 71.244 37.934 71.6643 37.0784 71.3676C36.2229 71.0627 35.7867 70.1561 36.0887 69.3155C36.3152 68.6809 36.8855 68.2935 37.5146 68.2605V68.2523Z" fill="#FFD278"/>
<path d="M64.3657 89.8438C64.0973 89.8438 63.8456 89.9674 63.6779 90.1734C61.128 93.1569 60.7673 94.3024 59.6099 95.6541C58.3601 97.1128 58.3182 97.1623 58.3098 97.1788C58.1672 97.3683 58.1085 97.6073 58.142 97.8463C58.1756 98.0853 58.3098 98.2914 58.5027 98.4315C58.6956 98.5716 58.9388 98.6293 59.1821 98.5963C59.4253 98.5633 59.635 98.4315 59.7776 98.2337C59.786 98.2172 59.7525 98.2666 61.0022 96.8079C62.3442 95.2337 62.6126 94.2035 65.0702 91.3272C65.3051 91.0635 65.3554 90.6844 65.2044 90.363C65.0534 90.0415 64.7263 89.8438 64.3657 89.8438Z" fill="#FFD278"/>
<path d="M57.649 96.3965C56.5502 96.3965 55.4682 96.891 54.7972 97.8388C53.732 99.347 54.1178 101.449 55.6611 102.487C57.2044 103.525 59.3433 103.138 60.4085 101.63C61.4738 100.122 61.0879 98.0201 59.5446 96.9816C58.9659 96.5943 58.3032 96.4047 57.649 96.3965ZM57.3135 98.1684C57.7245 98.0942 58.1606 98.1684 58.5381 98.4239C59.2846 98.9266 59.4691 99.8991 58.9491 100.633C58.4291 101.366 57.4225 101.547 56.676 101.045C55.9295 100.542 55.745 99.5695 56.265 98.836C56.5251 98.4651 56.9025 98.2426 57.3135 98.1684Z" fill="#FFD278"/>
<path d="M9.94024 31.6102C9.6299 31.841 9.50408 32.2366 9.62151 32.5992C9.73893 32.9619 10.0828 33.2091 10.4687 33.2173C10.4854 33.2173 10.4351 33.2174 12.3643 33.3987C14.4444 33.5965 15.4677 33.2338 19.2589 33.5965C19.5022 33.6212 19.7454 33.547 19.9299 33.3987C20.1145 33.2503 20.2403 33.0278 20.257 32.7888C20.2822 32.5498 20.2067 32.319 20.0557 32.1295C19.9048 31.9482 19.6783 31.8328 19.4351 31.808C15.4929 31.4289 14.327 31.7833 12.5404 31.6102C10.6029 31.4207 10.5525 31.4207 10.5274 31.4207C10.3093 31.4125 10.0996 31.4701 9.93185 31.602L9.94024 31.6102Z" fill="#FFD278"/>
<path d="M6.084 29.5253C5.17813 30.1269 4.57422 31.1406 4.57422 32.2944C4.57422 34.1323 6.10916 35.6488 7.9796 35.657C9.85005 35.6652 11.3934 34.1653 11.3934 32.3274C11.3934 30.4895 9.85843 28.9731 7.98799 28.9648C7.28343 28.9648 6.62919 29.1709 6.084 29.5253ZM6.82211 31.1654C7.11568 30.8851 7.51828 30.7121 7.97122 30.7121C8.87708 30.7121 9.60681 31.4291 9.60681 32.3274C9.60681 33.2257 8.89385 33.918 7.98799 33.9098C7.08212 33.9098 6.3524 33.1928 6.3524 32.2944C6.3524 31.8494 6.52854 31.4538 6.82211 31.1654Z" fill="#FFD278"/>
<path d="M91.7488 45.5633C91.4385 45.7941 91.3127 46.1897 91.4301 46.5523C91.5475 46.9149 91.8914 47.1622 92.2772 47.1704C92.294 47.1704 92.2437 47.1704 94.1729 47.3517C96.253 47.5495 97.2763 47.1869 101.067 47.5495C101.311 47.5742 101.554 47.5001 101.739 47.3517C101.923 47.2034 102.049 46.9809 102.066 46.7418C102.091 46.5028 102.015 46.2721 101.864 46.0825C101.713 45.9012 101.487 45.7858 101.244 45.7611C97.3015 45.382 96.1356 45.7364 94.349 45.5633C92.4114 45.3737 92.3611 45.3737 92.336 45.3737C92.1179 45.3655 91.9082 45.4314 91.7404 45.5551L91.7488 45.5633Z" fill="#FFD278"/>
<path d="M87.9004 43.4784C86.9945 44.08 86.3906 45.0937 86.3906 46.2476C86.3906 48.0854 87.9256 49.6019 89.796 49.6101C91.6665 49.6184 93.2098 48.1184 93.2098 46.2805C93.2098 44.4427 91.6832 42.9262 89.8044 42.918C89.0998 42.918 88.4456 43.124 87.9004 43.4784ZM88.6385 45.1185C88.9321 44.83 89.3347 44.6569 89.7876 44.6652C90.6935 44.6652 91.4232 45.3822 91.4232 46.2805C91.4232 47.1706 90.7103 47.8712 89.8044 47.8629C88.8985 47.8629 88.1688 47.1459 88.1688 46.2476C88.1688 45.8025 88.345 45.4069 88.6385 45.1185Z" fill="#FFD278"/>
<path d="M65.409 36.7367C65.0986 36.9675 64.9728 37.3631 65.0903 37.7257C65.2077 38.0883 65.5516 38.3356 65.9374 38.3438C65.9542 38.3438 65.9039 38.3438 67.833 38.5251C69.9131 38.7229 70.9364 38.3603 74.7277 38.7229C74.9709 38.7476 75.2058 38.6735 75.3987 38.5251C75.5832 38.3768 75.7006 38.1543 75.7258 37.9235C75.751 37.6845 75.6755 37.4537 75.5245 37.2642C75.3735 37.0828 75.147 36.9675 74.9122 36.9427C70.97 36.5636 69.8041 36.918 68.0175 36.7449C66.08 36.5554 66.0297 36.5554 66.0045 36.5554C65.7864 36.5471 65.5767 36.6131 65.409 36.7367Z" fill="#FFD278"/>
<path d="M61.5527 34.6503C60.6469 35.2519 60.043 36.2656 60.043 37.4194C60.043 39.2573 61.5779 40.7738 63.4484 40.782C65.3188 40.7902 66.8621 39.2903 66.8621 37.4524C66.8621 35.6145 65.3356 34.0981 63.4567 34.0898C62.7522 34.0898 62.0979 34.2959 61.5527 34.6503ZM62.2909 36.2903C62.5844 36.0019 62.987 35.8371 63.44 35.8371C64.3458 35.8371 65.0756 36.5541 65.0756 37.4524C65.0756 38.3507 64.3626 39.043 63.4567 39.0348C62.5509 39.0348 61.8211 38.3178 61.8211 37.4194C61.8211 36.5211 61.9973 36.5788 62.2909 36.2903Z" fill="#FFD278"/>
<path d="M63.2759 59.9028C63.3262 60.2819 63.6114 60.5868 63.9888 60.6692C64.3663 60.7517 64.7521 60.5868 64.9618 60.2572C64.9702 60.2407 64.945 60.2819 66.0773 58.7325C67.2935 57.0594 67.4781 56.0127 69.7008 52.9634C69.8434 52.7738 69.9021 52.5266 69.8602 52.2958C69.8182 52.0568 69.6924 51.8507 69.4911 51.7106C69.2898 51.5705 69.0466 51.5128 68.8117 51.554C68.5769 51.5953 68.3588 51.7271 68.2162 51.9167C65.9096 55.0814 65.6412 56.2517 64.5927 57.6858C63.4604 59.2352 63.4268 59.2846 63.4184 59.3011C63.301 59.4824 63.2507 59.6885 63.2759 59.9028Z" fill="#FFD278"/>
<path d="M59.511 62.1354C59.5865 63.2068 60.182 64.2288 61.1969 64.8057C62.8157 65.7288 64.921 65.1766 65.8605 63.5942C66.8083 62.0036 66.2547 59.9432 64.6275 59.0201C63.0087 58.0971 60.9118 58.6493 59.964 60.2316C59.6117 60.825 59.4691 61.4926 59.511 62.1354ZM61.3227 62.325C61.2221 61.9376 61.2724 61.5008 61.4989 61.1135C61.9602 60.3388 62.95 60.0833 63.7384 60.5283C64.5268 60.9734 64.7785 61.9294 64.3171 62.6959C63.8558 63.4706 62.8661 63.7261 62.0776 63.281C61.6834 63.0585 61.4234 62.7041 61.3227 62.3168V62.325Z" fill="#FFD278"/>
<path d="M87.0652 61.3289C86.7549 61.5597 86.6291 61.9553 86.7465 62.3179C86.8639 62.6805 87.2078 62.9278 87.5937 62.936C87.6104 62.936 87.5601 62.936 89.4893 63.1173C91.5694 63.3151 92.5927 62.9525 96.3839 63.3151C96.6272 63.3399 96.8704 63.2657 97.0549 63.1173C97.2395 62.969 97.3653 62.7465 97.382 62.5075C97.4072 62.2685 97.3317 62.0294 97.1807 61.8481C97.0298 61.6668 96.8033 61.5514 96.5601 61.5267C92.6179 61.1476 91.452 61.502 89.6654 61.3289C87.7279 61.1394 87.6775 61.1394 87.6524 61.1394C87.4343 61.1311 87.2246 61.197 87.0568 61.3207L87.0652 61.3289Z" fill="#FFD278"/>
<path d="M83.2129 59.244C82.307 59.8457 81.7031 60.8594 81.7031 62.0132C81.7031 63.8511 83.2381 65.3675 85.1085 65.3758C86.9789 65.384 88.5223 63.884 88.5223 62.0462C88.5223 60.2083 86.9873 58.6918 85.1169 58.6836C84.4123 58.6836 83.7581 58.8896 83.2129 59.244ZM83.951 60.8841C84.2446 60.5956 84.6472 60.4226 85.1001 60.4308C86.006 60.4308 86.7357 61.1478 86.7273 62.0462C86.7273 62.9363 86.0144 63.6368 85.1085 63.6285C84.1942 63.6285 83.4729 62.9115 83.4729 62.0132C83.4729 61.5681 83.6491 61.1726 83.9426 60.8841H83.951Z" fill="#FFD278"/>
<path d="M60.4246 16.9222C60.1898 16.6173 59.7872 16.4936 59.4181 16.609C59.0491 16.7244 58.7974 17.0623 58.789 17.4414C58.789 17.4579 58.789 17.4085 58.6045 19.304C58.4032 21.3479 58.7723 22.3534 58.4032 26.0786C58.378 26.3176 58.4535 26.5566 58.6045 26.7379C58.7555 26.9192 58.9819 27.0429 59.2252 27.0594C59.4684 27.0841 59.7117 27.0099 59.8962 26.8616C60.0807 26.7132 60.1982 26.4907 60.2233 26.2517C60.6092 22.3781 60.2485 21.2326 60.4246 19.4771C60.6175 17.5733 60.6175 17.5238 60.6175 17.4991C60.6259 17.2848 60.5672 17.0788 60.433 16.914L60.4246 16.9222Z" fill="#FFD278"/>
<path d="M62.5451 13.1397C61.9328 12.2496 60.9011 11.6562 59.7269 11.6562C57.8564 11.6562 56.3131 13.1645 56.3047 15.0023C56.2963 16.8402 57.8229 18.3567 59.6933 18.3567C61.5638 18.3567 63.1071 16.8484 63.1155 15.0106C63.1155 14.3183 62.9058 13.6754 62.5451 13.1397ZM60.876 13.865C61.1612 14.1535 61.3373 14.549 61.3373 14.9941C61.3373 15.8842 60.6076 16.6012 59.6933 16.6012C58.7791 16.6012 58.0745 15.9007 58.0829 15.0106C58.0829 14.1205 58.8126 13.4035 59.7269 13.4035C60.1798 13.4035 60.5824 13.5765 60.876 13.865Z" fill="#FFD278"/>
<path d="M126.812 100.08C126.862 99.7008 126.669 99.3382 126.326 99.1651C125.982 98.992 125.562 99.0497 125.285 99.3135C125.269 99.3299 125.311 99.2887 123.809 100.5C122.19 101.802 121.737 102.775 118.785 105.148C118.6 105.297 118.483 105.519 118.458 105.75C118.433 105.989 118.508 106.22 118.659 106.409C118.81 106.591 119.037 106.706 119.271 106.731C119.515 106.756 119.75 106.681 119.943 106.533C123.004 104.061 123.574 103.006 124.967 101.885C126.468 100.673 126.51 100.632 126.527 100.624C126.686 100.484 126.787 100.286 126.82 100.08H126.812Z" fill="#FFD278"/>
<path d="M131.04 98.8853C131.25 97.8304 130.948 96.693 130.117 95.8771C128.792 94.575 126.62 94.575 125.295 95.8607C123.961 97.1546 123.953 99.2891 125.278 100.591C126.603 101.893 128.775 101.893 130.101 100.608C130.604 100.122 130.914 99.5199 131.04 98.8853ZM129.337 98.2425C129.337 98.6463 129.17 99.0501 128.851 99.3633C128.205 99.9897 127.182 99.9897 126.536 99.3633C125.89 98.737 125.898 97.748 126.544 97.1216C127.19 96.4952 128.213 96.4952 128.859 97.1216C129.178 97.4348 129.337 97.8386 129.337 98.2425Z" fill="#FFD278"/>
</svg>
