<svg width="588" height="586" viewBox="0 0 588 586" fill="none" xmlns="http://www.w3.org/2000/svg">
<g filter="url(#filter0_f_3967_37094)">
<mask id="path-1-inside-1_3967_37094" fill="white">
<path d="M383.624 260.272C401.594 309.409 376.137 363.74 326.766 381.625C277.395 399.509 222.804 374.174 204.834 325.037C186.864 275.9 212.32 221.568 261.692 203.684C311.063 185.799 365.654 211.135 383.624 260.272Z"/>
</mask>
<g clip-path="url(#paint0_angular_3967_37094_clip_path)" data-figma-skip-parse="true" mask="url(#path-1-inside-1_3967_37094)"><g transform="matrix(0.0325371 0.0889705 -0.0893949 0.0323826 294.229 292.654)"><foreignObject x="-1041.34" y="-1041.34" width="2082.67" height="2082.67"><div xmlns="http://www.w3.org/1999/xhtml" style="background:conic-gradient(from 90deg,rgba(39, 39, 49, 0) 0deg,rgba(142, 142, 142, 1) 90.1176deg,rgba(39, 39, 49, 0) 188.654deg,rgba(142, 142, 142, 1) 269.899deg,rgba(39, 39, 49, 0) 360deg);height:100%;width:100%;opacity:0.2"></div></foreignObject></g></g><path d="M383.624 260.272L379.942 261.605C397.164 308.699 372.772 360.795 325.421 377.947L326.766 381.625L328.111 385.302C379.503 366.686 406.023 310.119 387.306 258.938L383.624 260.272ZM326.766 381.625L325.421 377.947C278.07 395.1 225.738 370.797 208.516 323.703L204.834 325.037L201.152 326.371C219.869 377.551 276.719 403.919 328.111 385.302L326.766 381.625ZM204.834 325.037L208.516 323.703C191.293 276.61 215.686 224.514 263.037 207.361L261.692 203.684L260.347 200.006C208.955 218.623 182.435 275.19 201.152 326.371L204.834 325.037ZM261.692 203.684L263.037 207.361C310.388 190.209 362.72 214.512 379.942 261.605L383.624 260.272L387.306 258.938C368.588 207.757 311.739 181.39 260.347 200.006L261.692 203.684Z" data-figma-gradient-fill="{&#34;type&#34;:&#34;GRADIENT_ANGULAR&#34;,&#34;stops&#34;:[{&#34;color&#34;:{&#34;r&#34;:0.55769228935241699,&#34;g&#34;:0.55769228935241699,&#34;b&#34;:0.55769228935241699,&#34;a&#34;:1.0},&#34;position&#34;:0.25032678246498108},{&#34;color&#34;:{&#34;r&#34;:0.15294118225574493,&#34;g&#34;:0.15294118225574493,&#34;b&#34;:0.19215686619281769,&#34;a&#34;:0.0},&#34;position&#34;:0.52403843402862549},{&#34;color&#34;:{&#34;r&#34;:0.55686277151107788,&#34;g&#34;:0.55686277151107788,&#34;b&#34;:0.55686277151107788,&#34;a&#34;:1.0},&#34;position&#34;:0.74972027540206909},{&#34;color&#34;:{&#34;r&#34;:0.15294118225574493,&#34;g&#34;:0.15294118225574493,&#34;b&#34;:0.19215686619281769,&#34;a&#34;:0.0},&#34;position&#34;:1.0}],&#34;stopsVar&#34;:[{&#34;color&#34;:{&#34;r&#34;:0.55769228935241699,&#34;g&#34;:0.55769228935241699,&#34;b&#34;:0.55769228935241699,&#34;a&#34;:1.0},&#34;position&#34;:0.25032678246498108},{&#34;color&#34;:{&#34;r&#34;:0.15294118225574493,&#34;g&#34;:0.15294118225574493,&#34;b&#34;:0.19215686619281769,&#34;a&#34;:0.0},&#34;position&#34;:0.52403843402862549},{&#34;color&#34;:{&#34;r&#34;:0.55686277151107788,&#34;g&#34;:0.55686277151107788,&#34;b&#34;:0.55686277151107788,&#34;a&#34;:1.0},&#34;position&#34;:0.74972027540206909},{&#34;color&#34;:{&#34;r&#34;:0.15294118225574493,&#34;g&#34;:0.15294118225574493,&#34;b&#34;:0.19215686619281769,&#34;a&#34;:0.0},&#34;position&#34;:1.0}],&#34;transform&#34;:{&#34;m00&#34;:65.074195861816406,&#34;m01&#34;:-178.78987121582031,&#34;m02&#34;:351.08676147460938,&#34;m10&#34;:177.94104003906250,&#34;m11&#34;:64.765228271484375,&#34;m12&#34;:171.30117797851562},&#34;opacity&#34;:0.20000000298023224,&#34;blendMode&#34;:&#34;NORMAL&#34;,&#34;visible&#34;:true}" mask="url(#path-1-inside-1_3967_37094)"/>
<mask id="path-3-inside-2_3967_37094" fill="white">
<path d="M409.859 250.767C433.004 314.058 400.216 384.039 336.623 407.075C273.031 430.111 202.715 397.478 179.569 334.188C156.424 270.897 189.212 200.916 252.805 177.88C316.397 154.844 386.713 187.477 409.859 250.767Z"/>
</mask>
<g clip-path="url(#paint1_angular_3967_37094_clip_path)" data-figma-skip-parse="true" mask="url(#path-3-inside-2_3967_37094)"><g transform="matrix(0.0419092 0.114598 -0.115145 0.0417102 294.714 292.478)"><foreignObject x="-1032.09" y="-1032.09" width="2064.18" height="2064.18"><div xmlns="http://www.w3.org/1999/xhtml" style="background:conic-gradient(from 90deg,rgba(39, 39, 49, 0) 0deg,rgba(142, 142, 142, 1) 90.1176deg,rgba(39, 39, 49, 0) 188.654deg,rgba(142, 142, 142, 1) 269.899deg,rgba(39, 39, 49, 0) 360deg);height:100%;width:100%;opacity:0.2"></div></foreignObject></g></g><path d="M409.859 250.767L406.177 252.101C428.575 313.348 396.85 381.094 335.278 403.398L336.623 407.075L337.968 410.753C403.581 386.985 437.433 314.768 413.54 249.434L409.859 250.767ZM336.623 407.075L335.278 403.398C273.706 425.702 205.65 394.101 183.251 332.854L179.569 334.188L175.888 335.521C199.781 400.856 272.355 434.521 337.968 410.753L336.623 407.075ZM179.569 334.188L183.251 332.854C160.853 271.607 192.578 203.861 254.15 181.557L252.805 177.88L251.46 174.202C185.846 197.97 151.994 270.187 175.888 335.521L179.569 334.188ZM252.805 177.88L254.15 181.557C315.722 159.253 383.778 190.854 406.177 252.101L409.859 250.767L413.54 249.434C389.647 184.099 317.073 150.434 251.46 174.202L252.805 177.88Z" data-figma-gradient-fill="{&#34;type&#34;:&#34;GRADIENT_ANGULAR&#34;,&#34;stops&#34;:[{&#34;color&#34;:{&#34;r&#34;:0.55769228935241699,&#34;g&#34;:0.55769228935241699,&#34;b&#34;:0.55769228935241699,&#34;a&#34;:1.0},&#34;position&#34;:0.25032678246498108},{&#34;color&#34;:{&#34;r&#34;:0.15294118225574493,&#34;g&#34;:0.15294118225574493,&#34;b&#34;:0.19215686619281769,&#34;a&#34;:0.0},&#34;position&#34;:0.52403843402862549},{&#34;color&#34;:{&#34;r&#34;:0.55686277151107788,&#34;g&#34;:0.55686277151107788,&#34;b&#34;:0.55686277151107788,&#34;a&#34;:1.0},&#34;position&#34;:0.74972027540206909},{&#34;color&#34;:{&#34;r&#34;:0.15294118225574493,&#34;g&#34;:0.15294118225574493,&#34;b&#34;:0.19215686619281769,&#34;a&#34;:0.0},&#34;position&#34;:1.0}],&#34;stopsVar&#34;:[{&#34;color&#34;:{&#34;r&#34;:0.55769228935241699,&#34;g&#34;:0.55769228935241699,&#34;b&#34;:0.55769228935241699,&#34;a&#34;:1.0},&#34;position&#34;:0.25032678246498108},{&#34;color&#34;:{&#34;r&#34;:0.15294118225574493,&#34;g&#34;:0.15294118225574493,&#34;b&#34;:0.19215686619281769,&#34;a&#34;:0.0},&#34;position&#34;:0.52403843402862549},{&#34;color&#34;:{&#34;r&#34;:0.55686277151107788,&#34;g&#34;:0.55686277151107788,&#34;b&#34;:0.55686277151107788,&#34;a&#34;:1.0},&#34;position&#34;:0.74972027540206909},{&#34;color&#34;:{&#34;r&#34;:0.15294118225574493,&#34;g&#34;:0.15294118225574493,&#34;b&#34;:0.19215686619281769,&#34;a&#34;:0.0},&#34;position&#34;:1.0}],&#34;transform&#34;:{&#34;m00&#34;:83.818397521972656,&#34;m01&#34;:-230.28915405273438,&#34;m02&#34;:367.94931030273438,&#34;m10&#34;:229.19578552246094,&#34;m11&#34;:83.420440673828125,&#34;m12&#34;:136.16940307617188},&#34;opacity&#34;:0.20000000298023224,&#34;blendMode&#34;:&#34;NORMAL&#34;,&#34;visible&#34;:true}" mask="url(#path-3-inside-2_3967_37094)"/>
<mask id="path-5-inside-3_3967_37094" fill="white">
<path d="M433.089 242.08C461.069 318.589 421.432 403.187 344.558 431.035C267.683 458.882 182.682 419.433 154.701 342.924C126.721 266.414 166.358 181.816 243.233 153.969C320.107 126.122 405.109 165.57 433.089 242.08Z"/>
</mask>
<g clip-path="url(#paint2_angular_3967_37094_clip_path)" data-figma-skip-parse="true" mask="url(#path-5-inside-3_3967_37094)"><g transform="matrix(0.0506624 0.138533 -0.139194 0.0504218 293.895 292.502)"><foreignObject x="-1026.55" y="-1026.55" width="2053.09" height="2053.09"><div xmlns="http://www.w3.org/1999/xhtml" style="background:conic-gradient(from 90deg,rgba(39, 39, 49, 0) 0deg,rgba(142, 142, 142, 1) 90.1176deg,rgba(39, 39, 49, 0) 188.654deg,rgba(142, 142, 142, 1) 269.899deg,rgba(39, 39, 49, 0) 360deg);height:100%;width:100%;opacity:0.4"></div></foreignObject></g></g><path d="M433.089 242.08L429.407 243.414C456.64 317.879 418.067 400.242 343.213 427.357L344.558 431.035L345.903 434.712C424.798 406.133 465.498 319.299 436.771 240.746L433.089 242.08ZM344.558 431.035L343.213 427.357C268.359 454.472 185.616 416.056 158.383 341.59L154.701 342.924L151.02 344.257C179.747 422.811 267.007 463.291 345.903 434.712L344.558 431.035ZM154.701 342.924L158.383 341.59C131.151 267.124 169.724 184.762 244.578 157.646L243.233 153.969L241.888 150.291C162.993 178.87 122.292 265.704 151.02 344.257L154.701 342.924ZM243.233 153.969L244.578 157.646C319.432 130.531 402.175 168.948 429.407 243.414L433.089 242.08L436.771 240.746C408.043 162.193 320.783 121.712 241.888 150.291L243.233 153.969Z" data-figma-gradient-fill="{&#34;type&#34;:&#34;GRADIENT_ANGULAR&#34;,&#34;stops&#34;:[{&#34;color&#34;:{&#34;r&#34;:0.55769228935241699,&#34;g&#34;:0.55769228935241699,&#34;b&#34;:0.55769228935241699,&#34;a&#34;:1.0},&#34;position&#34;:0.25032678246498108},{&#34;color&#34;:{&#34;r&#34;:0.15294118225574493,&#34;g&#34;:0.15294118225574493,&#34;b&#34;:0.19215686619281769,&#34;a&#34;:0.0},&#34;position&#34;:0.52403843402862549},{&#34;color&#34;:{&#34;r&#34;:0.55686277151107788,&#34;g&#34;:0.55686277151107788,&#34;b&#34;:0.55686277151107788,&#34;a&#34;:1.0},&#34;position&#34;:0.74972027540206909},{&#34;color&#34;:{&#34;r&#34;:0.15294118225574493,&#34;g&#34;:0.15294118225574493,&#34;b&#34;:0.19215686619281769,&#34;a&#34;:0.0},&#34;position&#34;:1.0}],&#34;stopsVar&#34;:[{&#34;color&#34;:{&#34;r&#34;:0.55769228935241699,&#34;g&#34;:0.55769228935241699,&#34;b&#34;:0.55769228935241699,&#34;a&#34;:1.0},&#34;position&#34;:0.25032678246498108},{&#34;color&#34;:{&#34;r&#34;:0.15294118225574493,&#34;g&#34;:0.15294118225574493,&#34;b&#34;:0.19215686619281769,&#34;a&#34;:0.0},&#34;position&#34;:0.52403843402862549},{&#34;color&#34;:{&#34;r&#34;:0.55686277151107788,&#34;g&#34;:0.55686277151107788,&#34;b&#34;:0.55686277151107788,&#34;a&#34;:1.0},&#34;position&#34;:0.74972027540206909},{&#34;color&#34;:{&#34;r&#34;:0.15294118225574493,&#34;g&#34;:0.15294118225574493,&#34;b&#34;:0.19215686619281769,&#34;a&#34;:0.0},&#34;position&#34;:1.0}],&#34;transform&#34;:{&#34;m00&#34;:101.32476043701172,&#34;m01&#34;:-278.38751220703125,&#34;m02&#34;:382.42657470703125,&#34;m10&#34;:277.06576538085938,&#34;m11&#34;:100.84368896484375,&#34;m12&#34;:103.54693603515625},&#34;opacity&#34;:0.40000000596046448,&#34;blendMode&#34;:&#34;NORMAL&#34;,&#34;visible&#34;:true}" mask="url(#path-5-inside-3_3967_37094)"/>
<mask id="path-7-inside-4_3967_37094" fill="white">
<path d="M455.925 233.806C488.495 322.867 442.356 421.343 352.87 453.758C263.384 486.174 164.438 440.254 131.868 351.193C99.2979 262.132 145.437 163.656 234.923 131.24C324.409 98.8246 423.355 144.745 455.925 233.806Z"/>
</mask>
<g clip-path="url(#paint3_angular_3967_37094_clip_path)" data-figma-skip-parse="true" mask="url(#path-7-inside-4_3967_37094)"><g transform="matrix(0.0589735 0.161259 -0.162028 0.0586935 293.896 292.499)"><foreignObject x="-1022.81" y="-1022.81" width="2045.61" height="2045.61"><div xmlns="http://www.w3.org/1999/xhtml" style="background:conic-gradient(from 90deg,rgba(39, 39, 49, 0) 0deg,rgba(142, 142, 142, 1) 90.1176deg,rgba(39, 39, 49, 0) 188.654deg,rgba(142, 142, 142, 1) 269.899deg,rgba(39, 39, 49, 0) 360deg);height:100%;width:100%;opacity:0.3"></div></foreignObject></g></g><path d="M455.925 233.806L452.243 235.139C484.066 322.156 438.99 418.397 351.525 450.081L352.87 453.758L354.215 457.436C445.721 424.288 492.924 323.577 459.606 232.472L455.925 233.806ZM352.87 453.758L351.525 450.081C264.06 481.764 167.373 436.876 135.55 349.859L131.868 351.193L128.186 352.526C161.504 443.631 262.708 490.583 354.215 457.436L352.87 453.758ZM131.868 351.193L135.55 349.859C103.727 262.842 148.803 166.601 236.268 134.918L234.923 131.24L233.578 127.562C142.071 160.71 94.8687 261.422 128.186 352.526L131.868 351.193ZM234.923 131.24L236.268 134.918C323.733 103.234 420.42 148.122 452.243 235.139L455.925 233.806L459.606 232.472C426.289 141.367 325.084 94.4149 233.578 127.562L234.923 131.24Z" data-figma-gradient-fill="{&#34;type&#34;:&#34;GRADIENT_ANGULAR&#34;,&#34;stops&#34;:[{&#34;color&#34;:{&#34;r&#34;:0.55769228935241699,&#34;g&#34;:0.55769228935241699,&#34;b&#34;:0.55769228935241699,&#34;a&#34;:1.0},&#34;position&#34;:0.25032678246498108},{&#34;color&#34;:{&#34;r&#34;:0.15294118225574493,&#34;g&#34;:0.15294118225574493,&#34;b&#34;:0.19215686619281769,&#34;a&#34;:0.0},&#34;position&#34;:0.52403843402862549},{&#34;color&#34;:{&#34;r&#34;:0.55686277151107788,&#34;g&#34;:0.55686277151107788,&#34;b&#34;:0.55686277151107788,&#34;a&#34;:1.0},&#34;position&#34;:0.74972027540206909},{&#34;color&#34;:{&#34;r&#34;:0.15294118225574493,&#34;g&#34;:0.15294118225574493,&#34;b&#34;:0.19215686619281769,&#34;a&#34;:0.0},&#34;position&#34;:1.0}],&#34;stopsVar&#34;:[{&#34;color&#34;:{&#34;r&#34;:0.55769228935241699,&#34;g&#34;:0.55769228935241699,&#34;b&#34;:0.55769228935241699,&#34;a&#34;:1.0},&#34;position&#34;:0.25032678246498108},{&#34;color&#34;:{&#34;r&#34;:0.15294118225574493,&#34;g&#34;:0.15294118225574493,&#34;b&#34;:0.19215686619281769,&#34;a&#34;:0.0},&#34;position&#34;:0.52403843402862549},{&#34;color&#34;:{&#34;r&#34;:0.55686277151107788,&#34;g&#34;:0.55686277151107788,&#34;b&#34;:0.55686277151107788,&#34;a&#34;:1.0},&#34;position&#34;:0.74972027540206909},{&#34;color&#34;:{&#34;r&#34;:0.15294118225574493,&#34;g&#34;:0.15294118225574493,&#34;b&#34;:0.19215686619281769,&#34;a&#34;:0.0},&#34;position&#34;:1.0}],&#34;transform&#34;:{&#34;m00&#34;:117.94696044921875,&#34;m01&#34;:-324.05670166015625,&#34;m02&#34;:396.95123291015625,&#34;m10&#34;:322.518066406250,&#34;m11&#34;:117.38700103759766,&#34;m12&#34;:72.546592712402344},&#34;opacity&#34;:0.30000001192092896,&#34;blendMode&#34;:&#34;NORMAL&#34;,&#34;visible&#34;:true}" mask="url(#path-7-inside-4_3967_37094)"/>
<mask id="path-9-inside-5_3967_37094" fill="white">
<path d="M479.819 225.424C517.126 327.437 464.277 440.234 361.777 477.364C259.278 514.493 145.943 461.895 108.636 359.882C71.329 257.87 124.178 145.072 226.678 107.943C329.177 70.8131 442.512 123.411 479.819 225.424Z"/>
</mask>
<g clip-path="url(#paint4_angular_3967_37094_clip_path)" data-figma-skip-parse="true" mask="url(#path-9-inside-5_3967_37094)"><g transform="matrix(0.0675498 0.184711 -0.185592 0.0672291 294.227 292.653)"><foreignObject x="-1019.91" y="-1019.91" width="2039.82" height="2039.82"><div xmlns="http://www.w3.org/1999/xhtml" style="background:conic-gradient(from 90deg,rgba(39, 39, 49, 0) 0deg,rgba(142, 142, 142, 1) 90.1176deg,rgba(39, 39, 49, 0) 188.654deg,rgba(142, 142, 142, 1) 269.899deg,rgba(39, 39, 49, 0) 360deg);height:100%;width:100%;opacity:0.15"></div></foreignObject></g></g><path d="M479.819 225.424L476.137 226.758C512.697 326.727 460.911 437.288 360.432 473.686L361.777 477.364L363.122 481.041C467.642 443.18 521.555 328.147 483.501 224.09L479.819 225.424ZM361.777 477.364L360.432 473.686C259.954 510.084 148.877 458.518 112.318 358.549L108.636 359.882L104.954 361.216C143.008 465.273 258.602 518.903 363.122 481.041L361.777 477.364ZM108.636 359.882L112.318 358.549C75.7582 258.58 127.544 148.018 228.023 111.62L226.678 107.943L225.333 104.265C120.813 142.127 66.8999 257.16 104.954 361.216L108.636 359.882ZM226.678 107.943L228.023 111.62C328.501 75.2228 439.578 126.789 476.137 226.758L479.819 225.424L483.501 224.09C445.447 120.034 329.853 66.4035 225.333 104.265L226.678 107.943Z" data-figma-gradient-fill="{&#34;type&#34;:&#34;GRADIENT_ANGULAR&#34;,&#34;stops&#34;:[{&#34;color&#34;:{&#34;r&#34;:0.55769228935241699,&#34;g&#34;:0.55769228935241699,&#34;b&#34;:0.55769228935241699,&#34;a&#34;:1.0},&#34;position&#34;:0.25032678246498108},{&#34;color&#34;:{&#34;r&#34;:0.15294118225574493,&#34;g&#34;:0.15294118225574493,&#34;b&#34;:0.19215686619281769,&#34;a&#34;:0.0},&#34;position&#34;:0.52403843402862549},{&#34;color&#34;:{&#34;r&#34;:0.55686277151107788,&#34;g&#34;:0.55686277151107788,&#34;b&#34;:0.55686277151107788,&#34;a&#34;:1.0},&#34;position&#34;:0.74972027540206909},{&#34;color&#34;:{&#34;r&#34;:0.15294118225574493,&#34;g&#34;:0.15294118225574493,&#34;b&#34;:0.19215686619281769,&#34;a&#34;:0.0},&#34;position&#34;:1.0}],&#34;stopsVar&#34;:[{&#34;color&#34;:{&#34;r&#34;:0.55769228935241699,&#34;g&#34;:0.55769228935241699,&#34;b&#34;:0.55769228935241699,&#34;a&#34;:1.0},&#34;position&#34;:0.25032678246498108},{&#34;color&#34;:{&#34;r&#34;:0.15294118225574493,&#34;g&#34;:0.15294118225574493,&#34;b&#34;:0.19215686619281769,&#34;a&#34;:0.0},&#34;position&#34;:0.52403843402862549},{&#34;color&#34;:{&#34;r&#34;:0.55686277151107788,&#34;g&#34;:0.55686277151107788,&#34;b&#34;:0.55686277151107788,&#34;a&#34;:1.0},&#34;position&#34;:0.74972027540206909},{&#34;color&#34;:{&#34;r&#34;:0.15294118225574493,&#34;g&#34;:0.15294118225574493,&#34;b&#34;:0.19215686619281769,&#34;a&#34;:0.0},&#34;position&#34;:1.0}],&#34;transform&#34;:{&#34;m00&#34;:135.09968566894531,&#34;m01&#34;:-371.18338012695312,&#34;m02&#34;:412.26931762695312,&#34;m10&#34;:369.42105102539062,&#34;m11&#34;:134.45826721191406,&#34;m12&#34;:40.713607788085938},&#34;opacity&#34;:0.15000000596046448,&#34;blendMode&#34;:&#34;NORMAL&#34;,&#34;visible&#34;:true}" mask="url(#path-9-inside-5_3967_37094)"/>
<mask id="path-11-inside-6_3967_37094" fill="white">
<path d="M509.455 214.69C552.817 333.26 491.499 464.325 372.498 507.432C253.496 550.539 121.875 489.365 78.5134 370.795C35.1517 252.225 96.4696 121.16 215.471 78.0528C334.472 34.9455 466.094 96.12 509.455 214.69Z"/>
</mask>
<g clip-path="url(#paint5_angular_3967_37094_clip_path)" data-figma-skip-parse="true" mask="url(#path-11-inside-6_3967_37094)"><g transform="matrix(0.0785134 0.21469 -0.215471 0.0780527 293.984 292.743)"><foreignObject x="-1017.13" y="-1017.13" width="2034.26" height="2034.26"><div xmlns="http://www.w3.org/1999/xhtml" style="background:conic-gradient(from 90deg,rgba(39, 39, 49, 0) 0deg,rgba(142, 142, 142, 1) 90.1176deg,rgba(39, 39, 49, 0) 188.654deg,rgba(142, 142, 142, 1) 269.899deg,rgba(39, 39, 49, 0) 360deg);height:100%;width:100%;opacity:0.1"></div></foreignObject></g></g><path d="M509.455 214.69L505.774 216.024C548.389 332.554 488.13 461.381 371.153 503.755L372.498 507.432L373.843 511.11C494.869 467.269 557.245 333.966 513.137 213.356L509.455 214.69ZM372.498 507.432L371.153 503.755C254.176 546.128 124.811 485.991 82.1952 369.461L78.5134 370.795L74.8317 372.129C118.939 492.739 252.817 554.951 373.843 511.11L372.498 507.432ZM78.5134 370.795L82.1952 369.461C39.5794 252.931 99.8392 124.104 216.816 81.7305L215.471 78.0528L214.126 74.3751C93.1001 118.216 30.7239 251.519 74.8317 372.129L78.5134 370.795ZM215.471 78.0528L216.816 81.7305C333.793 39.3566 463.158 99.4935 505.774 216.024L509.455 214.69L513.137 213.356C469.029 92.7465 335.152 30.5344 214.126 74.3751L215.471 78.0528Z" data-figma-gradient-fill="{&#34;type&#34;:&#34;GRADIENT_ANGULAR&#34;,&#34;stops&#34;:[{&#34;color&#34;:{&#34;r&#34;:0.55769228935241699,&#34;g&#34;:0.55769228935241699,&#34;b&#34;:0.55769228935241699,&#34;a&#34;:1.0},&#34;position&#34;:0.25032678246498108},{&#34;color&#34;:{&#34;r&#34;:0.15294118225574493,&#34;g&#34;:0.15294118225574493,&#34;b&#34;:0.19215686619281769,&#34;a&#34;:0.0},&#34;position&#34;:0.52403843402862549},{&#34;color&#34;:{&#34;r&#34;:0.55686277151107788,&#34;g&#34;:0.55686277151107788,&#34;b&#34;:0.55686277151107788,&#34;a&#34;:1.0},&#34;position&#34;:0.74972027540206909},{&#34;color&#34;:{&#34;r&#34;:0.15294118225574493,&#34;g&#34;:0.15294118225574493,&#34;b&#34;:0.19215686619281769,&#34;a&#34;:0.0},&#34;position&#34;:1.0}],&#34;stopsVar&#34;:[{&#34;color&#34;:{&#34;r&#34;:0.55769228935241699,&#34;g&#34;:0.55769228935241699,&#34;b&#34;:0.55769228935241699,&#34;a&#34;:1.0},&#34;position&#34;:0.25032678246498108},{&#34;color&#34;:{&#34;r&#34;:0.15294118225574493,&#34;g&#34;:0.15294118225574493,&#34;b&#34;:0.19215686619281769,&#34;a&#34;:0.0},&#34;position&#34;:0.52403843402862549},{&#34;color&#34;:{&#34;r&#34;:0.55686277151107788,&#34;g&#34;:0.55686277151107788,&#34;b&#34;:0.55686277151107788,&#34;a&#34;:1.0},&#34;position&#34;:0.74972027540206909},{&#34;color&#34;:{&#34;r&#34;:0.15294118225574493,&#34;g&#34;:0.15294118225574493,&#34;b&#34;:0.19215686619281769,&#34;a&#34;:0.0},&#34;position&#34;:1.0}],&#34;transform&#34;:{&#34;m00&#34;:157.02684020996094,&#34;m01&#34;:-430.94192504882812,&#34;m02&#34;:430.94192504882812,&#34;m10&#34;:429.379394531250,&#34;m11&#34;:156.10533142089844,&#34;m12&#34;:0.00013695802772417665},&#34;opacity&#34;:0.10000000149011612,&#34;blendMode&#34;:&#34;NORMAL&#34;,&#34;visible&#34;:true}" mask="url(#path-11-inside-6_3967_37094)"/>
</g>
<defs>
<filter id="filter0_f_3967_37094" x="54.5938" y="54.2422" width="478.781" height="477" filterUnits="userSpaceOnUse" color-interpolation-filters="sRGB">
<feFlood flood-opacity="0" result="BackgroundImageFix"/>
<feBlend mode="normal" in="SourceGraphic" in2="BackgroundImageFix" result="shape"/>
<feGaussianBlur stdDeviation="5" result="effect1_foregroundBlur_3967_37094"/>
</filter>
<clipPath id="paint0_angular_3967_37094_clip_path"><path d="M383.624 260.272L379.942 261.605C397.164 308.699 372.772 360.795 325.421 377.947L326.766 381.625L328.111 385.302C379.503 366.686 406.023 310.119 387.306 258.938L383.624 260.272ZM326.766 381.625L325.421 377.947C278.07 395.1 225.738 370.797 208.516 323.703L204.834 325.037L201.152 326.371C219.869 377.551 276.719 403.919 328.111 385.302L326.766 381.625ZM204.834 325.037L208.516 323.703C191.293 276.61 215.686 224.514 263.037 207.361L261.692 203.684L260.347 200.006C208.955 218.623 182.435 275.19 201.152 326.371L204.834 325.037ZM261.692 203.684L263.037 207.361C310.388 190.209 362.72 214.512 379.942 261.605L383.624 260.272L387.306 258.938C368.588 207.757 311.739 181.39 260.347 200.006L261.692 203.684Z" mask="url(#path-1-inside-1_3967_37094)"/></clipPath><clipPath id="paint1_angular_3967_37094_clip_path"><path d="M409.859 250.767L406.177 252.101C428.575 313.348 396.85 381.094 335.278 403.398L336.623 407.075L337.968 410.753C403.581 386.985 437.433 314.768 413.54 249.434L409.859 250.767ZM336.623 407.075L335.278 403.398C273.706 425.702 205.65 394.101 183.251 332.854L179.569 334.188L175.888 335.521C199.781 400.856 272.355 434.521 337.968 410.753L336.623 407.075ZM179.569 334.188L183.251 332.854C160.853 271.607 192.578 203.861 254.15 181.557L252.805 177.88L251.46 174.202C185.846 197.97 151.994 270.187 175.888 335.521L179.569 334.188ZM252.805 177.88L254.15 181.557C315.722 159.253 383.778 190.854 406.177 252.101L409.859 250.767L413.54 249.434C389.647 184.099 317.073 150.434 251.46 174.202L252.805 177.88Z" mask="url(#path-3-inside-2_3967_37094)"/></clipPath><clipPath id="paint2_angular_3967_37094_clip_path"><path d="M433.089 242.08L429.407 243.414C456.64 317.879 418.067 400.242 343.213 427.357L344.558 431.035L345.903 434.712C424.798 406.133 465.498 319.299 436.771 240.746L433.089 242.08ZM344.558 431.035L343.213 427.357C268.359 454.472 185.616 416.056 158.383 341.59L154.701 342.924L151.02 344.257C179.747 422.811 267.007 463.291 345.903 434.712L344.558 431.035ZM154.701 342.924L158.383 341.59C131.151 267.124 169.724 184.762 244.578 157.646L243.233 153.969L241.888 150.291C162.993 178.87 122.292 265.704 151.02 344.257L154.701 342.924ZM243.233 153.969L244.578 157.646C319.432 130.531 402.175 168.948 429.407 243.414L433.089 242.08L436.771 240.746C408.043 162.193 320.783 121.712 241.888 150.291L243.233 153.969Z" mask="url(#path-5-inside-3_3967_37094)"/></clipPath><clipPath id="paint3_angular_3967_37094_clip_path"><path d="M455.925 233.806L452.243 235.139C484.066 322.156 438.99 418.397 351.525 450.081L352.87 453.758L354.215 457.436C445.721 424.288 492.924 323.577 459.606 232.472L455.925 233.806ZM352.87 453.758L351.525 450.081C264.06 481.764 167.373 436.876 135.55 349.859L131.868 351.193L128.186 352.526C161.504 443.631 262.708 490.583 354.215 457.436L352.87 453.758ZM131.868 351.193L135.55 349.859C103.727 262.842 148.803 166.601 236.268 134.918L234.923 131.24L233.578 127.562C142.071 160.71 94.8687 261.422 128.186 352.526L131.868 351.193ZM234.923 131.24L236.268 134.918C323.733 103.234 420.42 148.122 452.243 235.139L455.925 233.806L459.606 232.472C426.289 141.367 325.084 94.4149 233.578 127.562L234.923 131.24Z" mask="url(#path-7-inside-4_3967_37094)"/></clipPath><clipPath id="paint4_angular_3967_37094_clip_path"><path d="M479.819 225.424L476.137 226.758C512.697 326.727 460.911 437.288 360.432 473.686L361.777 477.364L363.122 481.041C467.642 443.18 521.555 328.147 483.501 224.09L479.819 225.424ZM361.777 477.364L360.432 473.686C259.954 510.084 148.877 458.518 112.318 358.549L108.636 359.882L104.954 361.216C143.008 465.273 258.602 518.903 363.122 481.041L361.777 477.364ZM108.636 359.882L112.318 358.549C75.7582 258.58 127.544 148.018 228.023 111.62L226.678 107.943L225.333 104.265C120.813 142.127 66.8999 257.16 104.954 361.216L108.636 359.882ZM226.678 107.943L228.023 111.62C328.501 75.2228 439.578 126.789 476.137 226.758L479.819 225.424L483.501 224.09C445.447 120.034 329.853 66.4035 225.333 104.265L226.678 107.943Z" mask="url(#path-9-inside-5_3967_37094)"/></clipPath><clipPath id="paint5_angular_3967_37094_clip_path"><path d="M509.455 214.69L505.774 216.024C548.389 332.554 488.13 461.381 371.153 503.755L372.498 507.432L373.843 511.11C494.869 467.269 557.245 333.966 513.137 213.356L509.455 214.69ZM372.498 507.432L371.153 503.755C254.176 546.128 124.811 485.991 82.1952 369.461L78.5134 370.795L74.8317 372.129C118.939 492.739 252.817 554.951 373.843 511.11L372.498 507.432ZM78.5134 370.795L82.1952 369.461C39.5794 252.931 99.8392 124.104 216.816 81.7305L215.471 78.0528L214.126 74.3751C93.1001 118.216 30.7239 251.519 74.8317 372.129L78.5134 370.795ZM215.471 78.0528L216.816 81.7305C333.793 39.3566 463.158 99.4935 505.774 216.024L509.455 214.69L513.137 213.356C469.029 92.7465 335.152 30.5344 214.126 74.3751L215.471 78.0528Z" mask="url(#path-11-inside-6_3967_37094)"/></clipPath></defs>
</svg>
