<svg width="22" height="12" viewBox="0 0 22 12" fill="none" xmlns="http://www.w3.org/2000/svg">
<path d="M5.5765 8.57499C6.29217 8.57499 6.9 8.32449 7.4 7.82349C7.9 7.32249 8.15 6.71416 8.15 5.99849C8.15 5.28282 7.8995 4.67499 7.3985 4.17499C6.8975 3.67499 6.28917 3.42499 5.5735 3.42499C4.85783 3.42499 4.25 3.67549 3.75 4.17649C3.25 4.67749 3 5.28582 3 6.00149C3 6.71715 3.2505 7.32499 3.7515 7.82499C4.2525 8.32499 4.86083 8.57499 5.5765 8.57499ZM5.575 11.3875C4.0785 11.3875 2.80642 10.8637 1.75875 9.81624C0.71125 8.76857 0.1875 7.49649 0.1875 5.99999C0.1875 4.50349 0.71125 3.2314 1.75875 2.18374C2.80642 1.13624 4.0785 0.612488 5.575 0.612488C6.77467 0.612488 7.8225 0.943738 8.7185 1.60624C9.6145 2.26874 10.2417 3.09582 10.6 4.08749H19.125L21.025 5.98749L17.9875 9.71249L15.3625 7.92499L13.45 9.73749L11.625 7.91249H10.6C10.225 8.96249 9.5875 9.80416 8.6875 10.4375C7.7875 11.0708 6.75 11.3875 5.575 11.3875Z" fill="#2A2A2A"/>
</svg>
