<svg width="15" height="20" viewBox="0 0 15 20" fill="none" xmlns="http://www.w3.org/2000/svg">
<path d="M2.25 19.25C1.76875 19.25 1.35677 19.0786 1.01406 18.7359C0.671354 18.3932 0.5 17.9813 0.5 17.5V8.75C0.5 8.26875 0.671354 7.85677 1.01406 7.51406C1.35677 7.17135 1.76875 7 2.25 7H3.125V5.25C3.125 4.03958 3.55156 3.00781 4.40469 2.15469C5.25781 1.30156 6.28958 0.875 7.5 0.875C8.71042 0.875 9.74219 1.30156 10.5953 2.15469C11.4484 3.00781 11.875 4.03958 11.875 5.25V7H12.75C13.2312 7 13.6432 7.17135 13.9859 7.51406C14.3286 7.85677 14.5 8.26875 14.5 8.75V17.5C14.5 17.9813 14.3286 18.3932 13.9859 18.7359C13.6432 19.0786 13.2312 19.25 12.75 19.25H2.25ZM7.5 14.875C7.98125 14.875 8.39323 14.7036 8.73594 14.3609C9.07865 14.0182 9.25 13.6062 9.25 13.125C9.25 12.6438 9.07865 12.2318 8.73594 11.8891C8.39323 11.5464 7.98125 11.375 7.5 11.375C7.01875 11.375 6.60677 11.5464 6.26406 11.8891C5.92135 12.2318 5.75 12.6438 5.75 13.125C5.75 13.6062 5.92135 14.0182 6.26406 14.3609C6.60677 14.7036 7.01875 14.875 7.5 14.875ZM4.875 7H10.125V5.25C10.125 4.52083 9.86979 3.90104 9.35938 3.39062C8.84896 2.88021 8.22917 2.625 7.5 2.625C6.77083 2.625 6.15104 2.88021 5.64062 3.39062C5.13021 3.90104 4.875 4.52083 4.875 5.25V7Z" fill="#AA6D65"/>
</svg>
