<svg width="30" height="36" viewBox="0 0 30 36" fill="none" xmlns="http://www.w3.org/2000/svg">
<path d="M22.5156 0.950684C26.6352 0.950693 30.0068 4.85752 30.0068 9.63525V27.0044C30.0066 31.7802 26.6351 35.688 22.5156 35.688H7.53418C3.41468 35.688 0.0431736 31.7802 0.0429688 27.0044V9.63525C0.0429688 4.85752 3.41456 0.950684 7.53418 0.950684H22.5156ZM15.0254 11.0825C11.5775 11.0827 8.7832 14.3225 8.7832 18.3198C8.78332 22.3153 11.5776 25.5559 15.0254 25.5562C18.4719 25.5562 21.2684 22.3154 21.2686 18.3198C21.2686 14.3224 18.472 11.0825 15.0254 11.0825ZM23.1406 6.73975C22.1054 6.73975 21.2676 7.71274 21.2676 8.91162C21.2678 10.1103 22.1055 11.0825 23.1406 11.0825C24.1756 11.0823 25.0125 10.1102 25.0127 8.91162C25.0127 7.71286 24.1757 6.73995 23.1406 6.73975Z" fill="white"/>
</svg>
