<svg width="104" height="34" viewBox="0 0 104 34" fill="none" xmlns="http://www.w3.org/2000/svg">
<g clip-path="url(#clip0_4648_20869)">
<path d="M44.2539 33.9945L47.6657 0.451172H57.2343C58.62 0.451172 59.8357 0.525364 60.8814 0.673715C61.9402 0.822067 62.9272 1.09857 63.8423 1.5032C64.7703 1.89432 65.5088 2.42033 66.0578 3.08123C66.6068 3.72863 67.0122 4.57834 67.2735 5.63036C67.4304 6.30473 67.5154 7.04655 67.5286 7.8558C67.5286 8.31438 67.5022 8.79993 67.4501 9.31244C67.2409 11.4705 66.7311 13.2373 65.9207 14.613C65.1232 15.9887 63.8878 17.0947 62.2147 17.9309L65.5872 33.9945H57.7049L55.3127 19.1448H53.607L52.097 33.9945H44.2539ZM54.0578 14.6737H56.0776C57.4109 14.6737 58.3781 14.2826 58.9796 13.5003C59.5938 12.718 59.9728 11.6053 60.1168 10.1622C60.156 9.7845 60.1755 9.43383 60.1755 9.11013C60.1755 8.19299 60.0252 7.46467 59.7247 6.92516C59.3193 6.16987 58.5416 5.79221 57.3912 5.79221H54.9598L54.0578 14.6737ZM66.3151 33.9945L69.7268 0.451172H84.8446L84.2956 5.89337H77.0015L76.2367 13.5003H81.6876L81.1189 19.1044H75.6682L74.7072 28.5926H82.0798L81.511 33.9945H66.3151ZM86.2586 33.9945L84.141 0.451172H90.7292L91.5527 22.7055L96.6702 0.451172H103.749L94.7094 33.9945H86.2586Z" fill="white"/>
<mask id="mask0_4648_20869" style="mask-type:alpha" maskUnits="userSpaceOnUse" x="-8" y="-6" width="59" height="46">
<path d="M50.3529 -5.49805H-8V39.1725H50.3529V-5.49805Z" fill="#D9D9D9"/>
</mask>
<g mask="url(#mask0_4648_20869)">
<path d="M8.1574 33.913H0.863281V30.1905H8.1574V33.913ZM20.3143 33.913H13.0201V30.1905H20.3143V33.913ZM32.4711 33.913H25.177V30.1905H32.4711V33.913ZM40.3356 33.913H37.3339V30.1905H40.7259L40.3356 33.913ZM44.628 33.913H44.2572L44.628 30.3779V33.913ZM20.3143 26.468H0.863281V22.7454H20.3143V26.468ZM41.1168 26.468H25.177V22.7454H41.507L41.1168 26.468ZM41.8976 19.0229H0.863281V15.3003H42.2879L41.8976 19.0229ZM20.3143 11.5778H0.863281V7.85524H20.3143V11.5778ZM42.6785 11.5778H25.177V7.85524H43.0688L42.6785 11.5778ZM8.1574 4.1327H0.863281V0.410156H8.1574V4.1327ZM20.3143 4.1327H13.0201V0.410156H20.3143V4.1327ZM32.4711 4.1327H25.177V0.410156H32.4711V4.1327ZM43.459 4.1327H37.3339V0.410156H43.85L43.459 4.1327Z" fill="white"/>
</g>
</g>
<defs>
<clipPath id="clip0_4648_20869">
<rect width="104" height="34" fill="white"/>
</clipPath>
</defs>
</svg>
