<svg width="33" height="32" viewBox="0 0 33 32" fill="none" xmlns="http://www.w3.org/2000/svg">
<path d="M29.6398 8.59427C29.6614 8.932 29.6614 9.26779 29.6614 9.60359C29.6614 19.8802 22.9146 31.7219 10.5846 31.7219C6.78589 31.7219 3.25684 30.4462 0.287109 28.2307C0.826455 28.3021 1.34582 28.3272 1.90681 28.3272C5.04134 28.3272 7.92617 27.0998 10.2317 25.0059C7.28362 24.9345 4.81328 22.6958 3.96098 19.6158C4.37548 19.6872 4.79164 19.7354 5.22778 19.7354C5.82872 19.7354 6.43298 19.6389 6.99397 19.471C3.91937 18.7493 1.61716 15.6209 1.61716 11.8422V11.7457C2.51108 12.3228 3.54815 12.6837 4.64682 12.7319C2.84068 11.3385 1.65711 8.95515 1.65711 6.25912C1.65711 4.81558 1.98838 3.49169 2.56934 2.33762C5.87033 7.0523 10.8326 10.1343 16.3959 10.472C16.2927 9.89307 16.2294 9.29288 16.2294 8.69076C16.2294 4.40645 19.2191 0.917236 22.9346 0.917236C24.8656 0.917236 26.6085 1.85515 27.8337 3.37203C29.3485 3.03431 30.8001 2.38394 32.0885 1.49427C31.5908 3.2987 30.5304 4.81558 29.1404 5.77858C30.4904 5.60876 31.7989 5.17646 33.0007 4.57434C32.0885 6.11438 30.9482 7.48652 29.6398 8.59427Z" fill="white"/>
</svg>
