<svg width="20" height="20" viewBox="0 0 20 20" fill="none" xmlns="http://www.w3.org/2000/svg">
<path d="M14.314 7.21958C15.6001 8.14222 17.1757 8.68509 18.8774 8.68509V5.39886C18.5553 5.39893 18.2341 5.36523 17.919 5.29824V7.88496C16.2175 7.88496 14.6421 7.3421 13.3557 6.41952V13.1257C13.3557 16.4805 10.6457 19.1999 7.30306 19.1999C6.05583 19.1999 4.89658 18.8215 3.93359 18.1726C5.03269 19.3004 6.56546 20 8.2612 20C11.6041 20 14.3141 17.2806 14.3141 13.9257V7.21958H14.314ZM15.4962 3.90418C14.8389 3.18354 14.4074 2.25225 14.314 1.22267V0.799988H13.4058C13.6344 2.10859 14.4142 3.22658 15.4962 3.90418ZM6.04783 15.5982C5.6806 15.115 5.48215 14.5239 5.48304 13.9161C5.48304 12.3817 6.72255 11.1376 8.25176 11.1376C8.53676 11.1376 8.82004 11.1813 9.09164 11.2678V7.90816C8.77424 7.86451 8.4539 7.84598 8.13371 7.85277V10.4678C7.86191 10.3813 7.57848 10.3374 7.29342 10.3376C5.76421 10.3376 4.52477 11.5816 4.52477 13.1161C4.52477 14.2012 5.14432 15.1406 6.04783 15.5982Z" fill="white"/>
<path d="M13.3551 6.41945C14.6416 7.34203 16.217 7.88489 17.9185 7.88489V5.29817C16.9687 5.09514 16.1279 4.59702 15.4957 3.90418C14.4136 3.22651 13.6339 2.10852 13.4053 0.799988H11.0198V13.9255C11.0144 15.4557 9.77704 16.6947 8.25111 16.6947C7.3519 16.6947 6.55304 16.2645 6.04711 15.5982C5.14366 15.1406 4.52412 14.2011 4.52412 13.1162C4.52412 11.5818 5.76355 10.3377 7.29277 10.3377C7.58576 10.3377 7.86815 10.3835 8.13305 10.4678V7.85284C4.8491 7.92093 2.20801 10.6138 2.20801 13.9256C2.20801 15.5788 2.8657 17.0776 3.93314 18.1726C4.89613 18.8215 6.05538 19.2 7.30261 19.2C10.6453 19.2 13.3552 16.4805 13.3552 13.1257V6.41945H13.3551Z" fill="white"/>
<path d="M17.9188 5.29817V4.59874C17.0623 4.60004 16.2226 4.35932 15.496 3.90411C16.1392 4.61089 16.9863 5.09822 17.9188 5.29817ZM13.4056 0.799986C13.3838 0.674926 13.367 0.549042 13.3554 0.422678V0H10.0617V13.1257C10.0564 14.6556 8.8191 15.8946 7.29303 15.8946C6.845 15.8946 6.42199 15.7879 6.04737 15.5983C6.55331 16.2645 7.35216 16.6946 8.25137 16.6946C9.77717 16.6946 11.0148 15.4558 11.0201 13.9256V0.799986H13.4056ZM8.13345 7.85284V7.10824C7.85823 7.07049 7.58076 7.05155 7.30294 7.05169C3.95993 7.05162 1.25 9.77116 1.25 13.1257C1.25 15.2288 2.31505 17.0822 3.93347 18.1725C2.86603 17.0775 2.20834 15.5787 2.20834 13.9255C2.20834 10.6138 4.84936 7.92093 8.13345 7.85284Z" fill="white"/>
</svg>
