<svg width="43" height="38" viewBox="0 0 43 38" fill="none" xmlns="http://www.w3.org/2000/svg">
<rect x="0.5" y="0.5" width="42" height="37" rx="9.5" fill="white" stroke="#492626"/>
<mask id="mask0_1936_14715" style="mask-type:alpha" maskUnits="userSpaceOnUse" x="11" y="9" width="21" height="21">
<rect x="11" y="9" width="21" height="21" fill="#D9D9D9"/>
</mask>
<g mask="url(#mask0_1936_14715)">
<path d="M21.5 25.625C22.4625 25.625 23.2865 25.2823 23.9719 24.5969C24.6573 23.9115 25 23.0875 25 22.125V18.625C25 17.6625 24.6573 16.8385 23.9719 16.1531C23.2865 15.4677 22.4625 15.125 21.5 15.125C20.5375 15.125 19.7135 15.4677 19.0281 16.1531C18.3427 16.8385 18 17.6625 18 18.625V22.125C18 23.0875 18.3427 23.9115 19.0281 24.5969C19.7135 25.2823 20.5375 25.625 21.5 25.625ZM19.75 23H23.25V21.25H19.75V23ZM19.75 19.5H23.25V17.75H19.75V19.5ZM21.5 27.375C20.5521 27.375 19.6734 27.1417 18.8641 26.675C18.0547 26.2083 17.4167 25.5667 16.95 24.75H14.5V23H16.3375C16.2938 22.7083 16.2682 22.4167 16.2609 22.125C16.2536 21.8333 16.25 21.5417 16.25 21.25H14.5V19.5H16.25C16.25 19.2083 16.2536 18.9167 16.2609 18.625C16.2682 18.3333 16.2938 18.0417 16.3375 17.75H14.5V16H16.95C17.1542 15.6646 17.3839 15.351 17.6391 15.0594C17.8943 14.7677 18.1896 14.5125 18.525 14.2937L17.125 12.85L18.35 11.625L20.2313 13.5062C20.6396 13.375 21.0552 13.3094 21.4781 13.3094C21.901 13.3094 22.3167 13.375 22.725 13.5062L24.65 11.625L25.875 12.85L24.4313 14.2937C24.7667 14.5125 25.0693 14.7641 25.3391 15.0484C25.6089 15.3328 25.8458 15.65 26.05 16H28.5V17.75H26.6625C26.7063 18.0417 26.7318 18.3333 26.7391 18.625C26.7464 18.9167 26.75 19.2083 26.75 19.5H28.5V21.25H26.75C26.75 21.5417 26.7464 21.8333 26.7391 22.125C26.7318 22.4167 26.7063 22.7083 26.6625 23H28.5V24.75H26.05C25.5833 25.5667 24.9453 26.2083 24.1359 26.675C23.3266 27.1417 22.4479 27.375 21.5 27.375Z" fill="#1C1B1F"/>
</g>
</svg>
