<svg width="43" height="38" viewBox="0 0 43 38" fill="none" xmlns="http://www.w3.org/2000/svg">
<rect x="0.5" y="0.5" width="42" height="37" rx="9.5" fill="#F8F8F8" stroke="#492626"/>
<mask id="mask0_1936_14720" style="mask-type:alpha" maskUnits="userSpaceOnUse" x="11" y="9" width="21" height="21">
<rect x="11" y="9" width="21" height="21" fill="#D9D9D9"/>
</mask>
<g mask="url(#mask0_1936_14720)">
<path d="M15.375 27.375C14.8937 27.375 14.4818 27.2036 14.1391 26.8609C13.7964 26.5182 13.625 26.1062 13.625 25.625V22.125H15.375V25.625H27.625V13.375H15.375V16.875H13.625V13.375C13.625 12.8937 13.7964 12.4818 14.1391 12.1391C14.4818 11.7964 14.8937 11.625 15.375 11.625H27.625C28.1062 11.625 28.5182 11.7964 28.8609 12.1391C29.2036 12.4818 29.375 12.8937 29.375 13.375V25.625C29.375 26.1062 29.2036 26.5182 28.8609 26.8609C28.5182 27.2036 28.1062 27.375 27.625 27.375H15.375ZM20.1875 23.875L18.9625 22.6062L21.1938 20.375H13.625V18.625H21.1938L18.9625 16.3938L20.1875 15.125L24.5625 19.5L20.1875 23.875Z" fill="#1C1B1F"/>
</g>
</svg>
