<svg width="20" height="20" viewBox="0 0 20 20" fill="none" xmlns="http://www.w3.org/2000/svg">
<path d="M9.9987 12.7502C10.7626 12.7502 11.4119 12.4828 11.9466 11.9481C12.4813 11.4134 12.7487 10.7641 12.7487 10.0002C12.7487 9.23627 12.4813 8.58697 11.9466 8.05225C11.4119 7.51752 10.7626 7.25016 9.9987 7.25016C9.23481 7.25016 8.5855 7.51752 8.05078 8.05225C7.51606 8.58697 7.2487 9.23627 7.2487 10.0002C7.2487 10.7641 7.51606 11.4134 8.05078 11.9481C8.5855 12.4828 9.23481 12.7502 9.9987 12.7502ZM9.9987 19.1668C8.73064 19.1668 7.53898 18.9262 6.4237 18.445C5.30842 17.9637 4.33828 17.3106 3.51328 16.4856C2.68828 15.6606 2.03516 14.6904 1.55391 13.5752C1.07266 12.4599 0.832031 11.2682 0.832031 10.0002C0.832031 8.73211 1.07266 7.54044 1.55391 6.42516C2.03516 5.30989 2.68828 4.33975 3.51328 3.51475C4.33828 2.68975 5.30842 2.03662 6.4237 1.55537C7.53898 1.07412 8.73064 0.833496 9.9987 0.833496C11.2668 0.833496 12.4584 1.07412 13.5737 1.55537C14.689 2.03662 15.6591 2.68975 16.4841 3.51475C17.3091 4.33975 17.9622 5.30989 18.4435 6.42516C18.9247 7.54044 19.1654 8.73211 19.1654 10.0002C19.1654 11.2682 18.9247 12.4599 18.4435 13.5752C17.9622 14.6904 17.3091 15.6606 16.4841 16.4856C15.6591 17.3106 14.689 17.9637 13.5737 18.445C12.4584 18.9262 11.2668 19.1668 9.9987 19.1668ZM9.9987 17.3335C12.0459 17.3335 13.7799 16.6231 15.2008 15.2022C16.6216 13.7814 17.332 12.0474 17.332 10.0002C17.332 7.95294 16.6216 6.21891 15.2008 4.79808C13.7799 3.37725 12.0459 2.66683 9.9987 2.66683C7.95148 2.66683 6.21745 3.37725 4.79661 4.79808C3.37578 6.21891 2.66536 7.95294 2.66536 10.0002C2.66536 12.0474 3.37578 13.7814 4.79661 15.2022C6.21745 16.6231 7.95148 17.3335 9.9987 17.3335Z" fill="#101828"/>
</svg>
