<svg width="43" height="38" viewBox="0 0 43 38" fill="none" xmlns="http://www.w3.org/2000/svg">
<rect x="0.5" y="0.5" width="42" height="37" rx="9.5" fill="white" stroke="#492626"/>
<mask id="mask0_1936_14725" style="mask-type:alpha" maskUnits="userSpaceOnUse" x="12" y="10" width="19" height="19">
<rect x="12" y="10" width="18.3333" height="18.3333" fill="#D9D9D9"/>
</mask>
<g mask="url(#mask0_1936_14725)">
<path d="M20.4023 22.9862H21.9301V18.4028H20.4023V22.9862ZM21.1662 16.8751C21.3827 16.8751 21.5641 16.8018 21.7105 16.6554C21.8569 16.509 21.9301 16.3276 21.9301 16.1112C21.9301 15.8947 21.8569 15.7133 21.7105 15.5669C21.5641 15.4205 21.3827 15.3473 21.1662 15.3473C20.9498 15.3473 20.7684 15.4205 20.622 15.5669C20.4756 15.7133 20.4023 15.8947 20.4023 16.1112C20.4023 16.3276 20.4756 16.509 20.622 16.6554C20.7684 16.8018 20.9498 16.8751 21.1662 16.8751ZM21.1662 26.8056C20.1095 26.8056 19.1165 26.6051 18.1871 26.204C17.2577 25.803 16.4492 25.2587 15.7617 24.5712C15.0742 23.8837 14.5299 23.0753 14.1289 22.1459C13.7279 21.2165 13.5273 20.2234 13.5273 19.1667C13.5273 18.11 13.7279 17.117 14.1289 16.1876C14.5299 15.2582 15.0742 14.4497 15.7617 13.7622C16.4492 13.0747 17.2577 12.5304 18.1871 12.1294C19.1165 11.7284 20.1095 11.5278 21.1662 11.5278C22.2229 11.5278 23.216 11.7284 24.1454 12.1294C25.0748 12.5304 25.8832 13.0747 26.5707 13.7622C27.2582 14.4497 27.8025 15.2582 28.2036 16.1876C28.6046 17.117 28.8051 18.11 28.8051 19.1667C28.8051 20.2234 28.6046 21.2165 28.2036 22.1459C27.8025 23.0753 27.2582 23.8837 26.5707 24.5712C25.8832 25.2587 25.0748 25.803 24.1454 26.204C23.216 26.6051 22.2229 26.8056 21.1662 26.8056ZM21.1662 25.2778C22.8723 25.2778 24.3173 24.6858 25.5013 23.5018C26.6853 22.3178 27.2773 20.8727 27.2773 19.1667C27.2773 17.4607 26.6853 16.0157 25.5013 14.8317C24.3173 13.6476 22.8723 13.0556 21.1662 13.0556C19.4602 13.0556 18.0152 13.6476 16.8312 14.8317C15.6471 16.0157 15.0551 17.4607 15.0551 19.1667C15.0551 20.8727 15.6471 22.3178 16.8312 23.5018C18.0152 24.6858 19.4602 25.2778 21.1662 25.2778Z" fill="#1C1B1F"/>
</g>
</svg>
