<svg width="22" height="22" viewBox="0 0 22 22" fill="none" xmlns="http://www.w3.org/2000/svg">
<mask id="mask0_3652_5644" style="mask-type:alpha" maskUnits="userSpaceOnUse" x="0" y="0" width="22" height="22">
<rect width="22" height="22" fill="#D9D9D9"/>
</mask>
<g mask="url(#mask0_3652_5644)">
<path d="M11 20.168C9.85417 20.168 8.7809 19.9503 7.78021 19.5148C6.77951 19.0794 5.90868 18.4912 5.16771 17.7503C4.42674 17.0093 3.83854 16.1385 3.40313 15.1378C2.96771 14.1371 2.75 13.0638 2.75 11.918C2.75 10.7721 2.96771 9.69887 3.40313 8.69818C3.83854 7.69748 4.42674 6.82665 5.16771 6.08568C5.90868 5.34471 6.77951 4.75651 7.78021 4.32109C8.7809 3.88568 9.85417 3.66797 11 3.66797H11.1375L9.71667 2.24714L11 0.917969L14.6667 4.58464L11 8.2513L9.71667 6.92214L11.1375 5.5013H11C9.2125 5.5013 7.69618 6.12387 6.45104 7.36901C5.2059 8.61415 4.58333 10.1305 4.58333 11.918C4.58333 13.7055 5.2059 15.2218 6.45104 16.4669C7.69618 17.7121 9.2125 18.3346 11 18.3346C12.7875 18.3346 14.3038 17.7121 15.549 16.4669C16.7941 15.2218 17.4167 13.7055 17.4167 11.918H19.25C19.25 13.0638 19.0323 14.1371 18.5969 15.1378C18.1615 16.1385 17.5733 17.0093 16.8323 17.7503C16.0913 18.4912 15.2205 19.0794 14.2198 19.5148C13.2191 19.9503 12.1458 20.168 11 20.168Z" fill="white"/>
</g>
</svg>
