<svg width="25" height="25" viewBox="0 0 25 25" fill="none" xmlns="http://www.w3.org/2000/svg">
<mask id="mask0_1936_14671" style="mask-type:alpha" maskUnits="userSpaceOnUse" x="0" y="0" width="25" height="25">
<rect x="0.632812" y="0.810547" width="23.4294" height="23.4294" fill="#D9D9D9"/>
</mask>
<g mask="url(#mask0_1936_14671)">
<path d="M21.4269 19.0662L18.4982 16.1375L19.8649 14.7708L22.7936 17.6995L21.4269 19.0662ZM17.9125 7.35145L16.5457 5.98473L19.4744 3.05605L20.8411 4.42277L17.9125 7.35145ZM6.78348 7.35145L3.8548 4.42277L5.22151 3.05605L8.15019 5.98473L6.78348 7.35145ZM3.26906 19.0662L1.90234 17.6995L4.83102 14.7708L6.19774 16.1375L3.26906 19.0662ZM9.27285 17.2357L12.348 15.3809L15.4231 17.2601L14.6177 13.7457L17.3267 11.4028L13.7635 11.0855L12.348 7.76635L10.9324 11.0611L7.36921 11.3784L10.0782 13.7457L9.27285 17.2357ZM6.31977 21.3115L7.90614 14.4535L2.5857 9.84083L9.61453 9.23069L12.348 2.76318L15.0814 9.23069L22.1102 9.84083L16.7898 14.4535L18.3762 21.3115L12.348 17.675L6.31977 21.3115Z" fill="#E3BE76"/>
</g>
</svg>
