<svg width="24" height="24" viewBox="0 0 24 24" fill="none" xmlns="http://www.w3.org/2000/svg">
<path d="M6.54534 12.5665H11.1408V17.162C11.1408 17.629 11.525 18.0208 11.9996 18.0208C12.4742 18.0208 12.8584 17.629 12.8584 17.162V12.5665H17.4538C17.9209 12.5665 18.3126 12.1823 18.3126 11.7077C18.3126 11.2331 17.9209 10.8489 17.4538 10.8489H12.8584V6.25347C12.8584 5.78639 12.4742 5.39465 11.9996 5.39465C11.525 5.39465 11.1408 5.78639 11.1408 6.25347V10.8489H6.54534C6.07826 10.8489 5.68652 11.2331 5.68652 11.7077C5.68652 12.1823 6.07826 12.5665 6.54534 12.5665Z" fill="white"/>
</svg>
