<svg width="24" height="24" viewBox="0 0 24 24" fill="none" xmlns="http://www.w3.org/2000/svg">
<path d="M6.16194 16.3302C5.84554 16.6466 5.83047 17.2117 6.16948 17.5431C6.50095 17.8746 7.06596 17.8671 7.38237 17.5507L11.9929 12.9326L16.6109 17.5507C16.9348 17.8746 17.4923 17.8746 17.8238 17.5431C18.1477 17.2041 18.1552 16.6542 17.8238 16.3302L13.2133 11.7122L17.8238 7.10173C18.1552 6.77779 18.1552 6.22031 17.8238 5.88884C17.4848 5.5649 16.9348 5.55736 16.6109 5.8813L11.9929 10.4993L7.38237 5.8813C7.06596 5.5649 6.49342 5.54983 6.16948 5.88884C5.838 6.22031 5.84554 6.78532 6.16194 7.10173L10.78 11.7122L6.16194 16.3302Z" fill="white"/>
</svg>
