<svg width="23" height="23" viewBox="0 0 23 23" fill="none" xmlns="http://www.w3.org/2000/svg">
<path d="M11.0669 22.1337C9.53594 22.1337 8.09725 21.8432 6.75078 21.2622C5.40432 20.6812 4.23307 19.8927 3.23706 18.8967C2.24104 17.9006 1.45253 16.7294 0.871515 15.3829C0.290505 14.0365 0 12.5978 0 11.0669C0 9.53594 0.290505 8.09725 0.871515 6.75078C1.45253 5.40431 2.24104 4.23307 3.23706 3.23706C4.23307 2.24104 5.40432 1.45252 6.75078 0.871515C8.09725 0.290505 9.53594 0 11.0669 0C12.2658 0 13.4001 0.175225 14.4699 0.525676C15.5397 0.876126 16.5265 1.36491 17.4303 1.99203L15.8256 3.6244C15.1247 3.18172 14.3777 2.83588 13.5846 2.58688C12.7914 2.33787 11.9522 2.21337 11.0669 2.21337C8.6137 2.21337 6.52483 3.07566 4.80025 4.80025C3.07566 6.52483 2.21337 8.6137 2.21337 11.0669C2.21337 13.52 3.07566 15.6089 4.80025 17.3335C6.52483 19.058 8.6137 19.9203 11.0669 19.9203C13.52 19.9203 15.6089 19.058 17.3335 17.3335C19.0581 15.6089 19.9203 13.52 19.9203 11.0669C19.9203 10.7349 19.9019 10.4028 19.865 10.0708C19.8281 9.73883 19.7728 9.41605 19.699 9.10249L21.4974 7.30413C21.7003 7.89436 21.857 8.50303 21.9677 9.13016C22.0784 9.75728 22.1337 10.4028 22.1337 11.0669C22.1337 12.5978 21.8432 14.0365 21.2622 15.3829C20.6812 16.7294 19.8927 17.9006 18.8967 18.8967C17.9006 19.8927 16.7294 20.6812 15.3829 21.2622C14.0365 21.8432 12.5978 22.1337 11.0669 22.1337ZM9.5175 16.1576L4.81408 11.4542L6.36344 9.90484L9.5175 13.0589L20.5844 1.96437L22.1337 3.51373L9.5175 16.1576Z" fill="#D4B485"/>
</svg>
