<svg width="24" height="24" viewBox="0 0 24 24" fill="none" xmlns="http://www.w3.org/2000/svg">
<mask id="mask0_2289_17923" style="mask-type:alpha" maskUnits="userSpaceOnUse" x="0" y="0" width="24" height="24">
<rect x="24" y="24" width="24" height="24" transform="rotate(180 24 24)" fill="#D9D9D9"/>
</mask>
<g mask="url(#mask0_2289_17923)">
<path d="M13 4L13 12.15L15.6 9.55L17 11L12 16L7 11L8.4 9.55L11 12.15L11 4H13ZM20 15V18C20 18.55 19.8042 19.0208 19.4125 19.4125C19.0208 19.8042 18.55 20 18 20L6 20C5.45 20 4.97917 19.8042 4.5875 19.4125C4.19583 19.0208 4 18.55 4 18V15H6L6 18L18 18V15H20Z" fill="white"/>
</g>
</svg>
