<svg width="16" height="16" viewBox="0 0 16 16" fill="none" xmlns="http://www.w3.org/2000/svg">
<path d="M7.80294 0.000411034C8.34159 0.000411034 8.77826 0.437075 8.77826 0.975727L8.77826 5.42649C8.77826 6.35745 9.90382 6.82367 10.5621 6.16539L10.6069 6.12063C10.9954 5.73207 11.6271 5.73761 12.0088 6.13292C12.3811 6.51855 12.3757 7.13141 11.9967 7.51045L10.2626 9.24453C8.90417 10.603 6.7017 10.603 5.34326 9.24453L3.60919 7.51045C3.23015 7.13141 3.22477 6.51855 3.59711 6.13292C3.97879 5.73761 4.61045 5.73207 4.99901 6.12063L5.04377 6.16539C5.70206 6.82367 6.82762 6.35745 6.82762 5.42649L6.82762 0.975727C6.82762 0.437075 7.26429 0.000411034 7.80294 0.000411034ZM14.6302 10.7289C15.1688 10.7289 15.6055 11.1656 15.6055 11.7042V13.6548C15.6055 14.1913 15.4145 14.6505 15.0325 15.0325C14.6505 15.4145 14.1913 15.6055 13.6548 15.6055L1.95104 15.6055C1.41462 15.6055 0.955409 15.4145 0.57341 15.0325C0.191411 14.6505 0.000411987 14.1913 0.000411987 13.6548V11.7042C0.000411987 11.1656 0.437076 10.7289 0.975728 10.7289C1.51438 10.7289 1.95104 11.1656 1.95104 11.7042V12.1919C1.95104 12.9998 2.60604 13.6548 3.41402 13.6548L12.1919 13.6548C12.9998 13.6548 13.6548 12.9998 13.6548 12.1919V11.7042C13.6548 11.1656 14.0915 10.7289 14.6302 10.7289Z" fill="#272731"/>
</svg>
