<svg width="18" height="19" viewBox="0 0 18 19" fill="none" xmlns="http://www.w3.org/2000/svg">
<path d="M8.01876 18.3333C7.01585 18.3333 6.16886 17.5887 6.04036 16.5941L5.96847 16.0377C5.9178 15.6455 5.64651 15.3257 5.30576 15.125C4.96508 14.9244 4.55143 14.8712 4.18516 15.0201L3.67649 15.2269C2.68548 15.6298 1.54876 15.2496 0.999461 14.3317L0.283171 13.1347C-0.246445 12.2496 -0.0152513 11.1069 0.816754 10.4973L1.53782 9.96896C1.69191 9.85606 1.76465 9.66707 1.76465 9.47604V8.85729C1.76465 8.66627 1.69191 8.47727 1.53782 8.36437L0.816753 7.83607C-0.0152521 7.22648 -0.246446 6.08374 0.28317 5.19867L0.999461 4.00165C1.54876 3.08369 2.68548 2.70355 3.67649 3.10641L4.17582 3.3094C4.54791 3.46066 4.96781 3.40575 5.31761 3.20833C5.65753 3.01649 5.91704 2.6937 5.96705 2.3066L6.03756 1.76091C6.16766 0.753874 7.0252 0 8.04061 0H9.72238C10.7253 0 11.5723 0.744599 11.7008 1.73924L11.7727 2.29562C11.8233 2.68781 12.0946 3.00766 12.4354 3.20833C12.7761 3.40897 13.1897 3.46208 13.556 3.31319L14.0647 3.10641C15.0557 2.70355 16.1924 3.08369 16.7417 4.00165L17.458 5.19867C17.9876 6.08373 17.7564 7.22648 16.9244 7.83607L16.2033 8.36437C16.0492 8.47727 15.9765 8.66627 15.9765 8.85729V9.47604C15.9765 9.66446 16.0305 9.85967 16.1825 9.97103L16.9919 10.5641C17.7722 11.1358 17.989 12.2076 17.4923 13.0377L16.7109 14.3435C16.1661 15.254 15.0376 15.6296 14.0558 15.2271L13.5646 15.0257C13.1931 14.8734 12.7732 14.9277 12.4235 15.125C12.0836 15.3168 11.8241 15.6396 11.7741 16.0267L11.7036 16.5724C11.5735 17.5795 10.7159 18.3333 9.70053 18.3333H8.01876ZM8.91794 12.375C9.83382 12.375 10.6155 12.0618 11.2629 11.4354C11.9103 10.809 12.234 10.0528 12.234 9.16667C12.234 8.28056 11.9103 7.52431 11.2629 6.89792C10.6155 6.27153 9.83382 5.95833 8.91794 5.95833C7.98628 5.95833 7.20068 6.27153 6.56114 6.89792C5.92161 7.52431 5.60184 8.28056 5.60184 9.16667C5.60184 10.0528 5.92161 10.809 6.56114 11.4354C7.20068 12.0618 7.98628 12.375 8.91794 12.375Z" fill="white"/>
</svg>
