<svg width="25" height="25" viewBox="0 0 25 25" fill="none" xmlns="http://www.w3.org/2000/svg">
<mask id="mask0_4763_39059" style="mask-type:alpha" maskUnits="userSpaceOnUse" x="0" y="0" width="25" height="25">
<rect width="25" height="25" rx="5" fill="#D9D9D9"/>
</mask>
<g mask="url(#mask0_4763_39059)">
<path d="M12.7352 22.9173C11.5956 22.9173 10.6331 22.0712 10.487 20.9409L10.4054 20.3087C10.3478 19.863 10.0395 19.4995 9.65228 19.2715V19.2715V19.2715C9.26514 19.0435 8.79508 18.9831 8.37887 19.1523L7.80083 19.3873C6.67469 19.8451 5.38296 19.4131 4.75875 18.37L3.94479 17.0097C3.34295 16.004 3.60567 14.7054 4.55113 14.0127L5.37052 13.4124C5.54563 13.2841 5.62828 13.0693 5.62828 12.8522V12.8522V12.1491V12.1491C5.62828 11.932 5.54563 11.7172 5.37052 11.589L4.55113 10.9886C3.60567 10.2959 3.34295 8.99732 3.94479 7.99157L4.75875 6.63131C5.38296 5.58818 6.67469 5.1562 7.80083 5.61399L8.36826 5.84466C8.79108 6.01655 9.26825 5.95415 9.66574 5.72982V5.72982V5.72982C10.052 5.51181 10.3469 5.14501 10.4037 4.70512L10.4839 4.08502C10.6317 2.94066 11.6062 2.08398 12.7601 2.08398H14.6712C15.8108 2.08398 16.7733 2.93012 16.9193 4.0604L17.001 4.69265C17.0586 5.13832 17.3669 5.50178 17.7541 5.72982V5.72982V5.72982C18.1413 5.95781 18.6113 6.01817 19.0275 5.84898L19.6056 5.61399C20.7317 5.1562 22.0234 5.58818 22.6476 6.63131L23.4616 7.99157C24.0634 8.99732 23.8007 10.2959 22.8553 10.9886L22.0359 11.589C21.8608 11.7172 21.7781 11.932 21.7781 12.1491V12.1491V12.8522V12.8522C21.7781 13.0663 21.8394 13.2882 22.0122 13.4147L22.9319 14.0886C23.8187 14.7383 24.0651 15.9562 23.5006 16.8995L22.6127 18.3834C21.9935 19.4181 20.7111 19.8448 19.5955 19.3875L19.0373 19.1586C18.6152 18.9856 18.138 19.0472 17.7407 19.2715V19.2715V19.2715C17.3544 19.4895 17.0595 19.8563 17.0026 20.2962L16.9225 20.9163C16.7747 22.0606 15.8002 22.9173 14.6463 22.9173H12.7352ZM13.757 16.1465C14.7978 16.1465 15.686 15.7906 16.4217 15.0788C17.1575 14.367 17.5253 13.5076 17.5253 12.5007C17.5253 11.4937 17.1575 10.6343 16.4217 9.92253C15.686 9.21072 14.7978 8.85482 13.757 8.85482C12.6983 8.85482 11.8056 9.21072 11.0788 9.92253C10.3521 10.6343 9.98873 11.4937 9.98873 12.5007C9.98873 13.5076 10.3521 14.367 11.0788 15.0788C11.8056 15.7906 12.6983 16.1465 13.757 16.1465Z" fill="#1A0000"/>
</g>
</svg>
