<svg width="18" height="18" viewBox="0 0 18 18" fill="none" xmlns="http://www.w3.org/2000/svg">
<path d="M12.8824 6.49833C14.0399 7.32871 15.4579 7.81729 16.9894 7.81729V4.85969C16.6996 4.85975 16.4105 4.82942 16.1269 4.76913V7.09718C14.5955 7.09718 13.1777 6.6086 12.0199 5.77828V11.8139C12.0199 14.8332 9.58096 17.2807 6.57256 17.2807C5.45005 17.2807 4.40673 16.9401 3.54004 16.356C4.52922 17.371 5.90872 18.0007 7.43488 18.0007C10.4435 18.0007 12.8825 15.5533 12.8825 12.5338V6.49833H12.8824V6.49833ZM13.9464 3.51448C13.3549 2.8659 12.9664 2.02774 12.8824 1.10111V0.720703H12.0651C12.2708 1.89844 12.9725 2.90463 13.9464 3.51448ZM5.44286 14.0391C5.11235 13.6042 4.93374 13.0722 4.93454 12.5252C4.93454 11.1442 6.0501 10.0246 7.42639 10.0246C7.68289 10.0245 7.93784 10.0639 8.18228 10.1418V7.11806C7.89662 7.07877 7.60832 7.06209 7.32014 7.06821V9.42171C7.07552 9.34388 6.82044 9.30434 6.56389 9.30459C5.18759 9.30459 4.0721 10.4241 4.0721 11.8052C4.0721 12.7818 4.62969 13.6272 5.44286 14.0391Z" fill="#FF004F"/>
<path d="M12.0197 5.77822C13.1775 6.60854 14.5954 7.09712 16.1268 7.09712V4.76907C15.2719 4.58634 14.5152 4.13803 13.9462 3.51448C12.9723 2.90457 12.2706 1.89838 12.0649 0.720703H9.91794V12.5337C9.91308 13.9108 8.79943 15.0259 7.42609 15.0259C6.61681 15.0259 5.89784 14.6388 5.4425 14.0391C4.62939 13.6272 4.0718 12.7817 4.0718 11.8053C4.0718 10.4243 5.18729 9.30465 6.56359 9.30465C6.82728 9.30465 7.08144 9.34585 7.31984 9.42177V7.06827C4.36429 7.12955 1.9873 9.55311 1.9873 12.5338C1.9873 14.0217 2.57923 15.3705 3.53993 16.3561C4.40662 16.9401 5.44994 17.2807 6.57245 17.2807C9.58091 17.2807 12.0198 14.8331 12.0198 11.8139V5.77822H12.0197Z" fill="white"/>
<path d="M16.1269 4.76835V4.13886C15.3561 4.14004 14.6004 3.92339 13.9464 3.5137C14.5253 4.1498 15.2877 4.5884 16.1269 4.76835ZM12.065 0.719988C12.0454 0.607434 12.0303 0.494138 12.0199 0.38041V0H9.05551V11.8131C9.05078 13.1901 7.93719 14.3052 6.56373 14.3052C6.1605 14.3052 5.77979 14.2091 5.44264 14.0384C5.89798 14.6381 6.61695 15.0252 7.42623 15.0252C8.79945 15.0252 9.91328 13.9102 9.91808 12.533V0.719988H12.065ZM7.3201 7.06755V6.39742C7.07241 6.36344 6.82268 6.34639 6.57265 6.34652C3.56394 6.34645 1.125 8.79404 1.125 11.8131C1.125 13.7059 2.08354 15.374 3.54013 16.3552C2.57943 15.3697 1.98751 14.0208 1.98751 12.533C1.98751 9.55239 4.36443 7.12883 7.3201 7.06755Z" fill="#00F2EA"/>
</svg>
