<svg width="20" height="21" viewBox="0 0 20 21" fill="none" xmlns="http://www.w3.org/2000/svg">
<mask id="mask0_413_75579" style="mask-type:alpha" maskUnits="userSpaceOnUse" x="0" y="0" width="20" height="21">
<rect y="0.0117188" width="20" height="20" fill="#D9D9D9"/>
<rect x="0.5" y="0.511719" width="19" height="19" stroke="white" stroke-opacity="0.5"/>
</mask>
<g mask="url(#mask0_413_75579)">
<path d="M9.16602 14.1785H10.8327V9.17847H9.16602V14.1785ZM9.99935 7.5118C10.2355 7.5118 10.4334 7.43194 10.5931 7.27222C10.7528 7.11249 10.8327 6.91458 10.8327 6.67847C10.8327 6.44236 10.7528 6.24444 10.5931 6.08472C10.4334 5.92499 10.2355 5.84513 9.99935 5.84513C9.76324 5.84513 9.56532 5.92499 9.4056 6.08472C9.24588 6.24444 9.16602 6.44236 9.16602 6.67847C9.16602 6.91458 9.24588 7.11249 9.4056 7.27222C9.56532 7.43194 9.76324 7.5118 9.99935 7.5118ZM9.99935 18.3451C8.84657 18.3451 7.76324 18.1264 6.74935 17.6889C5.73546 17.2514 4.85352 16.6576 4.10352 15.9076C3.35352 15.1576 2.75977 14.2757 2.32227 13.2618C1.88477 12.2479 1.66602 11.1646 1.66602 10.0118C1.66602 8.85902 1.88477 7.77569 2.32227 6.7618C2.75977 5.74791 3.35352 4.86597 4.10352 4.11597C4.85352 3.36597 5.73546 2.77222 6.74935 2.33472C7.76324 1.89722 8.84657 1.67847 9.99935 1.67847C11.1521 1.67847 12.2355 1.89722 13.2493 2.33472C14.2632 2.77222 15.1452 3.36597 15.8952 4.11597C16.6452 4.86597 17.2389 5.74791 17.6764 6.7618C18.1139 7.77569 18.3327 8.85902 18.3327 10.0118C18.3327 11.1646 18.1139 12.2479 17.6764 13.2618C17.2389 14.2757 16.6452 15.1576 15.8952 15.9076C15.1452 16.6576 14.2632 17.2514 13.2493 17.6889C12.2355 18.1264 11.1521 18.3451 9.99935 18.3451ZM9.99935 16.6785C11.8605 16.6785 13.4368 16.0326 14.7285 14.741C16.0202 13.4493 16.666 11.8729 16.666 10.0118C16.666 8.15069 16.0202 6.5743 14.7285 5.28263C13.4368 3.99097 11.8605 3.34513 9.99935 3.34513C8.13824 3.34513 6.56185 3.99097 5.27018 5.28263C3.97852 6.5743 3.33268 8.15069 3.33268 10.0118C3.33268 11.8729 3.97852 13.4493 5.27018 14.741C6.56185 16.0326 8.13824 16.6785 9.99935 16.6785Z" fill="white"/>
<path d="M9.99902 1.69116C11.0063 1.69116 11.9604 1.8587 12.8613 2.19312L13.2441 2.34644C14.1301 2.72875 14.9155 3.23014 15.5996 3.85132L15.8867 4.12476C16.6354 4.87348 17.2282 5.75406 17.665 6.76636C18.1018 7.77852 18.3203 8.86045 18.3203 10.0115C18.3203 11.0187 18.1528 11.9729 17.8184 12.8738L17.665 13.2566C17.2281 14.2691 16.6356 15.1503 15.8867 15.8992C15.2315 16.5544 14.4752 17.0902 13.6182 17.5066L13.2441 17.6775C12.232 18.1142 11.1501 18.3328 9.99902 18.3328C8.84799 18.3327 7.76607 18.1142 6.75391 17.6775C5.86818 17.2953 5.08335 16.7936 4.39941 16.1726L4.1123 15.8992C3.45713 15.244 2.92128 14.4876 2.50488 13.6306L2.33398 13.2566C1.89723 12.2444 1.67871 11.1626 1.67871 10.0115C1.67875 9.00414 1.84614 8.05013 2.18066 7.14917L2.33398 6.76636C2.71624 5.88061 3.21786 5.09581 3.83887 4.41187L4.1123 4.12476C4.76755 3.46951 5.52375 2.93374 6.38086 2.51733L6.75391 2.34644C7.76607 1.90968 8.84799 1.6912 9.99902 1.69116ZM9.99902 3.33276C8.25143 3.33283 6.75433 3.90166 5.50781 5.03882L5.26172 5.27417C3.96773 6.56815 3.32039 8.14726 3.32031 10.0115C3.32031 11.7593 3.88903 13.257 5.02637 14.5037L5.26172 14.7498C6.55567 16.0436 8.13489 16.6911 9.99902 16.6912C11.8634 16.6912 13.4432 16.0438 14.7373 14.7498C16.0314 13.4557 16.6787 11.8758 16.6787 10.0115C16.6786 8.26396 16.1097 6.76675 14.9727 5.52026L14.7373 5.27417C13.4432 3.98011 11.8634 3.33276 9.99902 3.33276ZM10.8203 9.19116V14.1658H9.17871V9.19116H10.8203ZM9.99902 5.85718C10.2027 5.85718 10.3777 5.91758 10.5234 6.03784L10.584 6.09351C10.7412 6.25077 10.8203 6.4455 10.8203 6.67847C10.8203 6.88235 10.7601 7.05706 10.6396 7.20288L10.584 7.26343C10.4268 7.42058 10.2319 7.49976 9.99902 7.49976C9.7662 7.49968 9.57125 7.42062 9.41406 7.26343C9.25691 7.10619 9.17871 6.91135 9.17871 6.67847C9.17871 6.47451 9.23883 6.29991 9.35938 6.15405L9.41406 6.09351C9.57125 5.93632 9.7662 5.85725 9.99902 5.85718Z" stroke="white" stroke-opacity="0.5" stroke-width="0.025"/>
</g>
</svg>
