<svg width="20" height="21" viewBox="0 0 20 21" fill="none" xmlns="http://www.w3.org/2000/svg">
<mask id="mask0_413_75573" style="mask-type:alpha" maskUnits="userSpaceOnUse" x="0" y="0" width="20" height="21">
<rect y="0.0117188" width="20" height="20" fill="#D9D9D9"/>
<rect x="0.5" y="0.511719" width="19" height="19" stroke="white" stroke-opacity="0.5"/>
</mask>
<g mask="url(#mask0_413_75573)">
<path d="M5.83333 17.5117V15.8451H9.16667V13.2617C8.48611 13.1089 7.87847 12.8207 7.34375 12.3971C6.80903 11.9735 6.41667 11.4423 6.16667 10.8034C5.125 10.6784 4.25347 10.2235 3.55208 9.4388C2.85069 8.65408 2.5 7.73394 2.5 6.67839V5.84505C2.5 5.38672 2.66319 4.99436 2.98958 4.66797C3.31597 4.34158 3.70833 4.17839 4.16667 4.17839H5.83333V2.51172H14.1667V4.17839H15.8333C16.2917 4.17839 16.684 4.34158 17.0104 4.66797C17.3368 4.99436 17.5 5.38672 17.5 5.84505V6.67839C17.5 7.73394 17.1493 8.65408 16.4479 9.4388C15.7465 10.2235 14.875 10.6784 13.8333 10.8034C13.5833 11.4423 13.191 11.9735 12.6562 12.3971C12.1215 12.8207 11.5139 13.1089 10.8333 13.2617V15.8451H14.1667V17.5117H5.83333ZM5.83333 9.01172V5.84505H4.16667V6.67839C4.16667 7.20616 4.31944 7.68186 4.625 8.10547C4.93056 8.52908 5.33333 8.83116 5.83333 9.01172ZM10 11.6784C10.6944 11.6784 11.2847 11.4353 11.7708 10.9492C12.2569 10.4631 12.5 9.87283 12.5 9.17839V4.17839H7.5V9.17839C7.5 9.87283 7.74306 10.4631 8.22917 10.9492C8.71528 11.4353 9.30556 11.6784 10 11.6784ZM14.1667 9.01172C14.6667 8.83116 15.0694 8.52908 15.375 8.10547C15.6806 7.68186 15.8333 7.20616 15.8333 6.67839V5.84505H14.1667V9.01172Z" fill="white"/>
<path d="M7.4873 9.17871C7.48737 9.78902 7.67496 10.3193 8.04883 10.7695L8.2207 10.958C8.70915 11.4464 9.30236 11.6904 10 11.6904C10.6105 11.6904 11.1414 11.5039 11.5918 11.1299L11.7793 10.958C12.2677 10.4696 12.5126 9.87629 12.5127 9.17871V4.16602H7.4873V9.17871ZM4.1543 6.67871C4.15435 7.14251 4.2719 7.56636 4.50684 7.9502L4.61523 8.1123C4.92229 8.53799 5.32678 8.84204 5.8291 9.02344L5.8457 9.0293V5.83301H4.1543V6.67871ZM14.1543 9.0293L14.1709 9.02344C14.6105 8.86469 14.9755 8.61246 15.2656 8.2666L15.3848 8.1123C15.6917 7.68666 15.8456 7.2089 15.8457 6.67871V5.83301H14.1543V9.0293ZM9.17871 13.252L9.16895 13.25C8.57504 13.1166 8.03714 12.8792 7.55469 12.5391L7.35156 12.3877C6.88511 12.0182 6.5274 11.5661 6.27832 11.0322L6.17871 10.7988L6.19141 10.7939L6.16797 10.791L5.97559 10.7637C5.08523 10.6187 4.32488 10.222 3.69434 9.57324L3.56152 9.43066C2.86226 8.64832 2.51277 7.73107 2.5127 6.67871V5.84473C2.51276 5.44678 2.63681 5.09947 2.88477 4.80176L2.99805 4.67676C3.32211 4.35269 3.712 4.19043 4.16699 4.19043H5.8457V2.52441H14.1543V4.19043H15.833C16.231 4.19043 16.5792 4.31454 16.877 4.5625L17.002 4.67676C17.3258 5.00071 17.4872 5.38995 17.4873 5.84473V6.67871C17.4872 7.66534 17.1801 8.53297 16.5654 9.28223L16.4385 9.43066C15.7392 10.213 14.8705 10.6664 13.832 10.791L13.833 10.8037L13.8301 10.7773L13.8213 10.7988C13.6033 11.3559 13.277 11.8308 12.8418 12.2236L12.6484 12.3877C12.1154 12.81 11.5096 13.0976 10.8311 13.25L10.8213 13.252V15.8574H14.1543V17.499H5.8457V15.8574H9.17871V13.252Z" stroke="white" stroke-opacity="0.5" stroke-width="0.025"/>
</g>
</svg>
