<svg width="20" height="21" viewBox="0 0 20 21" fill="none" xmlns="http://www.w3.org/2000/svg">
<g id="key_visualizer">
<mask id="mask0_413_75563" style="mask-type:alpha" maskUnits="userSpaceOnUse" x="0" y="0" width="20" height="21">
<g id="Bounding box">
<rect y="0.0117188" width="20" height="20" fill="#D9D9D9"/>
<rect x="0.5" y="0.511719" width="19" height="19" stroke="white" stroke-opacity="0.5"/>
</g>
</mask>
<g mask="url(#mask0_413_75563)">
<g id="key_visualizer_2">
<path d="M2.5 17.5117V15.8451H5V17.5117H2.5ZM2.5 14.1784V12.5117H9.16667V14.1784H2.5ZM2.5 10.8451V9.17839H17.5V10.8451H2.5ZM2.5 7.51172V5.84505H9.16667V7.51172H2.5ZM2.5 4.17839V2.51172H5V4.17839H2.5ZM6.66667 17.5117V15.8451H9.16667V17.5117H6.66667ZM6.66667 4.17839V2.51172H9.16667V4.17839H6.66667ZM10.8333 17.5117V15.8451H13.3333V17.5117H10.8333ZM10.8333 14.1784V12.5117H17.5V14.1784H10.8333ZM10.8333 7.51172V5.84505H17.5V7.51172H10.8333ZM10.8333 4.17839V2.51172H13.3333V4.17839H10.8333ZM15 17.5117V15.8451H17.5V17.5117H15ZM15 4.17839V2.51172H17.5V4.17839H15Z" fill="white"/>
<path d="M17.4873 15.8574V17.499H15.0127V15.8574H17.4873ZM13.3213 15.8574V17.499H10.8457V15.8574H13.3213ZM9.1543 15.8574V17.499H6.67871V15.8574H9.1543ZM4.9873 15.8574V17.499H2.5127V15.8574H4.9873ZM17.4873 12.5244V14.166H10.8457V12.5244H17.4873ZM9.1543 12.5244V14.166H2.5127V12.5244H9.1543ZM17.4873 9.19043V10.833H2.5127V9.19043H17.4873ZM17.4873 5.85742V7.49902H10.8457V5.85742H17.4873ZM9.1543 5.85742V7.49902H2.5127V5.85742H9.1543ZM17.4873 2.52441V4.16602H15.0127V2.52441H17.4873ZM13.3213 2.52441V4.16602H10.8457V2.52441H13.3213ZM9.1543 2.52441V4.16602H6.67871V2.52441H9.1543ZM4.9873 2.52441V4.16602H2.5127V2.52441H4.9873Z" stroke="white" stroke-opacity="0.5" stroke-width="0.025"/>
</g>
</g>
</g>
</svg>
