<svg width="18" height="19" viewBox="0 0 18 19" fill="none" xmlns="http://www.w3.org/2000/svg">
<g id="expand_circle_right">
<mask id="mask0_413_75566" style="mask-type:alpha" maskUnits="userSpaceOnUse" x="0" y="0" width="18" height="19">
<g id="Bounding box">
<rect y="0.0117188" width="18" height="18" fill="#D9D9D9"/>
<rect x="0.5" y="0.511719" width="17" height="17" stroke="white" stroke-opacity="0.5"/>
</g>
</mask>
<g mask="url(#mask0_413_75566)">
<g id="expand_circle_right_2">
<path d="M9.50625 9.01172L7.2 11.318L8.25 12.3867L11.625 9.01172L8.25 5.63672L7.2 6.70547L9.50625 9.01172ZM9 16.5117C7.9625 16.5117 6.9875 16.3148 6.075 15.9211C5.1625 15.5273 4.36875 14.993 3.69375 14.318C3.01875 13.643 2.48437 12.8492 2.09062 11.9367C1.69687 11.0242 1.5 10.0492 1.5 9.01172C1.5 7.97422 1.69687 6.99922 2.09062 6.08672C2.48437 5.17422 3.01875 4.38047 3.69375 3.70547C4.36875 3.03047 5.1625 2.49609 6.075 2.10234C6.9875 1.70859 7.9625 1.51172 9 1.51172C10.0375 1.51172 11.0125 1.70859 11.925 2.10234C12.8375 2.49609 13.6312 3.03047 14.3062 3.70547C14.9812 4.38047 15.5156 5.17422 15.9094 6.08672C16.3031 6.99922 16.5 7.97422 16.5 9.01172C16.5 10.0492 16.3031 11.0242 15.9094 11.9367C15.5156 12.8492 14.9812 13.643 14.3062 14.318C13.6312 14.993 12.8375 15.5273 11.925 15.9211C11.0125 16.3148 10.0375 16.5117 9 16.5117Z" fill="white"/>
<path d="M9 1.52441C9.90627 1.52441 10.7646 1.67473 11.5752 1.97559L11.9199 2.11426C12.717 2.45821 13.4236 2.90899 14.0391 3.46777L14.2979 3.71387C14.8875 4.30356 15.3694 4.98446 15.7441 5.75586L15.8975 6.0918C16.2905 7.00266 16.4873 7.97585 16.4873 9.01172C16.4873 9.91799 16.337 10.7763 16.0361 11.5869L15.8975 11.9316C15.5043 12.8427 14.9717 13.6357 14.2979 14.3096C13.7082 14.8993 13.0273 15.3811 12.2559 15.7559L11.9199 15.9092C11.0091 16.3022 10.0359 16.499 9 16.499C8.09373 16.499 7.23538 16.3487 6.4248 16.0479L6.08008 15.9092C5.28299 15.5652 4.57641 15.1144 3.96094 14.5557L3.70215 14.3096C3.11246 13.7199 2.63059 13.039 2.25586 12.2676L2.10254 11.9316C1.70949 11.0208 1.5127 10.0476 1.5127 9.01172C1.5127 8.10545 1.66302 7.2471 1.96387 6.43652L2.10254 6.0918C2.44649 5.29471 2.89727 4.58813 3.45605 3.97266L3.70215 3.71387C4.29184 3.12417 4.97274 2.64231 5.74414 2.26758L6.08008 2.11426C6.99095 1.72121 7.96413 1.52441 9 1.52441ZM8.24121 5.62793L7.19141 6.69629L7.18262 6.70508L7.19141 6.71387L9.48828 9.01172L7.19141 11.3096L7.18262 11.3184L7.19141 11.3271L8.24121 12.3955L8.25 12.4043L11.6426 9.01172L8.25 5.61914L8.24121 5.62793Z" stroke="white" stroke-opacity="0.5" stroke-width="0.025"/>
</g>
</g>
</g>
</svg>
