<svg width="20" height="21" viewBox="0 0 20 21" fill="none" xmlns="http://www.w3.org/2000/svg">
<mask id="mask0_413_75576" style="mask-type:alpha" maskUnits="userSpaceOnUse" x="0" y="0" width="20" height="21">
<rect y="0.0117188" width="20" height="20" fill="#D9D9D9"/>
<rect x="0.5" y="0.511719" width="19" height="19" stroke="white" stroke-opacity="0.5"/>
</mask>
<g mask="url(#mask0_413_75576)">
<path d="M9.95768 15.0118C10.2493 15.0118 10.4959 14.9111 10.6973 14.7097C10.8987 14.5083 10.9993 14.2618 10.9993 13.9701C10.9993 13.6785 10.8987 13.4319 10.6973 13.2305C10.4959 13.0292 10.2493 12.9285 9.95768 12.9285C9.66602 12.9285 9.41949 13.0292 9.2181 13.2305C9.01671 13.4319 8.91602 13.6785 8.91602 13.9701C8.91602 14.2618 9.01671 14.5083 9.2181 14.7097C9.41949 14.9111 9.66602 15.0118 9.95768 15.0118ZM9.20768 11.8035H10.7493C10.7493 11.3451 10.8014 10.984 10.9056 10.7201C11.0098 10.4562 11.3049 10.0951 11.791 9.6368C12.1521 9.27569 12.4368 8.93194 12.6452 8.60555C12.8535 8.27916 12.9577 7.8868 12.9577 7.42847C12.9577 6.65069 12.673 6.05347 12.1035 5.6368C11.5341 5.22013 10.8605 5.0118 10.0827 5.0118C9.29102 5.0118 8.64865 5.22013 8.1556 5.6368C7.66254 6.05347 7.31879 6.55347 7.12435 7.1368L8.49935 7.67847C8.56879 7.42847 8.72504 7.15763 8.9681 6.86597C9.21115 6.5743 9.58268 6.42847 10.0827 6.42847C10.5271 6.42847 10.8605 6.54999 11.0827 6.79305C11.3049 7.03611 11.416 7.30347 11.416 7.59513C11.416 7.87291 11.3327 8.13333 11.166 8.37638C10.9993 8.61944 10.791 8.84513 10.541 9.05347C9.9299 9.59513 9.5549 10.0049 9.41602 10.2826C9.27713 10.5604 9.20768 11.0674 9.20768 11.8035ZM9.99935 18.3451C8.84657 18.3451 7.76324 18.1264 6.74935 17.6889C5.73546 17.2514 4.85352 16.6576 4.10352 15.9076C3.35352 15.1576 2.75977 14.2757 2.32227 13.2618C1.88477 12.2479 1.66602 11.1646 1.66602 10.0118C1.66602 8.85902 1.88477 7.77569 2.32227 6.7618C2.75977 5.74791 3.35352 4.86597 4.10352 4.11597C4.85352 3.36597 5.73546 2.77222 6.74935 2.33472C7.76324 1.89722 8.84657 1.67847 9.99935 1.67847C11.1521 1.67847 12.2355 1.89722 13.2493 2.33472C14.2632 2.77222 15.1452 3.36597 15.8952 4.11597C16.6452 4.86597 17.2389 5.74791 17.6764 6.7618C18.1139 7.77569 18.3327 8.85902 18.3327 10.0118C18.3327 11.1646 18.1139 12.2479 17.6764 13.2618C17.2389 14.2757 16.6452 15.1576 15.8952 15.9076C15.1452 16.6576 14.2632 17.2514 13.2493 17.6889C12.2355 18.1264 11.1521 18.3451 9.99935 18.3451ZM9.99935 16.6785C11.8605 16.6785 13.4368 16.0326 14.7285 14.741C16.0202 13.4493 16.666 11.8729 16.666 10.0118C16.666 8.15069 16.0202 6.5743 14.7285 5.28263C13.4368 3.99097 11.8605 3.34513 9.99935 3.34513C8.13824 3.34513 6.56185 3.99097 5.27018 5.28263C3.97852 6.5743 3.33268 8.15069 3.33268 10.0118C3.33268 11.8729 3.97852 13.4493 5.27018 14.741C6.56185 16.0326 8.13824 16.6785 9.99935 16.6785Z" fill="white"/>
<path d="M9.99902 1.69116C11.0063 1.69116 11.9604 1.8587 12.8613 2.19312L13.2441 2.34644C14.1301 2.72875 14.9155 3.23014 15.5996 3.85132L15.8867 4.12476C16.6354 4.87348 17.2282 5.75406 17.665 6.76636C18.1018 7.77852 18.3203 8.86045 18.3203 10.0115C18.3203 11.0187 18.1528 11.9729 17.8184 12.8738L17.665 13.2566C17.2281 14.2691 16.6356 15.1503 15.8867 15.8992C15.2315 16.5544 14.4752 17.0902 13.6182 17.5066L13.2441 17.6775C12.232 18.1142 11.1501 18.3328 9.99902 18.3328C8.84799 18.3327 7.76607 18.1142 6.75391 17.6775C5.86818 17.2953 5.08335 16.7936 4.39941 16.1726L4.1123 15.8992C3.45713 15.244 2.92128 14.4876 2.50488 13.6306L2.33398 13.2566C1.89723 12.2444 1.67871 11.1626 1.67871 10.0115C1.67875 9.00414 1.84614 8.05013 2.18066 7.14917L2.33398 6.76636C2.71624 5.88061 3.21786 5.09581 3.83887 4.41187L4.1123 4.12476C4.76755 3.46951 5.52375 2.93374 6.38086 2.51733L6.75391 2.34644C7.76607 1.90968 8.84799 1.6912 9.99902 1.69116ZM9.99902 3.33276C8.25143 3.33283 6.75433 3.90166 5.50781 5.03882L5.26172 5.27417C3.96773 6.56815 3.32039 8.14726 3.32031 10.0115C3.32031 11.7593 3.88903 13.257 5.02637 14.5037L5.26172 14.7498C6.55567 16.0436 8.13489 16.6911 9.99902 16.6912C11.8634 16.6912 13.4432 16.0438 14.7373 14.7498C16.0314 13.4557 16.6787 11.8758 16.6787 10.0115C16.6786 8.26396 16.1097 6.76675 14.9727 5.52026L14.7373 5.27417C13.4432 3.98011 11.8634 3.33276 9.99902 3.33276ZM9.95801 12.9412C10.2462 12.9412 10.4896 13.0402 10.6885 13.239C10.8875 13.438 10.9873 13.682 10.9873 13.9705C10.9872 14.2588 10.8874 14.502 10.6885 14.7009C10.4896 14.8998 10.2463 14.9997 9.95801 14.9998C9.70573 14.9998 9.48748 14.9234 9.30371 14.7712L9.22656 14.7009C9.02776 14.5021 8.92879 14.2587 8.92871 13.9705C8.92871 13.718 9.00485 13.5 9.15723 13.3162L9.22656 13.239C9.42554 13.04 9.66957 12.9412 9.95801 12.9412ZM10.083 5.02417C10.8582 5.02423 11.5287 5.2324 12.0957 5.64722C12.6616 6.06126 12.9453 6.6542 12.9453 7.42847C12.9453 7.82793 12.8655 8.17636 12.707 8.47437L12.6348 8.59839C12.4789 8.84255 12.28 9.09709 12.0381 9.36108L11.7822 9.62769C11.3569 10.0287 11.0764 10.3567 10.9424 10.6111L10.8936 10.7156C10.7896 10.9791 10.7383 11.3378 10.7373 11.7908H9.21973C9.22052 11.0615 9.29011 10.5611 9.42676 10.2878C9.49544 10.1505 9.62338 9.97965 9.81055 9.77515C9.90408 9.67296 10.0127 9.56282 10.1357 9.44409L10.5488 9.06323C10.7369 8.90649 10.9018 8.73972 11.043 8.56323L11.1768 8.38354C11.3446 8.13868 11.4286 7.87574 11.4287 7.59546C11.4287 7.3372 11.3425 7.09759 11.1709 6.87769L11.0918 6.78491C10.8665 6.53851 10.5295 6.41583 10.083 6.41577C9.64315 6.41577 9.30031 6.52849 9.05664 6.75464L8.95801 6.85815C8.71874 7.14534 8.56305 7.41339 8.49121 7.66187L7.13965 7.12866C7.30953 6.62531 7.59218 6.18484 7.98633 5.8064L8.16406 5.64624C8.65435 5.23204 9.29375 5.02417 10.083 5.02417Z" stroke="white" stroke-opacity="0.5" stroke-width="0.025"/>
</g>
</svg>
