<svg width="21" height="21" viewBox="0 0 21 21" fill="none" xmlns="http://www.w3.org/2000/svg">
<path d="M20.2373 18.0127V20.2373H16.8877V18.0127H20.2373ZM14.6123 18.0127V20.2373H11.2627V18.0127H14.6123ZM8.9873 18.0127V20.2373H5.6377V18.0127H8.9873ZM3.3623 18.0127V20.2373H0.0126953V18.0127H3.3623ZM20.2373 13.5127V15.7373H11.2627V13.5127H20.2373ZM8.9873 13.5127V15.7373H0.0126953V13.5127H8.9873ZM20.2373 9.0127V11.2373H0.0126953V9.0127H20.2373ZM20.2373 4.5127V6.7373H11.2627V4.5127H20.2373ZM8.9873 4.5127V6.7373H0.0126953V4.5127H8.9873ZM20.2373 0.0126953V2.2373H16.8877V0.0126953H20.2373ZM14.6123 0.0126953V2.2373H11.2627V0.0126953H14.6123ZM8.9873 0.0126953V2.2373H5.6377V0.0126953H8.9873ZM3.3623 0.0126953V2.2373H0.0126953V0.0126953H3.3623Z" fill="#FFEFD8" stroke="#927979" stroke-width="0.025"/>
</svg>
