<svg width="23" height="23" viewBox="0 0 23 23" fill="none" xmlns="http://www.w3.org/2000/svg">
<path d="M11.4531 22.8848C9.87902 22.8848 8.39653 22.587 7.00564 21.9914C5.61474 21.3958 4.39736 20.5763 3.3535 19.5329C2.30964 18.4894 1.48971 17.273 0.893701 15.8835C0.2979 14.4943 0 13.0099 0 11.4301C0 9.85041 0.297796 8.37034 0.893387 6.98992C1.48898 5.6095 2.30849 4.39736 3.35193 3.3535C4.39537 2.30964 5.6118 1.48971 7.00124 0.893701C8.39046 0.2979 9.87493 0 11.4547 0C13.0344 0 14.5144 0.297795 15.8949 0.893386C17.2753 1.48898 18.4874 2.30849 19.5313 3.35193C20.5751 4.39537 21.3951 5.60929 21.9911 6.99369C22.5869 8.3783 22.8848 9.85764 22.8848 11.4317C22.8848 13.0058 22.587 14.4882 21.9914 15.8791C21.3958 17.27 20.5763 18.4874 19.5329 19.5313C18.4894 20.5751 17.2755 21.3951 15.8911 21.9911C14.5065 22.5869 13.0271 22.8848 11.4531 22.8848ZM11.4424 21.2502C13.9991 21.2502 16.1996 20.4014 18.0438 18.7039C19.888 17.0064 20.9358 14.9107 21.1873 12.4169L21.1933 12.4229C21.1972 12.4268 21.1952 12.4209 21.1873 12.4049C21.0228 12.5483 20.8381 12.659 20.6334 12.7372C20.4289 12.8154 20.1959 12.8545 19.9346 12.8545H15.0694C14.5002 12.8545 14.0129 12.652 13.6076 12.2471C13.2023 11.842 12.9997 11.3551 12.9997 10.7863V9.3749H8.10555V6.55234C8.10555 5.98357 8.3082 5.4957 8.71351 5.08872C9.11881 4.68174 9.60605 4.47825 10.1752 4.47825H11.5876V3.24033C11.5876 2.88239 11.6743 2.58166 11.8476 2.33815C12.0207 2.09484 12.2355 1.9232 12.492 1.82324C12.3564 1.74591 12.1746 1.69509 11.9466 1.67078C11.7186 1.64668 11.5505 1.63463 11.4424 1.63463C8.71801 1.63463 6.40229 2.58816 4.49522 4.49522C2.58816 6.40229 1.63463 8.71801 1.63463 11.4424V11.6238C1.63463 11.6801 1.63861 11.7406 1.64657 11.8052H8.11027C9.27085 11.8052 10.251 12.2049 11.0507 13.0044C11.8502 13.8041 12.25 14.7825 12.25 15.9395V17.3569H8.01345V20.6457C8.54386 20.8535 9.09597 21.0063 9.66976 21.104C10.2436 21.2014 10.8344 21.2502 11.4424 21.2502Z" fill="#FFEFD8"/>
</svg>
