<svg width="20" height="21" viewBox="0 0 20 21" fill="none" xmlns="http://www.w3.org/2000/svg">
<mask id="mask0_413_75584" style="mask-type:alpha" maskUnits="userSpaceOnUse" x="0" y="0" width="20" height="21">
<rect y="0.0117188" width="20" height="20" fill="#D9D9D9"/>
<rect x="0.5" y="0.511719" width="19" height="19" stroke="white" stroke-opacity="0.5"/>
</mask>
<g mask="url(#mask0_413_75584)">
<path d="M4.87435 14.2618C5.58268 13.7201 6.37435 13.293 7.24935 12.9805C8.12435 12.668 9.04101 12.5118 9.99935 12.5118C10.9577 12.5118 11.8743 12.668 12.7493 12.9805C13.6243 13.293 14.416 13.7201 15.1243 14.2618C15.6105 13.6924 15.9889 13.0465 16.2598 12.3243C16.5306 11.6021 16.666 10.8312 16.666 10.0118C16.666 8.16458 16.0167 6.59166 14.7181 5.29305C13.4195 3.99444 11.8466 3.34513 9.99935 3.34513C8.15213 3.34513 6.57921 3.99444 5.2806 5.29305C3.98199 6.59166 3.33268 8.16458 3.33268 10.0118C3.33268 10.8312 3.4681 11.6021 3.73893 12.3243C4.00977 13.0465 4.38824 13.6924 4.87435 14.2618ZM9.99935 10.8451C9.1799 10.8451 8.48893 10.5639 7.92643 10.0014C7.36393 9.43888 7.08268 8.74791 7.08268 7.92847C7.08268 7.10902 7.36393 6.41805 7.92643 5.85555C8.48893 5.29305 9.1799 5.0118 9.99935 5.0118C10.8188 5.0118 11.5098 5.29305 12.0723 5.85555C12.6348 6.41805 12.916 7.10902 12.916 7.92847C12.916 8.74791 12.6348 9.43888 12.0723 10.0014C11.5098 10.5639 10.8188 10.8451 9.99935 10.8451ZM9.99935 18.3451C8.84657 18.3451 7.76324 18.1264 6.74935 17.6889C5.73546 17.2514 4.85352 16.6576 4.10352 15.9076C3.35352 15.1576 2.75977 14.2757 2.32227 13.2618C1.88477 12.2479 1.66602 11.1646 1.66602 10.0118C1.66602 8.85902 1.88477 7.77569 2.32227 6.7618C2.75977 5.74791 3.35352 4.86597 4.10352 4.11597C4.85352 3.36597 5.73546 2.77222 6.74935 2.33472C7.76324 1.89722 8.84657 1.67847 9.99935 1.67847C11.1521 1.67847 12.2355 1.89722 13.2493 2.33472C14.2632 2.77222 15.1452 3.36597 15.8952 4.11597C16.6452 4.86597 17.2389 5.74791 17.6764 6.7618C18.1139 7.77569 18.3327 8.85902 18.3327 10.0118C18.3327 11.1646 18.1139 12.2479 17.6764 13.2618C17.2389 14.2757 16.6452 15.1576 15.8952 15.9076C15.1452 16.6576 14.2632 17.2514 13.2493 17.6889C12.2355 18.1264 11.1521 18.3451 9.99935 18.3451ZM9.99935 16.6785C10.7355 16.6785 11.4299 16.5708 12.0827 16.3555C12.7355 16.1403 13.3327 15.8312 13.8743 15.4285C13.3327 15.0257 12.7355 14.7167 12.0827 14.5014C11.4299 14.2861 10.7355 14.1785 9.99935 14.1785C9.26324 14.1785 8.56879 14.2861 7.91601 14.5014C7.26324 14.7167 6.66601 15.0257 6.12435 15.4285C6.66601 15.8312 7.26324 16.1403 7.91601 16.3555C8.56879 16.5708 9.26324 16.6785 9.99935 16.6785ZM9.99935 9.17847C10.3605 9.17847 10.6591 9.06041 10.8952 8.8243C11.1313 8.58819 11.2493 8.28958 11.2493 7.92847C11.2493 7.56735 11.1313 7.26874 10.8952 7.03263C10.6591 6.79652 10.3605 6.67847 9.99935 6.67847C9.63824 6.67847 9.33963 6.79652 9.10351 7.03263C8.8674 7.26874 8.74935 7.56735 8.74935 7.92847C8.74935 8.28958 8.8674 8.58819 9.10351 8.8243C9.33963 9.06041 9.63824 9.17847 9.99935 9.17847Z" fill="white"/>
<path d="M9.99902 1.69116C11.0063 1.69116 11.9604 1.8587 12.8613 2.19312L13.2441 2.34644C14.1301 2.72875 14.9155 3.23014 15.5996 3.85132L15.8867 4.12476C16.6354 4.87348 17.2282 5.75406 17.665 6.76636C18.1018 7.77852 18.3203 8.86044 18.3203 10.0115C18.3203 11.0187 18.1528 11.9729 17.8184 12.8738L17.665 13.2566C17.2281 14.2691 16.6356 15.1503 15.8867 15.8992C15.2315 16.5544 14.4752 17.0902 13.6182 17.5066L13.2441 17.6775C12.232 18.1142 11.1501 18.3328 9.99902 18.3328C8.84799 18.3327 7.76607 18.1142 6.75391 17.6775C5.86818 17.2953 5.08335 16.7936 4.39941 16.1726L4.1123 15.8992C3.45713 15.244 2.92128 14.4876 2.50488 13.6306L2.33398 13.2566C1.89723 12.2444 1.67871 11.1626 1.67871 10.0115C1.67875 9.00414 1.84614 8.05013 2.18066 7.14917L2.33398 6.76636C2.71624 5.88061 3.21786 5.09581 3.83887 4.41187L4.1123 4.12476C4.76755 3.46951 5.52375 2.93374 6.38086 2.51733L6.75391 2.34644C7.76607 1.90968 8.84799 1.6912 9.99902 1.69116ZM9.99902 14.1658C9.2618 14.1658 8.56614 14.2743 7.91211 14.49C7.25816 14.7057 6.65989 15.0152 6.11719 15.4187L6.10352 15.4285L6.11719 15.4382C6.65989 15.8418 7.25816 16.1513 7.91211 16.3669C8.56614 16.5826 9.2618 16.6911 9.99902 16.6912C10.7364 16.6912 11.4328 16.5827 12.0869 16.3669C12.7408 16.1513 13.3392 15.8417 13.8818 15.4382L13.8955 15.4285L13.8818 15.4187C13.3392 15.0152 12.7408 14.7057 12.0869 14.49C11.4328 14.2743 10.7364 14.1658 9.99902 14.1658ZM9.99902 3.33276C8.14865 3.33284 6.57238 3.98304 5.27148 5.28394C3.97059 6.58483 3.32039 8.1611 3.32031 10.0115C3.32031 10.8323 3.45615 11.6051 3.72754 12.3289C3.99886 13.0523 4.37821 13.6997 4.86523 14.2703L4.87207 14.2791L4.88184 14.2712C5.58906 13.7305 6.38014 13.304 7.25391 12.9919C8.12729 12.6801 9.04235 12.5242 9.99902 12.5242C10.8365 12.5242 11.6424 12.6436 12.416 12.8826L12.7451 12.9919C13.6189 13.304 14.4099 13.7304 15.1172 14.2712L15.126 14.2791L15.1338 14.2703C15.6208 13.6997 16.0002 13.0523 16.2715 12.3289C16.5429 11.6051 16.6787 10.8323 16.6787 10.0115C16.6786 8.27658 16.1065 6.7829 14.9629 5.53101L14.7266 5.28394C13.4257 3.98318 11.8494 3.33276 9.99902 3.33276ZM9.99902 5.02417C10.8152 5.02417 11.5034 5.30404 12.0635 5.86401C12.6236 6.42409 12.9033 7.11223 12.9033 7.92847C12.9033 8.64247 12.6893 9.25821 12.2607 9.77612L12.0635 9.99292C11.5034 10.5529 10.8152 10.8328 9.99902 10.8328C9.28492 10.8327 8.66931 10.618 8.15137 10.1892L7.93555 9.99292C7.37547 9.43284 7.09473 8.74471 7.09473 7.92847C7.09473 7.21439 7.30963 6.59876 7.73828 6.08081L7.93555 5.86401C8.49549 5.30423 9.18308 5.02424 9.99902 5.02417ZM9.99902 6.66577C9.63504 6.66584 9.33331 6.78558 9.09473 7.02417C8.85618 7.2628 8.7373 7.56442 8.7373 7.92847C8.7373 8.29251 8.85618 8.59413 9.09473 8.83276C9.33331 9.07135 9.63504 9.19109 9.99902 9.19116C10.3177 9.19116 10.5889 9.0995 10.8115 8.91675L10.9043 8.83276C11.1427 8.59416 11.2617 8.29243 11.2617 7.92847C11.2617 7.60986 11.171 7.33861 10.9883 7.11597L10.9043 7.02417C10.6656 6.78551 10.3632 6.66577 9.99902 6.66577Z" stroke="white" stroke-opacity="0.5" stroke-width="0.025"/>
</g>
</svg>
