<svg width="24" height="24" viewBox="0 0 24 24" fill="none" xmlns="http://www.w3.org/2000/svg">
<g clip-path="url(#clip0_7767_7560)">
<g filter="url(#filter0_d_7767_7560)">
<path d="M11.9999 2.00009C6.47694 2.00009 1.99994 6.47709 1.99994 12.0001C1.99994 17.5231 6.47694 22.0001 11.9999 22.0001C17.5229 22.0001 21.9999 17.5231 21.9999 12.0001C21.9999 6.47709 17.5229 2.00009 11.9999 2.00009Z" stroke="#FFEFD8" stroke-width="1.72697" stroke-linecap="round" stroke-linejoin="round" shape-rendering="crispEdges"/>
</g>
<g filter="url(#filter1_d_7767_7560)">
<path d="M4.27106 18.3462C4.27106 18.3462 6.50006 15.5002 12.0001 15.5002C17.5001 15.5002 19.7301 18.3462 19.7301 18.3462M12.0001 12.0002C12.7957 12.0002 13.5588 11.6842 14.1214 11.1216C14.684 10.559 15.0001 9.79589 15.0001 9.00024C15.0001 8.20459 14.684 7.44153 14.1214 6.87892C13.5588 6.31631 12.7957 6.00024 12.0001 6.00024C11.2044 6.00024 10.4413 6.31631 9.87874 6.87892C9.31613 7.44153 9.00006 8.20459 9.00006 9.00024C9.00006 9.79589 9.31613 10.559 9.87874 11.1216C10.4413 11.6842 11.2044 12.0002 12.0001 12.0002Z" stroke="#FFEFD8" stroke-width="1.72697" stroke-linecap="round" stroke-linejoin="round"/>
</g>
</g>
<defs>
<filter id="filter0_d_7767_7560" x="-0.263525" y="-0.263403" width="24.5269" height="24.527" filterUnits="userSpaceOnUse" color-interpolation-filters="sRGB">
<feFlood flood-opacity="0" result="BackgroundImageFix"/>
<feColorMatrix in="SourceAlpha" type="matrix" values="0 0 0 0 0 0 0 0 0 0 0 0 0 0 0 0 0 0 127 0" result="hardAlpha"/>
<feOffset/>
<feGaussianBlur stdDeviation="0.7"/>
<feComposite in2="hardAlpha" operator="out"/>
<feColorMatrix type="matrix" values="0 0 0 0 0.831373 0 0 0 0 0.709804 0 0 0 0 0.533333 0 0 0 0.3 0"/>
<feBlend mode="normal" in2="BackgroundImageFix" result="effect1_dropShadow_7767_7560"/>
<feBlend mode="normal" in="SourceGraphic" in2="effect1_dropShadow_7767_7560" result="shape"/>
</filter>
<filter id="filter1_d_7767_7560" x="-2.59247" y="-0.863251" width="29.186" height="26.073" filterUnits="userSpaceOnUse" color-interpolation-filters="sRGB">
<feFlood flood-opacity="0" result="BackgroundImageFix"/>
<feColorMatrix in="SourceAlpha" type="matrix" values="0 0 0 0 0 0 0 0 0 0 0 0 0 0 0 0 0 0 127 0" result="hardAlpha"/>
<feOffset/>
<feGaussianBlur stdDeviation="3"/>
<feColorMatrix type="matrix" values="0 0 0 0 0.831373 0 0 0 0 0.709804 0 0 0 0 0.533333 0 0 0 0.3 0"/>
<feBlend mode="normal" in2="BackgroundImageFix" result="effect1_dropShadow_7767_7560"/>
<feBlend mode="normal" in="SourceGraphic" in2="effect1_dropShadow_7767_7560" result="shape"/>
</filter>
<clipPath id="clip0_7767_7560">
<rect width="24" height="24" rx="12" fill="white"/>
</clipPath>
</defs>
</svg>
