<svg width="20" height="20" viewBox="0 0 20 20" fill="none" xmlns="http://www.w3.org/2000/svg">
<g id="settings">
<mask id="mask0_413_75569" style="mask-type:alpha" maskUnits="userSpaceOnUse" x="0" y="0" width="20" height="20">
<g id="Bounding box">
<rect width="20" height="20" fill="#D9D9D9"/>
<rect x="0.5" y="0.5" width="19" height="19" stroke="white" stroke-opacity="0.5"/>
</g>
</mask>
<g mask="url(#mask0_413_75569)">
<g id="settings_2">
<path d="M7.70833 18.3334L7.375 15.6667C7.19444 15.5973 7.02431 15.514 6.86458 15.4167C6.70486 15.3195 6.54861 15.2154 6.39583 15.1042L3.91667 16.1459L1.625 12.1876L3.77083 10.5626C3.75694 10.4654 3.75 10.3716 3.75 10.2813V9.71883C3.75 9.62855 3.75694 9.5348 3.77083 9.43758L1.625 7.81258L3.91667 3.85425L6.39583 4.89591C6.54861 4.7848 6.70833 4.68064 6.875 4.58341C7.04167 4.48619 7.20833 4.40286 7.375 4.33341L7.70833 1.66675H12.2917L12.625 4.33341C12.8056 4.40286 12.9757 4.48619 13.1354 4.58341C13.2951 4.68064 13.4514 4.7848 13.6042 4.89591L16.0833 3.85425L18.375 7.81258L16.2292 9.43758C16.2431 9.5348 16.25 9.62855 16.25 9.71883V10.2813C16.25 10.3716 16.2361 10.4654 16.2083 10.5626L18.3542 12.1876L16.0625 16.1459L13.6042 15.1042C13.4514 15.2154 13.2917 15.3195 13.125 15.4167C12.9583 15.514 12.7917 15.5973 12.625 15.6667L12.2917 18.3334H7.70833ZM10.0417 12.9167C10.8472 12.9167 11.5347 12.632 12.1042 12.0626C12.6736 11.4931 12.9583 10.8056 12.9583 10.0001C12.9583 9.19453 12.6736 8.50703 12.1042 7.93758C11.5347 7.36814 10.8472 7.08341 10.0417 7.08341C9.22222 7.08341 8.53125 7.36814 7.96875 7.93758C7.40625 8.50703 7.125 9.19453 7.125 10.0001C7.125 10.8056 7.40625 11.4931 7.96875 12.0626C8.53125 12.632 9.22222 12.9167 10.0417 12.9167Z" fill="white"/>
<path d="M16.2217 9.42651L16.2139 9.41675L16.2168 9.43921C16.2306 9.53578 16.2373 9.62897 16.2373 9.71851V10.281C16.2373 10.3698 16.2236 10.4624 16.1963 10.5583L16.1748 10.5535L16.2012 10.573L18.3379 12.1912L16.0566 16.1296L13.6094 15.0925L13.6045 15.1042L13.6133 15.0818L13.5967 15.0945C13.4444 15.2052 13.2853 15.3091 13.1191 15.406C12.9529 15.503 12.7862 15.5858 12.6201 15.655L12.6152 15.6433L12.6123 15.6648L12.2803 18.321H7.71973L7.3877 15.6648L7.40137 15.6638L7.37988 15.655L7.11719 15.5408C7.03256 15.4993 6.95053 15.4544 6.87109 15.406C6.71176 15.309 6.55574 15.2053 6.40332 15.0945L6.39551 15.1042L6.41016 15.0847L6.39062 15.0925L3.92188 16.1296L1.64062 12.1912L3.77832 10.573L3.78613 10.5828L3.7832 10.5613C3.76939 10.4646 3.7627 10.3706 3.7627 10.281V9.71851C3.76271 9.62897 3.76941 9.53578 3.7832 9.43921L3.7959 9.44116L3.77832 9.42749L1.64062 7.80835L3.92188 3.86987L6.39062 4.90698L6.38672 4.91772L6.40332 4.90601C6.47944 4.85065 6.55714 4.79678 6.63672 4.74487L6.88086 4.59448C7.04708 4.49752 7.21376 4.4137 7.37988 4.34448L7.38477 4.3562L7.3877 4.33472L7.71973 1.67944H12.2803L12.6123 4.33472L12.625 4.33374L12.5986 4.33667L12.6201 4.34546C12.7101 4.38006 12.7981 4.41723 12.8828 4.45874L13.1289 4.59448C13.2882 4.69148 13.4443 4.79516 13.5967 4.90601L13.6045 4.89624L13.5898 4.91577L13.6094 4.90698L16.0771 3.86987L18.3584 7.80835L16.2217 9.42651ZM10.042 7.07104C9.32223 7.07104 8.70026 7.28955 8.17773 7.72729L7.95996 7.92847C7.39521 8.50019 7.11238 9.19108 7.1123 9.99976C7.1123 10.7076 7.32915 11.325 7.76172 11.8513L7.95996 12.071C8.52487 12.6429 9.21929 12.9294 10.042 12.9294C10.7496 12.9294 11.3664 12.7099 11.8926 12.2722L12.1133 12.071C12.6849 11.4993 12.9707 10.8085 12.9707 9.99976C12.9706 9.29234 12.7519 8.6753 12.3145 8.14917L12.1133 7.92847C11.5416 7.35675 10.8507 7.07112 10.042 7.07104Z" stroke="white" stroke-opacity="0.5" stroke-width="0.025"/>
</g>
</g>
</g>
</svg>
