<svg width="17" height="16" viewBox="0 0 17 16" fill="none" xmlns="http://www.w3.org/2000/svg">
<g id="Line/CaretLeft">
<path id="Vector" fill-rule="evenodd" clip-rule="evenodd" d="M11.1063 7.32806H5.17886C4.89002 7.32806 4.6556 7.09533 4.6556 6.80858C4.6556 6.52182 4.89002 6.2891 5.17886 6.2891H11.1063C11.3951 6.2891 11.6295 6.52182 11.6295 6.80858C11.6295 7.09533 11.3951 7.32806 11.1063 7.32806ZM13.283 3.37793C12.7786 2.87576 12.0593 2.59247 11.2026 2.52182V1.85273C11.2026 1.56598 10.9681 1.33325 10.6793 1.33325C10.3905 1.33325 10.156 1.56598 10.156 1.85273V4.31091C10.1107 4.32338 10.066 4.33862 10.0165 4.33862C9.72768 4.33862 9.49326 4.10589 9.49326 3.81914V2.62918C9.49326 2.55267 9.43082 2.49065 9.35372 2.49065H6.12839V1.85273C6.12839 1.56598 5.89397 1.33325 5.60513 1.33325C5.3163 1.33325 5.08188 1.56598 5.08188 1.85273V4.31091C5.03653 4.32338 4.99188 4.33862 4.94234 4.33862C4.65351 4.33862 4.41909 4.10589 4.41909 3.81914V2.80503C4.41909 2.71497 4.3336 2.64882 4.24673 2.67479C2.91439 3.07323 2.14258 4.14739 2.14258 5.73152V11.3731C2.14258 13.4358 3.39281 14.6666 5.48653 14.6666H10.7979C12.8923 14.6666 14.1426 13.4531 14.1426 11.4209V5.73221C14.1453 4.7542 13.8481 3.94035 13.283 3.37793Z" fill="#33394A"/>
</g>
</svg>
