<svg width="21" height="20" viewBox="0 0 21 20" fill="none" xmlns="http://www.w3.org/2000/svg">
<rect x="3.83398" y="15" width="13.3333" height="1.66667" rx="0.833333" fill="white"/>
<rect x="3.83398" y="16.6665" width="3.33333" height="1.66667" rx="0.833333" transform="rotate(-90 3.83398 16.6665)" fill="white"/>
<rect x="15.5" y="16.6665" width="3.33333" height="1.66667" rx="0.833333" transform="rotate(-90 15.5 16.6665)" fill="white"/>
<path d="M10.4999 12.5002C10.3272 12.5015 10.1583 12.4491 10.0166 12.3502L6.68328 10.0002C6.30926 9.73489 6.21989 9.21725 6.48328 8.84188C6.61084 8.65984 6.80584 8.53631 7.02493 8.49875C7.24402 8.46119 7.46903 8.51272 7.64994 8.64188L10.4999 10.6335L13.3333 8.50021C13.7015 8.22407 14.2238 8.29869 14.4999 8.66688C14.7761 9.03507 14.7015 9.5574 14.3333 9.83354L10.9999 12.3335C10.8557 12.4417 10.6803 12.5002 10.4999 12.5002V12.5002Z" fill="white"/>
<path d="M10.4993 10.8333C10.0391 10.8333 9.66602 10.4602 9.66602 10V3.33333C9.66602 2.8731 10.0391 2.5 10.4993 2.5C10.9596 2.5 11.3327 2.8731 11.3327 3.33333V10C11.3327 10.4602 10.9596 10.8333 10.4993 10.8333Z" fill="white"/>
</svg>
