<svg width="16" height="16" viewBox="0 0 16 16" fill="none" xmlns="http://www.w3.org/2000/svg">
<g id="Icon Base">
<path id="overlay color" d="M13.3329 4C13.3848 4.02237 13.4329 4.05441 13.4735 4.09375H13.6063C13.6518 4.10923 13.6948 4.13146 13.7333 4.16016L13.8134 4.20703C13.8498 4.23995 13.8808 4.27826 13.9061 4.32031C13.9284 4.34983 13.9491 4.38055 13.9667 4.41309C13.983 4.44906 13.9941 4.48731 13.9999 4.52637C14.0062 4.57282 14.0062 4.62054 13.9999 4.66699V8C13.9999 8.36816 13.7011 8.66699 13.3329 8.66699C12.9649 8.66682 12.6669 8.36806 12.6669 8V6.4668L9.83974 9.7666C9.62905 10.0128 9.27177 10.0716 8.99306 9.90625L6.14638 8.2002L3.17958 11.7598C3.05275 11.912 2.86504 12.0002 2.66689 12C2.5112 12.0003 2.36005 11.946 2.24013 11.8467C2.10379 11.7336 2.01811 11.5709 2.00185 11.3945C1.9856 11.2182 2.03985 11.0423 2.15322 10.9062L5.48623 6.90625C5.69586 6.65426 6.05798 6.59231 6.33974 6.75977L9.21962 8.47363L11.8866 5.33301H9.9999C9.63183 5.33301 9.33311 5.03501 9.3329 4.66699C9.3329 4.2988 9.63171 4 9.9999 4H13.3329Z" fill="#54D62C"/>
</g>
</svg>
