<svg width="142" height="142" viewBox="0 0 142 142" fill="none" xmlns="http://www.w3.org/2000/svg">
<path d="M72.2557 0.748047H70.4316V5.53033H72.2557V0.748047Z" fill="#FFD278"/>
<path d="M36.8414 9.75002L35.2617 10.6621L37.6528 14.8037L39.2325 13.8916L36.8414 9.75002Z" fill="#FFD278"/>
<path d="M10.666 35.2581L9.75391 36.8379L13.8953 39.229L14.8074 37.6493L10.666 35.2581Z" fill="#FFD278"/>
<path d="M5.536 70.4355H0.753906V72.2597H5.536V70.4355Z" fill="#FFD278"/>
<path d="M13.8953 103.46L9.75391 105.852L10.666 107.431L14.8074 105.04L13.8953 103.46Z" fill="#FFD278"/>
<path d="M37.6469 127.888L35.2559 132.029L36.8356 132.941L39.2266 128.8L37.6469 127.888Z" fill="#FFD278"/>
<path d="M72.2557 137.16H70.4316V141.942H72.2557V137.16Z" fill="#FFD278"/>
<path d="M105.039 127.885L103.459 128.797L105.85 132.938L107.43 132.026L105.039 127.885Z" fill="#FFD278"/>
<path d="M128.793 103.459L127.881 105.039L132.022 107.43L132.934 105.85L128.793 103.459Z" fill="#FFD278"/>
<path d="M141.934 70.4355H137.152V72.2597H141.934V70.4355Z" fill="#FFD278"/>
<path d="M132.02 35.2612L127.879 37.6523L128.791 39.2321L132.932 36.841L132.02 35.2612Z" fill="#FFD278"/>
<path d="M105.844 9.75685L103.453 13.8984L105.033 14.8105L107.424 10.6689L105.844 9.75685Z" fill="#FFD278"/>
<path d="M64.5257 1.07086L63.4531 1.18359L63.8995 5.43098L64.9721 5.31825L64.5257 1.07086Z" fill="#FFD278"/>
<path d="M57.2346 2.16835L56.1797 2.39258L57.0676 6.57003L58.1225 6.3458L57.2346 2.16835Z" fill="#FFD278"/>
<path d="M50.1038 4.01439L49.0781 4.34766L50.3978 8.40941L51.4235 8.07614L50.1038 4.01439Z" fill="#FFD278"/>
<path d="M43.1981 6.59064L42.2129 7.0293L43.9499 10.9308L44.9351 10.4922L43.1981 6.59064Z" fill="#FFD278"/>
<path d="M30.394 13.8485L29.5215 14.4824L32.0317 17.9376L32.9042 17.3036L30.394 13.8485Z" fill="#FFD278"/>
<path d="M24.6217 18.4307L23.8203 19.1523L26.6779 22.3262L27.4793 21.6045L24.6217 18.4307Z" fill="#FFD278"/>
<path d="M19.374 23.6009L18.6523 24.4023L21.826 27.2601L22.5476 26.4586L19.374 23.6009Z" fill="#FFD278"/>
<path d="M14.6847 29.2876L14.0508 30.1602L17.5058 32.6705L18.1397 31.7979L14.6847 29.2876Z" fill="#FFD278"/>
<path d="M7.2238 41.9718L6.78516 42.957L10.6866 44.6941L11.1252 43.7089L7.2238 41.9718Z" fill="#FFD278"/>
<path d="M4.52271 48.8278L4.18945 49.8535L8.25104 51.1733L8.5843 50.1476L4.52271 48.8278Z" fill="#FFD278"/>
<path d="M2.5543 55.9295L2.33008 56.9844L6.50736 57.8723L6.73158 56.8174L2.5543 55.9295Z" fill="#FFD278"/>
<path d="M1.34124 63.2028L1.22852 64.2754L5.47573 64.7218L5.58845 63.6492L1.34124 63.2028Z" fill="#FFD278"/>
<path d="M5.4601 77.4735L1.21289 77.9199L1.32562 78.9925L5.57283 78.5461L5.4601 77.4735Z" fill="#FFD278"/>
<path d="M6.48002 84.321L2.30273 85.209L2.52695 86.2639L6.70424 85.376L6.48002 84.321Z" fill="#FFD278"/>
<path d="M8.21198 91.0201L4.15039 92.3398L4.48365 93.3655L8.54524 92.0458L8.21198 91.0201Z" fill="#FFD278"/>
<path d="M10.6358 97.5051L6.73438 99.2422L7.17301 100.227L11.0744 98.4903L10.6358 97.5051Z" fill="#FFD278"/>
<path d="M17.4413 109.542L13.9863 112.053L14.6202 112.925L18.0752 110.415L17.4413 109.542Z" fill="#FFD278"/>
<path d="M21.7479 114.959L18.5742 117.816L19.2958 118.618L22.4695 115.76L21.7479 114.959Z" fill="#FFD278"/>
<path d="M26.5959 119.902L23.7383 123.076L24.5397 123.798L27.3973 120.624L26.5959 119.902Z" fill="#FFD278"/>
<path d="M31.9379 124.301L29.4277 127.756L30.3002 128.39L32.8104 124.935L31.9379 124.301Z" fill="#FFD278"/>
<path d="M43.8483 131.329L42.1113 135.23L43.0965 135.669L44.8335 131.768L43.8483 131.329Z" fill="#FFD278"/>
<path d="M50.2884 133.862L48.9688 137.924L49.9944 138.257L51.3141 134.195L50.2884 133.862Z" fill="#FFD278"/>
<path d="M56.9563 135.717L56.0684 139.895L57.1232 140.119L58.0111 135.941L56.9563 135.717Z" fill="#FFD278"/>
<path d="M63.7902 136.86L63.3438 141.107L64.4163 141.22L64.8627 136.973L63.7902 136.86Z" fill="#FFD278"/>
<path d="M78.68 136.868L77.6074 136.98L78.0538 141.228L79.1264 141.115L78.68 136.868Z" fill="#FFD278"/>
<path d="M85.5119 135.741L84.457 135.965L85.3449 140.142L86.3998 139.918L85.5119 135.741Z" fill="#FFD278"/>
<path d="M92.1858 133.901L91.1602 134.234L92.4798 138.296L93.5055 137.963L92.1858 133.901Z" fill="#FFD278"/>
<path d="M98.6317 131.366L97.6465 131.805L99.3835 135.706L100.369 135.268L98.6317 131.366Z" fill="#FFD278"/>
<path d="M110.55 124.374L109.678 125.008L112.188 128.463L113.06 127.829L110.55 124.374Z" fill="#FFD278"/>
<path d="M115.899 119.97L115.098 120.691L117.955 123.865L118.757 123.144L115.899 119.97Z" fill="#FFD278"/>
<path d="M120.761 115.046L120.039 115.848L123.213 118.705L123.934 117.904L120.761 115.046Z" fill="#FFD278"/>
<path d="M125.077 109.631L124.443 110.504L127.898 113.014L128.532 112.142L125.077 109.631Z" fill="#FFD278"/>
<path d="M131.9 97.6046L131.461 98.5898L135.362 100.327L135.801 99.3417L131.9 97.6046Z" fill="#FFD278"/>
<path d="M134.333 91.1286L134 92.1543L138.062 93.474L138.395 92.4483L134.333 91.1286Z" fill="#FFD278"/>
<path d="M136.074 84.4314L135.85 85.4863L140.027 86.3743L140.251 85.3194L136.074 84.4314Z" fill="#FFD278"/>
<path d="M137.107 77.5856L136.994 78.6582L141.241 79.1046L141.354 78.032L137.107 77.5856Z" fill="#FFD278"/>
<path d="M141.251 63.3133L137.004 63.7598L137.117 64.8323L141.364 64.3859L141.251 63.3133Z" fill="#FFD278"/>
<path d="M140.054 56.0456L135.877 56.9336L136.101 57.9885L140.278 57.1006L140.054 56.0456Z" fill="#FFD278"/>
<path d="M138.087 48.942L134.025 50.2617L134.359 51.2874L138.42 49.9677L138.087 48.942Z" fill="#FFD278"/>
<path d="M135.409 42.0813L131.508 43.8184L131.946 44.8036L135.848 43.0665L135.409 42.0813Z" fill="#FFD278"/>
<path d="M127.959 29.3784L124.504 31.8887L125.138 32.7612L128.593 30.2509L127.959 29.3784Z" fill="#FFD278"/>
<path d="M123.289 23.6872L120.115 26.5449L120.837 27.3464L124.011 24.4887L123.289 23.6872Z" fill="#FFD278"/>
<path d="M118.039 18.5117L115.182 21.6855L115.983 22.4072L118.841 19.2334L118.039 18.5117Z" fill="#FFD278"/>
<path d="M112.286 13.9101L109.775 17.3652L110.648 17.9991L113.158 14.544L112.286 13.9101Z" fill="#FFD278"/>
<path d="M99.4831 6.64142L97.7461 10.543L98.7313 10.9816L100.468 7.08007L99.4831 6.64142Z" fill="#FFD278"/>
<path d="M92.5912 4.04959L91.2715 8.11133L92.2971 8.4446L93.6168 4.38286L92.5912 4.04959Z" fill="#FFD278"/>
<path d="M85.4582 2.1917L84.5703 6.36914L85.6252 6.59337L86.5131 2.41593L85.4582 2.1917Z" fill="#FFD278"/>
<path d="M78.1632 1.08661L77.7168 5.33398L78.7893 5.44672L79.2357 1.19935L78.1632 1.08661Z" fill="#FFD278"/>
<g style="mix-blend-mode:overlay">
<path d="M71.1857 27.0805C71.2905 27.0805 71.3952 27.0373 71.4692 26.9634C71.5431 26.8894 71.5863 26.7846 71.5863 26.6799C71.5863 26.5751 71.5431 26.4703 71.4692 26.3964C71.3952 26.3224 71.2966 26.2793 71.1857 26.2793C70.9639 26.2793 70.7852 26.458 70.7852 26.6799C70.7852 26.9017 70.9639 27.0805 71.1857 27.0805Z" fill="white"/>
<path d="M64.9803 115.172C64.7646 115.141 64.5612 115.295 64.5304 115.511C64.5181 115.616 64.5427 115.721 64.6044 115.807C64.666 115.893 64.7646 115.949 64.8694 115.961C64.8879 115.961 64.9063 115.961 64.9248 115.961C65.122 115.961 65.2884 115.819 65.3192 115.616C65.35 115.4 65.196 115.197 64.9803 115.166V115.172Z" fill="white"/>
<path d="M58.8086 113.84C58.5991 113.778 58.3773 113.902 58.3156 114.111C58.2848 114.216 58.2971 114.321 58.3464 114.413C58.3957 114.506 58.482 114.573 58.5868 114.604C58.6238 114.617 58.6607 114.623 58.6977 114.623C58.7655 114.623 58.8271 114.604 58.8887 114.573C58.9812 114.524 59.049 114.438 59.0798 114.333C59.1106 114.228 59.0983 114.124 59.049 114.031C58.9997 113.939 58.9134 113.871 58.8086 113.84Z" fill="white"/>
<path d="M27.2885 77.4308C27.2022 77.3692 27.0975 77.3384 26.9927 77.3569C26.8879 77.3692 26.7955 77.4247 26.7277 77.511C26.6661 77.5972 26.6353 77.702 26.6538 77.8068C26.6661 77.9115 26.7216 78.004 26.8078 78.0718C26.8756 78.1211 26.9619 78.1519 27.0482 78.1519C27.1344 78.1519 27.0851 78.1519 27.1036 78.1519C27.3193 78.1211 27.4734 77.9177 27.4426 77.702C27.4302 77.5972 27.3748 77.5048 27.2885 77.437V77.4308Z" fill="white"/>
<path d="M71.2756 115.615C71.0537 115.615 70.875 115.794 70.875 116.016C70.875 116.238 71.0537 116.416 71.2756 116.416C71.4974 116.416 71.6761 116.238 71.6761 116.016C71.6761 115.911 71.633 115.812 71.559 115.732C71.4851 115.658 71.3865 115.615 71.2756 115.615Z" fill="white"/>
<path d="M77.5714 115.166C77.3557 115.197 77.2016 115.4 77.2324 115.616C77.2633 115.813 77.4296 115.961 77.6268 115.961C77.824 115.961 77.6638 115.961 77.6823 115.961C77.898 115.93 78.052 115.727 78.0212 115.511C77.9904 115.295 77.7871 115.141 77.5714 115.172V115.166Z" fill="white"/>
<path d="M83.6581 28.8435C83.6951 28.8558 83.7321 28.862 83.7691 28.862C83.9416 28.862 84.1018 28.751 84.1511 28.5723C84.182 28.4676 84.1696 28.3628 84.1203 28.2703C84.071 28.1779 83.9848 28.1101 83.88 28.0793C83.7752 28.0485 83.6705 28.0608 83.578 28.1101C83.4856 28.1594 83.4178 28.2457 83.387 28.3505C83.3254 28.56 83.4486 28.7819 83.6581 28.8435Z" fill="white"/>
<path d="M83.743 113.828C83.6383 113.859 83.5582 113.927 83.5027 114.019C83.4534 114.112 83.4411 114.223 83.4719 114.321C83.5027 114.426 83.5705 114.506 83.6629 114.562C83.7245 114.593 83.7862 114.611 83.8539 114.611C83.9217 114.611 83.9279 114.611 83.9649 114.593C84.1744 114.531 84.2976 114.309 84.236 114.1C84.1744 113.89 83.9525 113.767 83.743 113.828Z" fill="white"/>
<path d="M89.5775 31.0448C89.633 31.0694 89.6885 31.0817 89.7439 31.0817C89.7994 31.0817 89.8364 31.0756 89.8857 31.0571C89.9843 31.0201 90.0644 30.9462 90.1075 30.8475C90.1507 30.7489 90.1568 30.6442 90.1199 30.5456C90.0829 30.447 90.0089 30.3669 89.9103 30.3237C89.8117 30.2806 89.707 30.2744 89.6022 30.3114C89.5036 30.3484 89.4235 30.4223 89.3804 30.5209C89.3372 30.6195 89.3311 30.7243 89.368 30.8229C89.405 30.9215 89.4789 31.0016 89.5775 31.0448Z" fill="white"/>
<path d="M77.4807 27.5188C77.4992 27.5188 77.5177 27.5188 77.5361 27.5188C77.6224 27.5188 77.7025 27.4941 77.7765 27.4387C77.8628 27.377 77.9182 27.2784 77.9305 27.1737C77.9614 26.958 77.8073 26.7546 77.5916 26.7238C77.4868 26.7115 77.3821 26.7361 77.2958 26.7977C77.2095 26.8594 77.1541 26.958 77.1418 27.0627C77.1294 27.1675 77.1541 27.2723 77.2157 27.3585C77.2773 27.4448 77.3759 27.5003 77.4807 27.5126V27.5188Z" fill="white"/>
<path d="M58.605 28.8991C58.642 28.8991 58.679 28.8991 58.7159 28.8806C58.8207 28.8498 58.9008 28.782 58.9563 28.6895C59.0056 28.5971 59.0179 28.4862 58.9871 28.3876C58.9563 28.2828 58.8885 28.2027 58.796 28.1472C58.7036 28.0979 58.5927 28.0856 58.4941 28.1164C58.2846 28.178 58.1613 28.3999 58.2229 28.6094C58.2722 28.782 58.4325 28.8929 58.605 28.8929V28.8991Z" fill="white"/>
<path d="M89.6635 111.616C89.5649 111.66 89.4909 111.74 89.454 111.838C89.417 111.937 89.4232 112.048 89.4663 112.14C89.5094 112.239 89.5895 112.313 89.6881 112.35C89.7313 112.368 89.7806 112.374 89.8299 112.374C89.8792 112.374 89.9408 112.362 89.9963 112.337C90.1935 112.245 90.2859 112.011 90.1935 111.807C90.101 111.61 89.8668 111.518 89.6635 111.61V111.616Z" fill="white"/>
<path d="M26.9906 71.3908C26.9906 71.169 26.8119 70.9902 26.59 70.9902C26.3682 70.9902 26.1895 71.169 26.1895 71.3908C26.1895 71.6127 26.3682 71.7914 26.59 71.7914C26.8119 71.7914 26.9906 71.6127 26.9906 71.3908Z" fill="white"/>
<path d="M30.7696 89.5653C30.671 89.5283 30.56 89.5345 30.4676 89.5776C30.2704 89.6701 30.178 89.9042 30.2704 90.1076C30.3135 90.2062 30.3937 90.2802 30.4923 90.3171C30.5354 90.3356 30.5847 90.3418 30.634 90.3418C30.6833 90.3418 30.7449 90.3295 30.8004 90.3048C30.899 90.2617 30.9729 90.1816 31.0099 90.083C31.0469 89.9844 31.0407 89.8734 30.9976 89.7748C30.9544 89.6762 30.8743 89.6023 30.7757 89.5653H30.7696Z" fill="white"/>
<path d="M41.9667 38.0271C42.0591 38.0271 42.1516 37.9963 42.2255 37.9285C42.3919 37.7868 42.4104 37.5341 42.2625 37.3677C42.1208 37.2013 41.8681 37.1829 41.7017 37.3308C41.5353 37.4725 41.5168 37.7252 41.6647 37.8916C41.7449 37.984 41.8558 38.0271 41.9667 38.0271Z" fill="white"/>
<path d="M52.8905 111.634C52.7919 111.591 52.6871 111.585 52.5885 111.622C52.4899 111.659 52.4098 111.733 52.3667 111.831C52.3235 111.93 52.3174 112.035 52.3544 112.14C52.3913 112.238 52.4653 112.318 52.5639 112.361C52.6193 112.386 52.6748 112.398 52.7303 112.398C52.8843 112.398 53.0261 112.312 53.0939 112.164C53.137 112.066 53.1432 111.961 53.1062 111.862C53.0692 111.764 52.9953 111.684 52.8967 111.64L52.8905 111.634Z" fill="white"/>
<path d="M30.4291 53.1988C30.4846 53.2234 30.54 53.2358 30.5955 53.2358C30.7496 53.2358 30.8913 53.1495 30.9591 53.0016C31.0515 52.7982 30.9591 52.564 30.7619 52.4716C30.5647 52.3791 30.3244 52.4716 30.2319 52.6688C30.1888 52.7674 30.1826 52.8722 30.2196 52.9769C30.2566 53.0755 30.3305 53.1556 30.4291 53.1988Z" fill="white"/>
<path d="M33.4334 47.5779C33.5012 47.621 33.5751 47.6395 33.6491 47.6395C33.7785 47.6395 33.9079 47.5779 33.988 47.4546C34.1051 47.2697 34.0496 47.0232 33.8709 46.9061C33.7785 46.8507 33.6737 46.8322 33.569 46.8507C33.4642 46.8753 33.3779 46.937 33.3163 47.0232C33.2608 47.1157 33.2424 47.2204 33.2608 47.3252C33.2855 47.43 33.3471 47.5163 33.4334 47.5779Z" fill="white"/>
<path d="M37.4657 42.5378C37.5766 42.5378 37.6875 42.4885 37.7676 42.4023C37.9094 42.2359 37.8909 41.9832 37.7245 41.8415C37.6444 41.7737 37.5396 41.7367 37.4349 41.7429C37.3301 41.749 37.2315 41.7983 37.1637 41.8784C37.0959 41.9585 37.059 42.0633 37.0651 42.1681C37.0713 42.2728 37.1206 42.3715 37.2007 42.4392C37.2746 42.507 37.3671 42.5378 37.4595 42.5378H37.4657Z" fill="white"/>
<path d="M37.546 100.221C37.4413 100.221 37.3365 100.245 37.2564 100.319C37.09 100.461 37.0715 100.714 37.2194 100.88C37.2872 100.96 37.3858 101.01 37.4906 101.016C37.5029 101.016 37.5091 101.016 37.5214 101.016C37.62 101.016 37.7063 100.979 37.7802 100.917C37.9466 100.775 37.9651 100.523 37.8172 100.356C37.7494 100.276 37.6508 100.227 37.546 100.221Z" fill="white"/>
<path d="M41.9971 104.725C41.8924 104.731 41.7938 104.781 41.726 104.861C41.5843 105.027 41.6027 105.28 41.7691 105.422C41.8431 105.483 41.9355 105.52 42.028 105.52C42.1204 105.52 42.2498 105.471 42.3299 105.385C42.3977 105.305 42.4347 105.2 42.4285 105.095C42.4224 104.99 42.3731 104.892 42.2929 104.824C42.2128 104.756 42.1081 104.719 42.0033 104.725H41.9971Z" fill="white"/>
<path d="M52.6424 31.1362C52.6978 31.1362 52.7533 31.1238 52.8088 31.0992C53.006 31.0067 53.0984 30.7725 53.006 30.5692C52.9135 30.372 52.6794 30.2795 52.476 30.372C52.3774 30.4151 52.3034 30.4952 52.2665 30.5938C52.2295 30.6924 52.2357 30.8034 52.2788 30.8958C52.3466 31.0437 52.4883 31.13 52.6424 31.13V31.1362Z" fill="white"/>
<path d="M28.7849 83.8583C28.754 83.7535 28.6863 83.6734 28.5938 83.6179C28.5014 83.5686 28.3905 83.5563 28.2919 83.5871C28.1871 83.6179 28.107 83.6857 28.0515 83.7782C28.0022 83.8706 27.9899 83.9815 28.0207 84.0801C28.07 84.2527 28.2302 84.3636 28.4028 84.3636C28.5753 84.3636 28.4767 84.3636 28.5137 84.3451C28.7232 84.2835 28.8465 84.0616 28.7849 83.8521V83.8583Z" fill="white"/>
<path d="M47.0589 34.1997C47.1328 34.1997 47.2068 34.1812 47.2746 34.1381C47.4594 34.021 47.5149 33.7683 47.3916 33.5834C47.2746 33.3985 47.0281 33.3431 46.8432 33.4663C46.6583 33.5834 46.6028 33.8299 46.7261 34.0148C46.8 34.1319 46.9295 34.1997 47.0589 34.1997Z" fill="white"/>
<path d="M33.6975 95.9243C33.7715 95.9243 33.8454 95.9058 33.9132 95.8627C34.0057 95.8072 34.0611 95.7148 34.0858 95.61C34.1104 95.5052 34.0858 95.4005 34.0303 95.308C33.9132 95.1231 33.6667 95.0677 33.4818 95.1909C33.297 95.308 33.2415 95.5545 33.3648 95.7456C33.4387 95.8627 33.5681 95.9305 33.6975 95.9305V95.9243Z" fill="white"/>
<path d="M47.3511 108.608C47.1662 108.491 46.9197 108.54 46.8026 108.725C46.7472 108.818 46.7287 108.922 46.7472 109.027C46.7718 109.132 46.8334 109.218 46.9197 109.28C46.9875 109.323 47.0615 109.341 47.1354 109.341C47.2648 109.341 47.3942 109.28 47.4743 109.157C47.5914 108.972 47.5421 108.725 47.3572 108.608H47.3511Z" fill="white"/>
<path d="M109.049 95.1609C108.864 95.0438 108.618 95.0931 108.501 95.278C108.384 95.4628 108.433 95.7093 108.618 95.8264C108.686 95.8696 108.76 95.8881 108.833 95.8881C108.907 95.8881 108.889 95.8881 108.92 95.8819C109.025 95.8573 109.111 95.7956 109.172 95.7093C109.228 95.6169 109.253 95.5121 109.228 95.4074C109.203 95.3026 109.142 95.2163 109.055 95.1547L109.049 95.1609Z" fill="white"/>
<path d="M116.313 71.3488C116.313 71.3303 116.313 71.318 116.313 71.2995C116.313 71.281 116.313 71.2687 116.313 71.2502C116.313 71.1454 116.27 71.0468 116.196 70.9667C116.122 70.8927 116.023 70.8496 115.912 70.8496C115.808 70.8496 115.703 70.8927 115.629 70.9667C115.555 71.0406 115.512 71.1454 115.512 71.2502C115.512 71.2625 115.512 71.281 115.512 71.2933C115.512 71.3056 115.512 71.3241 115.512 71.3426C115.512 71.5645 115.69 71.7432 115.912 71.7432C116.134 71.7432 116.313 71.5645 116.313 71.3426V71.3488Z" fill="white"/>
<path d="M27.9886 58.7028C27.9269 58.9123 28.0502 59.1342 28.2597 59.1958C28.2967 59.2081 28.3336 59.2143 28.3706 59.2143C28.5432 59.2143 28.7034 59.1033 28.7527 58.9308C28.8143 58.7213 28.6911 58.4994 28.4816 58.4378C28.272 58.3761 28.0502 58.4994 27.9886 58.7089V58.7028Z" fill="white"/>
<path d="M108.458 47.3501C108.532 47.4672 108.661 47.5289 108.791 47.5289C108.92 47.5289 108.939 47.5104 109.006 47.4672C109.099 47.4118 109.154 47.3193 109.179 47.2146C109.204 47.1098 109.179 47.005 109.123 46.9126C109.068 46.8201 108.976 46.7585 108.871 46.74C108.766 46.7154 108.661 46.74 108.569 46.7955C108.476 46.851 108.415 46.9434 108.396 47.0482C108.372 47.1529 108.396 47.2577 108.452 47.3501H108.458Z" fill="white"/>
<path d="M26.9768 65.4328C26.9953 65.4328 27.0138 65.4328 27.0322 65.4328C27.2294 65.4328 27.3958 65.2911 27.4266 65.0877C27.439 64.983 27.4143 64.8782 27.3527 64.7919C27.2911 64.7056 27.1925 64.6502 27.0877 64.6378C26.9829 64.6255 26.8782 64.6502 26.7919 64.7118C26.7056 64.7734 26.6502 64.872 26.6378 64.9768C26.6255 65.0816 26.6502 65.1863 26.7118 65.2726C26.7734 65.3589 26.872 65.4144 26.9768 65.4267V65.4328Z" fill="white"/>
<path d="M114.237 83.5441C114.133 83.5133 114.028 83.5257 113.935 83.575C113.843 83.6243 113.775 83.7105 113.744 83.8153C113.683 84.0248 113.806 84.2467 114.016 84.3083C114.053 84.3206 114.09 84.3268 114.126 84.3268C114.299 84.3268 114.459 84.2159 114.509 84.0372C114.539 83.9324 114.527 83.8276 114.478 83.7352C114.428 83.6427 114.342 83.575 114.237 83.5441Z" fill="white"/>
<path d="M114.093 59.0779C114.13 59.0779 114.167 59.0779 114.204 59.0594C114.309 59.0286 114.389 58.9608 114.445 58.8683C114.494 58.7759 114.506 58.665 114.475 58.5664C114.414 58.3568 114.192 58.2336 113.982 58.2952C113.773 58.3568 113.65 58.5787 113.711 58.7882C113.761 58.9608 113.921 59.0717 114.093 59.0717V59.0779Z" fill="white"/>
<path d="M115.522 77.3069C115.306 77.2761 115.103 77.4302 115.072 77.6459C115.041 77.8616 115.196 78.065 115.411 78.0958C115.43 78.0958 115.448 78.0958 115.467 78.0958C115.553 78.0958 115.633 78.0711 115.707 78.0157C115.793 77.954 115.849 77.8554 115.861 77.7507C115.892 77.535 115.738 77.3316 115.522 77.3008V77.3069Z" fill="white"/>
<path d="M105.275 100.295C105.195 100.227 105.09 100.19 104.985 100.196C104.881 100.202 104.782 100.251 104.714 100.332C104.573 100.498 104.591 100.751 104.757 100.892C104.831 100.96 104.924 100.991 105.016 100.991C105.109 100.991 105.238 100.942 105.318 100.855C105.46 100.689 105.441 100.436 105.275 100.295Z" fill="white"/>
<path d="M112.059 89.5399C111.862 89.4475 111.621 89.5399 111.529 89.7371C111.486 89.8358 111.479 89.9405 111.516 90.0453C111.553 90.1439 111.627 90.224 111.726 90.2671C111.781 90.2918 111.837 90.3041 111.892 90.3041C112.046 90.3041 112.188 90.2178 112.256 90.0699C112.348 89.8727 112.256 89.6324 112.059 89.5399Z" fill="white"/>
<path d="M95.1248 34.0632C95.1926 34.1064 95.2665 34.1248 95.3405 34.1248C95.4699 34.1248 95.5993 34.0632 95.6794 33.94C95.7965 33.7551 95.741 33.5086 95.5562 33.3915C95.3713 33.2744 95.1248 33.3298 95.0077 33.5147C94.9522 33.6072 94.9338 33.7119 94.9522 33.8167C94.9769 33.9215 95.0385 34.0077 95.1248 34.0694V34.0632Z" fill="white"/>
<path d="M95.1958 108.583C95.1033 108.638 95.0479 108.731 95.0232 108.836C94.9986 108.94 95.0232 109.045 95.0787 109.138C95.1526 109.255 95.2821 109.322 95.4176 109.322C95.5532 109.322 95.5655 109.304 95.6333 109.261C95.8182 109.144 95.8737 108.897 95.7504 108.712C95.6333 108.527 95.3868 108.472 95.2019 108.595L95.1958 108.583Z" fill="white"/>
<path d="M115.214 65.2224C115.282 65.2717 115.368 65.3025 115.454 65.3025C115.541 65.3025 115.491 65.3025 115.51 65.3025C115.726 65.2717 115.88 65.0683 115.849 64.8526C115.818 64.6369 115.615 64.4829 115.399 64.5137C115.294 64.526 115.202 64.5815 115.134 64.6678C115.072 64.754 115.042 64.8588 115.06 64.9636C115.072 65.0683 115.128 65.1608 115.214 65.2224Z" fill="white"/>
<path d="M104.657 42.3037C104.737 42.3961 104.848 42.4393 104.959 42.4393C105.07 42.4393 105.144 42.4084 105.218 42.3407C105.298 42.2729 105.347 42.1743 105.353 42.0695C105.359 41.9647 105.329 41.86 105.255 41.7798C105.113 41.6134 104.86 41.595 104.694 41.7429C104.528 41.8846 104.509 42.1373 104.657 42.3037Z" fill="white"/>
<path d="M100.539 104.7C100.434 104.694 100.33 104.725 100.25 104.799C100.17 104.866 100.12 104.965 100.114 105.07C100.108 105.175 100.139 105.279 100.213 105.359C100.28 105.44 100.379 105.489 100.484 105.495C100.496 105.495 100.502 105.495 100.515 105.495C100.613 105.495 100.699 105.458 100.773 105.396C100.854 105.329 100.903 105.23 100.909 105.125C100.915 105.02 100.884 104.916 100.81 104.836C100.743 104.755 100.644 104.706 100.539 104.7Z" fill="white"/>
<path d="M111.688 52.3482C111.491 52.4407 111.399 52.6749 111.491 52.8782C111.534 52.9768 111.614 53.0508 111.713 53.0878C111.756 53.1062 111.805 53.1124 111.849 53.1124C111.892 53.1124 111.959 53.1001 112.015 53.0754C112.114 53.0323 112.187 52.9522 112.224 52.8536C112.261 52.755 112.255 52.644 112.212 52.5516C112.12 52.3544 111.886 52.2619 111.682 52.3544L111.688 52.3482Z" fill="white"/>
<path d="M100.185 37.8474C100.259 37.9091 100.351 37.9461 100.444 37.9461C100.536 37.9461 100.666 37.8967 100.746 37.8105C100.814 37.7304 100.851 37.6256 100.844 37.5208C100.838 37.4161 100.789 37.3174 100.709 37.2497C100.629 37.1819 100.53 37.1449 100.419 37.1511C100.314 37.1572 100.216 37.2065 100.148 37.2866C100.08 37.3668 100.043 37.4715 100.049 37.5763C100.056 37.6811 100.105 37.7797 100.185 37.8474Z" fill="white"/>
<path d="M64.7779 26.748C64.6731 26.7604 64.5807 26.8158 64.5129 26.9021C64.4512 26.9884 64.4204 27.0932 64.4389 27.1979C64.4512 27.3027 64.5067 27.3951 64.593 27.4629C64.6608 27.5122 64.747 27.543 64.8333 27.543C64.9196 27.543 64.8703 27.543 64.8888 27.543C65.1045 27.5122 65.2585 27.3089 65.2277 27.0932C65.1969 26.8775 64.9935 26.7234 64.7779 26.7542V26.748Z" fill="white"/>
<path d="M116.197 46.1544C116.247 46.2468 116.333 46.3146 116.438 46.3454C116.475 46.3578 116.512 46.3578 116.549 46.3578C116.616 46.3578 116.684 46.3393 116.746 46.3085C116.838 46.2592 116.906 46.1729 116.937 46.0681C116.968 45.9634 116.955 45.8586 116.9 45.7662C116.851 45.6737 116.764 45.6059 116.66 45.5751C116.555 45.5443 116.45 45.5566 116.358 45.6121C116.167 45.7168 116.099 45.9634 116.203 46.1544H116.197Z" fill="white"/>
<path d="M90.3978 23.5073C90.4471 23.5258 90.4964 23.5381 90.5457 23.5381C90.595 23.5381 90.6505 23.5258 90.6998 23.5073C90.7984 23.4642 90.8723 23.3902 90.9155 23.2916C90.9524 23.193 90.9524 23.0821 90.9155 22.9896C90.8723 22.891 90.7984 22.8171 90.6998 22.7739C90.4964 22.6938 90.2622 22.7924 90.1821 22.9958C90.102 23.1992 90.2006 23.4333 90.404 23.5135L90.3978 23.5073Z" fill="white"/>
<path d="M47.8277 25.4055C47.8893 25.4055 47.9509 25.3932 48.0064 25.3623C48.0988 25.313 48.1728 25.2329 48.2036 25.1282C48.2344 25.0296 48.2282 24.9186 48.1789 24.8262C48.0803 24.629 47.84 24.5489 47.6428 24.6536C47.4456 24.7522 47.3655 24.9926 47.4641 25.1898C47.5319 25.3254 47.6736 25.4055 47.8215 25.4055H47.8277Z" fill="white"/>
<path d="M105.231 32.6278C105.305 32.6894 105.397 32.7264 105.496 32.7264C105.595 32.7264 105.514 32.7264 105.521 32.7264C105.625 32.7202 105.724 32.6709 105.792 32.5908C105.86 32.5107 105.897 32.4059 105.89 32.3011C105.884 32.1964 105.835 32.0978 105.755 32.03C105.588 31.8821 105.336 31.9006 105.194 32.067C105.046 32.2333 105.065 32.486 105.231 32.6278Z" fill="white"/>
<path d="M20.894 58.7015C20.9248 58.7076 20.9618 58.7138 20.9926 58.7138C21.0604 58.7138 21.1343 58.6953 21.196 58.6583C21.2884 58.6029 21.3562 58.5166 21.3808 58.4118C21.4363 58.1961 21.3069 57.9804 21.0974 57.925C20.8817 57.8695 20.666 57.9989 20.6105 58.2085C20.5551 58.4241 20.6845 58.6398 20.894 58.6953V58.7015Z" fill="white"/>
<path d="M19.4858 67.3915C19.4981 67.3915 19.5104 67.3915 19.5228 67.3915C19.6152 67.3915 19.7076 67.3606 19.7816 67.299C19.8617 67.2312 19.911 67.1326 19.9233 67.0279C19.9295 66.9231 19.8987 66.8183 19.8309 66.7382C19.7631 66.6581 19.6645 66.6088 19.5597 66.5965C19.455 66.5903 19.3502 66.6211 19.2701 66.6889C19.19 66.7567 19.1407 66.8553 19.1284 66.9601C19.1099 67.1819 19.2763 67.373 19.4919 67.3915H19.4858Z" fill="white"/>
<path d="M21.2186 84.1295C21.1262 84.074 21.0214 84.0617 20.9167 84.0863C20.8119 84.111 20.7256 84.1788 20.6763 84.2712C20.6209 84.3636 20.6085 84.4684 20.6332 84.5732C20.6825 84.7519 20.8427 84.869 21.0214 84.869C21.2002 84.869 21.0892 84.869 21.12 84.8567C21.2248 84.832 21.3111 84.7642 21.3604 84.6718C21.4158 84.5793 21.4282 84.4746 21.4035 84.3698C21.3789 84.265 21.3111 84.1788 21.2186 84.1233V84.1295Z" fill="white"/>
<path d="M23.7505 50.3709C23.806 50.3956 23.8614 50.4079 23.9169 50.4079C24.071 50.4079 24.2127 50.3216 24.2805 50.1737C24.3236 50.0751 24.3298 49.9703 24.2928 49.8717C24.2558 49.7731 24.1819 49.693 24.0833 49.6499C23.9847 49.6067 23.8799 49.6006 23.7813 49.6376C23.6827 49.6745 23.6026 49.7485 23.5595 49.8471C23.467 50.0443 23.5595 50.2846 23.7567 50.3771L23.7505 50.3709Z" fill="white"/>
<path d="M28.3343 100.06C28.2295 100.041 28.1247 100.06 28.0385 100.121C27.9522 100.183 27.8906 100.269 27.8721 100.374C27.8536 100.479 27.8721 100.583 27.9337 100.676C28.0076 100.787 28.1371 100.848 28.2665 100.848C28.3959 100.848 28.4205 100.824 28.4883 100.781C28.5746 100.719 28.6362 100.633 28.6547 100.528C28.6732 100.423 28.6547 100.318 28.5931 100.232C28.5315 100.146 28.4452 100.084 28.3404 100.066L28.3343 100.06Z" fill="white"/>
<path d="M19.4978 75.4027C19.2821 75.4212 19.1157 75.6123 19.1342 75.8341C19.1404 75.9389 19.1958 76.0375 19.2759 76.1053C19.3499 76.1669 19.4362 76.1977 19.5348 76.1977C19.6334 76.1977 19.5594 76.1977 19.5718 76.1977C19.6765 76.1916 19.7751 76.1423 19.8429 76.056C19.9107 75.9759 19.9477 75.8711 19.9353 75.7663C19.9292 75.6616 19.8799 75.563 19.7936 75.4952C19.7135 75.4274 19.6087 75.3904 19.504 75.4027H19.4978Z" fill="white"/>
<path d="M24.3146 92.6109C24.2714 92.5123 24.1913 92.4383 24.0927 92.4014C23.9941 92.3644 23.8832 92.3644 23.7846 92.4137C23.686 92.4568 23.612 92.5369 23.5751 92.6355C23.5381 92.7341 23.5442 92.8451 23.5874 92.9437C23.6552 93.0916 23.7969 93.1779 23.951 93.1779C24.105 93.1779 24.0619 93.1655 24.1174 93.1409C24.3146 93.0484 24.407 92.8143 24.3146 92.6109Z" fill="white"/>
<path d="M27.9821 42.6494C28.0499 42.6926 28.1239 42.7172 28.204 42.7172C28.2841 42.7172 28.2533 42.7172 28.2779 42.7111C28.3827 42.6926 28.4751 42.6309 28.5306 42.5447C28.6538 42.3598 28.6045 42.1133 28.4258 41.99C28.2409 41.8668 27.9944 41.9161 27.8712 42.0948C27.8096 42.1811 27.7911 42.292 27.8096 42.3906C27.8281 42.4954 27.8897 42.5878 27.976 42.6433L27.9821 42.6494Z" fill="white"/>
<path d="M33.7368 35.8623C33.7368 35.8623 33.7368 35.8623 33.743 35.8623C33.8477 35.8623 33.9463 35.8191 34.0203 35.739C34.1743 35.5788 34.1682 35.3261 34.008 35.1782C33.8477 35.0241 33.5951 35.0303 33.441 35.1905C33.3671 35.2645 33.3301 35.3693 33.3301 35.474C33.3301 35.5788 33.3732 35.6774 33.4533 35.7513C33.5273 35.8253 33.6259 35.8623 33.7306 35.8623H33.7368Z" fill="white"/>
<path d="M64.7376 122.456C64.6328 122.443 64.5281 122.474 64.4418 122.536C64.3555 122.604 64.3062 122.696 64.2877 122.801C64.2631 123.016 64.4172 123.22 64.6328 123.245C64.6513 123.245 64.6698 123.245 64.6821 123.245C64.7684 123.245 64.8547 123.214 64.9286 123.158C65.0149 123.09 65.0642 122.998 65.0827 122.893C65.095 122.788 65.0704 122.684 65.0026 122.597C64.9348 122.511 64.8424 122.462 64.7376 122.443V122.456Z" fill="white"/>
<path d="M116.783 96.3136C116.592 96.2027 116.345 96.2767 116.241 96.4677C116.136 96.6588 116.204 96.9053 116.395 97.01C116.456 97.0408 116.524 97.0593 116.586 97.0593C116.647 97.0593 116.66 97.0593 116.697 97.047C116.801 97.0162 116.881 96.9484 116.937 96.856C116.986 96.7635 117.005 96.6526 116.974 96.554C116.943 96.4492 116.875 96.3691 116.783 96.3136Z" fill="white"/>
<path d="M111.551 39.075C111.564 39.075 111.582 39.075 111.594 39.075C111.687 39.075 111.773 39.0442 111.847 38.9887C111.927 38.9209 111.983 38.8285 111.995 38.7176C112.007 38.6128 111.976 38.508 111.909 38.4279C111.841 38.3478 111.748 38.2923 111.637 38.28C111.533 38.2677 111.428 38.2985 111.348 38.3663C111.268 38.4341 111.212 38.5265 111.2 38.6374C111.188 38.7422 111.218 38.847 111.286 38.9271C111.354 39.0072 111.446 39.0627 111.557 39.075H111.551Z" fill="white"/>
<path d="M111.902 103.648C111.822 103.58 111.717 103.549 111.606 103.561C111.501 103.574 111.403 103.623 111.341 103.709C111.205 103.882 111.23 104.134 111.403 104.27C111.476 104.332 111.563 104.356 111.655 104.356C111.748 104.356 111.889 104.307 111.963 104.208C112.031 104.128 112.062 104.023 112.05 103.913C112.037 103.808 111.988 103.709 111.902 103.648Z" fill="white"/>
<path d="M105.293 110.014C105.127 110.162 105.114 110.414 105.256 110.575C105.324 110.655 105.422 110.704 105.527 110.71C105.533 110.71 105.546 110.71 105.552 110.71C105.65 110.71 105.743 110.673 105.817 110.612C105.897 110.544 105.946 110.445 105.952 110.34C105.959 110.236 105.922 110.131 105.854 110.051C105.706 109.884 105.453 109.872 105.293 110.014Z" fill="white"/>
<path d="M98.5754 115.165C98.4706 115.14 98.3658 115.159 98.2734 115.214C98.181 115.27 98.1193 115.356 98.0947 115.461C98.07 115.566 98.0885 115.67 98.144 115.763C98.1994 115.855 98.2857 115.917 98.3905 115.942C98.4213 115.948 98.4521 115.954 98.4829 115.954C98.5569 115.954 98.6308 115.935 98.6925 115.892C98.7849 115.837 98.8465 115.75 98.8712 115.646C98.8958 115.541 98.8773 115.436 98.8219 115.344C98.7664 115.251 98.6801 115.19 98.5754 115.165Z" fill="white"/>
<path d="M33.8052 106.894C33.7066 106.882 33.5956 106.931 33.5217 107.005C33.4416 107.079 33.3984 107.178 33.3984 107.283C33.3984 107.387 33.4354 107.492 33.5094 107.566C33.5833 107.646 33.6819 107.689 33.7867 107.689C33.7867 107.689 33.7867 107.689 33.7928 107.689C33.8976 107.689 33.9962 107.652 34.0701 107.579C34.1503 107.505 34.1934 107.406 34.1934 107.301C34.1934 107.196 34.1564 107.092 34.0825 107.018C34.0085 106.938 33.9099 106.894 33.8052 106.894Z" fill="white"/>
<path d="M98.2066 27.4387C98.2744 27.4757 98.3422 27.5004 98.4162 27.5004C98.5517 27.5004 98.6812 27.4326 98.7551 27.3093C98.8106 27.2169 98.8291 27.1121 98.8044 27.0073C98.7798 26.9026 98.7181 26.8163 98.6257 26.7608C98.4408 26.6437 98.1943 26.7054 98.0772 26.8902C97.9601 27.0751 98.0218 27.3216 98.2066 27.4387Z" fill="white"/>
<path d="M120.188 54.3627C120.232 54.3627 120.275 54.3565 120.324 54.338C120.534 54.2641 120.638 54.036 120.564 53.8265C120.49 53.617 120.262 53.5122 120.053 53.5862C119.954 53.6231 119.874 53.6971 119.825 53.7895C119.782 53.8881 119.776 53.9929 119.806 54.0915C119.862 54.2517 120.016 54.3565 120.182 54.3565L120.188 54.3627Z" fill="white"/>
<path d="M122.494 79.7233C122.389 79.7048 122.284 79.7294 122.198 79.7911C122.112 79.8527 122.056 79.9451 122.038 80.0499C122.02 80.1547 122.038 80.2594 122.106 80.3457C122.167 80.432 122.26 80.4936 122.365 80.5059C122.389 80.5059 122.408 80.5059 122.432 80.5059C122.513 80.5059 122.593 80.4813 122.66 80.432C122.747 80.3704 122.802 80.2779 122.821 80.1731C122.858 79.9574 122.71 79.7479 122.494 79.7109V79.7233Z" fill="white"/>
<path d="M122.184 62.8124C122.252 62.8617 122.332 62.8863 122.412 62.8863C122.492 62.8863 122.455 62.8863 122.48 62.8863C122.584 62.8678 122.677 62.8124 122.738 62.7261C122.8 62.6398 122.825 62.535 122.806 62.4303C122.788 62.3255 122.732 62.2331 122.646 62.1714C122.56 62.1098 122.455 62.0852 122.35 62.1037C122.245 62.1221 122.153 62.1776 122.091 62.2639C122.03 62.3502 122.005 62.4549 122.024 62.5597C122.042 62.6645 122.098 62.7569 122.184 62.8185V62.8124Z" fill="white"/>
<path d="M120.349 88.266C120.251 88.229 120.14 88.2351 120.047 88.2844C119.949 88.3276 119.881 88.4139 119.844 88.5125C119.807 88.6111 119.813 88.722 119.863 88.8206C119.906 88.9192 119.986 88.987 120.091 89.024C120.134 89.0425 120.177 89.0486 120.22 89.0486C120.386 89.0486 120.54 88.9439 120.596 88.7836C120.633 88.685 120.627 88.5741 120.577 88.4817C120.534 88.3831 120.448 88.3153 120.349 88.2783V88.266Z" fill="white"/>
<path d="M123.567 71.256C123.567 71.0342 123.388 70.8555 123.166 70.8555C123.061 70.8555 122.957 70.8986 122.883 70.9726C122.809 71.0465 122.766 71.1513 122.766 71.256C122.766 71.2684 122.766 71.2869 122.766 71.2992C122.766 71.3115 122.766 71.33 122.766 71.3423C122.766 71.5642 122.944 71.7429 123.166 71.7429C123.388 71.7429 123.567 71.5642 123.567 71.3423C123.567 71.1205 123.567 71.3115 123.567 71.293C123.567 71.2807 123.567 71.2622 123.567 71.2437V71.256Z" fill="white"/>
<path d="M48.0871 117.372C47.9947 117.322 47.8838 117.316 47.7852 117.347C47.6866 117.378 47.6003 117.452 47.5572 117.544C47.5079 117.637 47.5017 117.748 47.5325 117.846C47.5633 117.945 47.6373 118.031 47.7297 118.08C47.7852 118.111 47.8468 118.123 47.9084 118.123C48.0563 118.123 48.1981 118.043 48.2658 117.902C48.3644 117.704 48.2843 117.464 48.0871 117.365V117.372Z" fill="white"/>
<path d="M56.1035 22.0954C56.313 22.0276 56.4301 21.8058 56.3685 21.5962C56.3376 21.4915 56.2699 21.4114 56.1713 21.3621C56.0788 21.3128 55.9679 21.3004 55.8693 21.3313C55.6598 21.3929 55.5427 21.6209 55.6043 21.8304C55.6598 22.003 55.8138 22.1139 55.9864 22.1139C56.1589 22.1139 56.0665 22.1139 56.1035 22.0954Z" fill="white"/>
<path d="M40.6495 112.786C40.5633 112.725 40.4585 112.694 40.3537 112.712C40.249 112.731 40.1565 112.786 40.0949 112.866C40.0333 112.953 40.0025 113.057 40.021 113.162C40.0394 113.267 40.0949 113.359 40.1812 113.421C40.249 113.47 40.3352 113.501 40.4154 113.501C40.4955 113.501 40.4523 113.501 40.477 113.501C40.5817 113.483 40.6742 113.427 40.7358 113.341C40.8652 113.162 40.8282 112.916 40.6495 112.786Z" fill="white"/>
<path d="M40.2779 30.0344C40.2963 30.0344 40.3148 30.0344 40.3395 30.0344C40.4258 30.0344 40.5059 30.0097 40.5737 29.9543C40.7524 29.8249 40.7893 29.5722 40.6538 29.3996C40.5921 29.3134 40.4997 29.2579 40.3888 29.2456C40.284 29.2271 40.1793 29.2579 40.093 29.3195C40.0067 29.3811 39.9512 29.4736 39.9389 29.5845C39.9204 29.6893 39.9512 29.794 40.0129 29.8803C40.0745 29.9666 40.1669 30.0221 40.2717 30.0344H40.2779Z" fill="white"/>
<path d="M56.1953 120.626C56.0906 120.595 55.9858 120.608 55.8934 120.657C55.801 120.706 55.7332 120.793 55.7023 120.891C55.6715 120.996 55.6839 121.101 55.7332 121.193C55.7825 121.286 55.8687 121.353 55.9673 121.384C56.0043 121.397 56.0474 121.403 56.0844 121.403C56.257 121.403 56.411 121.292 56.4665 121.119C56.4973 121.014 56.485 120.91 56.4357 120.817C56.3864 120.725 56.3001 120.657 56.2015 120.626H56.1953Z" fill="white"/>
<path d="M73.4643 122.813C73.2424 122.825 73.076 123.01 73.0822 123.226C73.0884 123.441 73.2671 123.608 73.4828 123.608C73.6984 123.608 73.4951 123.608 73.5012 123.608C73.7231 123.595 73.8895 123.41 73.8833 123.195C73.871 122.973 73.6984 122.807 73.4704 122.813H73.4643Z" fill="white"/>
<path d="M64.5911 20.2531C64.6096 20.2531 64.6281 20.2531 64.6404 20.2531C64.7452 20.2408 64.8376 20.1853 64.9054 20.0991C64.9732 20.0128 64.9978 19.908 64.9855 19.8032C64.9732 19.6985 64.9177 19.606 64.8315 19.5382C64.7452 19.4705 64.6466 19.4458 64.5357 19.4581C64.4309 19.4705 64.3384 19.5259 64.2707 19.6122C64.2029 19.6985 64.1782 19.8032 64.1906 19.908C64.2152 20.1114 64.3878 20.2531 64.585 20.2531H64.5911Z" fill="white"/>
<path d="M82.0368 20.9621C82.0615 20.9621 82.0923 20.9683 82.1231 20.9683C82.197 20.9683 82.271 20.9437 82.3388 20.9067C82.4312 20.8512 82.4928 20.7588 82.5113 20.654C82.536 20.5492 82.5113 20.4445 82.4559 20.352C82.4004 20.2596 82.308 20.2041 82.2032 20.1795C82.0984 20.1548 81.9937 20.1795 81.9012 20.2349C81.8088 20.2904 81.7533 20.3828 81.7287 20.4876C81.6856 20.7033 81.8211 20.9128 82.0368 20.9621Z" fill="white"/>
<path d="M82.4325 121.766C82.3401 121.711 82.2353 121.686 82.1306 121.711C81.9149 121.76 81.7793 121.97 81.8224 122.185C81.8656 122.37 82.0258 122.5 82.2107 122.5C82.3956 122.5 82.2661 122.5 82.297 122.493C82.4017 122.469 82.488 122.407 82.5496 122.321C82.6051 122.228 82.6297 122.124 82.6051 122.019C82.5804 121.914 82.5188 121.828 82.4325 121.766Z" fill="white"/>
<path d="M90.4824 119.153C90.3838 119.19 90.3099 119.271 90.2667 119.363C90.2236 119.462 90.2236 119.573 90.2667 119.671C90.3037 119.77 90.3838 119.85 90.4824 119.887C90.5317 119.905 90.5872 119.918 90.6365 119.918C90.6858 119.918 90.7351 119.905 90.7844 119.887C90.883 119.85 90.9631 119.77 91.0001 119.671C91.0432 119.573 91.0432 119.462 91.0001 119.363C90.9199 119.16 90.6858 119.061 90.4824 119.141V119.153Z" fill="white"/>
<path d="M73.3704 19.8773C73.3704 19.8773 73.3827 19.8773 73.3888 19.8773C73.4874 19.8773 73.586 19.8404 73.66 19.7726C73.7401 19.6986 73.7832 19.6 73.7894 19.4952C73.7894 19.3905 73.7586 19.2857 73.6846 19.2056C73.6107 19.1255 73.5121 19.0823 73.4073 19.0762C73.3026 19.0762 73.1978 19.107 73.1177 19.1809C73.0376 19.2549 72.9944 19.3535 72.9883 19.4583C72.9883 19.563 73.0191 19.6678 73.093 19.7417C73.167 19.8219 73.2656 19.865 73.3704 19.8712V19.8773Z" fill="white"/>
</g>
</svg>
