<svg width="1112" height="623" viewBox="0 0 1112 623" fill="none" xmlns="http://www.w3.org/2000/svg">
<g clip-path="url(#clip0_4457_15845)">
<path d="M665 0C664.76 9.41 654 16 645.78 16H444C432.5 15 429 10.5 424.51 1C424.51 0.94 424.51 0.74 424.51 0.5V0H425.51H425.5C425.49 0 425.5 0.17 425.5 0C429.5 10 433.5 14 444 15H645.8C653.5 14.5 663.78 8.9 664 0H665Z" fill="#FF9D00"/>
<path opacity="0.2" d="M1111.5 10V613C1111.5 615.52 1110.5 617.936 1108.72 619.718C1106.94 621.499 1104.52 622.5 1102 622.5H10C7.48044 622.5 5.06408 621.499 3.28249 619.718C1.50089 617.936 0.5 615.52 0.5 613V10C0.5 7.48044 1.50089 5.06408 3.28249 3.28249C5.06408 1.50089 7.48044 0.5 10 0.5L425.5 0C428 11 437 15.5 443.99 15H645.8C657.17 15 663 8.5 664.02 1C664.02 0.84 664.02 0.67 664.02 0.5H1102.02C1104.54 0.505297 1106.95 1.50852 1108.72 3.28955C1110.5 5.07057 1111.5 7.4839 1111.5 10Z" fill="url(#paint0_linear_4457_15845)"/>
<path d="M1102 0H664V0.5C664 0.67 664 0.84 664 1H1102C1104.39 1 1106.68 1.94821 1108.36 3.63604C1110.05 5.32387 1111 7.61305 1111 10V613C1111 615.387 1110.05 617.676 1108.36 619.364C1106.68 621.052 1104.39 622 1102 622H10C7.61305 622 5.32387 621.052 3.63604 619.364C1.94821 617.676 1 615.387 1 613V10C1 7.61305 1.94821 5.32387 3.63604 3.63604C5.32387 1.94821 7.61305 1 10 1H425.51C425.51 0.84 425.51 0.67 425.51 0.5V0H10C7.34784 0 4.8043 1.05357 2.92893 2.92893C1.05357 4.8043 0 7.34784 0 10L0 613C0 615.652 1.05357 618.196 2.92893 620.071C4.8043 621.946 7.34784 623 10 623H1102C1104.65 623 1107.2 621.946 1109.07 620.071C1110.95 618.196 1112 615.652 1112 613V10C1112 7.34784 1110.95 4.8043 1109.07 2.92893C1107.2 1.05357 1104.65 0 1102 0Z" fill="url(#paint1_linear_4457_15845)"/>
</g>
<defs>
<linearGradient id="paint0_linear_4457_15845" x1="519" y1="260" x2="556" y2="1.00002" gradientUnits="userSpaceOnUse">
<stop stop-color="#D9D9D9" stop-opacity="0"/>
<stop offset="1" stop-color="#E6E4E4" stop-opacity="0.2"/>
</linearGradient>
<linearGradient id="paint1_linear_4457_15845" x1="575.75" y1="1.26" x2="567.25" y2="134.76" gradientUnits="userSpaceOnUse">
<stop stop-color="#FF9D00"/>
<stop offset="1" stop-color="#995E00" stop-opacity="0"/>
</linearGradient>
<clipPath id="clip0_4457_15845">
<rect width="1112" height="623" fill="white"/>
</clipPath>
</defs>
</svg>
