<svg xmlns="http://www.w3.org/2000/svg" fill="none" viewBox="36.958000000000006 39.02290076335878 1010.9100000000001 62.87022900763359" style="max-height: 500px" width="1010.9100000000001" height="62.87022900763359">
<path fill="url(#paint0_linear_3181_15483)" d="M54.5 42.0455C59.2879 42.0455 62.803 43.3636 65.0455 46C67.0152 48.303 68 51.5152 68 55.6364V63.9091C68 67.9394 66.4697 71.3485 63.4091 74.1364L69.7727 99H60.5L55.2727 77.5C55.0303 77.5303 54.7727 77.5455 54.5 77.5455H49.5455V99H40.9545V42.0455H54.5ZM59.6364 55.7727C59.6364 52.4697 58 50.8182 54.7273 50.8182H49.5455V69.0455H54.7273C56.0909 69.0455 57.2424 68.5606 58.1818 67.5909C59.1515 66.6212 59.6364 65.4545 59.6364 64.0909V55.7727ZM85.733 99H77.142V42.0455H85.733V99ZM120.392 85.3636C120.392 89.1212 119.074 92.3333 116.438 95C113.801 97.6667 110.619 99 106.892 99H93.392V42H106.892C110.65 42 113.831 43.3333 116.438 46C119.074 48.6667 120.392 51.8636 120.392 55.5909V85.3636ZM101.983 90.5H107.165C108.528 90.5 109.68 90.0152 110.619 89.0455C111.559 88.0455 112.028 86.8788 112.028 85.5455V55.7273C112.028 54.3636 111.544 53.197 110.574 52.2273C109.634 51.2576 108.498 50.7727 107.165 50.7727H101.983V90.5ZM154.955 85.3636C154.955 89.1212 153.636 92.3333 151 95C148.364 97.6667 145.182 99 141.455 99H127.955V42H141.455C145.212 42 148.394 43.3333 151 46C153.636 48.6667 154.955 51.8636 154.955 55.5909V85.3636ZM136.545 90.5H141.727C143.091 90.5 144.242 90.0152 145.182 89.0455C146.121 88.0455 146.591 86.8788 146.591 85.5455V55.7273C146.591 54.3636 146.106 53.197 145.136 52.2273C144.197 51.2576 143.061 50.7727 141.727 50.7727H136.545V90.5ZM185.926 99H162.517V42.0455H171.108V90.4545H185.926V99ZM191.83 99V42H216.284V50.5909H200.42V66.1818H212.011V74.8182H200.42V90.4091H216.284V99H191.83Z"/>
<path fill="#FE6300" d="M223.636 84.8182C223.576 88.7879 224.606 92.1818 226.727 95C228.121 96.9091 230.091 98.2576 232.636 99.0455C234 99.4697 235.591 99.6818 237.409 99.6818C240.773 99.6818 243.561 98.8485 245.773 97.1818C247.621 95.8182 249.091 93.9697 250.182 91.6364C251.242 89.2727 251.864 86.5758 252.045 83.5455L243.864 82.9545C243.5 86.2576 242.621 88.6515 241.227 90.1364C240.197 91.2576 239.015 91.7879 237.682 91.7273C235.803 91.6667 234.303 90.7424 233.182 88.9545C232.606 88.0758 232.318 86.8182 232.318 85.1818C232.318 82.8182 233.394 80.4697 235.545 78.1364C237.242 76.5303 239.788 74.1212 243.182 70.9091C246.03 68.1515 248.045 65.6818 249.227 63.5C250.5 61.0455 251.136 58.3788 251.136 55.5C251.136 50.3182 249.394 46.3939 245.909 43.7273C243.758 42.1212 241.091 41.3182 237.909 41.3182C234.848 41.3182 232.227 42 230.045 43.3636C228.348 44.4242 226.985 45.9091 225.955 47.8182C224.894 49.7273 224.258 51.9242 224.045 54.4091L232.273 55.9091C232.515 53.5758 233.182 51.7576 234.273 50.4545C235.061 49.5151 236.197 49.0455 237.682 49.0455C239.258 49.0455 240.455 49.7424 241.273 51.1364C241.939 52.2576 242.273 53.6515 242.273 55.3182C242.273 57.9242 241.152 60.5758 238.909 63.2727C238.061 64.303 236.788 65.5151 235.091 66.9091C233.091 68.5758 231.773 69.7424 231.136 70.4091C229.015 72.5303 227.379 74.6212 226.227 76.6818C225.682 77.6515 225.242 78.5455 224.909 79.3636C224.091 81.3939 223.667 83.2121 223.636 84.8182Z"/>
<mask height="34" width="54" y="69" x="240" maskUnits="userSpaceOnUse" style="mask-type:alpha" id="mask0_3181_15483">
<path fill="#D9D9D9" d="M253.002 85.5H243.002L240.502 81L248.002 72L266.002 69.5L288.502 90.5L293.002 101L287.502 102.5L253.002 85.5Z"/>
</mask>
<g mask="url(#mask0_3181_15483)">
<path fill="#FE6300" d="M257.887 72.3022C253.917 72.3582 250.555 73.4877 247.8 75.6907C245.933 77.1401 244.643 79.1485 243.93 81.716C243.546 83.0915 243.381 84.688 243.434 86.5054C243.533 89.8675 244.448 92.6298 246.179 94.792C247.596 96.5997 249.487 98.0144 251.851 99.0364C254.245 100.027 256.959 100.569 259.993 100.662L260.344 92.4661C257.032 92.1996 254.613 91.3914 253.088 90.0417C251.937 89.0447 251.372 87.879 251.393 86.5444C251.399 84.6647 252.279 83.1382 254.033 81.965C254.894 81.3637 256.143 81.039 257.779 80.991C260.141 80.9216 262.52 81.9279 264.916 84.01C266.571 85.6591 269.054 88.1328 272.364 91.4309C275.204 94.1972 277.732 96.139 279.947 97.2563C282.438 98.4564 285.122 99.0142 288 98.9297C293.18 98.7776 297.051 96.9207 299.614 93.3591C301.156 91.1613 301.881 88.4722 301.787 85.2918C301.698 82.2325 300.939 79.6324 299.512 77.4916C298.402 75.8265 296.878 74.507 294.939 73.5332C293 72.5291 290.785 71.9575 288.295 71.8184L287.037 80.0862C289.377 80.26 291.214 80.873 292.548 81.9252C293.51 82.6852 294.013 83.8073 294.057 85.2915C294.103 86.8665 293.442 88.0835 292.072 88.9422C290.971 89.6415 289.587 90.0156 287.922 90.0645C285.317 90.141 282.633 89.0982 279.872 86.9359C278.817 86.118 277.568 84.8814 276.125 83.2261C274.4 81.2759 273.195 79.9925 272.51 79.376C270.328 77.318 268.19 75.7437 266.096 74.6532C265.111 74.1364 264.204 73.7234 263.377 73.4143C261.323 72.656 259.493 72.2854 257.887 72.3022Z"/>
</g>
<rect fill="url(#paint1_linear_3181_15483)" rx="2" height="8.95" width="760" y="90" x="285"/>
<defs>
<linearGradient gradientUnits="userSpaceOnUse" y2="66" x2="223" y1="66" x1="38" id="paint0_linear_3181_15483">
<stop stop-color="#FF9114"/>
<stop stop-color="#FF6200" offset="1"/>
</linearGradient>
<linearGradient gradientUnits="userSpaceOnUse" y2="94.475" x2="1045" y1="94.475" x1="285" id="paint1_linear_3181_15483">
<stop stop-color="#FE6300"/>
<stop stop-color="#FFA267" offset="1"/>
</linearGradient>
</defs>
</svg>