<svg width="26" height="26" viewBox="0 0 26 26" fill="none" xmlns="http://www.w3.org/2000/svg">
<path d="M12.3503 24.6458H8.23366C3.47783 24.6458 1.35449 22.5225 1.35449 17.7667V13.65C1.35449 8.89418 3.47783 6.77084 8.23366 6.77084H11.4837C11.9278 6.77084 12.2962 7.13918 12.2962 7.58334C12.2962 8.02751 11.9278 8.39584 11.4837 8.39584H8.23366C4.35533 8.39584 2.97949 9.77168 2.97949 13.65V17.7667C2.97949 21.645 4.35533 23.0208 8.23366 23.0208H12.3503C16.2287 23.0208 17.6045 21.645 17.6045 17.7667V14.5167C17.6045 14.0725 17.9728 13.7042 18.417 13.7042C18.8612 13.7042 19.2295 14.0725 19.2295 14.5167V17.7667C19.2295 22.5225 17.1062 24.6458 12.3503 24.6458Z" fill="white"/>
<path d="M18.4148 15.3292H14.9481C11.9039 15.3292 10.6689 14.0942 10.6689 11.05V7.58333C10.6689 7.25833 10.8639 6.955 11.1673 6.83583C11.4706 6.70583 11.8173 6.78166 12.0556 7.00916L18.9889 13.9425C19.2164 14.17 19.2923 14.5275 19.1623 14.8308C19.0431 15.1342 18.7398 15.3292 18.4148 15.3292ZM12.2939 9.54417V11.05C12.2939 13.2058 12.7923 13.7042 14.9481 13.7042H16.4539L12.2939 9.54417Z" fill="white"/>
<path d="M16.8978 2.97931H12.5645C12.1203 2.97931 11.752 2.61098 11.752 2.16681C11.752 1.72264 12.1203 1.35431 12.5645 1.35431H16.8978C17.342 1.35431 17.7103 1.72264 17.7103 2.16681C17.7103 2.61098 17.342 2.97931 16.8978 2.97931Z" fill="white"/>
<path d="M7.58105 6.22931C7.13689 6.22931 6.76855 5.86098 6.76855 5.41681C6.76855 3.17431 8.58855 1.35431 10.8311 1.35431H13.6694C14.1136 1.35431 14.4819 1.72264 14.4819 2.16681C14.4819 2.61098 14.1136 2.97931 13.6694 2.97931H10.8311C9.48772 2.97931 8.39355 4.07348 8.39355 5.41681C8.39355 5.86098 8.02522 6.22931 7.58105 6.22931Z" fill="white"/>
<path d="M20.7871 19.2293C20.3429 19.2293 19.9746 18.861 19.9746 18.4168C19.9746 17.9726 20.3429 17.6043 20.7871 17.6043C22.0221 17.6043 23.0188 16.5968 23.0188 15.3726V8.66681C23.0188 8.22264 23.3871 7.85431 23.8313 7.85431C24.2754 7.85431 24.6438 8.22264 24.6438 8.66681V15.3726C24.6438 17.496 22.9104 19.2293 20.7871 19.2293Z" fill="white"/>
<path d="M23.8311 9.4793H20.5811C17.6994 9.4793 16.5186 8.29846 16.5186 5.4168V2.1668C16.5186 1.8418 16.7136 1.53846 17.0169 1.4193C17.3202 1.2893 17.6669 1.36513 17.9052 1.59263L24.4052 8.09263C24.6327 8.32013 24.7086 8.67763 24.5786 8.98096C24.4594 9.2843 24.1561 9.4793 23.8311 9.4793ZM18.1436 4.12763V5.4168C18.1436 7.3993 18.5986 7.8543 20.5811 7.8543H21.8702L18.1436 4.12763Z" fill="white"/>
</svg>
