<svg width="35" height="35" viewBox="0 0 35 35" fill="none" xmlns="http://www.w3.org/2000/svg">
<g clip-path="url(#clip0_7588_7371)">
<path d="M35 17.5C35 27.16 27.1688 35 17.5 35C7.83125 35 0 27.16 0 17.5C0 7.83125 7.83125 0 17.5 0C27.1688 0 35 7.83125 35 17.5Z" fill="white"/>
<path d="M25.4683 12.8217C25.3755 12.8774 23.1672 14.0531 23.1672 16.6598C23.2712 19.6326 25.954 20.6752 26 20.6752C25.954 20.7309 25.595 22.0954 24.5315 23.5257C23.6876 24.7578 22.7508 26 21.3284 26C19.9753 26 19.4896 25.1788 17.9284 25.1788C16.2517 25.1788 15.7773 26 14.4937 26C13.0712 26 12.0651 24.6912 11.1751 23.4707C10.0189 21.8732 9.03616 19.3664 9.00146 16.9593C8.97808 15.6838 9.23301 14.43 9.88013 13.3651C10.7935 11.8783 12.4241 10.869 14.2048 10.8358C15.5692 10.7916 16.7835 11.7343 17.6161 11.7343C18.4141 11.7343 19.9059 10.8358 21.5939 10.8358C22.3224 10.8365 24.2653 11.047 25.4683 12.8217ZM17.5007 10.5811C17.2579 9.41629 17.9284 8.25148 18.5529 7.50846C19.3508 6.6099 20.6111 6 21.6979 6C21.7673 7.16481 21.3276 8.30719 20.5417 9.1392C19.8365 10.0378 18.6223 10.7142 17.5007 10.5811Z" fill="#452D0C"/>
</g>
<defs>
<clipPath id="clip0_7588_7371">
<rect width="35" height="35" fill="white"/>
</clipPath>
</defs>
</svg>
