<svg width="35" height="35" viewBox="0 0 35 35" fill="none" xmlns="http://www.w3.org/2000/svg">
<circle cx="17.5" cy="17.5" r="17.5" fill="white"/>
<path d="M28.4386 17.7429C28.4386 16.8436 28.3642 16.1874 28.203 15.5068H17.7244V19.5658H23.8751C23.7511 20.5745 23.0815 22.0936 21.5934 23.1144L21.5725 23.2503L24.8857 25.7656L25.1152 25.7881C27.2233 23.8801 28.4386 21.0728 28.4386 17.7429Z" fill="#452D0C"/>
<path d="M17.7229 28.4375C20.7362 28.4375 23.266 27.4652 25.1137 25.7882L21.5919 23.1144C20.6495 23.7586 19.3846 24.2082 17.7229 24.2082C14.7716 24.2082 12.2666 22.3003 11.3737 19.6631L11.2428 19.674L7.79774 22.2869L7.75269 22.4096C9.58798 25.9825 13.3578 28.4375 17.7229 28.4375Z" fill="#452D0C"/>
<path d="M11.3754 19.6633C11.1398 18.9827 11.0035 18.2535 11.0035 17.5001C11.0035 16.7466 11.1398 16.0174 11.363 15.3369L11.3568 15.1919L7.86854 12.5371L7.75441 12.5903C6.998 14.073 6.56396 15.7379 6.56396 17.5001C6.56396 19.2622 6.998 20.9271 7.75441 22.4098L11.3754 19.6633Z" fill="#452D0C"/>
<path d="M17.723 10.7916C19.8187 10.7916 21.2323 11.6788 22.0384 12.4202L25.1882 9.40625C23.2537 7.6441 20.7363 6.5625 17.723 6.5625C13.3578 6.5625 9.58799 9.01734 7.75269 12.5902L11.3613 15.3368C12.2666 12.6996 14.7716 10.7916 17.723 10.7916Z" fill="#452D0C"/>
</svg>
