<svg width="20" height="18" viewBox="0 0 20 18" fill="none" xmlns="http://www.w3.org/2000/svg">
<path d="M2.19967 17.5973C1.59476 17.5973 1.07692 17.3819 0.646152 16.9512C0.215384 16.5204 0 16.0026 0 15.3977C0 14.7928 0.215384 14.2749 0.646152 13.8442C1.07692 13.4134 1.59476 13.198 2.19967 13.198C2.80457 13.198 3.32241 13.4134 3.75318 13.8442C4.18395 14.2749 4.39933 14.7928 4.39933 15.3977C4.39933 16.0026 4.18395 16.5204 3.75318 16.9512C3.32241 17.3819 2.80457 17.5973 2.19967 17.5973ZM2.19967 10.9983C1.59476 10.9983 1.07692 10.7829 0.646152 10.3522C0.215384 9.92141 0 9.40357 0 8.79867C0 8.19376 0.215384 7.67592 0.646152 7.24515C1.07692 6.81438 1.59476 6.599 2.19967 6.599C2.80457 6.599 3.32241 6.81438 3.75318 7.24515C4.18395 7.67592 4.39933 8.19376 4.39933 8.79867C4.39933 9.40357 4.18395 9.92141 3.75318 10.3522C3.32241 10.7829 2.80457 10.9983 2.19967 10.9983ZM2.19967 4.39933C1.59476 4.39933 1.07692 4.18395 0.646152 3.75318C0.215384 3.32241 0 2.80457 0 2.19967C0 1.59476 0.215384 1.07692 0.646152 0.646152C1.07692 0.215384 1.59476 0 2.19967 0C2.80457 0 3.32241 0.215384 3.75318 0.646152C4.18395 1.07692 4.39933 1.59476 4.39933 2.19967C4.39933 2.80457 4.18395 3.32241 3.75318 3.75318C3.32241 4.18395 2.80457 4.39933 2.19967 4.39933ZM8.79867 4.39933C8.19376 4.39933 7.67592 4.18395 7.24515 3.75318C6.81438 3.32241 6.599 2.80457 6.599 2.19967C6.599 1.59476 6.81438 1.07692 7.24515 0.646152C7.67592 0.215384 8.19376 0 8.79867 0C9.40357 0 9.92141 0.215384 10.3522 0.646152C10.7829 1.07692 10.9983 1.59476 10.9983 2.19967C10.9983 2.80457 10.7829 3.32241 10.3522 3.75318C9.92141 4.18395 9.40357 4.39933 8.79867 4.39933ZM15.3977 4.39933C14.7928 4.39933 14.2749 4.18395 13.8442 3.75318C13.4134 3.32241 13.198 2.80457 13.198 2.19967C13.198 1.59476 13.4134 1.07692 13.8442 0.646152C14.2749 0.215384 14.7928 0 15.3977 0C16.0026 0 16.5204 0.215384 16.9512 0.646152C17.3819 1.07692 17.5973 1.59476 17.5973 2.19967C17.5973 2.80457 17.3819 3.32241 16.9512 3.75318C16.5204 4.18395 16.0026 4.39933 15.3977 4.39933ZM8.79867 10.9983C8.19376 10.9983 7.67592 10.7829 7.24515 10.3522C6.81438 9.92141 6.599 9.40357 6.599 8.79867C6.599 8.19376 6.81438 7.67592 7.24515 7.24515C7.67592 6.81438 8.19376 6.599 8.79867 6.599C9.40357 6.599 9.92141 6.81438 10.3522 7.24515C10.7829 7.67592 10.9983 8.19376 10.9983 8.79867C10.9983 9.40357 10.7829 9.92141 10.3522 10.3522C9.92141 10.7829 9.40357 10.9983 8.79867 10.9983ZM9.8985 17.5973V14.2153L15.9751 8.16626C16.1401 8.00129 16.3234 7.88214 16.525 7.80882C16.7266 7.73549 16.9283 7.69883 17.1299 7.69883C17.3499 7.69883 17.5607 7.74008 17.7623 7.82256C17.9639 7.90505 18.1472 8.02878 18.3122 8.19376L19.3296 9.2111C19.4762 9.37608 19.5908 9.55938 19.6733 9.76102C19.7558 9.96266 19.797 10.1643 19.797 10.3659C19.797 10.5676 19.7603 10.7738 19.687 10.9846C19.6137 11.1954 19.4945 11.3833 19.3296 11.5482L13.2805 17.5973H9.8985ZM11.5482 15.9476H12.5931L15.9201 12.5931L15.4252 12.0707L14.9027 11.5757L11.5482 14.9027V15.9476ZM15.4252 12.0707L14.9027 11.5757L15.9201 12.5931L15.4252 12.0707Z" fill="#FFD278"/>
</svg>
