<svg width="86" height="44" viewBox="0 0 86 44" fill="none" xmlns="http://www.w3.org/2000/svg">
<g id="Group 11 2">
<path id="Vector" d="M40.123 35.0492L42.7428 9.29272H50.0901C51.1542 9.29272 52.0876 9.34969 52.8906 9.46361C53.7036 9.57752 54.4614 9.78983 55.1641 10.1005C55.8767 10.4009 56.4438 10.8048 56.8653 11.3122C57.2869 11.8093 57.5982 12.4618 57.7988 13.2696C57.9193 13.7874 57.9845 14.357 57.9947 14.9784C57.9947 15.3305 57.9744 15.7034 57.9344 16.0969C57.7738 17.754 57.3823 19.1106 56.7601 20.167C56.1477 21.2234 55.1991 22.0726 53.9144 22.7147L56.504 35.0492H50.4515L48.6146 23.6468H47.3049L46.1455 35.0492H40.123ZM47.6511 20.2136H49.2019C50.2258 20.2136 50.9684 19.9133 51.4302 19.3126C51.9019 18.7119 52.1929 17.8575 52.3035 16.7494C52.3336 16.4594 52.3485 16.1901 52.3485 15.9416C52.3485 15.2373 52.2331 14.6781 52.0024 14.2638C51.6911 13.6839 51.0939 13.3939 50.2106 13.3939H48.3436L47.6511 20.2136ZM57.0629 35.0492L59.6826 9.29272H71.2909L70.8694 13.4716H65.2685L64.6812 19.3126H68.8668L68.4301 23.6157H64.2447L63.5069 30.9013H69.1679L68.7312 35.0492H57.0629ZM72.3767 35.0492L70.7506 9.29272H75.8094L76.4418 26.3809L80.3713 9.29272H85.8066L78.8657 35.0492H72.3767Z" fill="#2C2C2C"/>
<g id="Mask group">
<mask id="mask0_2296_16607" style="mask-type:alpha" maskUnits="userSpaceOnUse" x="0" y="4" width="45" height="36">
<g id="Group">
<path id="Vector_2" d="M44.8067 4.72534H0V39.0259H44.8067V4.72534Z" fill="#D9D9D9"/>
</g>
</mask>
<g mask="url(#mask0_2296_16607)">
<g id="Group_2">
<path id="Vector_3" d="M12.4055 34.9869H6.80469V32.1285H12.4055V34.9869ZM21.7403 34.9869H16.1394V32.1285H21.7403V34.9869ZM31.075 34.9869H25.4742V32.1285H31.075V34.9869ZM37.1138 34.9869H34.8089V32.1285H37.4135L37.1138 34.9869ZM40.4097 34.9869H40.125L40.4097 32.2724V34.9869ZM21.7403 29.2701H6.80469V26.4118H21.7403V29.2701ZM37.7136 29.2701H25.4742V26.4118H38.0133L37.7136 29.2701ZM38.3132 23.5534H6.80469V20.695H38.6129L38.3132 23.5534ZM21.7403 17.8366H6.80469V14.9782H21.7403V17.8366ZM38.9128 17.8366H25.4742V14.9782H39.2125L38.9128 17.8366ZM12.4055 12.1199H6.80469V9.26147H12.4055V12.1199ZM21.7403 12.1199H16.1394V9.26147H21.7403V12.1199ZM31.075 12.1199H25.4742V9.26147H31.075V12.1199ZM39.5121 12.1199H34.8089V9.26147H39.8123L39.5121 12.1199Z" fill="#2C2C2C"/>
</g>
</g>
</g>
</g>
</svg>
