<svg width="38" height="38" viewBox="0 0 38 38" fill="none" xmlns="http://www.w3.org/2000/svg">
<mask id="mask0_5411_21773" style="mask-type:alpha" maskUnits="userSpaceOnUse" x="0" y="0" width="38" height="38">
<rect width="38" height="38" fill="#D9D9D9"/>
</mask>
<g mask="url(#mask0_5411_21773)">
<path d="M18.9998 34.8327C16.8096 34.8327 14.7512 34.4171 12.8248 33.5858C10.8984 32.7546 9.22275 31.6264 7.79775 30.2014C6.37275 28.7764 5.24463 27.1007 4.41338 25.1744C3.58213 23.248 3.1665 21.1896 3.1665 18.9993C3.1665 16.8091 3.58213 14.7507 4.41338 12.8243C5.24463 10.898 6.37275 9.22227 7.79775 7.79727C9.22275 6.37227 10.8984 5.24414 12.8248 4.41289C14.7512 3.58164 16.8096 3.16602 18.9998 3.16602C21.1901 3.16602 23.2485 3.58164 25.1748 4.41289C27.1012 5.24414 28.7769 6.37227 30.2019 7.79727C31.6269 9.22227 32.755 10.898 33.5863 12.8243C34.4175 14.7507 34.8332 16.8091 34.8332 18.9993C34.8332 21.1896 34.4175 23.248 33.5863 25.1744C32.755 27.1007 31.6269 28.7764 30.2019 30.2014C28.7769 31.6264 27.1012 32.7546 25.1748 33.5858C23.2485 34.4171 21.1901 34.8327 18.9998 34.8327ZM17.4165 31.5869V28.4994C16.5457 28.4994 15.8002 28.1893 15.18 27.5691C14.5599 26.949 14.2498 26.2035 14.2498 25.3327V23.7494L6.64984 16.1493C6.57067 16.6243 6.4981 17.0994 6.43213 17.5744C6.36616 18.0494 6.33317 18.5243 6.33317 18.9993C6.33317 22.1924 7.38213 24.9896 9.48005 27.391C11.578 29.7924 14.2234 31.191 17.4165 31.5869ZM28.3415 27.5494C29.4235 26.3619 30.2481 25.0358 30.8155 23.5712C31.3828 22.1066 31.6665 20.5827 31.6665 18.9993C31.6665 16.4132 30.9474 14.0514 29.5092 11.9139C28.071 9.77643 26.1512 8.23268 23.7498 7.28268V7.91602C23.7498 8.78685 23.4398 9.53234 22.8196 10.1525C22.1995 10.7726 21.454 11.0827 20.5832 11.0827H17.4165V14.2493C17.4165 14.698 17.2648 15.074 16.9613 15.3775C16.6578 15.6809 16.2818 15.8327 15.8332 15.8327H12.6665V18.9993H22.1665C22.6151 18.9993 22.9912 19.1511 23.2946 19.4546C23.5981 19.758 23.7498 20.1341 23.7498 20.5827V25.3327H25.3332C26.0193 25.3327 26.6394 25.5372 27.1936 25.9462C27.7478 26.3553 28.1304 26.8896 28.3415 27.5494Z" fill="#3A0001"/>
</g>
</svg>
