<svg width="38" height="38" viewBox="0 0 38 38" fill="none" xmlns="http://www.w3.org/2000/svg">
<mask id="mask0_1796_7031" style="mask-type:alpha" maskUnits="userSpaceOnUse" x="0" y="0" width="38" height="38">
<rect width="38" height="38" fill="#D9D9D9"/>
</mask>
<g mask="url(#mask0_1796_7031)">
<path d="M18.9993 34.8334C16.8091 34.8334 14.7507 34.4177 12.8243 33.5865C10.898 32.7552 9.22227 31.6205 7.79727 30.1823C6.37227 28.7441 5.24414 27.0618 4.41289 25.1354C3.58164 23.209 3.16602 21.1639 3.16602 19C3.16602 14.857 4.53824 11.2945 7.28268 8.31252C10.0271 5.33057 13.4049 3.64168 17.416 3.24585V7.99585C14.698 8.36529 12.4351 9.58578 10.6275 11.6573C8.81983 13.7288 7.91602 16.1764 7.91602 19C7.91602 22.0611 8.99796 24.6736 11.1618 26.8375C13.3257 29.0014 15.9382 30.0834 18.9993 30.0834C20.741 30.0834 22.3705 29.7139 23.8879 28.975C25.4053 28.2361 26.6785 27.2334 27.7077 25.9667L31.8243 28.3417C30.3993 30.3209 28.5653 31.8976 26.3223 33.0719C24.0792 34.2462 21.6382 34.8334 18.9993 34.8334ZM33.4868 25.4125L29.3702 23.0375C29.6077 22.4042 29.7858 21.7511 29.9046 21.0781C30.0233 20.4052 30.0827 19.7125 30.0827 19C30.0827 16.1764 29.1789 13.7288 27.3712 11.6573C25.5636 9.58578 23.3007 8.36529 20.5827 7.99585V3.24585C24.5938 3.64168 27.9716 5.33057 30.716 8.31252C33.4605 11.2945 34.8327 14.857 34.8327 19C34.8327 20.1611 34.7271 21.2827 34.516 22.3646C34.3049 23.4465 33.9618 24.4625 33.4868 25.4125Z" fill="#D4B588"/>
</g>
</svg>
