<svg width="32" height="32" viewBox="0 0 32 32" fill="none" xmlns="http://www.w3.org/2000/svg">
<mask id="mask0_2826_15325" style="mask-type:alpha" maskUnits="userSpaceOnUse" x="0" y="0" width="32" height="32">
<rect x="32" y="32" width="32" height="32" transform="rotate(-180 32 32)" fill="#D9D9D9"/>
<rect x="31.1111" y="31.1111" width="30.2222" height="30.2222" transform="rotate(-180 31.1111 31.1111)" stroke="white" stroke-opacity="0.5" stroke-width="1.77778"/>
</mask>
<g mask="url(#mask0_2826_15325)">
<path d="M15.1002 15.9999L19.2002 11.8999L17.3335 9.99992L11.3335 15.9999L17.3335 21.9999L19.2002 20.0999L15.1002 15.9999ZM16.0002 2.66659C17.8446 2.66659 19.5779 3.01659 21.2002 3.71659C22.8224 4.41659 24.2335 5.36658 25.4335 6.56659C26.6335 7.76659 27.5835 9.1777 28.2835 10.7999C28.9835 12.4221 29.3335 14.1555 29.3335 15.9999C29.3335 17.8444 28.9835 19.5777 28.2835 21.1999C27.5835 22.8221 26.6335 24.2333 25.4335 25.4333C24.2335 26.6333 22.8224 27.5833 21.2002 28.2833C19.5779 28.9833 17.8446 29.3333 16.0002 29.3333C14.1557 29.3333 12.4224 28.9833 10.8002 28.2833C9.17794 27.5833 7.76683 26.6333 6.56683 25.4333C5.36683 24.2333 4.41683 22.8221 3.71683 21.1999C3.01683 19.5777 2.66683 17.8444 2.66683 15.9999C2.66683 14.1555 3.01683 12.4221 3.71683 10.7999C4.41683 9.1777 5.36683 7.76659 6.56683 6.56659C7.76683 5.36658 9.17794 4.41659 10.8002 3.71659C12.4224 3.01659 14.1557 2.66659 16.0002 2.66659Z" fill="white"/>
<path d="M16.0005 29.3108C14.274 29.3108 12.6449 29.004 11.1138 28.3899L10.8091 28.2629C9.2906 27.6077 7.95781 26.7327 6.81006 25.6389L6.58252 25.4172C5.53436 24.369 4.67735 23.1595 4.01123 21.7883L3.73682 21.1907C3.03826 19.5716 2.68901 17.8415 2.68896 16.0002C2.68896 14.2738 2.99574 12.6446 3.60986 11.1135L3.73682 10.8088C4.43575 9.18909 5.38459 7.78021 6.58252 6.58228C7.63069 5.53411 8.84034 4.67713 10.2114 4.01099L10.8091 3.73657C12.4283 3.0379 14.159 2.68872 16.0005 2.68872C17.7267 2.68876 19.3553 2.99561 20.8862 3.60962L21.1909 3.73657C22.7095 4.39184 24.0431 5.26672 25.1909 6.3606L25.4175 6.58228C26.4657 7.63051 27.3236 8.83999 27.9897 10.2112L28.2632 10.8088C28.9619 12.4281 29.311 14.1587 29.311 16.0002C29.311 17.7265 29.0042 19.355 28.3901 20.886L28.2632 21.1907C27.6079 22.7093 26.7331 24.0428 25.6392 25.1907L25.4175 25.4172C24.3692 26.4655 23.1599 27.3233 21.7886 27.9895L21.1909 28.2629C19.5718 28.9615 17.8418 29.3108 16.0005 29.3108ZM17.3491 22.0159L19.2163 20.1155L19.2319 20.0999L15.1323 16.0002L19.2163 11.9153L19.2319 11.8997L19.2163 11.884L17.3491 9.98462L17.3335 9.96802L17.3179 9.98462L11.3022 16.0002L17.3335 22.0315L17.3491 22.0159Z" stroke="white" stroke-opacity="0.5" stroke-width="0.0444444"/>
</g>
</svg>
