<svg width="38" height="38" viewBox="0 0 38 38" fill="none" xmlns="http://www.w3.org/2000/svg">
<mask id="mask0_2826_15700" style="mask-type:alpha" maskUnits="userSpaceOnUse" x="0" y="0" width="38" height="38">
<rect width="38" height="38" fill="#D9D9D9"/>
</mask>
<g mask="url(#mask0_2826_15700)">
<path d="M13.9333 33.25H7.91667C7.04583 33.25 6.30035 32.9399 5.68021 32.3198C5.06007 31.6997 4.75 30.9542 4.75 30.0833V24.0667C6.01667 24.0667 7.125 23.6642 8.075 22.8594C9.025 22.0545 9.5 21.0319 9.5 19.7917C9.5 18.5514 9.025 17.5288 8.075 16.724C7.125 15.9191 6.01667 15.5167 4.75 15.5167V9.5C4.75 8.62917 5.06007 7.88368 5.68021 7.26354C6.30035 6.6434 7.04583 6.33333 7.91667 6.33333H14.25C14.25 5.225 14.6326 4.28819 15.3979 3.52292C16.1632 2.75764 17.1 2.375 18.2083 2.375C19.3167 2.375 20.2535 2.75764 21.0188 3.52292C21.784 4.28819 22.1667 5.225 22.1667 6.33333H28.5C29.3708 6.33333 30.1163 6.6434 30.7365 7.26354C31.3566 7.88368 31.6667 8.62917 31.6667 9.5V15.8333C32.775 15.8333 33.7118 16.216 34.4771 16.9813C35.2424 17.7465 35.625 18.6833 35.625 19.7917C35.625 20.9 35.2424 21.8368 34.4771 22.6021C33.7118 23.3674 32.775 23.75 31.6667 23.75V30.0833C31.6667 30.9542 31.3566 31.6997 30.7365 32.3198C30.1163 32.9399 29.3708 33.25 28.5 33.25H22.4833C22.4833 31.9306 22.0677 30.809 21.2365 29.8854C20.4052 28.9618 19.3958 28.5 18.2083 28.5C17.0208 28.5 16.0115 28.9618 15.1802 29.8854C14.349 30.809 13.9333 31.9306 13.9333 33.25ZM7.91667 30.0833H11.2812C11.9146 28.3417 12.9306 27.1146 14.3292 26.4021C15.7278 25.6896 17.0208 25.3333 18.2083 25.3333C19.3958 25.3333 20.6889 25.6896 22.0875 26.4021C23.4861 27.1146 24.5021 28.3417 25.1354 30.0833H28.5V20.5833H31.6667C31.8778 20.5833 32.0625 20.5042 32.2208 20.3458C32.3792 20.1875 32.4583 20.0028 32.4583 19.7917C32.4583 19.5806 32.3792 19.3958 32.2208 19.2375C32.0625 19.0792 31.8778 19 31.6667 19H28.5V9.5H19V6.33333C19 6.12222 18.9208 5.9375 18.7625 5.77917C18.6042 5.62083 18.4194 5.54167 18.2083 5.54167C17.9972 5.54167 17.8125 5.62083 17.6542 5.77917C17.4958 5.9375 17.4167 6.12222 17.4167 6.33333V9.5H7.91667V12.9833C9.34167 13.5111 10.4896 14.3951 11.3604 15.6354C12.2313 16.8757 12.6667 18.2611 12.6667 19.7917C12.6667 21.2958 12.2313 22.6681 11.3604 23.9083C10.4896 25.1486 9.34167 26.0458 7.91667 26.6V30.0833Z" fill="#D4B588"/>
</g>
</svg>
