<svg width="38" height="38" viewBox="0 0 38 38" fill="none" xmlns="http://www.w3.org/2000/svg">
<mask id="mask0_2826_15688" style="mask-type:alpha" maskUnits="userSpaceOnUse" x="0" y="0" width="38" height="38">
<rect width="38" height="38" fill="#D9D9D9"/>
</mask>
<g mask="url(#mask0_2826_15688)">
<path d="M6.729 28.975C5.72623 27.7875 4.92136 26.4813 4.31442 25.0563C3.70748 23.6313 3.32484 22.1403 3.1665 20.5833H6.41234C6.57067 21.7181 6.86095 22.8066 7.28317 23.849C7.70539 24.8913 8.25956 25.8611 8.94567 26.7584L6.729 28.975ZM3.1665 17.4167C3.37762 15.8597 3.77345 14.3688 4.354 12.9438C4.93456 11.5188 5.72623 10.2125 6.729 9.02502L8.94567 11.2417C8.25956 12.1389 7.70539 13.1087 7.28317 14.1511C6.86095 15.1934 6.57067 16.282 6.41234 17.4167H3.1665ZM17.3373 34.7542C15.7804 34.5958 14.296 34.2198 12.8842 33.6261C11.4724 33.0323 10.1596 32.2472 8.94567 31.2709L11.1623 28.975C12.0859 29.6611 13.0623 30.2285 14.0915 30.6771C15.1207 31.1257 16.2026 31.4292 17.3373 31.5875V34.7542ZM11.2415 9.02502L8.94567 6.72918C10.1859 5.75279 11.5186 4.96772 12.9436 4.37397C14.3686 3.78022 15.8596 3.40418 17.4165 3.24585V6.41252C16.2818 6.57085 15.1932 6.87432 14.1509 7.32293C13.1085 7.77154 12.1387 8.33891 11.2415 9.02502ZM18.9998 23.75C17.6804 23.75 16.5589 23.2882 15.6353 22.3646C14.7116 21.441 14.2498 20.3195 14.2498 19C14.2498 17.6806 14.7116 16.559 15.6353 15.6354C16.5589 14.7118 17.6804 14.25 18.9998 14.25C20.3193 14.25 21.4408 14.7118 22.3644 15.6354C23.288 16.559 23.7498 17.6806 23.7498 19C23.7498 20.3195 23.288 21.441 22.3644 22.3646C21.4408 23.2882 20.3193 23.75 18.9998 23.75ZM20.504 34.7542V31.5875C21.6651 31.4292 22.7669 31.1323 23.8092 30.6969C24.8516 30.2615 25.8346 29.6875 26.7582 28.975L29.054 31.2709C27.8137 32.2736 26.4745 33.0653 25.0363 33.6459C23.5981 34.2264 22.0873 34.5958 20.504 34.7542ZM26.8373 9.02502C25.9137 8.33891 24.9241 7.77154 23.8686 7.32293C22.813 6.87432 21.7179 6.57085 20.5832 6.41252V3.24585C22.1401 3.40418 23.6377 3.78022 25.0759 4.37397C26.5141 4.96772 27.8401 5.75279 29.054 6.72918L26.8373 9.02502ZM31.2707 28.975L29.054 26.7584C29.7401 25.8611 30.2943 24.8913 30.7165 23.849C31.1387 22.8066 31.429 21.7181 31.5873 20.5833H34.8332C34.6221 22.1403 34.2262 23.6313 33.6457 25.0563C33.0651 26.4813 32.2734 27.7875 31.2707 28.975ZM31.5873 17.4167C31.429 16.282 31.1387 15.1934 30.7165 14.1511C30.2943 13.1087 29.7401 12.1389 29.054 11.2417L31.2707 9.02502C32.2734 10.2125 33.0783 11.5188 33.6853 12.9438C34.2922 14.3688 34.6748 15.8597 34.8332 17.4167H31.5873Z" fill="#D4B588"/>
</g>
</svg>
