<svg width="38" height="38" viewBox="0 0 38 38" fill="none" xmlns="http://www.w3.org/2000/svg">
<mask id="mask0_2826_15706" style="mask-type:alpha" maskUnits="userSpaceOnUse" x="0" y="0" width="38" height="38">
<rect width="38" height="38" fill="#D9D9D9"/>
</mask>
<g mask="url(#mask0_2826_15706)">
<path d="M12.6668 31.6667H25.3335V26.9167C25.3335 25.1751 24.7134 23.6841 23.4731 22.4438C22.2328 21.2036 20.7418 20.5834 19.0002 20.5834C17.2585 20.5834 15.7675 21.2036 14.5272 22.4438C13.287 23.6841 12.6668 25.1751 12.6668 26.9167V31.6667ZM19.0002 17.4167C20.7418 17.4167 22.2328 16.7966 23.4731 15.5563C24.7134 14.3161 25.3335 12.8251 25.3335 11.0834V6.33341H12.6668V11.0834C12.6668 12.8251 13.287 14.3161 14.5272 15.5563C15.7675 16.7966 17.2585 17.4167 19.0002 17.4167ZM6.3335 34.8334V31.6667H9.50016V26.9167C9.50016 25.307 9.8762 23.7963 10.6283 22.3845C11.3804 20.9726 12.4293 19.8445 13.7752 19.0001C12.4293 18.1556 11.3804 17.0275 10.6283 15.6157C9.8762 14.2039 9.50016 12.6931 9.50016 11.0834V6.33341H6.3335V3.16675H31.6668V6.33341H28.5002V11.0834C28.5002 12.6931 28.1241 14.2039 27.372 15.6157C26.62 17.0275 25.571 18.1556 24.2252 19.0001C25.571 19.8445 26.62 20.9726 27.372 22.3845C28.1241 23.7963 28.5002 25.307 28.5002 26.9167V31.6667H31.6668V34.8334H6.3335Z" fill="#D4B588"/>
</g>
</svg>
