<svg width="38" height="38" viewBox="0 0 38 38" fill="none" xmlns="http://www.w3.org/2000/svg">
<mask id="mask0_723_2327" style="mask-type:alpha" maskUnits="userSpaceOnUse" x="0" y="0" width="38" height="38">
<rect width="38" height="38" fill="#D9D9D9"/>
</mask>
<g mask="url(#mask0_723_2327)">
<path d="M13.3 33.25C10.8986 33.25 8.87326 32.4253 7.22396 30.776C5.57465 29.1267 4.75 27.1014 4.75 24.7C4.75 23.6972 4.92153 22.7208 5.26458 21.7708C5.60764 20.8208 6.09583 19.9632 6.72917 19.1979L12.35 12.4292L8.51042 4.75H29.4896L25.65 12.4292L31.2708 19.1979C31.9042 19.9632 32.3924 20.8208 32.7354 21.7708C33.0785 22.7208 33.25 23.6972 33.25 24.7C33.25 27.1014 32.4188 29.1267 30.7563 30.776C29.0938 32.4253 27.075 33.25 24.7 33.25H13.3ZM19 25.3333C18.1292 25.3333 17.3837 25.0233 16.7635 24.4031C16.1434 23.783 15.8333 23.0375 15.8333 22.1667C15.8333 21.2958 16.1434 20.5503 16.7635 19.9302C17.3837 19.3101 18.1292 19 19 19C19.8708 19 20.6163 19.3101 21.2365 19.9302C21.8566 20.5503 22.1667 21.2958 22.1667 22.1667C22.1667 23.0375 21.8566 23.783 21.2365 24.4031C20.6163 25.0233 19.8708 25.3333 19 25.3333ZM15.2396 11.0833H22.7604L24.3438 7.91667H13.6563L15.2396 11.0833ZM13.3 30.0833H24.7C26.2042 30.0833 27.4774 29.5622 28.5198 28.5198C29.5622 27.4774 30.0833 26.2042 30.0833 24.7C30.0833 24.0667 29.9712 23.4531 29.7469 22.8594C29.5226 22.2656 29.2125 21.7313 28.8167 21.2563L22.9979 14.25H15.0417L9.18333 21.2167C8.7875 21.6917 8.47743 22.2326 8.25313 22.8396C8.02882 23.4465 7.91667 24.0667 7.91667 24.7C7.91667 26.2042 8.43785 27.4774 9.48021 28.5198C10.5226 29.5622 11.7958 30.0833 13.3 30.0833Z" fill="#D4B588"/>
</g>
</svg>
