<svg width="90" height="45" viewBox="0 0 90 45" fill="none" xmlns="http://www.w3.org/2000/svg">
<path d="M41.9883 36.1557L44.7299 9.20117H52.419C53.5325 9.20117 54.5094 9.26079 55.3496 9.38C56.2005 9.49921 56.9936 9.7214 57.729 10.0465C58.4747 10.3608 59.0681 10.7835 59.5093 11.3146C59.9505 11.8348 60.2762 12.5176 60.4862 13.363C60.6122 13.9049 60.6805 14.501 60.6911 15.1513C60.6911 15.5198 60.67 15.91 60.6281 16.3218C60.46 18.0559 60.0503 19.4757 59.3991 20.5812C58.7583 21.6867 57.7655 22.5755 56.4211 23.2474L59.1311 36.1557H52.7971L50.8748 24.2228H49.5042L48.2908 36.1557H41.9883ZM49.8664 20.63H51.4895C52.5609 20.63 53.3381 20.3157 53.8214 19.6871C54.315 19.0585 54.6195 18.1643 54.7353 17.0046C54.7668 16.7012 54.7824 16.4194 54.7824 16.1593C54.7824 15.4223 54.6616 14.837 54.4201 14.4035C54.0944 13.7966 53.4695 13.4931 52.545 13.4931H50.5912L49.8664 20.63ZM59.716 36.1557L62.4576 9.20117H74.6058L74.1647 13.5744H68.3033L67.6887 19.6871H72.069L71.6119 24.1903H67.2319L66.4597 31.8148H72.3841L71.927 36.1557H59.716ZM75.7421 36.1557L74.0404 9.20117H79.3345L79.9963 27.0841L84.1085 9.20117H89.7967L82.5329 36.1557H75.7421Z" fill="white"/>
<mask id="mask0_4389_19553" style="mask-type:alpha" maskUnits="userSpaceOnUse" x="0" y="4" width="47" height="37">
<path d="M46.8908 4.42188H0V40.3178H46.8908V4.42188Z" fill="#D9D9D9"/>
</mask>
<g mask="url(#mask0_4389_19553)">
<path d="M12.9824 36.0919H7.12109V33.1006H12.9824V36.0919ZM22.7513 36.0919H16.89V33.1006H22.7513V36.0919ZM32.5203 36.0919H26.6589V33.1006H32.5203V36.0919ZM38.8399 36.0919H36.4278V33.1006H39.1535L38.8399 36.0919ZM42.2892 36.0919H41.9912L42.2892 33.2512V36.0919ZM22.7513 30.1092H7.12109V27.1179H22.7513V30.1092ZM39.4676 30.1092H26.6589V27.1179H39.7813L39.4676 30.1092ZM40.0951 24.1266H7.12109V21.1352H40.4087L40.0951 24.1266ZM22.7513 18.1439H7.12109V15.1526H22.7513V18.1439ZM40.7226 18.1439H26.6589V15.1526H41.0362L40.7226 18.1439ZM12.9824 12.1613H7.12109V9.16992H12.9824V12.1613ZM22.7513 12.1613H16.89V9.16992H22.7513V12.1613ZM32.5203 12.1613H26.6589V9.16992H32.5203V12.1613ZM41.3498 12.1613H36.4278V9.16992H41.664L41.3498 12.1613Z" fill="white"/>
</g>
</svg>
