<svg width="22" height="22" viewBox="0 0 22 22" fill="none" xmlns="http://www.w3.org/2000/svg">
<path d="M18.7522 21.6667L15.5351 18.4772L13.1155 20.8968L12.3456 20.1269C11.924 19.7053 11.7132 19.1829 11.7132 18.5597C11.7132 17.9364 11.924 17.414 12.3456 16.9924L16.9924 12.3456C17.414 11.924 17.9364 11.7132 18.5597 11.7132C19.1829 11.7132 19.7053 11.924 20.1269 12.3456L20.8968 13.1155L18.4772 15.5351L21.6667 18.7522C21.8867 18.9721 21.9967 19.2288 21.9967 19.522C21.9967 19.8153 21.8867 20.072 21.6667 20.2919L20.2919 21.6667C20.072 21.8867 19.8153 21.9967 19.522 21.9967C19.2288 21.9967 18.9721 21.8867 18.7522 21.6667ZM21.9967 4.39933L9.51356 16.8824L9.65104 16.9924C10.0726 17.414 10.2834 17.9364 10.2834 18.5597C10.2834 19.1829 10.0726 19.7053 9.65104 20.1269L8.88115 20.8968L6.46152 18.4772L3.24451 21.6667C3.02454 21.8867 2.76791 21.9967 2.47462 21.9967C2.18134 21.9967 1.92471 21.8867 1.70474 21.6667L0.32995 20.2919C0.109983 20.072 0 19.8153 0 19.522C0 19.2288 0.109983 18.9721 0.32995 18.7522L3.51947 15.5351L1.09983 13.1155L1.86972 12.3456C2.29132 11.924 2.81374 11.7132 3.43698 11.7132C4.06022 11.7132 4.58264 11.924 5.00424 12.3456L5.11422 12.4831L17.5973 0H21.9967V4.39933ZM5.44417 9.84351L0 4.39933V0H4.39933L9.84351 5.44417L8.27625 6.98394L3.49197 2.19967H2.19967V3.49197L6.98394 8.27625L5.44417 9.84351ZM7.97379 15.3152L19.797 3.49197V2.19967H18.5047L6.68149 14.0229L7.97379 15.3152Z" fill="#D4B588"/>
</svg>
