<svg width="20" height="20" viewBox="0 0 20 20" fill="none" xmlns="http://www.w3.org/2000/svg">
<g clip-path="url(#clip0_5456_22587)">
<circle cx="10" cy="10" r="9.25" stroke="white" stroke-width="1.5" stroke-dasharray="2 2"/>
<mask id="mask0_5456_22587" style="mask-type:alpha" maskUnits="userSpaceOnUse" x="2" y="2" width="16" height="16">
<rect x="2" y="2" width="16" height="16" fill="#D9D9D9"/>
</mask>
<g mask="url(#mask0_5456_22587)">
<path d="M5.89967 13.606C6.46634 13.1457 7.09967 12.7828 7.79967 12.5173C8.49967 12.2518 9.23301 12.119 9.99967 12.119C10.7663 12.119 11.4997 12.2518 12.1997 12.5173C12.8997 12.7828 13.533 13.1457 14.0997 13.606C14.4886 13.1221 14.7913 12.5734 15.008 11.9597C15.2247 11.346 15.333 10.6911 15.333 9.9948C15.333 8.42524 14.8136 7.08875 13.7747 5.98533C12.7358 4.88192 11.4775 4.33021 9.99967 4.33021C8.5219 4.33021 7.26356 4.88192 6.22467 5.98533C5.18579 7.08875 4.66634 8.42524 4.66634 9.9948C4.66634 10.6911 4.77467 11.346 4.99134 11.9597C5.20801 12.5734 5.51079 13.1221 5.89967 13.606ZM9.99967 10.7029C9.34412 10.7029 8.79134 10.4639 8.34134 9.98595C7.89134 9.508 7.66634 8.92089 7.66634 8.22462C7.66634 7.52834 7.89134 6.94123 8.34134 6.46328C8.79134 5.98533 9.34412 5.74636 9.99967 5.74636C10.6552 5.74636 11.208 5.98533 11.658 6.46328C12.108 6.94123 12.333 7.52834 12.333 8.22462C12.333 8.92089 12.108 9.508 11.658 9.98595C11.208 10.4639 10.6552 10.7029 9.99967 10.7029ZM9.99967 17.0755C9.07745 17.0755 8.21079 16.8897 7.39967 16.5179C6.58856 16.1462 5.88301 15.6417 5.28301 15.0044C4.68301 14.3672 4.20801 13.6178 3.85801 12.7563C3.50801 11.8948 3.33301 10.9743 3.33301 9.9948C3.33301 9.0153 3.50801 8.0948 3.85801 7.23331C4.20801 6.37182 4.68301 5.62245 5.28301 4.98518C5.88301 4.34791 6.58856 3.84341 7.39967 3.47167C8.21079 3.09993 9.07745 2.91406 9.99967 2.91406C10.9219 2.91406 11.7886 3.09993 12.5997 3.47167C13.4108 3.84341 14.1163 4.34791 14.7163 4.98518C15.3163 5.62245 15.7913 6.37182 16.1413 7.23331C16.4913 8.0948 16.6663 9.0153 16.6663 9.9948C16.6663 10.9743 16.4913 11.8948 16.1413 12.7563C15.7913 13.6178 15.3163 14.3672 14.7163 15.0044C14.1163 15.6417 13.4108 16.1462 12.5997 16.5179C11.7886 16.8897 10.9219 17.0755 9.99967 17.0755ZM9.99967 15.6594C10.5886 15.6594 11.1441 15.5679 11.6663 15.385C12.1886 15.2021 12.6663 14.9395 13.0997 14.5973C12.6663 14.255 12.1886 13.9925 11.6663 13.8096C11.1441 13.6266 10.5886 13.5352 9.99967 13.5352C9.41079 13.5352 8.85523 13.6266 8.33301 13.8096C7.81079 13.9925 7.33301 14.255 6.89967 14.5973C7.33301 14.9395 7.81079 15.2021 8.33301 15.385C8.85523 15.5679 9.41079 15.6594 9.99967 15.6594ZM9.99967 9.28673C10.2886 9.28673 10.5275 9.18642 10.7163 8.9858C10.9052 8.78518 10.9997 8.53145 10.9997 8.22462C10.9997 7.91779 10.9052 7.66406 10.7163 7.46344C10.5275 7.26282 10.2886 7.16251 9.99967 7.16251C9.71079 7.16251 9.4719 7.26282 9.28301 7.46344C9.09412 7.66406 8.99967 7.91779 8.99967 8.22462C8.99967 8.53145 9.09412 8.78518 9.28301 8.9858C9.4719 9.18642 9.71079 9.28673 9.99967 9.28673Z" fill="#EFEFEF"/>
</g>
</g>
<defs>
<clipPath id="clip0_5456_22587">
<rect width="20" height="20" fill="white"/>
</clipPath>
</defs>
</svg>
