<svg width="38" height="38" viewBox="0 0 38 38" fill="none" xmlns="http://www.w3.org/2000/svg">
<mask id="mask0_2611_17771" style="mask-type:alpha" maskUnits="userSpaceOnUse" x="0" y="0" width="38" height="38">
<rect width="38" height="38" fill="#D9D9D9"/>
</mask>
<g mask="url(#mask0_2611_17771)">
<path d="M11.0835 30.0834V26.9167H22.3252C23.9877 26.9167 25.4325 26.3889 26.6595 25.3334C27.8866 24.2778 28.5002 22.9584 28.5002 21.375C28.5002 19.7917 27.8866 18.4723 26.6595 17.4167C25.4325 16.3612 23.9877 15.8334 22.3252 15.8334H12.3502L16.4668 19.95L14.2502 22.1667L6.3335 14.25L14.2502 6.33337L16.4668 8.55004L12.3502 12.6667H22.3252C24.8849 12.6667 27.0818 13.498 28.9158 15.1605C30.7498 16.823 31.6668 18.8945 31.6668 21.375C31.6668 23.8556 30.7498 25.9271 28.9158 27.5896C27.0818 29.2521 24.8849 30.0834 22.3252 30.0834H11.0835Z" fill="#D4B588"/>
</g>
</svg>
