<svg width="38" height="38" viewBox="0 0 38 38" fill="none" xmlns="http://www.w3.org/2000/svg">
<mask id="mask0_2611_17776" style="mask-type:alpha" maskUnits="userSpaceOnUse" x="0" y="0" width="38" height="38">
<rect width="38" height="38" fill="#D9D9D9"/>
</mask>
<g mask="url(#mask0_2611_17776)">
<path d="M18.9998 34.8333C16.8096 34.8333 14.7512 34.4177 12.8248 33.5864C10.8984 32.7552 9.22275 31.627 7.79775 30.202C6.37275 28.777 5.24463 27.1013 4.41338 25.175C3.58213 23.2486 3.1665 21.1902 3.1665 19C3.1665 16.8097 3.58213 14.7513 4.41338 12.825C5.24463 10.8986 6.37275 9.22288 7.79775 7.79788C9.22275 6.37288 10.8984 5.24475 12.8248 4.4135C14.7512 3.58225 16.8096 3.16663 18.9998 3.16663C21.1901 3.16663 23.2484 3.58225 25.1748 4.4135C27.1012 5.24475 28.7769 6.37288 30.2019 7.79788C31.6269 9.22288 32.755 10.8986 33.5863 12.825C34.4175 14.7513 34.8332 16.8097 34.8332 19C34.8332 21.1902 34.4175 23.2486 33.5863 25.175C32.755 27.1013 31.6269 28.777 30.2019 30.202C28.7769 31.627 27.1012 32.7552 25.1748 33.5864C23.2484 34.4177 21.1901 34.8333 18.9998 34.8333ZM17.4165 31.5875V28.5C16.5457 28.5 15.8002 28.1899 15.18 27.5697C14.5599 26.9496 14.2498 26.2041 14.2498 25.3333V23.75L6.64984 16.15C6.57067 16.625 6.4981 17.1 6.43213 17.575C6.36616 18.05 6.33317 18.525 6.33317 19C6.33317 22.193 7.38213 24.9902 9.48005 27.3916C11.578 29.793 14.2234 31.1916 17.4165 31.5875ZM28.3415 27.55C29.4234 26.3625 30.2481 25.0364 30.8155 23.5718C31.3828 22.1073 31.6665 20.5833 31.6665 19C31.6665 16.4138 30.9474 14.052 29.5092 11.9145C28.071 9.77704 26.1512 8.23329 23.7498 7.28329V7.91663C23.7498 8.78746 23.4398 9.53295 22.8196 10.1531C22.1995 10.7732 21.454 11.0833 20.5832 11.0833H17.4165V14.25C17.4165 14.6986 17.2648 15.0746 16.9613 15.3781C16.6578 15.6816 16.2818 15.8333 15.8332 15.8333H12.6665V19H22.1665C22.6151 19 22.9912 19.1517 23.2946 19.4552C23.5981 19.7586 23.7498 20.1347 23.7498 20.5833V25.3333H25.3332C26.0193 25.3333 26.6394 25.5378 27.1936 25.9468C27.7478 26.3559 28.1304 26.8902 28.3415 27.55Z" fill="#D4B588"/>
</g>
</svg>
