<svg width="63" height="27" viewBox="0 0 63 27" fill="none" xmlns="http://www.w3.org/2000/svg">
<path fill-rule="evenodd" clip-rule="evenodd" d="M8.31772 4.83239C9.48611 4.93152 10.6545 4.23764 11.3847 3.35789C12.1028 2.45337 12.5775 1.23908 12.4558 0C11.4213 0.049563 10.1433 0.693882 9.41308 1.59841C8.7437 2.37902 8.17167 3.64288 8.31772 4.83239ZM22.2167 20.7917V1.47449H29.3365C33.0121 1.47449 35.5801 4.05177 35.5801 7.81855C35.5801 11.5853 32.9634 14.1874 29.2392 14.1874H25.162V20.7917H22.2167ZM12.4435 5.06781C11.4142 5.0075 10.4749 5.38296 9.71631 5.68624C9.22812 5.88141 8.8147 6.04668 8.50018 6.04668C8.14723 6.04668 7.71675 5.87257 7.23341 5.67709C6.60009 5.42094 5.87603 5.1281 5.11673 5.14215C3.37632 5.16693 1.75761 6.17058 0.869152 7.76899C-0.956454 10.9658 0.394494 15.6991 2.15925 18.3011C3.02337 19.5898 4.05788 21.0023 5.42099 20.9527C6.02068 20.9297 6.45207 20.7433 6.89851 20.5505C7.41248 20.3284 7.94641 20.0978 8.78011 20.0978C9.5849 20.0978 10.0955 20.3224 10.5856 20.5381C11.0516 20.7431 11.4992 20.94 12.1636 20.928C13.5754 20.9032 14.4638 19.6393 15.3279 18.3507C16.2605 16.9676 16.6703 15.6178 16.7325 15.413L16.7397 15.3893C16.7383 15.3878 16.7267 15.3824 16.7064 15.3729C16.3947 15.2276 14.012 14.1171 13.9892 11.1393C13.9662 8.63978 15.879 7.37338 16.1801 7.17403C16.1985 7.1619 16.2108 7.15372 16.2164 7.14945C14.9993 5.31562 13.1007 5.11737 12.4435 5.06781ZM40.9597 20.9404C42.8096 20.9404 44.5257 19.9863 45.3046 18.4746H45.3655V20.7917H48.0917V11.1765C48.0917 8.38854 45.901 6.59188 42.5297 6.59188C39.4018 6.59188 37.0894 8.41332 37.0042 10.9162H39.6574C39.8765 9.72674 40.9597 8.94612 42.4445 8.94612C44.2458 8.94612 45.2559 9.80108 45.2559 11.3747V12.4403L41.5804 12.6633C38.1604 12.874 36.3105 14.2989 36.3105 16.7771C36.3105 19.28 38.2213 20.9404 40.9597 20.9404ZM41.7506 18.6481C40.1806 18.6481 39.1826 17.8799 39.1826 16.7027C39.1826 15.4884 40.1441 14.7822 41.9818 14.6707L45.2557 14.46V15.5504C45.2557 17.3594 43.7466 18.6481 41.7506 18.6481ZM57.1344 21.5475C55.9539 24.9302 54.6029 26.0454 51.7306 26.0454C51.5116 26.0454 50.7813 26.0206 50.6109 25.971V23.6539C50.7935 23.6787 51.2438 23.7035 51.4751 23.7035C52.7773 23.7035 53.5076 23.1459 53.9579 21.6962L54.2256 20.8412L49.2356 6.77775H52.3148L55.7835 18.1896H55.8443L59.313 6.77775H62.307L57.1344 21.5475ZM25.1617 4.00221H28.5573C31.1132 4.00221 32.5737 5.38997 32.5737 7.83095C32.5737 10.2719 31.1132 11.6721 28.5452 11.6721H25.1617V4.00221Z" fill="white"/>
</svg>
