<svg width="22" height="22" viewBox="0 0 22 22" fill="none" xmlns="http://www.w3.org/2000/svg">
<path d="M10.9983 21.9967C9.4769 21.9967 8.04711 21.708 6.70898 21.1305C5.37085 20.5531 4.20686 19.7695 3.21701 18.7797C2.22716 17.7898 1.44353 16.6258 0.866119 15.2877C0.288706 13.9496 0 12.5198 0 10.9983C0 9.4769 0.288706 8.04711 0.866119 6.70898C1.44353 5.37085 2.22716 4.20686 3.21701 3.21701C4.20686 2.22716 5.37085 1.44353 6.70898 0.866119C8.04711 0.288706 9.4769 0 10.9983 0C12.1898 0 13.3171 0.17414 14.3803 0.522421C15.4435 0.870701 16.4242 1.35646 17.3224 1.9797L15.7276 3.60195C15.0311 3.16202 14.2887 2.81832 13.5005 2.57086C12.7122 2.3234 11.8782 2.19967 10.9983 2.19967C8.56037 2.19967 6.48443 3.05662 4.77053 4.77053C3.05662 6.48443 2.19967 8.56037 2.19967 10.9983C2.19967 13.4363 3.05662 15.5122 4.77053 17.2261C6.48443 18.94 8.56037 19.797 10.9983 19.797C13.4363 19.797 15.5122 18.94 17.2261 17.2261C18.94 15.5122 19.797 13.4363 19.797 10.9983C19.797 10.6684 19.7787 10.3384 19.742 10.0085C19.7053 9.67853 19.6504 9.35775 19.577 9.04613L21.3643 7.2589C21.5659 7.84548 21.7217 8.45039 21.8317 9.07362C21.9417 9.69686 21.9967 10.3384 21.9967 10.9983C21.9967 12.5198 21.708 13.9496 21.1305 15.2877C20.5531 16.6258 19.7695 17.7898 18.7797 18.7797C17.7898 19.7695 16.6258 20.5531 15.2877 21.1305C13.9496 21.708 12.5198 21.9967 10.9983 21.9967ZM9.45857 16.0576L4.78427 11.3833L6.32404 9.84351L9.45857 12.978L20.4569 1.9522L21.9967 3.49197L9.45857 16.0576Z" fill="#D4B485"/>
</svg>
