<svg width="51" height="51" viewBox="0 0 51 51" fill="none" xmlns="http://www.w3.org/2000/svg">
<mask id="mask0_5335_13974" style="mask-type:alpha" maskUnits="userSpaceOnUse" x="0" y="0" width="51" height="51">
<rect width="51" height="51" fill="#D9D9D9"/>
</mask>
<g mask="url(#mask0_5335_13974)">
<path d="M9.03125 38.8877C7.68542 37.2939 6.60521 35.5408 5.79062 33.6283C4.97604 31.7158 4.4625 29.7148 4.25 27.6252H8.60625C8.81875 29.1481 9.20833 30.609 9.775 32.008C10.3417 33.407 11.0854 34.7085 12.0062 35.9127L9.03125 38.8877ZM4.25 23.3752C4.53333 21.2856 5.06458 19.2846 5.84375 17.3721C6.62292 15.4596 7.68542 13.7064 9.03125 12.1127L12.0062 15.0877C11.0854 16.2919 10.3417 17.5934 9.775 18.9924C9.20833 20.3913 8.81875 21.8523 8.60625 23.3752H4.25ZM23.2687 46.6439C21.1792 46.4314 19.187 45.9268 17.2922 45.1299C15.3974 44.333 13.6354 43.2794 12.0062 41.9689L14.9812 38.8877C16.2208 39.8085 17.5312 40.57 18.9125 41.1721C20.2937 41.7742 21.7458 42.1814 23.2687 42.3939V46.6439ZM15.0875 12.1127L12.0062 9.03145C13.6708 7.72103 15.4594 6.66738 17.3719 5.87051C19.2844 5.07363 21.2854 4.56895 23.375 4.35645V8.60645C21.8521 8.81895 20.3911 9.22624 18.9922 9.82832C17.5932 10.4304 16.2917 11.1919 15.0875 12.1127ZM25.5 31.8752C23.7292 31.8752 22.224 31.2554 20.9844 30.0158C19.7448 28.7762 19.125 27.271 19.125 25.5002C19.125 23.7294 19.7448 22.2242 20.9844 20.9846C22.224 19.745 23.7292 19.1252 25.5 19.1252C27.2708 19.1252 28.776 19.745 30.0156 20.9846C31.2552 22.2242 31.875 23.7294 31.875 25.5002C31.875 27.271 31.2552 28.7762 30.0156 30.0158C28.776 31.2554 27.2708 31.8752 25.5 31.8752ZM27.5187 46.6439V42.3939C29.0771 42.1814 30.5557 41.783 31.9547 41.1986C33.3536 40.6143 34.6729 39.8439 35.9125 38.8877L38.9937 41.9689C37.3292 43.3148 35.5318 44.3773 33.6016 45.1564C31.6714 45.9356 29.6437 46.4314 27.5187 46.6439ZM36.0187 12.1127C34.7792 11.1919 33.451 10.4304 32.0344 9.82832C30.6177 9.22624 29.1479 8.81895 27.625 8.60645V4.35645C29.7146 4.56895 31.7245 5.07363 33.6547 5.87051C35.5849 6.66738 37.3646 7.72103 38.9937 9.03145L36.0187 12.1127ZM41.9687 38.8877L38.9937 35.9127C39.9146 34.7085 40.6583 33.407 41.225 32.008C41.7917 30.609 42.1812 29.1481 42.3937 27.6252H46.75C46.4667 29.7148 45.9354 31.7158 45.1562 33.6283C44.3771 35.5408 43.3146 37.2939 41.9687 38.8877ZM42.3937 23.3752C42.1812 21.8523 41.7917 20.3913 41.225 18.9924C40.6583 17.5934 39.9146 16.2919 38.9937 15.0877L41.9687 12.1127C43.3146 13.7064 44.3948 15.4596 45.2094 17.3721C46.024 19.2846 46.5375 21.2856 46.75 23.3752H42.3937Z" fill="#D4B588"/>
</g>
</svg>
