<svg width="51" height="55" viewBox="0 0 51 55" fill="none" xmlns="http://www.w3.org/2000/svg">
<g filter="url(#filter0_d_5779_18152)">
<mask id="mask0_5779_18152" style="mask-type:alpha" maskUnits="userSpaceOnUse" x="0" y="0" width="52" height="51">
<rect x="0.000976562" width="51" height="51" fill="#D9D9D9"/>
</mask>
<g mask="url(#mask0_5779_18152)">
<path d="M25.5015 46.7502C22.5619 46.7502 19.7994 46.1924 17.214 45.0768C14.6285 43.9611 12.3796 42.4382 10.4671 40.508C8.55459 38.5778 7.04053 36.32 5.9249 33.7346C4.80928 31.1492 4.25146 28.4044 4.25146 25.5002C4.25146 19.9398 6.09313 15.1585 9.77647 11.1564C13.4598 7.15436 17.9931 4.8877 23.3765 4.35645V10.7314C19.7285 11.2273 16.6916 12.8653 14.2655 15.6455C11.8395 18.4257 10.6265 21.7106 10.6265 25.5002C10.6265 29.6085 12.0785 33.1148 14.9827 36.0189C17.8869 38.9231 21.3931 40.3752 25.5015 40.3752C27.839 40.3752 30.0259 39.8794 32.0624 38.8877C34.0989 37.896 35.8077 36.5502 37.189 34.8502L42.714 38.0377C40.8015 40.6939 38.34 42.8101 35.3296 44.3861C32.3192 45.9622 29.0431 46.7502 25.5015 46.7502ZM44.9452 34.1064L39.4202 30.9189C39.739 30.0689 39.978 29.1924 40.1374 28.2893C40.2968 27.3861 40.3765 26.4564 40.3765 25.5002C40.3765 21.7106 39.1634 18.4257 36.7374 15.6455C34.3114 12.8653 31.2744 11.2273 27.6265 10.7314V4.35645C33.0098 4.8877 37.5431 7.15436 41.2265 11.1564C44.9098 15.1585 46.7515 19.9398 46.7515 25.5002C46.7515 27.0585 46.6098 28.5637 46.3265 30.0158C46.0431 31.4679 45.5827 32.8314 44.9452 34.1064Z" fill="#D4B588"/>
</g>
</g>
<g filter="url(#filter1_d_5779_18152)">
<mask id="mask1_5779_18152" style="mask-type:alpha" maskUnits="userSpaceOnUse" x="0" y="0" width="51" height="51">
<rect y="51" width="51" height="51" transform="rotate(-90 0 51)" fill="#D9D9D9"/>
</mask>
<g mask="url(#mask1_5779_18152)">
<path d="M46.7501 25.5C46.7501 28.4396 46.1923 31.2021 45.0766 33.7875C43.961 36.3729 42.4381 38.6219 40.5079 40.5344C38.5777 42.4469 36.3199 43.9609 33.7344 45.0766C31.149 46.1922 28.4042 46.75 25.5001 46.75C19.9397 46.75 15.1584 44.9083 11.1563 41.225C7.15424 37.5417 4.88757 33.0083 4.35632 27.625H10.7313C11.2272 31.2729 12.8652 34.3099 15.6454 36.7359C18.4256 39.162 21.7105 40.375 25.5001 40.375C29.6084 40.375 33.1147 38.9229 36.0188 36.0187C38.923 33.1146 40.3751 29.6083 40.3751 25.5C40.3751 23.1625 39.8792 20.9755 38.8876 18.9391C37.8959 16.9026 36.5501 15.1938 34.8501 13.8125L38.0376 8.2875C40.6938 10.2 42.81 12.6615 44.386 15.6719C45.9621 18.6823 46.7501 21.9583 46.7501 25.5ZM34.1063 6.05625L30.9188 11.5812C30.0688 11.2625 29.1923 11.0234 28.2891 10.8641C27.386 10.7047 26.4563 10.625 25.5001 10.625C21.7105 10.625 18.4256 11.838 15.6454 14.2641C12.8652 16.6901 11.2272 19.7271 10.7313 23.375H4.35632C4.88757 17.9917 7.15424 13.4583 11.1563 9.775C15.1584 6.09167 19.9397 4.25 25.5001 4.25C27.0584 4.25 28.5636 4.39166 30.0157 4.675C31.4678 4.95833 32.8313 5.41875 34.1063 6.05625Z" fill="#D4B588"/>
</g>
</g>
<mask id="mask2_5779_18152" style="mask-type:alpha" maskUnits="userSpaceOnUse" x="0" y="0" width="52" height="51">
<rect x="0.000976562" width="51" height="51" fill="#D9D9D9"/>
</mask>
<g mask="url(#mask2_5779_18152)">
<path d="M25.5015 46.7502C22.5619 46.7502 19.7994 46.1924 17.214 45.0768C14.6285 43.9611 12.3796 42.4382 10.4671 40.508C8.55459 38.5778 7.04053 36.32 5.9249 33.7346C4.80928 31.1492 4.25146 28.4044 4.25146 25.5002C4.25146 19.9398 6.09313 15.1585 9.77647 11.1564C13.4598 7.15436 17.9931 4.8877 23.3765 4.35645V10.7314C19.7285 11.2273 16.6916 12.8653 14.2655 15.6455C11.8395 18.4257 10.6265 21.7106 10.6265 25.5002C10.6265 29.6085 12.0785 33.1148 14.9827 36.0189C17.8869 38.9231 21.3931 40.3752 25.5015 40.3752C27.839 40.3752 30.0259 39.8794 32.0624 38.8877C34.0989 37.896 35.8077 36.5502 37.189 34.8502L42.714 38.0377C40.8015 40.6939 38.34 42.8101 35.3296 44.3861C32.3192 45.9622 29.0431 46.7502 25.5015 46.7502ZM44.9452 34.1064L39.4202 30.9189C39.739 30.0689 39.978 29.1924 40.1374 28.2893C40.2968 27.3861 40.3765 26.4564 40.3765 25.5002C40.3765 21.7106 39.1634 18.4257 36.7374 15.6455C34.3114 12.8653 31.2744 11.2273 27.6265 10.7314V4.35645C33.0098 4.8877 37.5431 7.15436 41.2265 11.1564C44.9098 15.1585 46.7515 19.9398 46.7515 25.5002C46.7515 27.0585 46.6098 28.5637 46.3265 30.0158C46.0431 31.4679 45.5827 32.8314 44.9452 34.1064Z" fill="#D4B588"/>
</g>
<mask id="mask3_5779_18152" style="mask-type:alpha" maskUnits="userSpaceOnUse" x="0" y="0" width="51" height="51">
<rect y="51" width="51" height="51" transform="rotate(-90 0 51)" fill="#D9D9D9"/>
</mask>
<g mask="url(#mask3_5779_18152)">
<path d="M46.7501 25.5C46.7501 28.4396 46.1923 31.2021 45.0766 33.7875C43.961 36.3729 42.4381 38.6219 40.5079 40.5344C38.5777 42.4469 36.3199 43.9609 33.7344 45.0766C31.149 46.1922 28.4042 46.75 25.5001 46.75C19.9397 46.75 15.1584 44.9083 11.1563 41.225C7.15424 37.5417 4.88757 33.0083 4.35632 27.625H10.7313C11.2272 31.2729 12.8652 34.3099 15.6454 36.7359C18.4256 39.162 21.7105 40.375 25.5001 40.375C29.6084 40.375 33.1147 38.9229 36.0188 36.0187C38.923 33.1146 40.3751 29.6083 40.3751 25.5C40.3751 23.1625 39.8792 20.9755 38.8876 18.9391C37.8959 16.9026 36.5501 15.1938 34.8501 13.8125L38.0376 8.2875C40.6938 10.2 42.81 12.6615 44.386 15.6719C45.9621 18.6823 46.7501 21.9583 46.7501 25.5ZM34.1063 6.05625L30.9188 11.5812C30.0688 11.2625 29.1923 11.0234 28.2891 10.8641C27.386 10.7047 26.4563 10.625 25.5001 10.625C21.7105 10.625 18.4256 11.838 15.6454 14.2641C12.8652 16.6901 11.2272 19.7271 10.7313 23.375H4.35632C4.88757 17.9917 7.15424 13.4583 11.1563 9.775C15.1584 6.09167 19.9397 4.25 25.5001 4.25C27.0584 4.25 28.5636 4.39166 30.0157 4.675C31.4678 4.95833 32.8313 5.41875 34.1063 6.05625Z" fill="#D4B588"/>
</g>
<defs>
<filter id="filter0_d_5779_18152" x="0.251465" y="4.35645" width="50.5" height="50.3936" filterUnits="userSpaceOnUse" color-interpolation-filters="sRGB">
<feFlood flood-opacity="0" result="BackgroundImageFix"/>
<feColorMatrix in="SourceAlpha" type="matrix" values="0 0 0 0 0 0 0 0 0 0 0 0 0 0 0 0 0 0 127 0" result="hardAlpha"/>
<feOffset dy="4"/>
<feGaussianBlur stdDeviation="2"/>
<feComposite in2="hardAlpha" operator="out"/>
<feColorMatrix type="matrix" values="0 0 0 0 0 0 0 0 0 0 0 0 0 0 0 0 0 0 0.25 0"/>
<feBlend mode="normal" in2="BackgroundImageFix" result="effect1_dropShadow_5779_18152"/>
<feBlend mode="normal" in="SourceGraphic" in2="effect1_dropShadow_5779_18152" result="shape"/>
</filter>
<filter id="filter1_d_5779_18152" x="0.356323" y="4.25" width="50.3938" height="50.5" filterUnits="userSpaceOnUse" color-interpolation-filters="sRGB">
<feFlood flood-opacity="0" result="BackgroundImageFix"/>
<feColorMatrix in="SourceAlpha" type="matrix" values="0 0 0 0 0 0 0 0 0 0 0 0 0 0 0 0 0 0 127 0" result="hardAlpha"/>
<feOffset dy="4"/>
<feGaussianBlur stdDeviation="2"/>
<feComposite in2="hardAlpha" operator="out"/>
<feColorMatrix type="matrix" values="0 0 0 0 0 0 0 0 0 0 0 0 0 0 0 0 0 0 0.25 0"/>
<feBlend mode="normal" in2="BackgroundImageFix" result="effect1_dropShadow_5779_18152"/>
<feBlend mode="normal" in="SourceGraphic" in2="effect1_dropShadow_5779_18152" result="shape"/>
</filter>
</defs>
</svg>
