<svg width="63" height="27" viewBox="0 0 63 27" fill="none" xmlns="http://www.w3.org/2000/svg">
<path d="M56.5645 16.8086H56.6084L60.2783 7.49805H62.8574L54.9287 26.165H52.4814L55.4297 19.6357L50.2266 7.49805H52.8057L56.5645 16.8086ZM44.1553 7.0752C45.9087 7.07524 47.2937 7.55878 48.3105 8.51074C49.3274 9.46291 49.829 10.7931 49.8291 12.4707V20.4668H47.5596V18.668H47.4561C46.4687 20.1491 45.1719 20.8896 43.5361 20.8896C42.1508 20.8896 40.9714 20.4665 40.043 19.6201C39.1294 18.8342 38.6141 17.6704 38.6436 16.4463C38.6436 15.1011 39.1445 14.0433 40.1318 13.2422C41.1192 12.4412 42.4453 12.0479 44.0957 12.0479C45.5105 12.0479 46.6605 12.3201 47.5742 12.834V12.2744C47.5742 11.4432 47.2204 10.6574 46.6016 10.1133C45.9679 9.53898 45.1573 9.22174 44.3174 9.22168C42.991 9.22168 41.9441 9.79562 41.1777 10.9443L39.085 9.59961C40.205 7.92188 41.9004 7.0752 44.1553 7.0752ZM32.9102 1.5127C34.428 1.48247 35.9017 2.07202 36.9775 3.16016C39.1292 5.21575 39.2622 8.67756 37.2432 10.8994L36.9775 11.1709C35.8722 12.244 34.5166 12.7881 32.9102 12.7881H28.9902V20.4668H26.6172V1.5127H32.9102ZM44.4658 14.0127C43.5078 14.0127 42.6964 14.2542 42.0479 14.7227C41.4141 15.1912 41.0899 15.7809 41.0898 16.4912C41.0898 17.1259 41.3848 17.7154 41.8711 18.0781C42.4017 18.5013 43.0506 18.728 43.7139 18.7129C44.7161 18.7128 45.6744 18.3055 46.3818 17.5801C47.1631 16.8243 47.5605 15.9321 47.5605 14.9043C46.8236 14.2999 45.7921 13.9977 44.4658 14.0127ZM28.9902 10.4609H32.9697C33.854 10.4912 34.7092 10.1283 35.3135 9.47852C36.5516 8.16355 36.5226 6.04698 35.2402 4.77734C34.6359 4.17276 33.8246 3.84082 32.9697 3.84082H28.9902V10.4609Z" fill="white"/>
<path d="M20.7984 11.1247C20.7984 10.3841 20.7395 9.64347 20.6216 8.91797H10.6147V13.1047H16.3477C16.1119 14.4499 15.3455 15.6591 14.2255 16.4149V19.1355H17.6446C19.6489 17.2462 20.7984 14.4499 20.7984 11.1247Z" fill="#4285F4"/>
<path d="M10.615 21.7655C13.4741 21.7655 15.891 20.7982 17.6448 19.1355L14.2257 16.4149C13.2677 17.0799 12.0445 17.4578 10.615 17.4578C7.84429 17.4578 5.50101 15.5382 4.66097 12.9688H1.13867V15.7801C2.93666 19.4529 6.60633 21.7655 10.615 21.7655Z" fill="#34A853"/>
<path d="M4.66152 12.9698C4.21932 11.6246 4.21932 10.1585 4.66152 8.79817V6.00195H1.13866C-0.379554 9.07023 -0.379554 12.6978 1.13866 15.766L4.66152 12.9698Z" fill="#FBBC04"/>
<path d="M10.615 4.30834C12.1329 4.27811 13.592 4.86759 14.6826 5.94073L17.7185 2.8271C15.7879 0.983112 13.253 -0.0295716 10.615 0.000657806C6.60633 0.000657806 2.93666 2.32832 1.13867 6.00119L4.66097 8.81252C5.50101 6.22791 7.84429 4.30834 10.615 4.30834Z" fill="#EA4335"/>
</svg>
