<svg width="14" height="13" viewBox="0 0 14 13" fill="none" xmlns="http://www.w3.org/2000/svg">
<path d="M6.74734 12.3814L5.76897 11.5042C4.63317 10.4809 3.69417 9.59808 2.95196 8.85588C2.20975 8.11367 1.61936 7.44737 1.18078 6.85698C0.742207 6.26659 0.435765 5.72399 0.261459 5.22918C0.0871531 4.73438 0 4.22833 0 3.71103C0 2.65395 0.354235 1.77118 1.06271 1.06271C1.77118 0.354235 2.65395 0 3.71103 0C4.2958 0 4.85246 0.123701 5.381 0.371103C5.90954 0.618506 6.36499 0.967118 6.74734 1.41694C7.12968 0.967118 7.58513 0.618506 8.11367 0.371103C8.64221 0.123701 9.19887 0 9.78364 0C10.8407 0 11.7235 0.354235 12.432 1.06271C13.1404 1.77118 13.4947 2.65395 13.4947 3.71103C13.4947 4.22833 13.4075 4.73438 13.2332 5.22918C13.0589 5.72399 12.7525 6.26659 12.3139 6.85698C11.8753 7.44737 11.2849 8.11367 10.5427 8.85588C9.8005 9.59808 8.8615 10.4809 7.7257 11.5042L6.74734 12.3814Z" fill="#FFB449"/>
</svg>
