<svg width="51" height="55" viewBox="0 0 51 55" fill="none" xmlns="http://www.w3.org/2000/svg">
<g filter="url(#filter0_d_5779_18140)">
<mask id="mask0_5779_18140" style="mask-type:alpha" maskUnits="userSpaceOnUse" x="0" y="0" width="51" height="51">
<rect width="51" height="51" fill="#D9D9D9"/>
</mask>
<g mask="url(#mask0_5779_18140)">
<path d="M25.5004 46.7502C22.5608 46.7502 19.7983 46.1924 17.2129 45.0768C14.6275 43.9611 12.3786 42.4382 10.4661 40.508C8.55355 38.5778 7.03949 36.32 5.92386 33.7346C4.80824 31.1492 4.25043 28.4044 4.25043 25.5002C4.25043 19.9398 6.09209 15.1585 9.77543 11.1564C13.4588 7.15436 17.9921 4.8877 23.3754 4.35645V10.7314C19.7275 11.2273 16.6905 12.8653 14.2645 15.6455C11.8384 18.4257 10.6254 21.7106 10.6254 25.5002C10.6254 29.6085 12.0775 33.1148 14.9817 36.0189C17.8858 38.9231 21.3921 40.3752 25.5004 40.3752C27.8379 40.3752 30.0249 39.8794 32.0614 38.8877C34.0978 37.896 35.8067 36.5502 37.1879 34.8502L42.7129 38.0377C40.8004 40.6939 38.339 42.8101 35.3286 44.3861C32.3181 45.9622 29.0421 46.7502 25.5004 46.7502ZM44.9442 34.1064L39.4192 30.9189C39.7379 30.0689 39.977 29.1924 40.1364 28.2893C40.2957 27.3861 40.3754 26.4564 40.3754 25.5002C40.3754 21.7106 39.1624 18.4257 36.7364 15.6455C34.3103 12.8653 31.2733 11.2273 27.6254 10.7314V4.35645C33.0088 4.8877 37.5421 7.15436 41.2254 11.1564C44.9088 15.1585 46.7504 19.9398 46.7504 25.5002C46.7504 27.0585 46.6088 28.5637 46.3254 30.0158C46.0421 31.4679 45.5817 32.8314 44.9442 34.1064Z" fill="#D4B588"/>
</g>
</g>
<mask id="mask1_5779_18140" style="mask-type:alpha" maskUnits="userSpaceOnUse" x="0" y="0" width="51" height="51">
<rect width="51" height="51" fill="#D9D9D9"/>
</mask>
<g mask="url(#mask1_5779_18140)">
<path d="M25.5004 46.7502C22.5608 46.7502 19.7983 46.1924 17.2129 45.0768C14.6275 43.9611 12.3786 42.4382 10.4661 40.508C8.55355 38.5778 7.03949 36.32 5.92386 33.7346C4.80824 31.1492 4.25043 28.4044 4.25043 25.5002C4.25043 19.9398 6.09209 15.1585 9.77543 11.1564C13.4588 7.15436 17.9921 4.8877 23.3754 4.35645V10.7314C19.7275 11.2273 16.6905 12.8653 14.2645 15.6455C11.8384 18.4257 10.6254 21.7106 10.6254 25.5002C10.6254 29.6085 12.0775 33.1148 14.9817 36.0189C17.8858 38.9231 21.3921 40.3752 25.5004 40.3752C27.8379 40.3752 30.0249 39.8794 32.0614 38.8877C34.0978 37.896 35.8067 36.5502 37.1879 34.8502L42.7129 38.0377C40.8004 40.6939 38.339 42.8101 35.3286 44.3861C32.3181 45.9622 29.0421 46.7502 25.5004 46.7502ZM44.9442 34.1064L39.4192 30.9189C39.7379 30.0689 39.977 29.1924 40.1364 28.2893C40.2957 27.3861 40.3754 26.4564 40.3754 25.5002C40.3754 21.7106 39.1624 18.4257 36.7364 15.6455C34.3103 12.8653 31.2733 11.2273 27.6254 10.7314V4.35645C33.0088 4.8877 37.5421 7.15436 41.2254 11.1564C44.9088 15.1585 46.7504 19.9398 46.7504 25.5002C46.7504 27.0585 46.6088 28.5637 46.3254 30.0158C46.0421 31.4679 45.5817 32.8314 44.9442 34.1064Z" fill="#D4B588"/>
</g>
<defs>
<filter id="filter0_d_5779_18140" x="0.250427" y="4.35645" width="50.5" height="50.3936" filterUnits="userSpaceOnUse" color-interpolation-filters="sRGB">
<feFlood flood-opacity="0" result="BackgroundImageFix"/>
<feColorMatrix in="SourceAlpha" type="matrix" values="0 0 0 0 0 0 0 0 0 0 0 0 0 0 0 0 0 0 127 0" result="hardAlpha"/>
<feOffset dy="4"/>
<feGaussianBlur stdDeviation="2"/>
<feComposite in2="hardAlpha" operator="out"/>
<feColorMatrix type="matrix" values="0 0 0 0 0 0 0 0 0 0 0 0 0 0 0 0 0 0 0.25 0"/>
<feBlend mode="normal" in2="BackgroundImageFix" result="effect1_dropShadow_5779_18140"/>
<feBlend mode="normal" in="SourceGraphic" in2="effect1_dropShadow_5779_18140" result="shape"/>
</filter>
</defs>
</svg>
