<svg width="11" height="14" viewBox="0 0 11 14" fill="none" xmlns="http://www.w3.org/2000/svg">
<path d="M5.0605 13.4947C4.6894 13.4947 4.37171 13.3625 4.10744 13.0983C3.84317 12.834 3.71103 12.5163 3.71103 12.1452H6.40997C6.40997 12.5163 6.27783 12.834 6.01356 13.0983C5.74929 13.3625 5.4316 13.4947 5.0605 13.4947ZM2.36157 11.4705V10.121H7.75943V11.4705H2.36157ZM2.53025 9.44627C1.75431 8.9852 1.13861 8.3667 0.683168 7.59075C0.227723 6.81481 0 5.97139 0 5.0605C0 3.65481 0.491993 2.45997 1.47598 1.47598C2.45997 0.491993 3.65481 0 5.0605 0C6.4662 0 7.66104 0.491993 8.64502 1.47598C9.62901 2.45997 10.121 3.65481 10.121 5.0605C10.121 5.97139 9.89328 6.81481 9.43783 7.59075C8.98239 8.3667 8.36669 8.9852 7.59075 9.44627H2.53025Z" fill="#FFB449"/>
</svg>
