<svg width="41" height="25" viewBox="0 0 41 25" fill="none" xmlns="http://www.w3.org/2000/svg">
<path d="M28.2168 0C35.0004 0 40.5 5.53759 40.5 12.3682C40.4998 19.1986 35.0003 24.7354 28.2168 24.7354C25.1757 24.7353 22.3951 23.6198 20.25 21.7764C18.1049 23.6198 15.3243 24.7353 12.2832 24.7354C5.49971 24.7354 0.000169427 19.1986 0 12.3682C0 5.53759 5.49961 0 12.2832 0C15.324 0.00010143 18.105 1.11487 20.25 2.95801C22.395 1.11487 25.176 0.000100502 28.2168 0Z" fill="#ED0006"/>
<path d="M28.2168 0C35.0004 0 40.5 5.53759 40.5 12.3682C40.4998 19.1986 35.0003 24.7354 28.2168 24.7354C25.1757 24.7353 22.3951 23.6198 20.25 21.7764C22.8895 19.508 24.5653 16.1362 24.5654 12.3682C24.5654 8.59965 22.89 5.22649 20.25 2.95801C22.395 1.11487 25.176 0.000100502 28.2168 0Z" fill="#F9A000"/>
<path d="M20.25 2.95898C22.8898 5.22742 24.5654 8.59982 24.5654 12.3682C24.5654 16.1365 22.8897 19.5089 20.25 21.7773C17.6103 19.5089 15.9346 16.1364 15.9346 12.3682C15.9346 8.59988 17.6103 5.22742 20.25 2.95898Z" fill="#FF5E00"/>
</svg>
