<svg width="66" height="57" viewBox="0 0 66 57" fill="none" xmlns="http://www.w3.org/2000/svg">
<path fill-rule="evenodd" clip-rule="evenodd" d="M7.87119 39.5059H2.76931C2.42018 39.5059 2.12326 39.7587 2.06881 40.1021L0.005352 53.1394C-0.035661 53.3968 0.164262 53.6286 0.426117 53.6286H2.8618C3.21093 53.6286 3.50786 53.3758 3.5623 53.0318L4.11884 49.5154C4.17253 49.171 4.47018 48.9185 4.81858 48.9185H6.43366C9.79445 48.9185 11.7339 47.2978 12.2407 44.0863C12.4689 42.6813 12.2504 41.5773 11.59 40.8039C10.865 39.9552 9.57868 39.5059 7.87119 39.5059ZM8.4598 44.2676C8.18086 46.092 6.78207 46.092 5.42957 46.092H4.65968L5.19979 42.6847C5.23186 42.479 5.41089 42.3273 5.61979 42.3273H5.97264C6.89395 42.3273 7.76313 42.3272 8.21228 42.8505C8.47983 43.1629 8.56199 43.6267 8.4598 44.2676ZM23.122 44.2091H20.6788C20.4706 44.2091 20.2908 44.3608 20.2586 44.5669L20.1506 45.2477L19.9797 45.0011C19.4508 44.2359 18.2715 43.9803 17.0943 43.9803C14.3943 43.9803 12.0885 46.018 11.6393 48.8766C11.406 50.3022 11.7377 51.6656 12.5494 52.6165C13.294 53.4907 14.3594 53.855 15.6267 53.855C17.802 53.855 19.0086 52.461 19.0086 52.461L18.8995 53.1377C18.8584 53.3964 19.0583 53.6283 19.3186 53.6283H21.5194C21.8695 53.6283 22.1646 53.3754 22.2199 53.0314L23.5404 44.6983C23.5821 44.442 23.383 44.2091 23.122 44.2091ZM19.7163 48.9478C19.4805 50.3387 18.3727 51.2724 16.96 51.2724C16.2506 51.2724 15.6833 51.0457 15.3195 50.616C14.9584 50.1894 14.821 49.5818 14.9359 48.9055C15.1562 47.5262 16.2827 46.5623 17.6739 46.5623C18.3675 46.5623 18.9316 46.7917 19.3031 47.2252C19.6752 47.6632 19.823 48.2742 19.7163 48.9478ZM33.6787 44.2088H36.1339C36.4778 44.2088 36.6784 44.593 36.483 44.8741L28.3173 56.62C28.1851 56.8102 27.9672 56.9234 27.7346 56.9234H25.2824C24.9372 56.9234 24.7356 56.536 24.9354 56.2543L27.478 52.6777L24.7739 44.7692C24.6803 44.4943 24.884 44.2088 25.1774 44.2088H27.5899C27.9034 44.2088 28.1799 44.4138 28.2703 44.7128L29.7055 49.4893L33.0918 44.5187C33.2244 44.3247 33.4446 44.2088 33.6787 44.2088Z" fill="#D4B588"/>
<path fill-rule="evenodd" clip-rule="evenodd" d="M60.2975 53.1401L62.3913 39.8643C62.4234 39.6583 62.6026 39.5065 62.8107 39.5059H65.168C65.4283 39.5059 65.6281 39.7384 65.5871 39.9958L63.5222 53.0324C63.4684 53.3765 63.1715 53.6293 62.8218 53.6293H60.7166C60.4563 53.6293 60.2564 53.3975 60.2975 53.1401ZM44.262 39.5065H39.1592C38.8109 39.5065 38.514 39.7594 38.4594 40.1028L36.396 53.1401C36.3549 53.3975 36.5548 53.6293 36.8154 53.6293H39.4337C39.677 53.6293 39.8852 53.4525 39.9232 53.2117L40.5087 49.5161C40.5625 49.1717 40.8601 48.9192 41.2085 48.9192H42.8227C46.1842 48.9192 48.1234 47.2985 48.6305 44.087C48.8594 42.6819 48.6395 41.578 47.9794 40.8046C47.2548 39.9558 45.9695 39.5065 44.262 39.5065ZM44.8506 44.2683C44.5724 46.0927 43.1735 46.0927 41.8202 46.0927H41.051L41.592 42.6854C41.6241 42.4797 41.8016 42.3279 42.0111 42.3279H42.3639C43.2847 42.3279 44.1546 42.3279 44.6034 42.8512C44.8713 43.1636 44.9528 43.6273 44.8506 44.2683ZM59.5114 44.2098H57.0699C56.86 44.2098 56.6819 44.3615 56.6505 44.5676L56.5424 45.2484L56.3709 45.0017C55.842 44.2366 54.6634 43.981 53.4861 43.981C50.7861 43.981 48.481 46.0187 48.0319 48.8772C47.7992 50.3029 48.1296 51.6663 48.9412 52.6172C49.6873 53.4914 50.7512 53.8557 52.0186 53.8557C54.1939 53.8557 55.4001 52.4617 55.4001 52.4617L55.2913 53.1384C55.2503 53.3971 55.4501 53.629 55.7122 53.629H57.912C58.2603 53.629 58.5572 53.3761 58.6117 53.0321L59.9329 44.699C59.9733 44.4427 59.7734 44.2098 59.5114 44.2098ZM56.1061 48.9485C55.8717 50.3394 54.7624 51.2731 53.3494 51.2731C52.6414 51.2731 52.0731 51.0464 51.7089 50.6167C51.3478 50.1901 51.2121 49.5825 51.3257 48.9061C51.547 47.5269 52.6721 46.5629 54.0634 46.5629C54.7573 46.5629 55.321 46.7924 55.6928 47.2259C56.0664 47.6638 56.2141 48.2748 56.1061 48.9485Z" fill="#E0D7C5"/>
<path d="M26.7539 34.8427L27.3812 30.8726L25.984 30.8402H19.3125L23.9489 1.54393C23.9631 1.45548 24.01 1.37301 24.0784 1.31446C24.1467 1.2559 24.2344 1.22363 24.3255 1.22363H35.5748C39.3095 1.22363 41.8866 1.99808 43.2323 3.52664C43.863 4.24374 44.2649 4.99307 44.4592 5.81771C44.6629 6.68301 44.6667 7.71679 44.4675 8.97766L44.453 9.06969V9.87757L45.0841 10.2337C45.6154 10.5146 46.0373 10.8361 46.3611 11.2042C46.901 11.8173 47.25 12.5965 47.3975 13.5203C47.5497 14.4705 47.4993 15.6011 47.25 16.8811C46.9621 18.3535 46.4968 19.6359 45.8684 20.6852C45.2902 21.652 44.5538 22.4538 43.6797 23.0755C42.8449 23.6658 41.8531 24.1141 40.7318 24.401C39.645 24.6828 38.4063 24.8252 37.0475 24.8252H36.172C35.5461 24.8252 34.9378 25.0499 34.4607 25.4527C33.9823 25.8638 33.6653 26.4253 33.5683 27.0397L33.5024 27.3972L32.3942 34.3944L32.3438 34.6514C32.3307 34.7329 32.3079 34.7735 32.2744 34.801C32.2444 34.8258 32.2012 34.8427 32.1591 34.8427H26.7539Z" fill="#D4B588"/>
<path d="M45.6806 9.16309C45.6471 9.377 45.6088 9.5957 45.5657 9.82039C44.0819 17.4107 39.0067 20.0328 32.5244 20.0328H29.224C28.4313 20.0328 27.7633 20.6065 27.6397 21.3857L25.9498 32.0655L25.4713 35.0926C25.3909 35.6042 25.7869 36.0656 26.3047 36.0656H32.1587C32.852 36.0656 33.4406 35.5636 33.5497 34.8824L33.6073 34.5859L34.7096 27.6158L34.7804 27.2336C34.8881 26.55 35.4781 26.0481 36.1713 26.0481H37.0468C42.7182 26.0481 47.1582 23.7534 48.4559 17.1131C48.9979 14.3392 48.7172 12.023 47.2828 10.3941C46.8489 9.90285 46.3103 9.49532 45.6806 9.16309Z" fill="#E0D7C5"/>
<path d="M44.1268 8.54626C43.9003 8.48051 43.6663 8.42075 43.4263 8.36698C43.1854 8.31441 42.9382 8.2678 42.6841 8.22717C41.7941 8.08374 40.8192 8.01562 39.7745 8.01562H30.9574C30.7403 8.01562 30.5342 8.06461 30.3495 8.15306C29.9428 8.34785 29.6407 8.73152 29.5675 9.20119L27.6916 21.0402L27.6377 21.3856C27.7613 20.6063 28.4293 20.0327 29.2219 20.0327H32.5223C39.0047 20.0327 44.0802 17.4094 45.5636 9.82027C45.6078 9.59558 45.6451 9.37688 45.6786 9.16297C45.3033 8.96456 44.8967 8.79485 44.4589 8.65022C44.3512 8.61438 44.2397 8.57973 44.1268 8.54626Z" fill="#816A55" fill-opacity="0.29"/>
<path d="M29.566 9.20133C29.6392 8.73162 29.9416 8.348 30.3479 8.15438C30.534 8.06593 30.7391 8.01694 30.9559 8.01694H39.7733C40.818 8.01694 41.7929 8.08505 42.6826 8.22848C42.937 8.26911 43.1842 8.31573 43.4251 8.36829C43.6651 8.4221 43.8988 8.48186 44.1256 8.54757C44.2382 8.58104 44.3497 8.61569 44.4588 8.65036C44.8965 8.79496 45.3032 8.96587 45.6784 9.16307C46.12 6.35809 45.675 4.44828 44.1532 2.7189C42.4754 0.815076 39.4471 0 35.5722 0H24.3227C23.5311 0 22.8561 0.573636 22.7336 1.35407L18.0482 30.9515C17.9556 31.5371 18.4089 32.0655 19.0013 32.0655H25.9466L27.6904 21.0403L29.566 9.20133Z" fill="#D4B588"/>
</svg>
