<svg width="79" height="69" viewBox="0 0 79 69" fill="none" xmlns="http://www.w3.org/2000/svg">
<path fill-rule="evenodd" clip-rule="evenodd" d="M9.46195 47.4902H3.32899C2.9093 47.4902 2.55237 47.7942 2.48692 48.2069L0.00643364 63.8792C-0.0428681 64.1885 0.197459 64.4673 0.512235 64.4673H3.44017C3.85986 64.4673 4.2168 64.1633 4.28224 63.7497L4.95126 59.5227C5.01579 59.1088 5.3736 58.8052 5.79242 58.8052H7.7339C11.7739 58.8052 14.1054 56.8569 14.7146 52.9964C14.9889 51.3074 14.7262 49.9803 13.9323 49.0506C13.0608 48.0303 11.5145 47.4902 9.46195 47.4902ZM10.1695 53.2143C9.83421 55.4074 8.15272 55.4074 6.52688 55.4074H5.6014L6.25066 51.3115C6.28921 51.0642 6.50443 50.8818 6.75555 50.8818H7.17971C8.28722 50.8818 9.33206 50.8818 9.87198 51.5109C10.1936 51.8864 10.2924 52.4438 10.1695 53.2143ZM27.7949 53.144H24.858C24.6077 53.144 24.3915 53.3264 24.3529 53.5741L24.223 54.3925L24.0176 54.096C23.3818 53.1763 21.9642 52.869 20.549 52.869C17.3033 52.869 14.5316 55.3185 13.9917 58.7548C13.7111 60.4686 14.1099 62.1075 15.0856 63.2506C15.9807 64.3014 17.2614 64.7394 18.7849 64.7394C21.3998 64.7394 22.8502 63.0636 22.8502 63.0636L22.7191 63.8771C22.6697 64.1881 22.91 64.4668 23.2229 64.4668H25.8685C26.2893 64.4668 26.6441 64.1629 26.7105 63.7493L28.2979 53.7321C28.3481 53.424 28.1086 53.144 27.7949 53.144ZM23.7009 58.8404C23.4175 60.5124 22.0858 61.6348 20.3876 61.6348C19.5348 61.6348 18.8529 61.3623 18.4155 60.8457C17.9814 60.3329 17.8163 59.6026 17.9545 58.7895C18.2192 57.1315 19.5734 55.9727 21.2458 55.9727C22.0796 55.9727 22.7577 56.2486 23.2042 56.7697C23.6516 57.2961 23.8292 58.0306 23.7009 58.8404ZM40.4851 53.1436H43.4366C43.8499 53.1436 44.091 53.6055 43.8562 53.9434L34.0402 68.0632C33.8813 68.2919 33.6194 68.4279 33.3397 68.4279H30.392C29.977 68.4279 29.7346 67.9622 29.9749 67.6235L33.0314 63.3242L29.7807 53.8173C29.6682 53.4868 29.9131 53.1436 30.2658 53.1436H33.1658C33.5426 53.1436 33.875 53.3901 33.9838 53.7495L35.7089 59.4913L39.7796 53.5162C39.939 53.283 40.2038 53.1436 40.4851 53.1436Z" fill="white"/>
<path fill-rule="evenodd" clip-rule="evenodd" d="M72.4845 63.88L75.0015 47.9212C75.0401 47.6734 75.2555 47.4911 75.5057 47.4902H78.3393C78.6522 47.4902 78.8925 47.7698 78.8431 48.0791L76.361 63.7506C76.2963 64.1641 75.9394 64.4681 75.519 64.4681H72.9883C72.6754 64.4681 72.4351 64.1893 72.4845 63.88ZM53.2083 47.4911H47.0742C46.6555 47.4911 46.2986 47.795 46.233 48.2078L43.7525 63.88C43.7032 64.1893 43.9434 64.4681 44.2568 64.4681H47.4041C47.6967 64.4681 47.9469 64.2555 47.9926 63.966L48.6964 59.5236C48.7612 59.1096 49.1189 58.806 49.5376 58.806H51.4781C55.519 58.806 57.85 56.8578 58.4597 52.9972C58.7348 51.3082 58.4704 49.9811 57.677 49.0514C56.8059 48.0312 55.2609 47.4911 53.2083 47.4911ZM53.9158 53.2151C53.5814 55.4082 51.8998 55.4082 50.273 55.4082H49.3484L49.9987 51.3123C50.0373 51.065 50.2506 50.8827 50.5025 50.8827H50.9266C52.0334 50.8827 53.0792 50.8827 53.6187 51.5117C53.9407 51.8872 54.0387 52.4447 53.9158 53.2151ZM71.5396 53.1448H68.6047C68.3524 53.1448 68.1382 53.3272 68.1005 53.5749L67.9706 54.3934L67.7643 54.0968C67.1286 53.1771 65.7118 52.8698 64.2966 52.8698C61.0509 52.8698 58.28 55.3193 57.7401 58.7556C57.4603 60.4694 57.8575 62.1083 58.8332 63.2514C59.73 64.3022 61.009 64.7402 62.5324 64.7402C65.1474 64.7402 66.5974 63.0645 66.5974 63.0645L66.4666 63.8779C66.4172 64.1889 66.6575 64.4677 66.9725 64.4677H69.6169C70.0356 64.4677 70.3925 64.1637 70.4581 63.7501L72.0463 53.7329C72.0948 53.4248 71.8546 53.1448 71.5396 53.1448ZM67.446 58.8412C67.1642 60.5132 65.8309 61.6356 64.1323 61.6356C63.2811 61.6356 62.598 61.3631 62.1602 60.8465C61.7261 60.3337 61.563 59.6034 61.6995 58.7903C61.9656 57.1324 63.318 55.9736 64.9905 55.9736C65.8246 55.9736 66.5023 56.2494 66.9493 56.7705C67.3983 57.297 67.5759 58.0314 67.446 58.8412Z" fill="#E0D7C5"/>
<path d="M32.1611 41.8842L32.9152 37.1117L31.2357 37.0729H23.2158L28.7892 1.85573C28.8063 1.7494 28.8627 1.65027 28.9449 1.57988C29.027 1.5095 29.1324 1.4707 29.242 1.4707H42.7647C47.2542 1.4707 50.3521 2.40167 51.9698 4.23915C52.728 5.10118 53.211 6.00195 53.4447 6.99325C53.6895 8.03343 53.6941 9.27614 53.4546 10.7918L53.4372 10.9025V11.8736L54.1958 12.3018C54.8345 12.6394 55.3416 13.0258 55.7309 13.4683C56.38 14.2054 56.7995 15.1421 56.9767 16.2526C57.1598 17.3948 57.0992 18.7538 56.7995 20.2925C56.4534 22.0625 55.894 23.6041 55.1387 24.8655C54.4436 26.0277 53.5584 26.9915 52.5076 27.7388C51.5042 28.4485 50.3119 28.9874 48.964 29.3323C47.6575 29.671 46.1685 29.8422 44.5351 29.8422H43.4827C42.7303 29.8422 41.999 30.1123 41.4255 30.5965C40.8503 31.0907 40.4694 31.7657 40.3527 32.5043L40.2735 32.934L38.9413 41.3454L38.8808 41.6543C38.865 41.7523 38.8376 41.8011 38.7973 41.8342C38.7612 41.864 38.7094 41.8842 38.6587 41.8842H32.1611Z" fill="white"/>
<path d="M54.9125 11.0156C54.8723 11.2728 54.8262 11.5357 54.7743 11.8058C52.9907 20.9301 46.8898 24.0822 39.0974 24.0822H35.13C34.1772 24.0822 33.3741 24.7717 33.2256 25.7084L31.1941 38.5467L30.619 42.1856C30.5223 42.8006 30.9983 43.3551 31.6208 43.3551H38.6579C39.4912 43.3551 40.1988 42.7518 40.3299 41.9329L40.3992 41.5764L41.7243 33.1977L41.8094 32.7382C41.9389 31.9165 42.6481 31.3131 43.4814 31.3131H44.5338C51.3514 31.3131 56.6887 28.5547 58.2487 20.5724C58.9002 17.2378 58.5629 14.4536 56.8385 12.4954C56.3169 11.9049 55.6695 11.415 54.9125 11.0156Z" fill="#E0D7C5"/>
<path d="M53.0452 10.2746C52.7729 10.1956 52.4916 10.1237 52.2032 10.0591C51.9135 9.99589 51.6163 9.93986 51.3109 9.89102C50.241 9.7186 49.0691 9.63672 47.8133 9.63672H37.2143C36.9532 9.63672 36.7055 9.69561 36.4834 9.80194C35.9946 10.0361 35.6315 10.4973 35.5435 11.0619L33.2884 25.2936L33.2236 25.7087C33.3722 24.772 34.1752 24.0824 35.1281 24.0824H39.0954C46.8879 24.0824 52.9892 20.929 54.7724 11.8061C54.8255 11.536 54.8703 11.2731 54.9106 11.0159C54.4595 10.7774 53.9706 10.5734 53.4444 10.3996C53.3149 10.3565 53.1809 10.3148 53.0452 10.2746Z" fill="#B3B3B3"/>
<path d="M35.5417 11.0609C35.6296 10.4963 35.9932 10.0351 36.4816 9.80239C36.7053 9.69607 36.9518 9.63717 37.2124 9.63717H47.8119C49.0677 9.63717 50.2397 9.71906 51.3091 9.89147C51.615 9.94031 51.9121 9.99635 52.2018 10.0595C52.4902 10.1242 52.7711 10.1961 53.0438 10.275C53.1791 10.3153 53.3131 10.3569 53.4443 10.3986C53.9705 10.5724 54.4594 10.7779 54.9105 11.0149C55.4412 7.64307 54.9063 5.34728 53.077 3.2684C51.0601 0.979805 47.4197 0 42.7618 0H29.2387C28.2871 0 27.4758 0.689569 27.3284 1.62773L21.6961 37.2069C21.5849 37.9108 22.1298 38.546 22.8419 38.546H31.1908L33.287 25.2926L35.5417 11.0609Z" fill="white"/>
</svg>
