<svg width="87" height="73" viewBox="0 0 87 73" fill="none" xmlns="http://www.w3.org/2000/svg">
<path d="M45.3837 2.96664C45.0968 2.97136 44.8653 3.19803 44.8753 3.4672C44.9558 11.0701 44.8451 18.673 44.8854 22.4933C44.9257 26.2995 44.9256 26.2948 44.9256 26.3325C44.9256 26.4648 44.981 26.5875 45.0766 26.682C45.1723 26.7764 45.3082 26.8284 45.4491 26.8284C45.59 26.8284 45.7209 26.7764 45.8215 26.682C45.9222 26.5875 45.9725 26.4648 45.9725 26.3325C45.9725 26.3073 45.9591 25.0245 45.9323 22.4839C45.892 18.6919 46.0027 11.0748 45.9222 3.45775C45.9222 3.32553 45.8668 3.19803 45.7662 3.10358C45.6655 3.00914 45.5296 2.96191 45.3887 2.96191L45.3837 2.96664Z" fill="#FFD278"/>
<path d="M44.6294 14.0449C44.6143 14.0449 44.6043 14.0449 44.5892 14.0449C42.3042 14.2433 41.6901 14.026 40.4419 14.1346C39.2793 14.2338 39.3296 14.2338 39.3145 14.2338C39.1686 14.2338 39.0276 14.2858 38.922 14.3802C38.8163 14.4747 38.7559 14.6069 38.7559 14.7485C38.7559 14.8902 38.8163 15.0177 38.922 15.1169C39.0276 15.2113 39.1686 15.268 39.3145 15.2633C39.3246 15.2633 39.3749 15.2633 40.5426 15.1594C41.6197 15.0649 42.3193 15.2727 44.6898 15.0697C44.9868 15.0508 45.2133 14.8099 45.1931 14.5313C45.178 14.2527 44.9264 14.0355 44.6244 14.0496L44.6294 14.0449Z" fill="#FFD278"/>
<path d="M37.8043 12.8369C36.6819 12.8369 35.7559 13.6964 35.7559 14.7494C35.7559 15.8025 36.6819 16.662 37.8043 16.662C38.9267 16.662 39.8528 15.8025 39.8528 14.7494C39.8528 13.6964 38.9267 12.8369 37.8043 12.8369ZM37.8043 13.8428C38.3529 13.8428 38.7857 14.2442 38.7857 14.7542C38.7857 15.2642 38.3529 15.6656 37.8043 15.6656C37.2557 15.6656 36.8229 15.2594 36.8229 14.7542C36.8229 14.2489 37.2557 13.8428 37.8043 13.8428Z" fill="#FFD278"/>
<path d="M54.3766 15.5049C53.2542 15.5049 52.3281 16.3643 52.3281 17.4174C52.3281 18.4705 53.2542 19.3299 54.3766 19.3299C55.4989 19.3299 56.425 18.4705 56.425 17.4174C56.425 16.3643 55.4989 15.5049 54.3766 15.5049ZM54.3766 16.5107C54.9252 16.5107 55.358 16.9121 55.358 17.4221C55.358 17.9321 54.9252 18.3335 54.3766 18.3335C53.828 18.3335 53.3951 17.9274 53.3951 17.4221C53.3951 16.9168 53.828 16.5107 54.3766 16.5107Z" fill="#FFD278"/>
<path d="M49.5249 16.5811C49.3689 16.5811 49.2229 16.6424 49.1172 16.7511L45.3475 20.6706C45.2468 20.7697 45.1965 20.9067 45.2015 21.0436C45.2065 21.1806 45.272 21.3081 45.3827 21.4025C45.4934 21.4922 45.6344 21.5442 45.7803 21.5347C45.9263 21.5253 46.0622 21.4639 46.1578 21.36L49.7413 17.6341L52.8064 17.9316C52.9524 17.9458 53.0984 17.908 53.2141 17.823C53.3299 17.738 53.4003 17.6105 53.4154 17.4736C53.4305 17.3366 53.3852 17.1997 53.2946 17.0958C53.2041 16.9919 53.0682 16.9211 52.9222 16.9116L49.5803 16.5858C49.5601 16.5858 49.545 16.5858 49.5249 16.5858V16.5811Z" fill="#FFD278"/>
<path d="M41.2682 7.66602C41.0367 7.66602 40.8253 7.79824 40.7498 8.00602C40.6693 8.20908 40.7398 8.44047 40.9209 8.57742C40.931 8.58686 40.9662 8.61048 41.9225 9.23854C42.8083 9.81938 43.1959 10.4002 45.1437 11.6752C45.2645 11.7555 45.4104 11.7886 45.5564 11.765C45.7023 11.7414 45.8282 11.6658 45.9137 11.5525C45.9993 11.4391 46.0295 11.2975 46.0043 11.1652C45.9791 11.0283 45.8936 10.9102 45.7728 10.8347C43.8955 9.60688 43.5784 9.06854 42.5516 8.39797C41.5954 7.76991 41.6306 7.79824 41.6256 7.78879C41.5299 7.70852 41.4041 7.66602 41.2733 7.66602H41.2682Z" fill="#FFD278"/>
<path d="M39.946 5.36127C39.4226 5.39905 38.9143 5.62572 38.5519 6.02712C37.8221 6.8299 37.9278 8.04825 38.7834 8.72826C39.639 9.40827 40.9375 9.30911 41.6724 8.51104C42.4022 7.70825 42.2965 6.4899 41.4409 5.80989C41.013 5.46988 40.4745 5.32349 39.9511 5.36127H39.946ZM40.0316 6.35768C40.2833 6.33879 40.5399 6.40962 40.7463 6.5749C41.164 6.90546 41.2093 7.46741 40.857 7.85936C40.5047 8.24659 39.8907 8.29382 39.4729 7.96325C39.0552 7.63269 39.0099 7.07074 39.3622 6.67879C39.5384 6.48518 39.78 6.37656 40.0316 6.35768Z" fill="#FFD278"/>
<path d="M49.6244 7.66551C49.5036 7.66551 49.3828 7.71274 49.2923 7.78829C49.2822 7.79774 49.3225 7.7694 48.3662 8.39747C47.3394 9.07276 47.0173 9.60637 45.145 10.8342C45.0242 10.9097 44.9387 11.0325 44.9135 11.1647C44.8883 11.3017 44.9135 11.4386 45.0041 11.552C45.0897 11.6653 45.2155 11.7409 45.3615 11.7645C45.5074 11.7881 45.6534 11.755 45.7742 11.6747C47.7219 10.395 48.1145 9.81416 48.9953 9.23804C49.9516 8.60997 49.9868 8.58636 49.9969 8.57692C50.1781 8.43525 50.2485 8.20385 50.163 7.99607C50.0774 7.78829 49.866 7.65607 49.6295 7.66551H49.6244Z" fill="#FFD278"/>
<path d="M50.9587 5.36127C50.4353 5.32349 49.8968 5.46988 49.4689 5.80989C48.6133 6.4899 48.5076 7.70825 49.2374 8.51104C49.9672 9.31383 51.2657 9.40827 52.1264 8.72826C52.982 8.04825 53.0877 6.82991 52.3579 6.02712C51.9905 5.62572 51.4872 5.40377 50.9638 5.36127H50.9587ZM50.8732 6.35768C51.1248 6.37657 51.3664 6.48518 51.5426 6.67879C51.8949 7.06602 51.8496 7.63269 51.4318 7.96326C51.0141 8.29382 50.4001 8.24659 50.0477 7.85936C49.6954 7.47213 49.7407 6.90546 50.1585 6.5749C50.3648 6.40962 50.6266 6.33879 50.8732 6.35768Z" fill="#FFD278"/>
<path d="M45.529 0.0058019C45.0056 -0.0319764 44.4671 0.114415 44.0393 0.45442C43.1836 1.13443 43.078 2.35278 43.8077 3.15557C44.5375 3.95836 45.8361 4.0528 46.6967 3.37279C47.5523 2.69278 47.658 1.47443 46.9282 0.671644C46.5608 0.270249 46.0575 0.0483025 45.5341 0.0058019H45.529ZM45.4435 1.0022C45.6951 1.02109 45.9367 1.12971 46.1129 1.32332C46.4652 1.71055 46.4199 2.27722 46.0022 2.60778C45.5844 2.93834 44.9704 2.89112 44.6181 2.50389C44.2658 2.11666 44.311 1.55471 44.7288 1.21943C44.9351 1.05415 45.1969 0.983315 45.4435 1.0022Z" fill="#FFD278"/>
<path d="M74.0879 28.8821C65.9847 28.9577 57.8815 28.8538 53.8098 28.8916C51.1054 28.9168 49.7414 28.9294 49.7179 28.9294C49.577 28.9294 49.4461 28.9813 49.3455 29.071C49.2448 29.1655 49.1895 29.2883 49.1895 29.4205C49.1895 29.5527 49.2448 29.6755 49.3455 29.7699C49.4461 29.8596 49.577 29.9116 49.7179 29.9116C49.7448 29.9116 51.1121 29.899 53.8199 29.8738C57.8614 29.836 65.9797 29.9399 74.098 29.8644C74.2389 29.8644 74.3748 29.8124 74.4755 29.7227C74.5761 29.6283 74.6315 29.5007 74.6315 29.3685C74.6315 29.2363 74.5711 29.1088 74.4704 29.0191C74.3698 28.9294 74.2339 28.8774 74.093 28.8821H74.0879Z" fill="#FFD278"/>
<path d="M61.3745 23.376C61.0726 23.376 60.831 23.6121 60.836 23.8954C60.836 23.9049 60.836 23.9521 60.9467 25.0477C61.0474 26.0582 60.826 26.7146 61.0424 28.9388C61.0524 29.0758 61.1229 29.2033 61.2336 29.293C61.3444 29.3827 61.4903 29.4252 61.6363 29.4111C61.7822 29.3969 61.9181 29.3308 62.0087 29.2269C62.0993 29.1183 62.1446 28.9813 62.1295 28.8491C61.9181 26.7052 62.1496 26.1291 62.0339 24.9579C61.9282 23.8671 61.9282 23.9143 61.9282 23.9049C61.9282 23.7679 61.8728 23.631 61.7671 23.5318C61.6614 23.4326 61.5205 23.3807 61.3745 23.3807V23.376Z" fill="#FFD278"/>
<path d="M61.3841 20.5527C60.2617 20.5527 59.3457 21.4216 59.3457 22.4747C59.3457 23.5278 60.2617 24.3967 61.3841 24.3967C62.5065 24.3967 61.4545 24.3967 61.4898 24.3872C62.5618 24.3353 63.4225 23.4947 63.4225 22.4747C63.4225 21.4547 62.5065 20.5527 61.3841 20.5527ZM61.3841 21.5539C61.9226 21.5539 62.3555 21.96 62.3555 22.4747C62.3555 22.9894 61.9277 23.3956 61.3841 23.3956C60.8405 23.3956 60.4127 22.9894 60.4127 22.4747C60.4127 21.96 60.8405 21.5539 61.3841 21.5539Z" fill="#FFD278"/>
<path d="M58.5395 36.1084C58.5043 36.1084 58.469 36.1084 58.4288 36.1178C57.3567 36.1745 56.4961 37.0104 56.4961 38.0304C56.4961 39.0504 57.4121 39.9523 58.5345 39.9523C59.6568 39.9523 60.5729 39.0834 60.5729 38.0304C60.5729 36.9773 59.6568 36.1084 58.5345 36.1084H58.5395ZM58.5395 37.1095C59.078 37.1095 59.5109 37.5156 59.5109 38.0304C59.5109 38.5451 59.078 38.9512 58.5395 38.9512C58.001 38.9512 57.5681 38.5451 57.5681 38.0304C57.5681 37.5156 57.9959 37.1095 58.5395 37.1095Z" fill="#FFD278"/>
<path d="M54.6737 29.4163C54.4522 29.4258 54.2559 29.5627 54.1855 29.7611C54.11 29.9594 54.1754 30.1766 54.3415 30.3136L58.3125 33.6758L57.9955 36.5517C57.9804 36.6887 58.0206 36.8256 58.1112 36.9342C58.2018 37.0428 58.3377 37.109 58.4837 37.1231C58.6296 37.1373 58.7756 37.0948 58.8863 37.0098C58.997 36.9248 59.0725 36.7973 59.0826 36.6603L59.4299 33.5247C59.45 33.3642 59.3796 33.1989 59.2537 33.0903L55.0763 29.5533C54.9656 29.4588 54.8246 29.4116 54.6737 29.4163Z" fill="#FFD278"/>
<path d="M68.364 25.2086C68.203 25.2133 68.052 25.2888 67.9564 25.4069C67.9513 25.4163 67.9262 25.4447 67.2568 26.3372C66.6377 27.1683 66.0186 27.5319 64.6597 29.3595C64.5742 29.4728 64.544 29.6097 64.5691 29.742C64.5943 29.8742 64.6748 29.997 64.7956 30.0725C64.9164 30.1528 65.0624 30.1811 65.2033 30.1575C65.3442 30.1339 65.4751 30.0584 65.5556 29.945C66.8642 28.1836 67.438 27.8861 68.1527 26.9228C68.8221 26.0255 68.7969 26.0538 68.807 26.0444C68.9429 25.8886 68.973 25.6713 68.8774 25.4919C68.7818 25.3124 68.5805 25.1991 68.364 25.2086Z" fill="#FFD278"/>
<path d="M69.1951 22.7298C68.6717 22.7676 68.1683 22.9943 67.806 23.3957C67.0812 24.1984 67.1869 25.4215 68.0375 26.1063C68.8931 26.791 70.1916 26.6918 70.9164 25.889C71.6411 25.0862 71.5354 23.8679 70.6849 23.1784C70.2571 22.8337 69.7185 22.6873 69.1951 22.7298ZM69.2806 23.7215C69.5273 23.7026 69.7789 23.7734 69.9853 23.9387C70.398 24.2693 70.4483 24.8454 70.096 25.2374C69.7437 25.6293 69.1448 25.6765 68.727 25.3412C68.3143 25.0107 68.264 24.4346 68.6163 24.0426C68.7924 23.849 69.029 23.7357 69.2756 23.7215H69.2806Z" fill="#FFD278"/>
<path d="M65.0875 29.1379C64.8862 29.1426 64.7 29.2512 64.6094 29.4212C64.5188 29.5912 64.5389 29.7943 64.6547 29.9501C66.0187 31.7776 66.6377 32.146 67.2518 32.9724C67.9211 33.8696 67.9513 33.9074 67.9564 33.9168C68.052 34.0207 68.1829 34.0868 68.3288 34.0963C68.4748 34.1057 68.6157 34.0632 68.7264 33.9782C68.8372 33.8885 68.9076 33.7657 68.9177 33.6288C68.9278 33.4918 68.8825 33.3596 68.7919 33.2557C68.7818 33.2463 68.817 33.284 68.1476 32.3868C67.4279 31.4235 66.8592 31.1212 65.5506 29.3645C65.4449 29.2182 65.2687 29.1332 65.0825 29.1379H65.0875Z" fill="#FFD278"/>
<path d="M69.5211 32.7548C68.9977 32.717 68.4591 32.8634 68.0313 33.2034C67.1757 33.8882 67.0751 35.1065 67.7998 35.914C68.5246 36.7168 69.8231 36.816 70.6787 36.1313C71.5343 35.4465 71.635 34.2282 70.9102 33.4207C70.5479 33.0193 70.0395 32.7926 69.5211 32.7548ZM69.4356 33.7465C69.6822 33.7654 69.9187 33.874 70.0949 34.0676C70.4472 34.4596 70.3969 35.0357 69.9842 35.3662C69.5715 35.6968 68.9675 35.6543 68.6152 35.2624C68.2629 34.8704 68.3132 34.2943 68.7259 33.9637C68.9323 33.7985 69.1839 33.7276 69.4305 33.7465H69.4356Z" fill="#FFD278"/>
<path d="M75.6168 27.6318C75.0934 27.594 74.5549 27.7404 74.127 28.0804C73.2714 28.7651 73.1708 29.9835 73.8955 30.791C74.6203 31.5938 75.9188 31.6929 76.7744 31.0082C77.63 30.3235 77.7307 29.1051 77.0059 28.2976C76.6436 27.8962 76.1352 27.6696 75.6168 27.6271V27.6318ZM75.5313 28.6235C75.7779 28.6423 76.0144 28.751 76.1906 28.9446C76.5429 29.3365 76.4926 29.9126 76.0799 30.2432C75.6672 30.5738 75.0682 30.5313 74.7109 30.1393C74.3586 29.7474 74.4089 29.1712 74.8216 28.8407C75.028 28.6754 75.2847 28.6046 75.5262 28.6235H75.5313Z" fill="#FFD278"/>
<path d="M45.3935 22.5119C45.1016 22.5167 44.87 22.8189 44.8751 23.1872C44.8751 23.2392 44.8751 23.2486 44.9153 28.4242C44.9556 33.581 44.8449 43.9417 44.9254 54.3071C44.9254 54.4866 44.9808 54.6566 45.0814 54.7794C45.1821 54.9021 45.318 54.973 45.4589 54.973C45.5998 54.973 45.7357 54.8974 45.8314 54.7699C45.927 54.6424 45.9824 54.4724 45.9824 54.293C45.9018 43.9511 46.0126 33.6093 45.9723 28.4101C45.932 23.2345 45.932 23.2392 45.932 23.1872C45.932 23.0078 45.8767 22.8331 45.776 22.7056C45.6753 22.5781 45.5394 22.5072 45.3935 22.5119Z" fill="#FFD278"/>
<path d="M51.5229 42.0432C51.5128 42.0432 51.4625 42.0432 50.2999 42.1471C49.2228 42.2416 48.5232 42.0338 46.1526 42.2369C46.0067 42.2463 45.8708 42.3124 45.7752 42.4163C45.6795 42.5202 45.6342 42.6571 45.6493 42.7941C45.6644 42.931 45.7349 43.0585 45.8456 43.1435C45.9614 43.2285 46.1023 43.271 46.2483 43.2569C48.5333 43.0585 49.1473 43.2758 50.3955 43.1672C51.5581 43.068 51.5128 43.068 51.5229 43.068C51.6689 43.068 51.8098 43.016 51.9155 42.9216C52.0212 42.8271 52.0765 42.6949 52.0765 42.5533C52.0765 42.4163 52.0161 42.2841 51.9104 42.1896C51.8047 42.0952 51.6638 42.0385 51.5179 42.0432H51.5229Z" fill="#FFD278"/>
<path d="M53.0445 40.6416C51.9222 40.6416 50.9961 41.5011 50.9961 42.5541C50.9961 43.6072 50.9961 42.6202 51.0062 42.6533C51.0666 43.6591 51.9574 44.4667 53.0445 44.4667C54.1317 44.4667 55.093 43.6072 55.093 42.5541C55.093 41.5011 54.1669 40.6416 53.0445 40.6416ZM53.0445 41.6427C53.5931 41.6427 54.026 42.0441 54.026 42.5541C54.026 43.0641 53.5931 43.4655 53.0445 43.4655C52.4959 43.4655 52.0631 43.0594 52.0631 42.5541C52.0631 42.0488 52.4959 41.6427 53.0445 41.6427Z" fill="#FFD278"/>
<path d="M36.4645 37.9725C35.3421 37.9725 34.416 38.832 34.416 39.885C34.416 40.9381 35.3421 41.7976 36.4645 41.7976C37.5868 41.7976 38.4575 40.9806 38.5028 39.9606C38.5079 39.9322 38.5129 39.9086 38.5129 39.8803C38.5129 39.852 38.5129 39.8284 38.5028 39.8C38.4575 38.7847 37.5566 37.9678 36.4645 37.9678V37.9725ZM36.4645 38.9736C37.0131 38.9736 37.4459 39.375 37.4459 39.885C37.4459 40.395 37.0131 40.7964 36.4645 40.7964C35.9159 40.7964 35.483 40.395 35.483 39.885C35.483 39.375 35.9159 38.9736 36.4645 38.9736Z" fill="#FFD278"/>
<path d="M45.1079 35.7772C44.9469 35.7772 44.7909 35.8386 44.6852 35.9519L41.1016 39.6778L38.0365 39.3756C37.8906 39.3614 37.7446 39.3992 37.6339 39.4842C37.5181 39.5692 37.4476 39.6967 37.4325 39.8289C37.4174 39.9659 37.4627 40.1028 37.5533 40.2067C37.6439 40.3106 37.7798 40.3814 37.9258 40.3909L41.2677 40.7167C41.4389 40.7356 41.615 40.6695 41.7308 40.5514L45.5005 36.6319C45.6465 36.4855 45.6867 36.2683 45.6012 36.0841C45.5156 35.9 45.3244 35.7772 45.1079 35.7725V35.7772Z" fill="#FFD278"/>
<path d="M45.3939 45.533C45.1523 45.5283 44.9359 45.6747 44.8604 45.8872C44.7849 46.1044 44.8755 46.3406 45.0768 46.4681C46.9542 47.6959 47.2712 48.2295 48.298 48.9048C49.2543 49.5328 49.2341 49.5187 49.2442 49.5234C49.3599 49.6084 49.5059 49.6462 49.6519 49.6273C49.7978 49.6084 49.9287 49.5375 50.0142 49.4289C50.1048 49.3203 50.1401 49.1834 50.125 49.0464C50.1048 48.9095 50.0293 48.7867 49.9136 48.7064C49.9035 48.7017 49.8834 48.6875 48.9271 48.0595C48.0413 47.4786 47.6537 46.8978 45.706 45.6228C45.6154 45.5614 45.5097 45.5283 45.3989 45.5283L45.3939 45.533Z" fill="#FFD278"/>
<path d="M50.5671 48.1308C50.0437 48.1686 49.5354 48.3952 49.173 48.7966C48.4432 49.5994 48.5489 50.8178 49.4045 51.4978C50.2601 52.1778 51.5586 52.0786 52.2935 51.2806C53.0233 50.4778 52.9176 49.2594 52.0619 48.5794C51.6341 48.2394 51.0956 48.093 50.5722 48.1308H50.5671ZM50.6527 49.1272C50.9043 49.1083 51.161 49.1791 51.3674 49.3444C51.7851 49.675 51.8304 50.2369 51.4781 50.6289C51.1258 51.0161 50.5118 51.0633 50.094 50.7328C49.6763 50.4022 49.626 49.8403 49.9833 49.4483C50.1595 49.2547 50.401 49.1461 50.6527 49.1272Z" fill="#FFD278"/>
<path d="M45.3616 45.5335C45.2559 45.5382 45.1553 45.5713 45.0697 45.6279C43.1219 46.9077 42.7294 47.4885 41.8486 48.0646C40.8923 48.6927 40.8621 48.7116 40.852 48.721C40.7363 48.806 40.6608 48.9288 40.6457 49.0658C40.6306 49.2027 40.6708 49.3397 40.7614 49.4483C40.852 49.5569 40.9879 49.623 41.1339 49.6372C41.2798 49.6513 41.4258 49.6088 41.5365 49.5191C41.5466 49.5144 41.5164 49.5333 42.4727 48.9052C43.4994 48.2299 43.8215 47.6963 45.6938 46.4685C45.8951 46.341 45.9857 46.1002 45.9052 45.8782C45.8247 45.661 45.6032 45.5193 45.3566 45.5288L45.3616 45.5335Z" fill="#FFD278"/>
<path d="M40.2087 48.1308C39.6853 48.093 39.1468 48.2394 38.719 48.5794C37.8633 49.2594 37.7576 50.4778 38.4874 51.2806C39.2172 52.0834 40.5157 52.1778 41.3764 51.4978C42.232 50.8178 42.3377 49.5994 41.6079 48.7966C41.2405 48.3952 40.7372 48.1733 40.2138 48.1308H40.2087ZM40.1232 49.1272C40.3748 49.1461 40.6164 49.2547 40.7926 49.4483C41.1449 49.8356 41.0996 50.4022 40.6818 50.7328C40.2641 51.0633 39.6501 51.0161 39.2978 50.6289C38.9454 50.2417 38.9907 49.675 39.4085 49.3444C39.6148 49.1791 39.8766 49.1083 40.1232 49.1272Z" fill="#FFD278"/>
<path d="M45.6697 53.8496C45.1462 53.8118 44.6077 53.9582 44.1799 54.2982C43.3243 54.9782 43.2186 56.1965 43.9484 56.9993C44.6782 57.8021 45.9767 57.8966 46.8373 57.2165C47.693 56.5365 47.7986 55.3182 47.0689 54.5154C46.7014 54.114 46.1981 53.8921 45.6747 53.8496H45.6697ZM45.5841 54.846C45.8358 54.8648 46.0773 54.9735 46.2535 55.1671C46.6058 55.5543 46.5605 56.121 46.1428 56.4515C45.725 56.7821 45.111 56.7349 44.7587 56.3476C44.4064 55.9604 44.4517 55.3937 44.8694 55.0632C45.0758 54.8979 45.3375 54.8271 45.5841 54.846Z" fill="#FFD278"/>
<path d="M51.5036 28.9014C51.4432 28.9014 51.4382 28.9014 45.7408 28.9391C40.0685 28.9769 28.6687 28.873 17.2689 28.9486C17.0726 28.9486 16.8863 29.0053 16.7505 29.0997C16.6146 29.1941 16.5391 29.3216 16.5391 29.4539C16.5391 29.5861 16.6196 29.7136 16.7605 29.808C16.9014 29.9025 17.0877 29.9544 17.284 29.9497C28.6637 29.8742 40.0383 29.978 45.7559 29.9403C51.4533 29.9025 51.4432 29.9025 51.5036 29.9025C51.6999 29.9025 51.8861 29.8505 52.027 29.7561C52.168 29.6617 52.2435 29.5342 52.2435 29.4019C52.2435 29.2697 52.1629 29.1422 52.027 29.0478C51.8861 28.9533 51.6999 28.9014 51.5036 28.9014Z" fill="#FFD278"/>
<path d="M29.5705 29.7284C29.4144 29.7284 29.2685 29.7898 29.1678 29.8984C29.0672 30.0071 29.0168 30.1487 29.0319 30.2951C29.2433 32.439 29.0118 33.0151 29.1276 34.1863C29.2333 35.2771 29.2333 35.2299 29.2333 35.2393C29.2333 35.3763 29.2886 35.5085 29.3943 35.603C29.495 35.7021 29.6359 35.7541 29.7819 35.7541C29.9278 35.7541 30.0687 35.7021 30.1694 35.603C30.2701 35.5085 30.3305 35.3763 30.3305 35.2393C30.3305 35.1024 30.3305 35.1827 30.2197 34.0871C30.1191 33.0765 30.3405 32.4201 30.1241 30.1959C30.104 29.9268 29.8624 29.719 29.5755 29.7237L29.5705 29.7284Z" fill="#FFD278"/>
<path d="M29.7767 34.7432C28.6543 34.7432 27.7383 35.6121 27.7383 36.6651C27.7383 37.7182 28.6543 38.5871 29.7767 38.5871C30.899 38.5871 31.815 37.7182 31.815 36.6651C31.815 35.6121 30.9494 34.8046 29.8773 34.7526C29.8421 34.7479 29.8119 34.7432 29.7767 34.7432ZM29.7767 35.7443C30.3202 35.7443 30.748 36.1504 30.748 36.6651C30.748 37.1799 30.3202 37.586 29.7767 37.586C29.2331 37.586 28.8053 37.1799 28.8053 36.6651C28.8053 36.1504 29.2331 35.7443 29.7767 35.7443Z" fill="#FFD278"/>
<path d="M32.6185 19.1885C31.4961 19.1885 30.5801 20.0574 30.5801 21.1105C30.5801 22.1635 31.4458 22.971 32.5178 23.023C32.553 23.0277 32.5832 23.0324 32.6185 23.0324C33.7408 23.0324 34.6568 22.1635 34.6568 21.1105C34.6568 20.0574 33.7408 19.1885 32.6185 19.1885ZM32.6185 20.1896C33.162 20.1896 33.5898 20.5957 33.5898 21.1105C33.5898 21.6252 33.162 22.0313 32.6185 22.0313C32.0749 22.0313 31.6471 21.6252 31.6471 21.1105C31.6471 20.5957 32.0799 20.1896 32.6185 20.1896Z" fill="#FFD278"/>
<path d="M32.6119 22.0117C32.33 22.0117 32.0985 22.2148 32.0733 22.4792L31.7261 25.6148C31.7059 25.7754 31.7764 25.9407 31.9022 26.0493L36.0796 29.5863C36.1853 29.6807 36.3313 29.7327 36.4773 29.7279C36.6232 29.7232 36.7641 29.6618 36.8598 29.5579C36.9604 29.454 37.0108 29.3218 37.0007 29.1802C36.9906 29.0432 36.9252 28.9157 36.8145 28.826L32.8434 25.4637L33.1655 22.5878C33.1856 22.4414 33.1353 22.2951 33.0296 22.1864C32.9239 22.0778 32.7729 22.0164 32.6169 22.0164L32.6119 22.0117Z" fill="#FFD278"/>
<path d="M26.0503 28.9629C25.8691 28.9629 25.703 29.0479 25.6024 29.1896C24.2938 30.951 23.725 31.2485 23.0053 32.2118C22.3359 33.1091 22.3661 33.0713 22.3611 33.0807C22.2655 33.1846 22.2202 33.3216 22.2353 33.4538C22.2453 33.5907 22.3158 33.7135 22.4265 33.8032C22.5373 33.893 22.6832 33.9355 22.8241 33.9213C22.9701 33.9119 23.101 33.8457 23.1966 33.7419C23.2066 33.7324 23.2368 33.6946 23.9012 32.7974C24.5203 31.971 25.1393 31.6027 26.4983 29.7751C26.6191 29.6193 26.6342 29.4115 26.5385 29.2415C26.4429 29.0715 26.2567 28.9629 26.0503 28.9629Z" fill="#FFD278"/>
<path d="M21.6365 32.585C21.1131 32.6228 20.6098 32.8495 20.2474 33.2509C19.5226 34.0537 19.6283 35.2767 20.4789 35.9615C21.3345 36.6462 22.633 36.547 23.3578 35.7442C24.0825 34.9415 23.9769 33.7231 23.1263 33.0337C22.6985 32.6889 22.1599 32.5473 21.6365 32.585ZM21.7221 33.5767C21.9687 33.5578 22.2203 33.6287 22.4267 33.7939C22.8394 34.1245 22.8897 34.7006 22.5374 35.0926C22.1851 35.4845 21.5862 35.527 21.1684 35.1965C20.7557 34.8659 20.7054 34.2898 21.0577 33.8978C21.2338 33.7042 21.4704 33.5909 21.717 33.5767H21.7221Z" fill="#FFD278"/>
<path d="M22.7764 25.0342C22.565 25.0342 22.3687 25.1475 22.2781 25.327C22.1875 25.5064 22.2127 25.7189 22.3486 25.8747C22.3536 25.8842 22.3335 25.8559 23.0028 26.7531C23.7226 27.7164 24.2913 28.0187 25.5999 29.7754C25.6804 29.8887 25.8113 29.9643 25.9522 29.9879C26.0931 30.0115 26.2441 29.9831 26.3599 29.9029C26.4807 29.8226 26.5612 29.7045 26.5864 29.5723C26.6115 29.4401 26.5763 29.2984 26.4958 29.1898C25.1318 27.3623 24.5128 26.9939 23.8987 26.1675C23.2293 25.2703 23.2092 25.242 23.1991 25.2372C23.0985 25.1145 22.9374 25.0389 22.7713 25.0389L22.7764 25.0342Z" fill="#FFD278"/>
<path d="M21.9645 22.5595C21.441 22.5217 20.9025 22.6681 20.4747 23.0081C19.6191 23.6929 19.5184 24.9112 20.2432 25.7187C20.9679 26.5215 22.2665 26.6254 23.1221 25.936C23.9777 25.2512 24.0784 24.0329 23.3536 23.2254C22.9912 22.824 22.4829 22.5973 21.9645 22.5548V22.5595ZM21.8789 23.5512C22.1255 23.5701 22.3621 23.6787 22.5383 23.8723C22.8906 24.2643 22.8402 24.8404 22.4275 25.1709C22.0148 25.5015 21.4159 25.459 21.0585 25.067C20.7062 24.6751 20.7566 24.099 21.1693 23.7684C21.3756 23.6031 21.6273 23.5323 21.8739 23.5512H21.8789Z" fill="#FFD278"/>
<path d="M15.8688 27.6835C15.3453 27.6458 14.8068 27.7921 14.379 28.1322C13.5234 28.8169 13.4227 30.0352 14.1475 30.8428C14.8722 31.6455 16.1708 31.7447 17.0264 31.06C17.882 30.3752 17.9827 29.1569 17.2579 28.3494C16.8955 27.948 16.3872 27.7213 15.8688 27.6835ZM15.7832 28.6752C16.0298 28.6941 16.2664 28.8027 16.4425 28.9963C16.7949 29.3883 16.7445 29.9644 16.3318 30.295C15.9191 30.6255 15.3151 30.583 14.9628 30.1911C14.6105 29.7991 14.6609 29.223 15.0736 28.8924C15.2799 28.7272 15.5316 28.6563 15.7782 28.6752H15.7832Z" fill="#FFD278"/>
<path d="M84.7418 32.9863C83.6496 32.9863 82.7487 33.8033 82.7034 34.8186C82.6984 34.8469 82.6934 34.8705 82.6934 34.8989C82.6934 34.9272 82.6934 34.9555 82.7034 34.9791C82.7487 35.9944 83.6496 36.8114 84.7418 36.8114C85.834 36.8114 86.7903 35.9519 86.7903 34.8989C86.7903 33.8458 85.8642 32.9863 84.7418 32.9863ZM84.7418 33.9922C85.2904 33.9922 85.7232 34.3936 85.7232 34.9036C85.7232 35.4136 85.2904 35.815 84.7418 35.815C84.1932 35.815 83.7604 35.4136 83.7604 34.9036C83.7604 34.3936 84.1932 33.9922 84.7418 33.9922Z" fill="#FFD278"/>
<path d="M76.0854 30.7952C75.874 30.8046 75.6878 30.9274 75.6072 31.1163C75.5267 31.3005 75.567 31.513 75.7129 31.6594L79.4827 35.5789C79.5984 35.7016 79.7696 35.763 79.9457 35.7441L83.2877 35.4183C83.4336 35.4089 83.5695 35.3427 83.6652 35.2341C83.7608 35.1255 83.8061 34.9886 83.7859 34.8516C83.7708 34.7147 83.6954 34.5872 83.5796 34.5022C83.4638 34.4172 83.3179 34.3794 83.1719 34.3936L80.1068 34.6958L76.5233 30.9699C76.4125 30.8518 76.2515 30.7905 76.0854 30.7952Z" fill="#FFD278"/>
<path d="M58.5657 49.7266C58.5305 49.7266 58.4953 49.7266 58.46 49.736C57.388 49.7879 56.5273 50.6285 56.5273 51.6485C56.5273 52.6685 57.4434 53.5705 58.5657 53.5705C59.6881 53.5705 60.6041 52.7016 60.6041 51.6485C60.6041 50.5955 59.6881 49.7266 58.5657 49.7266ZM58.5657 50.7277C59.1093 50.7277 59.5371 51.1338 59.5371 51.6485C59.5371 52.1633 59.1093 52.5694 58.5657 52.5694C58.0222 52.5694 57.5943 52.1633 57.5943 51.6485C57.5943 51.1338 58.0222 50.7277 58.5657 50.7277Z" fill="#FFD278"/>
<path d="M54.7008 43.0404C54.4793 43.0498 54.283 43.1868 54.2126 43.3851C54.1421 43.5834 54.2025 43.8007 54.3686 43.9376L58.3397 47.2999L58.0175 50.1757C58.0024 50.3127 58.0427 50.4496 58.1333 50.5535C58.2239 50.6574 58.3598 50.7283 58.5007 50.7424C58.6467 50.7566 58.7926 50.7141 58.9034 50.6291C59.0141 50.5441 59.0896 50.4166 59.0996 50.2844L59.4469 47.1488C59.4671 46.9882 59.4016 46.8229 59.2708 46.7143L55.0933 43.1773C54.9826 43.0829 54.8417 43.0356 54.6907 43.0404H54.7008Z" fill="#FFD278"/>
<path d="M6.17931 22.4743C5.05694 22.4743 4.13086 23.3337 4.13086 24.3868C4.13086 25.4399 5.05694 26.2993 6.17931 26.2993C7.30168 26.2993 8.1724 25.4824 8.21769 24.4624C8.22273 24.434 8.22776 24.4104 8.22776 24.3821C8.22776 24.3538 8.22776 24.3302 8.21769 24.3018C8.1724 23.2865 7.27148 22.4648 6.17931 22.4648V22.4743ZM6.17931 23.4754C6.72791 23.4754 7.16075 23.8815 7.16075 24.3868C7.16075 24.8921 6.72791 25.2982 6.17931 25.2982C5.63071 25.2982 5.19787 24.8968 5.19787 24.3868C5.19787 23.8768 5.63071 23.4754 6.17931 23.4754Z" fill="#FFD278"/>
<path d="M11.0561 23.5513C11.0309 23.5513 11.0058 23.5513 10.9806 23.5513L7.63868 23.8771C7.49272 23.8913 7.36186 23.9574 7.26623 24.0613C7.17564 24.1652 7.13034 24.3021 7.14544 24.4391C7.16054 24.576 7.231 24.6988 7.34676 24.7838C7.46252 24.8688 7.60345 24.9113 7.7494 24.8924L10.8145 24.5902L14.3981 28.3161C14.4937 28.42 14.6296 28.4813 14.7755 28.4908C14.9215 28.5002 15.0674 28.453 15.1731 28.3586C15.2839 28.2688 15.3443 28.1366 15.3543 27.9997C15.3594 27.8627 15.309 27.7258 15.2084 27.6266L11.4386 23.7071C11.338 23.6032 11.2021 23.5418 11.0511 23.5371L11.0561 23.5513Z" fill="#FFD278"/>
<path d="M30.1983 6.14971C30.0624 6.15915 29.9265 6.17804 29.7906 6.21109C28.7085 6.48499 28.0593 7.5475 28.3512 8.56279C28.633 9.54975 29.695 10.1495 30.7469 9.94171C30.7821 9.93698 30.8174 9.93698 30.8476 9.92754C30.8828 9.91809 30.913 9.90865 30.9482 9.88976C31.9699 9.57809 32.5689 8.55807 32.287 7.57111C32.0303 6.6786 31.1395 6.09776 30.1933 6.14971H30.1983ZM30.455 7.15555C30.8325 7.20278 31.1546 7.45778 31.2603 7.83084C31.4012 8.32668 31.0992 8.82252 30.5758 8.95475C30.0523 9.08697 29.5239 8.79891 29.383 8.30307C29.242 7.80723 29.544 7.31139 30.0674 7.17916C30.1983 7.14611 30.3292 7.14139 30.455 7.15555Z" fill="#FFD278"/>
<path d="M30.7264 8.92188C30.5604 8.92188 30.4043 8.98327 30.2986 9.10132C30.1929 9.21938 30.1476 9.37522 30.1728 9.52633L30.7013 12.6383C30.7264 12.7989 30.8372 12.9405 30.9932 13.0161L36.0011 15.4198C36.1319 15.4811 36.2829 15.4953 36.4188 15.4528C36.5597 15.4103 36.6755 15.3206 36.7409 15.1978C36.8064 15.075 36.8215 14.9334 36.7762 14.8059C36.7309 14.6736 36.6302 14.5697 36.4993 14.5083L31.7381 12.2228L31.2549 9.36577C31.2147 9.12021 30.9932 8.93132 30.7264 8.9266V8.92188Z" fill="#FFD278"/>
<path d="M26.6668 44.0463C26.0126 44.0935 25.3885 44.4335 25.0361 45.0002C24.4724 45.9116 24.8046 47.0969 25.781 47.621C26.7524 48.1452 28.0107 47.8241 28.5744 46.9127C29.1381 46.0013 28.8059 44.816 27.8345 44.2918C27.8043 44.2729 27.7691 44.2588 27.7339 44.2493C27.3966 44.0888 27.0292 44.0179 26.6719 44.0415L26.6668 44.0463ZM26.9286 45.0474C27.0544 45.0616 27.1802 45.0993 27.296 45.1654C27.7641 45.4205 27.9201 45.973 27.6483 46.4169C27.3715 46.8655 26.7876 47.0119 26.3196 46.7569C25.8515 46.5019 25.6955 45.9494 25.9673 45.5055C26.1736 45.1702 26.5561 45.0049 26.9336 45.0474H26.9286Z" fill="#FFD278"/>
<path d="M34.4626 40.2305C34.4123 40.2305 34.362 40.2305 34.3167 40.2446L28.8156 41.3497C28.6445 41.3827 28.5035 41.4913 28.4331 41.6424L27.0641 44.523C27.0037 44.6458 26.9936 44.7922 27.0439 44.9197C27.0943 45.0472 27.2 45.1558 27.3359 45.2078C27.4718 45.2644 27.6227 45.2692 27.7586 45.2172C27.8945 45.1653 28.0053 45.0661 28.0606 44.9386L29.3189 42.2988L34.5482 41.2505C34.82 41.1985 35.0062 40.9672 34.9861 40.7074C34.966 40.4477 34.7395 40.2446 34.4677 40.2352L34.4626 40.2305Z" fill="#FFD278"/>
<path d="M74.2064 42.3691C74.1711 42.3691 74.1359 42.3691 74.1007 42.3786C73.0286 42.4353 72.168 43.2711 72.168 44.2911C72.168 45.3111 73.089 46.2131 74.2064 46.2131C75.3237 46.2131 76.2447 45.3442 76.2447 44.2911C76.2447 43.238 75.3287 42.3691 74.2064 42.3691ZM74.2064 43.375C74.7449 43.375 75.1777 43.7811 75.1777 44.2958C75.1777 44.8106 74.7499 45.2167 74.2064 45.2167C73.6628 45.2167 73.235 44.8106 73.235 44.2958C73.235 43.7811 73.6628 43.375 74.2064 43.375Z" fill="#FFD278"/>
<path d="M70.3416 35.6828C70.1202 35.6922 69.9239 35.8292 69.8534 36.0275C69.7779 36.2258 69.8434 36.4431 70.0094 36.58L73.9805 39.9423L73.6634 42.8182C73.6483 42.9551 73.6886 43.0921 73.7792 43.1959C73.8698 43.3046 74.0057 43.3707 74.1516 43.3848C74.2976 43.399 74.4436 43.3565 74.5543 43.2715C74.665 43.1865 74.7405 43.059 74.7506 42.922L75.0979 39.7865C75.118 39.6259 75.0475 39.4606 74.9217 39.352L70.7443 35.815C70.6336 35.7206 70.4926 35.6733 70.3416 35.6781V35.6828Z" fill="#FFD278"/>
<path d="M10.9232 29.7139C10.3997 29.7139 9.87628 29.898 9.47867 30.2711C8.68345 31.0172 8.68848 32.2403 9.4837 32.9864C10.2588 33.7137 11.507 33.7325 12.3072 33.0431C12.3324 33.0289 12.3525 33.01 12.3777 32.9911C12.3978 32.9722 12.4129 32.9534 12.428 32.9345C13.1629 32.1836 13.1427 31.0078 12.3676 30.2805C11.97 29.9075 11.4466 29.7186 10.9232 29.7186V29.7139ZM10.9232 30.7103C11.1698 30.7103 11.4214 30.8 11.6177 30.9842C12.0053 31.3478 12.0053 31.9192 11.6227 32.2781C11.2402 32.637 10.6312 32.637 10.2437 32.2733C9.85615 31.9097 9.85615 31.3383 10.2387 30.9794C10.4299 30.8 10.6765 30.7103 10.9282 30.7103H10.9232Z" fill="#FFD278"/>
<path d="M11.9934 32.1131C11.782 32.1131 11.5857 32.2265 11.4951 32.4059C11.4045 32.5854 11.4347 32.7979 11.5706 32.9537L13.6895 35.3998C13.8003 35.5273 13.9664 35.5982 14.1425 35.5887L19.7594 35.3196C19.9054 35.3196 20.0463 35.2582 20.1469 35.1543C20.2476 35.0551 20.2979 34.9182 20.2929 34.7812C20.2879 34.6443 20.2174 34.512 20.1067 34.4223C19.996 34.3326 19.85 34.2854 19.704 34.2948L14.364 34.5498L12.4212 32.302C12.3206 32.1792 12.1595 32.1084 11.9934 32.1084V32.1131Z" fill="#FFD278"/>
<path d="M57.992 5.56836C57.4686 5.56836 56.9451 5.75725 56.5475 6.13031C55.7775 6.85282 55.7574 8.01923 56.4771 8.77007C56.4972 8.79841 56.5173 8.82202 56.5425 8.84563C57.3377 9.59175 58.6413 9.58703 59.4365 8.84091C60.2317 8.09478 60.2368 6.87171 59.4415 6.12559C59.0439 5.75253 58.5205 5.56836 57.9971 5.56836H57.992ZM57.992 6.56476C58.2386 6.56476 58.4903 6.65449 58.6815 6.83393C59.0641 7.19283 59.0641 7.76423 58.6765 8.12784C58.289 8.49146 57.68 8.49146 57.2975 8.13256C56.9149 7.77367 56.915 7.20227 57.3025 6.83865C57.4988 6.65448 57.7454 6.56476 57.9971 6.56476H57.992Z" fill="#FFD278"/>
<path d="M56.9094 7.97277C56.7886 7.97277 56.6678 8.02 56.5722 8.09083L53.96 10.0789C53.8241 10.1828 53.7486 10.3386 53.7587 10.5039L54.0456 15.774C54.0506 15.911 54.116 16.0385 54.2217 16.1329C54.3274 16.2226 54.4734 16.2746 54.6193 16.2651C54.7653 16.2557 54.9012 16.199 54.9968 16.0951C55.0925 15.9912 55.1428 15.859 55.1378 15.7221L54.866 10.7117L57.2617 8.8889C57.4479 8.75195 57.5184 8.52056 57.4379 8.31278C57.3573 8.105 57.1459 7.96805 56.9094 7.97277Z" fill="#FFD278"/>
<path d="M80.1322 25.1611C79.6088 25.1611 79.0853 25.3453 78.6877 25.7184C78.6626 25.742 78.6374 25.7703 78.6173 25.7986C77.9026 26.5495 77.9227 27.7112 78.6928 28.4337C79.488 29.1798 80.7915 29.1845 81.5868 28.4384C82.382 27.6923 82.3769 26.4692 81.5817 25.7231C81.1841 25.35 80.6607 25.1611 80.1372 25.1611H80.1322ZM80.1322 26.1575C80.3788 26.1575 80.6305 26.2473 80.8268 26.4314C81.2143 26.795 81.2143 27.3664 80.8318 27.7253C80.4493 28.0842 79.8403 28.0842 79.4528 27.7206C79.0652 27.357 79.0652 26.7856 79.4477 26.4267C79.639 26.2473 79.8856 26.1575 80.1372 26.1575H80.1322Z" fill="#FFD278"/>
<path d="M76.939 23.1125H76.9188L71.3019 23.3817C71.156 23.3864 71.0201 23.4478 70.9194 23.547C70.8238 23.6461 70.7685 23.7831 70.7785 23.92C70.7886 24.057 70.849 24.1845 70.9597 24.2742C71.0704 24.3639 71.2114 24.4112 71.3573 24.4017L76.6974 24.1467L78.6401 26.3945C78.7307 26.5031 78.8616 26.5692 79.0075 26.5834C79.1535 26.5976 79.2995 26.5598 79.4102 26.4701C79.5209 26.3851 79.5964 26.2576 79.6115 26.1254C79.6266 25.9884 79.5813 25.8562 79.4907 25.7476L77.3718 23.3014C77.2661 23.1786 77.1101 23.1078 76.939 23.1125Z" fill="#FFD278"/>
<path d="M84.9026 39.1348C84.3792 39.1348 83.8558 39.3237 83.4581 39.6967C82.6831 40.424 82.6629 41.5998 83.3978 42.3506C83.4129 42.3743 83.433 42.3931 83.4531 42.412C83.4733 42.4309 83.4984 42.4498 83.5185 42.464C84.3188 43.1534 85.572 43.1345 86.3421 42.4073C87.1373 41.6612 87.1423 40.4381 86.3471 39.692C85.9495 39.3189 85.4261 39.1348 84.9026 39.1348ZM84.9026 40.1312C85.1492 40.1312 85.4009 40.2209 85.5922 40.4003C85.9747 40.7592 85.9747 41.3306 85.5871 41.6942C85.1996 42.0579 84.5906 42.0579 84.2081 41.699C83.8256 41.3401 83.8256 40.7687 84.2131 40.4051C84.4094 40.2209 84.656 40.1312 84.9077 40.1312H84.9026Z" fill="#FFD278"/>
<path d="M83.8137 41.5332C83.6527 41.5379 83.5017 41.6087 83.401 41.7268L81.4583 43.9746L76.1182 43.7196C75.9722 43.7102 75.8313 43.7574 75.7206 43.8471C75.6099 43.9368 75.5444 44.0691 75.5394 44.2013C75.5344 44.3382 75.5847 44.4704 75.6803 44.5743C75.776 44.6735 75.9169 44.7349 76.0629 44.7396L81.6797 45.0088C81.8559 45.0182 82.022 44.9474 82.1327 44.8199L84.2516 42.369C84.3875 42.2132 84.4177 41.996 84.3221 41.8165C84.2264 41.6371 84.0302 41.5237 83.8137 41.5285V41.5332Z" fill="#FFD278"/>
<path d="M71.6858 16.7176C71.1624 16.7176 70.639 16.9065 70.2414 17.2796C69.4663 18.0068 69.4461 19.1827 70.1809 19.9288C70.196 19.9524 70.2162 19.9713 70.2363 19.9902C70.2564 20.0091 70.2816 20.0279 70.3017 20.0421C71.102 20.7268 72.3552 20.7127 73.1253 19.9854C73.9205 19.2393 73.9255 18.0162 73.1303 17.2701C72.7327 16.8971 72.2093 16.7129 71.6858 16.7129V16.7176ZM71.6858 17.714C71.9325 17.714 72.1841 17.8037 72.3754 17.9832C72.7579 18.3421 72.7579 18.9135 72.3703 19.2771C71.9828 19.6407 71.3738 19.6407 70.9913 19.2818C70.6088 18.9229 70.6088 18.3515 70.9963 17.9879C71.1926 17.8037 71.4392 17.714 71.6858 17.714Z" fill="#FFD278"/>
<path d="M70.5981 19.1212C70.437 19.126 70.286 19.1968 70.1853 19.3149L68.2426 21.5627L62.9025 21.3077C62.7566 21.2982 62.6106 21.3454 62.4999 21.4352C62.3892 21.5249 62.3237 21.6571 62.3137 21.7941C62.3036 21.931 62.359 22.068 62.4596 22.1671C62.5603 22.271 62.6962 22.3277 62.8472 22.3324L68.464 22.6016C68.6402 22.611 68.8063 22.5402 68.917 22.4127L71.0359 19.9618C71.1718 19.806 71.202 19.5888 71.1064 19.4093C71.0108 19.2251 70.8145 19.1165 70.5981 19.1212Z" fill="#FFD278"/>
<path d="M2.04342 31.8203C1.51998 31.8203 0.996548 32.0092 0.598938 32.3823C-0.196283 33.1284 -0.201315 34.3515 0.593906 35.0976C1.38913 35.8437 2.69269 35.839 3.48791 35.0929C4.25796 34.3704 4.27809 33.2039 3.55836 32.4531C3.53823 32.4248 3.5181 32.4012 3.49294 32.3775C3.47784 32.3634 3.45771 32.3539 3.44261 32.3398C3.43254 32.3303 3.42248 32.3256 3.41241 32.3162C3.02487 31.9903 2.53666 31.8203 2.04845 31.8203H2.04342ZM2.04342 32.8167C2.29004 32.8167 2.54169 32.9064 2.73295 33.0859C3.11546 33.4448 3.11546 34.0162 2.72791 34.3798C2.34037 34.7434 1.73137 34.7434 1.34886 34.3845C0.966351 34.0256 0.96635 33.4542 1.35389 33.0906C1.55018 32.9064 1.7968 32.8167 2.04845 32.8167H2.04342Z" fill="#FFD278"/>
<path d="M5.22897 29.7703C5.06288 29.7703 4.90685 29.8412 4.80116 29.9592L2.68225 32.4054C2.59165 32.5093 2.54636 32.6462 2.56145 32.7832C2.57655 32.9201 2.64702 33.0429 2.76278 33.1279C2.8735 33.2129 3.01946 33.2554 3.16542 33.2412C3.31138 33.2271 3.44223 33.161 3.53283 33.0523L5.48565 30.7951L9.90467 30.8234C10.0506 30.8234 10.1915 30.7762 10.2972 30.677C10.4029 30.5826 10.4633 30.4504 10.4633 30.3134C10.4633 30.1765 10.408 30.0442 10.3023 29.9451C10.1966 29.8459 10.0557 29.794 9.9097 29.794L5.22394 29.7656L5.22897 29.7703Z" fill="#FFD278"/>
<path d="M60.6638 37.5901C60.5179 37.5901 60.377 37.6515 60.2763 37.7459C60.1756 37.8451 60.1203 37.9773 60.1253 38.1143C60.1253 38.2512 60.1907 38.3787 60.2964 38.4732C60.4021 38.5676 60.5431 38.6196 60.689 38.6101C62.979 38.5534 63.5729 38.8084 64.8262 38.7754C65.9938 38.7471 65.9787 38.7471 65.9888 38.7471C66.1348 38.7471 66.2757 38.6951 66.3764 38.5959C66.477 38.5015 66.5374 38.3693 66.5374 38.2323C66.5374 38.0954 66.482 37.9632 66.3764 37.8687C66.2757 37.7743 66.1348 37.7176 65.9888 37.7176C65.8429 37.7176 65.9636 37.7176 64.796 37.7459C63.7189 37.7743 63.0344 37.524 60.6588 37.5806L60.6638 37.5901Z" fill="#FFD278"/>
<path d="M67.6466 36.4194C66.5242 36.3486 65.5428 37.1513 65.4623 38.2044C65.3818 39.2575 66.2374 40.1783 67.3597 40.2492C68.4821 40.32 69.4635 39.5172 69.5441 38.4641C69.6246 37.4111 68.769 36.4902 67.6466 36.4194ZM67.5762 37.4205C68.1197 37.4536 68.5173 37.8786 68.4771 38.3886C68.4368 38.8986 67.9738 39.2764 67.4302 39.2433C66.8866 39.2103 66.489 38.7805 66.5293 38.2753C66.5695 37.7652 67.0326 37.3875 67.5762 37.4205Z" fill="#FFD278"/>
<path d="M60.1346 51.384C59.9886 51.384 59.8477 51.4454 59.747 51.5399C59.6463 51.639 59.591 51.7713 59.596 51.9082C59.596 52.0452 59.6614 52.1727 59.7671 52.2671C59.8728 52.3616 60.0138 52.4135 60.1597 52.4041C62.4498 52.3474 63.0436 52.6024 64.2969 52.5693C65.4595 52.541 65.4494 52.541 65.4595 52.541C65.6055 52.541 65.7464 52.4891 65.8521 52.3946C65.9578 52.3002 66.0182 52.1679 66.0182 52.0263C66.0182 51.8893 65.9578 51.7571 65.8571 51.6579C65.7514 51.5635 65.6105 51.5068 65.4645 51.5115C65.4545 51.5115 65.4394 51.5115 64.2717 51.5399C63.1946 51.5682 62.5101 51.3179 60.1346 51.3746V51.384Z" fill="#FFD278"/>
<path d="M67.1173 50.2182C65.995 50.1474 65.0135 50.9502 64.933 52.0032C64.8525 53.0563 65.7081 53.9772 66.8304 54.048C67.9528 54.1188 68.9342 53.316 69.0148 52.263C69.0953 51.2099 68.2397 50.2891 67.1173 50.2182ZM67.0469 51.2193C67.5904 51.2524 67.988 51.6774 67.9478 52.1874C67.9075 52.6974 67.4445 53.0752 66.9009 53.0421C66.3573 53.0091 65.9597 52.5841 66 52.0741C66.0403 51.5641 66.5033 51.1863 67.0469 51.2193Z" fill="#FFD278"/>
<path d="M26.4606 47.2287C26.1586 47.2381 25.922 47.4789 25.9371 47.7623C25.9975 49.9109 25.7257 50.4681 25.761 51.644C25.7912 52.7396 25.7912 52.7254 25.7912 52.7348C25.7912 52.8718 25.8465 53.004 25.9522 53.0985C26.0529 53.1929 26.1938 53.2496 26.3398 53.2496C26.4857 53.2496 26.6267 53.1929 26.7273 53.0985C26.828 52.9993 26.8884 52.8718 26.8833 52.7348C26.8833 52.7254 26.8833 52.7112 26.8531 51.6157C26.8229 50.6051 27.0897 49.9629 27.0293 47.7339C27.0293 47.597 26.9639 47.4648 26.8582 47.3656C26.7525 47.2712 26.6065 47.2192 26.4606 47.2239V47.2287Z" fill="#FFD278"/>
<path d="M26.3734 52.2393C25.251 52.1637 24.2696 52.9665 24.1941 54.0196C24.1186 55.0727 24.9742 55.9935 26.0966 56.0691C27.219 56.1446 28.2004 55.3418 28.2759 54.2888C28.3514 53.2357 27.4958 52.3149 26.3734 52.2393ZM26.2979 53.2404C26.8415 53.2782 27.2441 53.7127 27.2089 54.2227C27.1737 54.7327 26.7207 55.1057 26.1771 55.068C25.6335 55.0302 25.2309 54.5957 25.2661 54.0857C25.3014 53.5757 25.7543 53.2026 26.2979 53.2404Z" fill="#FFD278"/>
<path d="M56.1189 17.0813C55.973 17.0813 55.832 17.138 55.7314 17.2371C55.6307 17.3363 55.5754 17.4685 55.5804 17.6055C55.5804 17.7424 55.6458 17.8746 55.7515 17.9644C55.8572 18.0588 55.9981 18.106 56.1441 18.1013C58.4341 18.0446 59.028 18.2949 60.2813 18.2666C61.4489 18.2383 61.4338 18.2383 61.4439 18.2383C61.5898 18.2383 61.7308 18.1863 61.8365 18.0919C61.9422 17.9974 62.0025 17.8652 62.0025 17.7235C62.0025 17.5819 61.9422 17.4544 61.8365 17.3552C61.7308 17.2607 61.5898 17.2041 61.4439 17.2088C61.4338 17.2088 61.4187 17.2088 60.2511 17.2371C59.174 17.2655 58.4895 17.0152 56.1139 17.0719L56.1189 17.0813Z" fill="#FFD278"/>
<path d="M63.0997 15.9106C61.9774 15.8398 60.9959 16.6426 60.9154 17.6956C60.8349 18.7487 61.6905 19.6695 62.8129 19.7404C63.9352 19.8112 64.9167 19.0084 64.9972 17.9554C65.0777 16.9023 64.2221 15.9814 63.0997 15.9106ZM63.0293 16.9117C63.5729 16.9448 63.9705 17.3698 63.9302 17.8798C63.8899 18.3898 63.4269 18.7676 62.8833 18.7345C62.3397 18.7015 61.9421 18.2765 61.9824 17.7665C62.0227 17.2565 62.4857 16.8787 63.0293 16.9117Z" fill="#FFD278"/>
<path d="M26.5901 19.9668C25.4275 19.9951 25.4376 19.9951 25.4275 19.9951C25.1255 19.9951 24.8789 20.2265 24.8789 20.5099C24.8789 20.7932 25.1255 21.0246 25.4275 21.0246C25.7295 21.0246 25.4527 21.0246 26.6203 20.9963C27.6974 20.9679 28.3819 21.2182 30.7575 21.1615C30.9035 21.1615 31.0444 21.1049 31.145 21.0057C31.2457 20.9065 31.3011 20.7743 31.296 20.6374C31.296 20.5004 31.2306 20.3682 31.1249 20.2785C31.0192 20.184 30.8783 20.1368 30.7323 20.1415C28.4473 20.1982 27.8484 19.9479 26.5952 19.9762L26.5901 19.9668Z" fill="#FFD278"/>
<path d="M24.0646 18.5034C22.9422 18.4325 21.9608 19.2353 21.8802 20.2884C21.7997 21.3415 22.6553 22.2623 23.7777 22.3332C24.9001 22.404 25.8815 21.6012 25.9621 20.5481C26.0426 19.4951 25.187 18.5742 24.0646 18.5034ZM23.9941 19.5045C24.5377 19.5376 24.9353 19.9626 24.895 20.4726C24.8548 20.9826 24.3917 21.3604 23.8482 21.3273C23.3046 21.2942 22.907 20.8692 22.9473 20.3592C22.9875 19.8492 23.4506 19.4714 23.9941 19.5045Z" fill="#FFD278"/>
<path d="M13.0579 15.084C12.5345 15.084 12.011 15.2682 11.6134 15.6412C10.8182 16.3873 10.8233 17.6104 11.6185 18.3565C12.3885 19.079 13.6367 19.0979 14.4319 18.4226C14.4521 18.4085 14.4722 18.399 14.4873 18.3801C14.4923 18.3707 14.5024 18.366 14.5074 18.3613C14.5326 18.3376 14.5527 18.314 14.5729 18.2857C15.2926 17.5349 15.2674 16.3732 14.4974 15.6507C14.0998 15.2776 13.5763 15.0887 13.0529 15.0887L13.0579 15.084ZM13.0579 16.0804C13.3045 16.0804 13.5562 16.1701 13.7525 16.3543C14.14 16.7179 14.14 17.2893 13.7575 17.6482C13.375 18.0071 12.766 18.0071 12.3785 17.6435C11.9909 17.2799 11.9909 16.7085 12.3734 16.3496C12.5647 16.1701 12.8113 16.0804 13.063 16.0804H13.0579Z" fill="#FFD278"/>
<path d="M14.1282 17.4832C13.9168 17.4832 13.7205 17.5966 13.6299 17.776C13.5393 17.9555 13.5695 18.168 13.7054 18.3238L15.8243 20.7699C15.935 20.8975 16.1011 20.9683 16.2773 20.9588L21.8942 20.6897C22.0401 20.685 22.176 20.6236 22.2716 20.5197C22.3673 20.4205 22.4176 20.2836 22.4126 20.1513C22.4075 20.0144 22.3421 19.8869 22.2314 19.7972C22.1257 19.7074 21.9797 19.6602 21.8388 19.6649L16.4987 19.9199L14.556 17.6721C14.4553 17.5493 14.2943 17.4785 14.1282 17.4785V17.4832Z" fill="#FFD278"/>
<path d="M70.5905 59.752C70.0973 59.752 69.6091 59.9172 69.2265 60.2478C69.1964 60.2667 69.1712 60.2856 69.146 60.3092C69.1259 60.3281 69.1108 60.3517 69.0907 60.3753C69.0907 60.3753 69.0856 60.38 69.0806 60.3847C68.3609 61.1356 68.381 62.302 69.1511 63.0245C69.9463 63.7706 71.2498 63.7753 72.0451 63.0292C72.8403 62.2831 72.8352 61.06 72.04 60.3139C71.6424 59.9408 71.119 59.752 70.5955 59.752H70.5905ZM70.5905 60.7483C70.8371 60.7483 71.0888 60.8381 71.2851 61.0222C71.6726 61.3859 71.6726 61.9573 71.2901 62.3161C70.9076 62.675 70.2986 62.675 69.911 62.3114C69.5235 61.9478 69.5235 61.3764 69.906 61.0175C70.0973 60.8381 70.3439 60.7483 70.5955 60.7483H70.5905Z" fill="#FFD278"/>
<path d="M67.2178 52.886C66.9159 52.8766 66.6642 53.0985 66.6491 53.3819L66.3622 58.652C66.3522 58.8172 66.4277 58.9731 66.5635 59.077L69.1707 61.065C69.2814 61.1548 69.4273 61.1973 69.5733 61.1831C69.7193 61.1689 69.8552 61.1028 69.9457 60.9942C70.0363 60.8856 70.0816 60.7487 70.0665 60.6117C70.0514 60.4748 69.9759 60.352 69.8602 60.267L67.4645 58.4442L67.7362 53.4338C67.7463 53.2969 67.696 53.1599 67.5953 53.056C67.4947 52.9521 67.3588 52.8908 67.2078 52.886H67.2178Z" fill="#FFD278"/>
<path d="M77.635 47.1776C77.1116 47.1776 76.5882 47.3665 76.1906 47.7395C75.4155 48.4668 75.3953 49.6426 76.1302 50.3887C76.1453 50.4123 76.1654 50.4312 76.1855 50.4501C76.2057 50.469 76.2308 50.4879 76.251 50.5021C77.0512 51.1868 78.3044 51.1726 79.0745 50.4454C79.8697 49.6993 79.8747 48.4762 79.0795 47.7301C78.6819 47.357 78.1585 47.1729 77.635 47.1729V47.1776ZM77.635 48.174C77.8817 48.174 78.1333 48.2637 78.3246 48.4431C78.7071 48.802 78.7071 49.3734 78.3195 49.7371C77.932 50.1007 77.323 50.1007 76.9405 49.7418C76.558 49.3829 76.558 48.8115 76.9455 48.4479C77.1418 48.2637 77.3884 48.174 77.6401 48.174H77.635Z" fill="#FFD278"/>
<path d="M76.5493 49.5811C76.3882 49.5858 76.2372 49.6566 76.1366 49.7747L74.1938 52.0225L68.8538 51.7675C68.5518 51.7533 68.2951 51.9705 68.28 52.2539C68.2649 52.5372 68.4964 52.778 68.7984 52.7922L74.4153 53.0614C74.5914 53.0708 74.7575 53 74.8682 52.8725L76.9872 50.4263C77.1231 50.2705 77.1532 50.0533 77.0576 49.8738C76.962 49.6944 76.7657 49.5811 76.5493 49.5858V49.5811Z" fill="#FFD278"/>
<path d="M63.5276 8.18457C63.0042 8.18457 62.4808 8.37346 62.0831 8.74652C61.3081 9.47376 61.2879 10.6496 62.0228 11.4004C62.0379 11.4241 62.058 11.443 62.0781 11.4618C62.0982 11.4807 62.1234 11.4996 62.1435 11.5138C62.9438 12.2032 64.197 12.1844 64.9671 11.4571C65.7623 10.711 65.7673 9.48793 64.9721 8.7418C64.5745 8.36874 64.0511 8.18457 63.5276 8.18457ZM63.5276 9.18097C63.7742 9.18097 64.0259 9.2707 64.2172 9.45015C64.5997 9.80904 64.5997 10.3804 64.2121 10.7441C63.8246 11.1077 63.2156 11.1077 62.8331 10.7488C62.4506 10.3899 62.4506 9.81848 62.8381 9.45487C63.0344 9.2707 63.281 9.18097 63.5327 9.18097H63.5276Z" fill="#FFD278"/>
<path d="M62.4396 10.5889C62.2785 10.5936 62.1275 10.6644 62.0268 10.7825L60.0841 13.0303L54.744 12.7753C54.5981 12.7658 54.4571 12.8131 54.3514 12.9075C54.2458 12.9972 54.1803 13.1247 54.1703 13.2617C54.1652 13.3986 54.2156 13.5309 54.3112 13.63C54.4068 13.7292 54.5427 13.7906 54.6887 13.8L60.3055 14.0692C60.4817 14.0786 60.6478 14.0078 60.7585 13.8803L62.8774 11.4342C63.0184 11.2783 63.0435 11.0611 62.9479 10.8816C62.8523 10.7022 62.656 10.5889 62.4396 10.5936V10.5889Z" fill="#FFD278"/>
<path d="M16.4368 9.55859C15.9134 9.55859 15.39 9.74277 14.9923 10.1158C14.1971 10.8619 14.2022 12.085 14.9974 12.8311C15.7926 13.5773 17.0962 13.582 17.8914 12.8359C17.9165 12.8123 17.9367 12.7839 17.9568 12.7603C18.6765 12.0095 18.6514 10.8478 17.8813 10.1253C17.4837 9.75221 16.9603 9.56332 16.4368 9.56332V9.55859ZM16.4368 10.555C16.6834 10.555 16.9351 10.6447 17.1314 10.8289C17.5189 11.1925 17.5189 11.7639 17.1364 12.1228C16.7539 12.4817 16.1449 12.4817 15.7574 12.1181C15.3698 11.7545 15.3698 11.1831 15.7523 10.8242C15.9436 10.6447 16.1902 10.555 16.4419 10.555H16.4368Z" fill="#FFD278"/>
<path d="M17.5053 11.9629C17.2738 11.9629 17.0674 12.1046 16.992 12.3076C16.9165 12.5154 16.992 12.7421 17.1731 12.879L19.5689 14.7018L19.2971 19.7122C19.287 19.8491 19.3374 19.9861 19.433 20.09C19.5286 20.1938 19.6695 20.2552 19.8155 20.2647C19.9614 20.2694 20.1074 20.2222 20.2131 20.1277C20.3238 20.0333 20.3842 19.9058 20.3893 19.7641L20.6761 14.494C20.6862 14.3288 20.6107 14.1729 20.4748 14.069L17.8677 12.0809C17.767 12.0054 17.6412 11.9629 17.5154 11.9629H17.5053Z" fill="#FFD278"/>
<path d="M15.9056 40.9814C14.7832 40.9814 13.8672 41.8504 13.8672 42.9034C13.8672 43.9565 14.7832 44.8254 15.9056 44.8254C17.0279 44.8254 17.944 43.9565 17.944 42.9034C17.944 41.8504 17.0783 41.0428 16.0062 40.9909C15.971 40.9862 15.9408 40.9814 15.9056 40.9814ZM15.9056 41.9873C16.4491 41.9873 16.8769 42.3934 16.8769 42.9081C16.8769 43.4229 16.4491 43.829 15.9056 43.829C15.362 43.829 14.9342 43.4229 14.9342 42.9081C14.9342 42.3934 15.367 41.9873 15.9056 41.9873Z" fill="#FFD278"/>
<path d="M19.7514 34.2949C19.6105 34.2949 19.4695 34.3421 19.3689 34.4319L15.1915 37.9689C15.0606 38.0775 14.9952 38.238 15.0153 38.4033L15.3626 41.5389C15.3777 41.6759 15.4481 41.7986 15.5589 41.8884C15.6696 41.9734 15.8156 42.0159 15.9615 42.0017C16.1075 41.9875 16.2383 41.9214 16.3289 41.8128C16.4195 41.7042 16.4598 41.5672 16.4447 41.435L16.1226 38.5592L20.0936 35.1969C20.2648 35.0552 20.3252 34.8333 20.2497 34.6349C20.1742 34.4366 19.9729 34.3044 19.7464 34.2996L19.7514 34.2949Z" fill="#FFD278"/>
<path d="M32.7532 48.0225C32.718 48.0225 32.6828 48.0225 32.6475 48.0319C31.5755 48.0839 30.7148 48.9244 30.7148 49.9444C30.7148 50.9645 31.6359 51.8664 32.7532 51.8664C33.8706 51.8664 34.7916 50.9975 34.7916 49.9444C34.7916 48.8914 33.931 48.0839 32.8539 48.0319C32.8489 48.0319 32.8438 48.0319 32.8388 48.0319C32.8086 48.0319 32.7834 48.0272 32.7532 48.0272V48.0225ZM32.7532 49.0236C33.2968 49.0236 33.7246 49.4297 33.7246 49.9444C33.7246 50.4592 33.2968 50.8653 32.7532 50.8653C32.2097 50.8653 31.7818 50.4592 31.7818 49.9444C31.7818 49.4297 32.2147 49.0236 32.7532 49.0236Z" fill="#FFD278"/>
<path d="M28.952 41.3309C28.7204 41.3214 28.504 41.449 28.4184 41.652C28.3329 41.8551 28.3883 42.0865 28.5644 42.2281L32.5355 45.5904L32.2184 48.4663C32.1983 48.6032 32.2385 48.7402 32.3342 48.8488C32.4248 48.9574 32.5606 49.0282 32.7066 49.0424C32.8526 49.0566 32.9985 49.0141 33.1143 48.9243C33.23 48.8346 33.3005 48.7071 33.3106 48.5702L33.6578 45.4346C33.678 45.274 33.6125 45.1087 33.4817 45.0001L29.3043 41.4631C29.2086 41.3828 29.0878 41.3309 28.957 41.3262L28.952 41.3309Z" fill="#FFD278"/>
<path d="M56.7583 58.2451C56.2348 58.2451 55.7114 58.434 55.3138 58.8071C54.5186 59.5532 54.5135 60.7763 55.3087 61.5224C56.104 62.2685 57.4075 62.2638 58.2027 61.5177C58.998 60.7715 59.003 59.5485 58.2078 58.8023C58.1826 58.7787 58.1524 58.7551 58.1222 58.7362C57.7347 58.4104 57.2515 58.2451 56.7583 58.2451ZM56.7583 59.2415C57.0049 59.2415 57.2565 59.3312 57.4478 59.5107C57.8303 59.8696 57.8303 60.441 57.4428 60.8046C57.0552 61.1682 56.4462 61.1682 56.0637 60.8093C55.6812 60.4504 55.6812 59.879 56.0687 59.5154C56.265 59.3313 56.5117 59.2415 56.7633 59.2415H56.7583Z" fill="#FFD278"/>
<path d="M60.1647 51.3802C60.0086 51.3754 59.8627 51.4321 59.752 51.536C59.6463 51.6399 59.5909 51.7815 59.601 51.9279L59.8728 56.9383L57.477 58.7611C57.3613 58.8461 57.2858 58.9689 57.2707 59.1058C57.2556 59.2428 57.2958 59.3797 57.3915 59.4883C57.4821 59.5969 57.6179 59.6631 57.7639 59.6772C57.9099 59.6914 58.0558 59.6489 58.1666 59.5592L60.7787 57.5711C60.9146 57.4672 60.9901 57.3113 60.98 57.1461L60.6931 51.876C60.6831 51.6068 60.4515 51.3896 60.1647 51.3802Z" fill="#FFD278"/>
<path d="M66.7337 44.7539C66.2405 44.7539 65.7573 44.9192 65.3697 45.2497C65.3396 45.2686 65.3144 45.2875 65.2892 45.3111C64.494 46.0573 64.499 47.2803 65.2943 48.0265C66.0895 48.7726 67.393 48.7773 68.1883 48.0312C68.9835 47.2851 68.9784 46.062 68.1832 45.3159C67.7856 44.9428 67.2622 44.7539 66.7387 44.7539H66.7337ZM66.7337 45.7503C66.9803 45.7503 67.232 45.84 67.4283 46.0242C67.8158 46.3878 67.8158 46.9592 67.4333 47.3181C67.0508 47.677 66.4418 47.677 66.0542 47.3134C65.6667 46.9498 65.6667 46.3784 66.0492 46.0195C66.2405 45.84 66.4871 45.7503 66.7387 45.7503H66.7337Z" fill="#FFD278"/>
<path d="M63.3624 37.888C63.0604 37.8785 62.8087 38.1005 62.7936 38.3838L62.5068 43.6539C62.4967 43.8192 62.5722 43.975 62.7081 44.0789L65.3152 46.067C65.4259 46.1567 65.5719 46.1992 65.7178 46.1851C65.8638 46.1709 65.9997 46.1048 66.0903 45.9962C66.1809 45.8875 66.2262 45.7506 66.2111 45.6137C66.196 45.4767 66.1205 45.3492 66.0047 45.2689L63.609 43.4461L63.8808 38.4358C63.8908 38.2988 63.8405 38.1619 63.7398 38.058C63.6392 37.9541 63.5033 37.8927 63.3523 37.888H63.3624Z" fill="#FFD278"/>
<path d="M66.9393 58.161C66.8185 58.1562 66.6927 58.1893 66.5971 58.2554C64.6493 59.5352 64.2567 60.116 63.3759 60.6921C62.4196 61.3202 62.3894 61.3391 62.3794 61.3485C62.2636 61.4335 62.1932 61.5563 62.173 61.6932C62.1579 61.8302 62.1982 61.9671 62.2888 62.071C62.3794 62.1796 62.5153 62.2458 62.6612 62.2599C62.8072 62.2741 62.9531 62.2316 63.0639 62.1466C63.0739 62.1419 63.0437 62.1608 64 61.5327C65.0268 60.8574 65.3489 60.3238 67.2212 59.096C67.4175 58.9732 67.503 58.7465 67.4426 58.5293C67.3772 58.3168 67.1759 58.1657 66.9393 58.1562V58.161Z" fill="#FFD278"/>
<path d="M61.7302 60.7578C61.2068 60.72 60.6682 60.8664 60.2404 61.2064C59.3848 61.8864 59.2791 63.1047 60.0089 63.9075C60.7387 64.7103 62.0372 64.8048 62.8979 64.1248C63.7535 63.4447 63.8592 62.2264 63.1294 61.4236C62.762 61.0222 62.2587 60.8003 61.7353 60.7578H61.7302ZM61.6447 61.7542C61.8963 61.7731 62.1379 61.8817 62.3141 62.0753C62.6664 62.4625 62.6211 63.0292 62.2033 63.3597C61.7856 63.6903 61.1715 63.6431 60.8192 63.2559C60.4669 62.8686 60.5122 62.302 60.93 61.9714C61.1363 61.8061 61.398 61.7353 61.6447 61.7542Z" fill="#FFD278"/>
<path d="M62.2226 63.7479C62.0414 63.7432 61.8653 63.8234 61.7596 63.9604C61.6539 64.1021 61.6287 64.2815 61.6941 64.4421C62.5045 66.5388 63.0027 67.044 63.3701 67.9932C63.7677 69.0227 63.7828 69.051 63.7879 69.0605C63.8432 69.188 63.954 69.2871 64.0899 69.3391C64.2257 69.391 64.3767 69.391 64.5126 69.3344C64.6485 69.2777 64.7542 69.1738 64.8046 69.0463C64.8549 68.9188 64.8499 68.7724 64.7895 68.6496C64.7895 68.6402 64.7995 68.6685 64.3969 67.6391C63.9691 66.534 63.501 66.1043 62.7209 64.0879C62.6454 63.8895 62.4491 63.7526 62.2226 63.7432V63.7479Z" fill="#FFD278"/>
<path d="M64.8429 68.224C64.5761 68.2335 64.3094 68.2949 64.0577 68.4082C63.0461 68.8615 62.6082 70.0138 63.0863 70.9677C63.5645 71.9216 64.7925 72.3324 65.8042 71.8791C66.8158 71.4257 67.2537 70.2735 66.7756 69.3196C66.4182 68.6065 65.6381 68.1957 64.8429 68.224ZM64.8932 69.2204C65.2707 69.2016 65.6331 69.3952 65.8092 69.7446C66.0407 70.2074 65.8344 70.7505 65.3462 70.9724C64.8529 71.1944 64.2892 71.0055 64.0527 70.538C63.8212 70.0752 64.0275 69.5321 64.5157 69.3102C64.6365 69.2535 64.7674 69.2252 64.8932 69.2204Z" fill="#FFD278"/>
<path d="M68.9174 12.9972C68.7966 12.9972 68.6758 13.0397 68.5802 13.1105C68.5701 13.1152 68.5953 13.1011 67.639 13.7291C66.6122 14.4044 66.2901 14.938 64.4178 16.1658C64.297 16.2414 64.2115 16.3642 64.1863 16.4964C64.1611 16.6333 64.1913 16.7703 64.2769 16.8836C64.3625 16.997 64.4883 17.0725 64.6342 17.0961C64.7802 17.1197 64.9262 17.0867 65.047 17.0064C66.9947 15.7267 67.3873 15.1458 68.2681 14.5697C69.2244 13.9416 69.2496 13.9228 69.2596 13.918C69.4458 13.7858 69.5213 13.5497 69.4458 13.3419C69.3703 13.1341 69.159 12.9925 68.9224 12.9972H68.9174Z" fill="#FFD278"/>
<path d="M70.238 10.6923C69.7146 10.6545 69.1761 10.8009 68.7482 11.1409C67.8926 11.821 67.7869 13.0393 68.5167 13.8421C69.2465 14.6449 70.545 14.7393 71.4057 14.0593C72.2613 13.3793 72.367 12.161 71.6372 11.3582C71.2698 10.9568 70.7665 10.7348 70.2431 10.6923H70.238ZM70.1525 11.6887C70.4041 11.7076 70.6457 11.8162 70.8219 12.0098C71.1742 12.3971 71.1289 12.959 70.7111 13.2943C70.2934 13.6249 69.6794 13.5776 69.327 13.1904C68.9747 12.8032 69.02 12.2365 69.4378 11.906C69.6441 11.7407 69.9059 11.6698 70.1525 11.6887Z" fill="#FFD278"/>
<path d="M77.5907 18.1533C77.3088 18.1533 77.0773 18.3564 77.0521 18.6208C77.0521 18.6303 77.0521 18.5972 76.8508 19.6739C76.6293 20.8356 76.8105 21.4211 76.4079 23.5367C76.3777 23.6737 76.4079 23.8106 76.4934 23.924C76.579 24.0373 76.7048 24.1129 76.8508 24.1412C76.9967 24.1648 77.1427 24.1317 77.2635 24.0562C77.3843 23.9759 77.4648 23.8531 77.485 23.7209C77.8977 21.525 77.7366 20.8545 77.9279 19.8581C78.1292 18.7814 78.1342 18.7483 78.1393 18.7342C78.1594 18.5878 78.1091 18.4414 78.0034 18.328C77.8977 18.2194 77.7467 18.1533 77.5907 18.158V18.1533Z" fill="#FFD278"/>
<path d="M77.8818 15.3484C76.7644 15.2681 75.7679 16.0614 75.6773 17.1098C75.5817 18.1581 76.4272 19.0931 77.5496 19.1734C78.6669 19.2537 79.6635 18.4604 79.7541 17.412C79.8497 16.3637 79.0041 15.4286 77.8818 15.3484ZM77.8012 16.3495C78.3448 16.3873 78.7323 16.8217 78.687 17.3317C78.6418 17.8417 78.1737 18.2148 77.6301 18.177C77.0865 18.1392 76.699 17.7048 76.7443 17.1948C76.7896 16.6848 77.2577 16.3117 77.8012 16.3495Z" fill="#FFD278"/>
<path d="M30.9082 14.1826C30.6163 14.1968 30.3848 14.4235 30.3848 14.6973C30.3848 14.9712 30.6213 15.1979 30.9132 15.2074C30.9233 15.2074 30.8931 15.2074 32.0507 15.3207C33.2989 15.4435 33.9129 15.2404 36.1879 15.4671C36.3338 15.486 36.4798 15.4482 36.5955 15.3632C36.7113 15.2782 36.7868 15.1507 36.8019 15.0137C36.817 14.8768 36.7717 14.7398 36.6811 14.6312C36.5855 14.5226 36.4496 14.4565 36.3036 14.4471C33.9381 14.2109 33.2385 14.4093 32.1665 14.3007C31.0089 14.1873 30.9736 14.1826 30.9585 14.1826C30.9384 14.1826 30.9233 14.1826 30.9032 14.1826H30.9082Z" fill="#FFD278"/>
<path d="M29.4484 12.756C28.326 12.7419 27.3899 13.5966 27.3848 14.6497C27.3748 15.7027 28.2858 16.5764 29.4081 16.5905C30.5305 16.6047 31.4667 15.75 31.4717 14.6969C31.4817 13.6438 30.5708 12.7702 29.4484 12.756ZM29.4333 13.7572C29.9769 13.7666 30.4097 14.1774 30.4047 14.6875C30.4047 15.1975 29.9668 15.5941 29.4232 15.5847C28.8797 15.5752 28.4468 15.1644 28.4519 14.6544C28.4519 14.1444 28.8897 13.7477 29.4333 13.7572Z" fill="#FFD278"/>
<path d="M23.3937 10.2298C23.1622 10.2392 22.9609 10.3856 22.8955 10.5981C22.83 10.8059 22.9106 11.0326 23.1018 11.1601C23.1119 11.1648 23.0867 11.1459 23.9776 11.8495C24.9389 12.6098 25.573 12.7562 27.3195 14.1398C27.4302 14.2295 27.5762 14.2721 27.7171 14.2579C27.8631 14.2484 27.9939 14.1823 28.0896 14.0784C28.1852 13.9745 28.2305 13.8376 28.2154 13.7007C28.2003 13.5637 28.1349 13.4409 28.0191 13.3512C26.1971 11.9156 25.4975 11.7126 24.6721 11.0609C23.7813 10.3573 23.7511 10.3384 23.741 10.3289C23.6403 10.2534 23.5095 10.2203 23.3837 10.2251L23.3937 10.2298Z" fill="#FFD278"/>
<path d="M22.2047 8.01959C21.5454 8.01487 20.8962 8.30293 20.4986 8.84599C19.8644 9.71489 20.1009 10.9191 21.022 11.5188C21.943 12.1185 23.2265 11.9013 23.8606 11.0324C24.4948 10.1635 24.2582 8.95933 23.3372 8.3596C22.9899 8.13293 22.5923 8.02431 22.1997 8.01959H22.2047ZM22.0034 9.03016C22.245 8.98766 22.5067 9.03488 22.7332 9.18127C23.1812 9.47405 23.2919 10.0407 22.9849 10.461C22.6779 10.8813 22.084 10.9852 21.636 10.6924C21.1881 10.3996 21.0773 9.83295 21.3844 9.41266C21.5404 9.20016 21.7618 9.07266 22.0085 9.03016H22.0034Z" fill="#FFD278"/>
<path d="M14.1472 34.5639C14.0264 34.5592 13.9006 34.5923 13.8049 34.6584C11.8571 35.9381 11.4646 36.519 10.5838 37.0951C9.6275 37.7231 9.5973 37.742 9.58724 37.7515C9.47148 37.8365 9.40101 37.9592 9.38591 38.0962C9.37081 38.2331 9.41108 38.3701 9.50168 38.474C9.59227 38.5826 9.72816 38.6487 9.86908 38.6629C10.015 38.677 10.161 38.6345 10.2717 38.5495C10.2818 38.5448 10.2516 38.5637 11.2079 37.9356C12.2346 37.2603 12.5567 36.7267 14.429 35.4989C14.6253 35.3762 14.7109 35.1495 14.6505 34.937C14.585 34.7245 14.3837 34.5734 14.1472 34.5639Z" fill="#FFD278"/>
<path d="M8.9392 37.1611C8.41576 37.1233 7.87723 37.2697 7.44942 37.6097C6.5938 38.2897 6.48811 39.5081 7.2179 40.3108C7.94769 41.1136 9.24622 41.2081 10.1069 40.5281C10.9625 39.8481 11.0682 38.6297 10.3384 37.8269C9.97098 37.4255 9.46767 37.2036 8.94423 37.1611H8.9392ZM8.85364 38.1575C9.10529 38.1764 9.34688 38.285 9.52303 38.4786C9.87535 38.8658 9.83005 39.4278 9.41231 39.7631C8.99457 40.0936 8.38053 40.0464 8.02822 39.6592C7.67591 39.2719 7.7212 38.7053 8.13895 38.3747C8.3453 38.2094 8.60702 38.1386 8.85364 38.1575Z" fill="#FFD278"/>
<path d="M23.9818 39.4648C23.7201 39.4696 23.4986 39.649 23.4533 39.8946C23.408 40.1401 23.559 40.3762 23.8056 40.4612C23.8157 40.4612 23.7805 40.4518 24.8374 40.9146C25.9749 41.4151 26.6241 41.4057 28.6977 42.3124C28.8286 42.3738 28.9796 42.3785 29.1205 42.3313C29.2564 42.284 29.3722 42.1896 29.4326 42.0668C29.493 41.944 29.503 41.8024 29.4527 41.6702C29.4024 41.5426 29.2967 41.4388 29.1658 41.3821C27.0117 40.4376 26.2819 40.4093 25.3055 39.9843C24.2485 39.5215 24.2133 39.5073 24.2032 39.5026C24.1378 39.479 24.0623 39.4648 23.9918 39.4648H23.9818Z" fill="#FFD278"/>
<path d="M22.4575 37.5862C21.6623 37.6287 20.9274 38.1103 20.6506 38.8565C20.2782 39.8481 20.8368 40.9532 21.8938 41.3121C22.9507 41.6709 24.1285 41.1468 24.5009 40.1504C24.8733 39.1587 24.3147 38.0537 23.2577 37.6948C22.996 37.6051 22.7242 37.572 22.4575 37.5862ZM22.5128 38.5826C22.6387 38.5778 22.7695 38.592 22.8954 38.6392C23.4087 38.814 23.6755 39.3334 23.4893 39.8151C23.3081 40.2968 22.7645 40.5376 22.2511 40.3676C21.7378 40.1929 21.476 39.6734 21.6572 39.1917C21.7931 38.8281 22.1354 38.6062 22.5128 38.5873V38.5826Z" fill="#FFD278"/>
<path d="M38.6229 50.9551C38.4618 50.9551 38.3108 51.0259 38.2101 51.144C36.6801 52.8534 36.4637 53.5098 35.7691 54.2843C35.0192 55.1201 34.994 55.1485 34.989 55.1579C34.9034 55.2665 34.8682 55.4035 34.8883 55.5404C34.9085 55.6774 34.989 55.7954 35.1048 55.8757C35.2205 55.956 35.3665 55.989 35.5124 55.9701C35.6584 55.9513 35.7842 55.8757 35.8698 55.7624C35.8748 55.7529 35.8547 55.7813 36.6046 54.9454C37.4099 54.0435 37.571 53.4532 39.0456 51.8051C39.1866 51.654 39.2168 51.4367 39.1262 51.2526C39.0356 51.0684 38.8393 50.9551 38.6229 50.9551Z" fill="#FFD278"/>
<path d="M34.5919 54.709C33.9326 54.709 33.2833 54.9923 32.8807 55.5354C32.2415 56.3996 32.473 57.6037 33.3991 58.1988C34.3252 58.7938 35.6086 58.5718 36.2478 57.7076C36.887 56.8435 36.6555 55.6393 35.7294 55.0443C35.3821 54.8223 34.9845 54.7137 34.5919 54.709ZM34.3906 55.7243C34.6372 55.6818 34.8989 55.7243 35.1254 55.8707C35.5734 56.1587 35.6841 56.716 35.3721 57.1362C35.06 57.5565 34.456 57.6604 34.0081 57.3724C33.5602 57.0843 33.4494 56.5271 33.7615 56.1068C33.9175 55.8943 34.144 55.7668 34.3906 55.7243Z" fill="#FFD278"/>
<path d="M5.96338 17.5866C5.77716 17.7188 5.70166 17.9455 5.77212 18.1533C5.84259 18.361 6.04895 18.5027 6.28047 18.5074C6.29053 18.5074 6.26033 18.5074 7.41793 18.6113C8.66613 18.7247 9.28016 18.5169 11.5551 18.7247C11.701 18.7388 11.847 18.6963 11.9577 18.6113C12.0685 18.5263 12.144 18.3988 12.154 18.2619C12.1691 18.1249 12.1238 17.9927 12.0332 17.8841C11.9426 17.7802 11.8067 17.7141 11.6608 17.6999C9.29525 17.4827 8.59566 17.6858 7.52363 17.5866C6.36099 17.478 6.33079 17.478 6.3157 17.478C6.18484 17.4733 6.05901 17.5063 5.95835 17.5819L5.96338 17.5866Z" fill="#FFD278"/>
<path d="M3.65009 16.3924C3.10652 16.7371 2.74414 17.318 2.74414 17.9791C2.74414 19.0322 3.66519 19.9011 4.78756 19.9058C5.90992 19.9105 6.83601 19.0511 6.83601 17.998C6.83601 16.9449 5.91496 16.076 4.79259 16.0713C4.36981 16.0713 3.97724 16.1893 3.65009 16.3924ZM4.093 17.3321C4.26916 17.1716 4.51074 17.0724 4.78252 17.0724C5.32609 17.0724 5.76397 17.4833 5.76397 17.998C5.76397 18.5127 5.33616 18.9094 4.79259 18.9047C4.24902 18.9047 3.81114 18.4938 3.81114 17.9791C3.81114 17.7241 3.91684 17.4974 4.093 17.3321Z" fill="#FFD278"/>
<path d="M55.0552 25.5817C54.8689 25.7139 54.7935 25.9406 54.8639 26.1483C54.9344 26.3561 55.1407 26.4978 55.3723 26.5025C55.3823 26.5025 55.3521 26.5025 56.5097 26.6064C57.7579 26.7197 58.3719 26.512 60.6469 26.7197C60.7928 26.7339 60.9388 26.6914 61.0495 26.6064C61.1603 26.5214 61.2357 26.3939 61.2458 26.257C61.2609 26.12 61.2156 25.9878 61.125 25.8792C61.0344 25.7753 60.8985 25.7092 60.7526 25.695C58.3871 25.4778 57.6875 25.6808 56.6154 25.5817C55.4528 25.4731 55.4226 25.4731 55.4075 25.4731C55.2766 25.4683 55.1508 25.5061 55.0501 25.5769L55.0552 25.5817Z" fill="#FFD278"/>
<path d="M52.7458 24.3875C52.2022 24.7322 51.8398 25.3131 51.8398 25.9742C51.8398 27.0273 52.7609 27.8962 53.8833 27.9009C55.0056 27.9056 55.9317 27.0462 55.9317 25.9931C55.9317 24.94 55.0157 24.0711 53.8883 24.0664C53.4655 24.0664 53.0729 24.1845 52.7458 24.3875ZM53.1887 25.3273C53.3649 25.162 53.6064 25.0628 53.8782 25.0675C54.4218 25.0675 54.8597 25.4784 54.8597 25.9931C54.8597 26.5031 54.4319 26.9045 53.8883 26.8998C53.3447 26.8998 52.9068 26.4889 52.9068 25.9742C52.9068 25.7192 53.0125 25.4925 53.1887 25.3273Z" fill="#FFD278"/>
<path d="M39.2485 20.5242C39.0623 20.6564 38.9868 20.8831 39.0573 21.0909C39.1277 21.2987 39.3341 21.4403 39.5656 21.4451C39.5757 21.4451 39.5455 21.4451 40.7031 21.5489C41.9513 21.6623 42.5653 21.4545 44.8402 21.6623C44.9862 21.6764 45.1271 21.6339 45.2429 21.5489C45.3536 21.4639 45.4241 21.3364 45.4392 21.2042C45.4543 21.0673 45.409 20.9351 45.3184 20.8264C45.2278 20.7225 45.0919 20.6564 44.951 20.6423C42.5854 20.425 41.8859 20.6281 40.8138 20.5289C39.6512 20.4203 39.621 20.4203 39.6059 20.4203C39.475 20.4156 39.3492 20.4534 39.2485 20.5242Z" fill="#FFD278"/>
<path d="M36.9372 19.3299C36.3936 19.6746 36.0312 20.2555 36.0312 20.9166C36.0312 21.9697 36.9523 22.8386 38.0747 22.8433C39.197 22.848 40.1231 21.9886 40.1231 20.9355C40.1231 19.8824 39.2071 19.0135 38.0797 19.0088C37.6569 19.0088 37.2643 19.1268 36.9372 19.3299ZM37.3801 20.2696C37.5563 20.1044 37.7978 20.0099 38.0696 20.0099C38.6132 20.0099 39.0511 20.4208 39.0511 20.9355C39.0511 21.4502 38.6233 21.8469 38.0797 21.8422C37.5361 21.8422 37.0983 21.4313 37.0983 20.9166C37.0983 20.4019 37.2039 20.4349 37.3801 20.2696Z" fill="#FFD278"/>
<path d="M37.9706 33.799C38.0008 34.0162 38.1719 34.1909 38.3984 34.2381C38.6249 34.2854 38.8564 34.1909 38.9822 34.002C38.9873 33.9926 38.9722 34.0162 39.6516 33.1284C40.3814 32.1698 40.4921 31.57 41.8259 29.8228C41.9115 29.7142 41.9467 29.5725 41.9215 29.4403C41.8964 29.3033 41.8209 29.1853 41.7001 29.105C41.5793 29.0247 41.4333 28.9917 41.2924 29.0153C41.1515 29.0389 41.0206 29.1144 40.9351 29.2231C39.551 31.0364 39.3899 31.707 38.7608 32.5287C38.0813 33.4165 38.0612 33.4448 38.0562 33.4542C37.9857 33.5581 37.9555 33.6762 37.9706 33.799Z" fill="#FFD278"/>
<path d="M35.7093 35.0787C35.7546 35.6926 36.112 36.2782 36.721 36.6088C37.6924 37.1377 38.9557 36.8213 39.5194 35.9146C40.0881 35.0032 39.7559 33.8226 38.7795 33.2937C37.8081 32.7648 36.5499 33.0812 35.9811 33.9879C35.7697 34.3279 35.6842 34.7104 35.7093 35.0787ZM36.7965 35.1874C36.7361 34.9654 36.7663 34.7151 36.9022 34.4932C37.179 34.0493 37.7729 33.9029 38.246 34.1579C38.7191 34.4129 38.8701 34.9607 38.5933 35.3999C38.3165 35.8438 37.7226 35.9902 37.2495 35.7351C37.0129 35.6076 36.8569 35.4046 36.7965 35.1826V35.1874Z" fill="#FFD278"/>
<path d="M52.2427 34.6158C52.0565 34.7481 51.981 34.9747 52.0514 35.1825C52.1219 35.3903 52.3282 35.532 52.5598 35.5367C52.5698 35.5367 52.5396 35.5367 53.6972 35.6406C54.9454 35.7539 55.5595 35.5461 57.8344 35.7539C57.9804 35.7681 58.1263 35.7256 58.237 35.6406C58.3478 35.5556 58.4233 35.4281 58.4333 35.2911C58.4484 35.1542 58.4031 35.0172 58.3125 34.9133C58.2219 34.8095 58.086 34.7433 57.9401 34.7292C55.5746 34.512 54.875 34.715 53.8029 34.6158C52.6403 34.5072 52.6101 34.5072 52.595 34.5072C52.4641 34.5025 52.3383 34.5403 52.2376 34.6111L52.2427 34.6158Z" fill="#FFD278"/>
<path d="M49.9333 33.4207C49.3897 33.7655 49.0273 34.3463 49.0273 35.0074C49.0273 36.0605 49.9484 36.9294 51.0708 36.9341C52.1931 36.9388 53.1192 36.0794 53.1192 35.0263C53.1192 33.9732 52.1982 33.1043 51.0758 33.0996C50.653 33.0996 50.2604 33.2177 49.9333 33.4207ZM50.3762 34.3605C50.5523 34.1952 50.7939 34.096 51.0657 34.1007C51.6093 34.1007 52.0472 34.5116 52.0421 35.0263C52.0421 35.5363 51.6143 35.9377 51.0708 35.933C50.5221 35.933 50.0893 35.5221 50.0893 35.0074C50.0893 34.7524 50.195 34.5257 50.3712 34.3605H50.3762Z" fill="#FFD278"/>
<path d="M36.2588 9.17165C36.1179 8.99692 35.8763 8.92608 35.6548 8.9922C35.4334 9.05831 35.2824 9.25193 35.2773 9.46915C35.2773 9.4786 35.2773 9.45026 35.1666 10.5364C35.0458 11.7075 35.2673 12.2836 35.0458 14.4181C35.0307 14.5551 35.076 14.692 35.1666 14.7959C35.2572 14.8998 35.3931 14.9706 35.5391 14.9801C35.685 14.9942 35.831 14.9517 35.9417 14.8667C36.0524 14.7817 36.1229 14.6542 36.138 14.5173C36.3695 12.2978 36.1531 11.6414 36.2588 10.6356C36.3746 9.54471 36.3745 9.51637 36.3745 9.50221C36.3796 9.37943 36.3444 9.26137 36.2638 9.16692L36.2588 9.17165Z" fill="#FFD278"/>
<path d="M37.5317 7.00431C37.1643 6.4943 36.5452 6.1543 35.8406 6.1543C34.7182 6.1543 33.7922 7.01848 33.7871 8.07155C33.7821 9.12462 34.6981 9.99352 35.8205 9.99352C36.9428 9.99352 37.8689 9.12934 37.874 8.07627C37.874 7.6796 37.7481 7.31126 37.5317 7.00431ZM36.5301 7.41987C36.7013 7.58515 36.807 7.81182 36.807 8.06682C36.807 8.57683 36.3691 8.98767 35.8205 8.98767C35.2719 8.98767 34.8491 8.58628 34.8541 8.07627C34.8541 7.56627 35.292 7.15542 35.8406 7.15542C36.1124 7.15542 36.354 7.25459 36.5301 7.41987Z" fill="#FFD278"/>
<path d="M76.0939 56.82C76.1241 56.6028 76.0083 56.395 75.802 56.2958C75.5956 56.1966 75.344 56.2297 75.1779 56.3808C75.1678 56.3903 75.193 56.3667 74.2921 57.0608C73.3207 57.807 73.0489 58.3642 71.2773 59.7242C71.1665 59.8092 71.0961 59.9367 71.081 60.0689C71.0659 60.2059 71.1112 60.3381 71.2018 60.4467C71.2924 60.5506 71.4283 60.6167 71.5692 60.6309C71.7151 60.645 71.8561 60.6025 71.9718 60.5175C73.8089 59.1009 74.1511 58.4964 74.9866 57.8542C75.8875 57.16 75.9127 57.1364 75.9228 57.1317C76.0184 57.0514 76.0788 56.938 76.0989 56.82H76.0939Z" fill="#FFD278"/>
<path d="M78.633 56.135C78.7588 55.5305 78.5777 54.8789 78.0794 54.4114C77.2842 53.6652 75.9806 53.6652 75.1854 54.4019C74.3851 55.1433 74.3801 56.3664 75.1753 57.1125C75.9705 57.8586 77.2741 57.8586 78.0693 57.122C78.3713 56.8433 78.5575 56.4986 78.633 56.135ZM77.6113 55.7667C77.6113 55.998 77.5106 56.2294 77.3194 56.4089C76.9318 56.7678 76.3178 56.7678 75.9303 56.4089C75.5427 56.05 75.5478 55.4833 75.9353 55.1244C76.3228 54.7655 76.9369 54.7655 77.3244 55.1244C77.5157 55.3039 77.6113 55.5353 77.6113 55.7667Z" fill="#FFD278"/>
</svg>
