<svg width="101" height="42" viewBox="0 0 101 42" fill="none" xmlns="http://www.w3.org/2000/svg">
<path d="M68.9248 8.7832C73.8061 8.7832 78.4085 13.1743 78.4365 21.2344C78.4365 30.045 73.8904 34.0478 68.8975 34.0479C66.4428 34.0479 64.9641 33.0195 63.96 32.2969L63.9326 40.1621L56.959 41.6357V9.22754H63.0957L63.458 10.9512C64.4342 10.0618 66.1915 8.78334 68.9248 8.7832ZM9.42773 8.78418C11.7429 8.78418 14.0305 9.14531 16.3457 10.0625V16.5947C14.2258 15.4552 11.5476 14.8154 9.42773 14.8154C7.9494 14.8154 7.05668 15.2325 7.05664 16.3164C7.05664 19.4293 17.684 17.9567 17.7119 26.2393C17.7117 31.214 13.7234 34.077 7.92188 34.0771C5.52303 34.0771 2.90074 33.6039 0.306641 32.4922V25.8779C2.64966 27.1564 5.60679 28.1016 7.92188 28.1016C9.48369 28.1015 10.5996 27.6837 10.5996 26.4053C10.5988 23.0983 0.000362209 24.3208 0 16.6504C0 11.7309 3.76532 8.78418 9.42773 8.78418ZM25.8828 9.25684H31.1826V15.1768H25.8828V25.0439C25.8832 29.1563 30.2893 27.8791 31.1826 27.5176V33.1592C30.2621 33.6594 28.5888 34.0761 26.3018 34.0762C22.1735 34.0762 19.0772 31.047 19.0771 26.9336L19.1045 4.6709L25.9111 3.22559L25.8828 9.25684ZM90.3477 8.78418C96.958 8.78442 100.417 14.3988 100.417 21.5137C100.417 22.1805 100.361 23.6253 100.361 23.9873H86.7207C87.0275 27.267 89.4271 28.2119 92.1328 28.2119C94.8941 28.2119 97.0701 27.6285 98.9668 26.6836V32.2422C97.0701 33.2983 94.5594 34.0488 91.2402 34.0488C84.4342 34.0488 79.6924 29.824 79.6924 21.458C79.6926 14.3986 83.7091 8.78418 90.3477 8.78418ZM39.8574 11.3135C41.503 8.31201 44.7662 8.92329 45.6592 9.25684V15.6494C44.7942 15.3437 42.0049 14.9548 40.3594 17.0947V33.5762H33.3867V9.25684H39.4111L39.8574 11.3135ZM54.3643 33.5742H47.3633V9.25391H54.3643V33.5742ZM67.249 14.9541C65.6594 14.9542 64.6549 15.5105 63.9297 16.3164L63.958 26.6279C64.6274 27.3504 65.6038 27.9335 67.249 27.9336C69.8152 27.9336 71.5449 25.1541 71.5449 21.4297C71.5448 17.7888 69.7873 14.9541 67.249 14.9541ZM90.3213 14.4248C88.5641 14.425 86.6397 15.7318 86.6396 18.8721H93.8359C93.8359 15.7315 92.0228 14.4248 90.3213 14.4248ZM54.3643 5.64258L47.3633 7.14355V1.47363L54.3643 0V5.64258Z" fill="#FAFAFC"/>
</svg>
