<svg width="84" height="35" viewBox="0 0 84 35" fill="none" xmlns="http://www.w3.org/2000/svg">
<path d="M57.5967 7.33887C61.6756 7.33892 65.5215 11.0082 65.5449 17.7432C65.5449 25.1055 61.7455 28.4502 57.5732 28.4502C55.5221 28.4502 54.2864 27.5912 53.4473 26.9873L53.4238 33.5596L47.5967 34.791V7.70996H52.7246L53.0283 9.15039C53.8441 8.40719 55.3125 7.33887 57.5967 7.33887ZM7.87891 7.33984C9.81342 7.33988 11.7247 7.64182 13.6592 8.4082V13.8662C11.8878 12.914 9.65032 12.38 7.87891 12.3799C6.6436 12.3799 5.89753 12.7281 5.89746 13.6338C5.89746 16.2349 14.778 15.0043 14.8018 21.9248C14.8018 26.082 11.4682 28.4745 6.62012 28.4746C4.61568 28.4746 2.42443 28.0803 0.256836 27.1514V21.623C2.21477 22.6914 4.68551 23.4814 6.62012 23.4814C7.92529 23.4814 8.85742 23.1327 8.85742 22.0645C8.85705 19.301 0.00042484 20.3226 0 13.9131C0 9.80225 3.14722 7.33984 7.87891 7.33984ZM21.6289 7.73438H26.0576V12.6816H21.6289V20.9268C21.6292 24.3634 25.3115 23.2951 26.0576 22.9932V27.708C25.2884 28.126 23.8897 28.4746 21.9785 28.4746C18.529 28.4745 15.9415 25.943 15.9414 22.5059L15.9648 3.90234L21.6523 2.69434L21.6289 7.73438ZM75.4971 7.33984C81.0211 7.33984 83.912 12.0312 83.9121 17.9766C83.9121 18.5339 83.8652 19.7419 83.8652 20.0439H72.4678C72.7242 22.7845 74.7283 23.5742 76.9893 23.5742C79.2968 23.5742 81.1152 23.0865 82.7002 22.2969V26.9414C81.1152 27.824 79.0169 28.4512 76.2432 28.4512C70.556 28.4511 66.5938 24.9212 66.5938 17.9307C66.5938 12.0317 69.9498 7.34009 75.4971 7.33984ZM33.3066 9.45312C34.6819 6.9449 37.4094 7.45568 38.1553 7.73438V13.0762C37.4327 12.8207 35.1018 12.4959 33.7266 14.2842V28.0566H27.8994V7.73438H32.9336L33.3066 9.45312ZM45.4297 28.0547H39.5791V7.73242H45.4297V28.0547ZM56.1963 12.4951C54.8677 12.4951 54.0289 12.9603 53.4229 13.6338L53.4463 22.25C54.0057 22.8537 54.8212 23.3418 56.1963 23.3418C58.3406 23.3418 59.786 21.0192 59.7861 17.9072C59.7861 14.8648 58.3174 12.4951 56.1963 12.4951ZM75.4766 12.0537C74.0081 12.0537 72.3994 13.1452 72.3994 15.7695H78.4131C78.4131 13.1454 76.8983 12.0539 75.4766 12.0537ZM45.4297 4.71387L39.5791 5.96875V1.23047L45.4297 0V4.71387Z" fill="#D4B588"/>
</svg>
