<svg width="53" height="17" viewBox="0 0 53 17" fill="none" xmlns="http://www.w3.org/2000/svg">
<path fill-rule="evenodd" clip-rule="evenodd" d="M13.1256 16.4863H8.58201L5.1749 3.59629C5.01319 3.00335 4.66982 2.47916 4.16473 2.2321C2.90424 1.61124 1.51525 1.11712 -4.08718e-07 0.867913V0.371649H7.3193C8.32946 0.371649 9.08709 1.11712 9.21336 1.9829L10.9812 11.2809L15.5225 0.371649H19.9398L13.1256 16.4863ZM22.4652 16.4863H18.1742L21.7076 0.371649H25.9986L22.4652 16.4863ZM31.5501 4.83589C31.6763 3.96797 32.434 3.4717 33.3179 3.4717C34.7068 3.3471 36.2199 3.59631 37.4826 4.21502L38.2402 0.745471C36.9775 0.249206 35.5885 0 34.328 0C30.1633 0 27.1328 2.23212 27.1328 5.33001C27.1328 7.68673 29.2794 8.92416 30.7947 9.66963C32.434 10.413 33.0653 10.9092 32.939 11.6525C32.939 12.7675 31.6763 13.2638 30.4158 13.2638C28.9006 13.2638 27.3853 12.8921 25.9986 12.2713L25.2409 15.743C26.7562 16.3617 28.3955 16.6109 29.9108 16.6109C34.5806 16.7333 37.4826 14.5034 37.4826 11.1563C37.4826 6.94126 31.5501 6.6942 31.5501 4.83589V4.83589ZM52.5 16.4863L49.0929 0.371649H45.4332C44.6756 0.371649 43.918 0.867913 43.6655 1.61124L37.3563 16.4863H41.7736L42.6553 14.1317H48.0827L48.5878 16.4863H52.5ZM46.0646 4.7113L47.3251 10.7846H43.7917L46.0646 4.7113Z" fill="white"/>
</svg>
